<svg width="232" height="371" viewBox="0 0 232 371" fill="none" xmlns="http://www.w3.org/2000/svg">
<path d="M174.957 258.846C174.719 255.212 175.421 251.248 177.772 248.677C180.109 246.092 184.096 244.9 188.215 244.412C192.335 243.924 196.568 244.178 199.091 246.306C201.598 248.445 202.373 252.494 203.275 256.285C204.161 260.087 205.184 263.645 204.336 266.89C203.474 270.119 200.725 273.047 197.268 274.904C193.805 276.79 189.634 277.605 186.226 276.471C182.805 275.322 180.147 272.226 178.25 269.024C176.341 265.806 175.195 262.479 174.957 258.846Z" fill="#9093D1"/>
<path d="M10.756 310.303C10.2803 303.036 11.6854 295.107 16.3852 289.967C21.0613 284.795 29.032 282.412 37.2712 281.436C45.5106 280.46 53.9778 280.969 59.0233 285.224C64.0367 289.501 65.5874 297.601 67.391 305.182C69.1623 312.786 71.2103 319.902 69.5128 326.393C67.7912 332.851 62.292 338.706 55.3762 342.422C48.4517 346.192 40.1107 347.821 33.2933 345.556C26.4521 343.258 21.1343 337.066 17.3412 330.661C13.5242 324.223 11.232 317.57 10.756 310.303Z" fill="#F7859C"/>
<path d="M104.999 400.555C104.522 393.288 105.928 385.359 110.628 380.219C115.304 375.047 123.275 372.664 131.515 371.688C139.753 370.712 148.221 371.221 153.265 375.474C158.279 379.752 159.83 387.852 161.634 395.433C163.404 403.038 165.454 410.154 163.756 416.645C162.034 423.102 156.534 428.958 149.618 432.673C142.694 436.442 134.354 438.072 127.536 435.807C120.694 433.51 115.376 427.318 111.584 420.911C107.767 414.473 105.474 407.822 104.999 400.555Z" fill="#F7859C"/>
<path d="M58.8786 200.441C58.1534 189.092 60.3705 176.705 67.7314 168.665C75.055 160.577 87.5227 156.835 100.407 155.291C113.29 153.747 126.526 154.521 134.404 161.154C142.23 167.822 144.634 180.47 147.435 192.305C150.184 204.177 153.368 215.287 150.697 225.427C147.989 235.518 139.377 244.677 128.555 250.496C117.72 256.4 104.676 258.966 94.0227 255.444C83.333 251.873 75.0353 242.215 69.1216 232.219C63.1706 222.173 59.6039 211.79 58.8786 200.441Z" fill="#9FD8E5"/>
<path d="M100.959 310.304C100.482 303.037 101.888 295.108 106.588 289.968C111.263 284.796 119.235 282.413 127.474 281.437C135.712 280.461 144.181 280.97 149.225 285.223C154.239 289.502 155.79 297.602 157.594 305.183C159.364 312.787 161.413 319.903 159.716 326.394C157.994 332.851 152.494 338.707 145.578 342.422C138.654 346.191 130.314 347.821 123.496 345.556C116.654 343.259 111.336 337.067 107.544 330.66C103.727 324.224 101.434 317.571 100.959 310.304Z" fill="#FFDBB4"/>
<path fill-rule="evenodd" clip-rule="evenodd" d="M4.92436 187.964C6.1606 187.609 7.7051 187.517 9.05759 187.452C13.838 187.171 18.7124 189.452 23.3996 190.48C25.4514 190.988 27.624 191.586 29.8196 192.031C31.7689 192.296 33.7841 192.495 35.8102 192.621C37.4478 192.67 39.3535 192.545 39.9126 194.268C43.2044 194.907 46.1182 195.172 49.2561 194.629C48.9622 193.629 48.7948 192.583 49.0987 191.505C48.9453 191.249 48.7366 190.904 48.625 190.671H49.0022C54.5098 188.464 60.4656 186.957 66.0022 184.671C73.2286 182.064 83.8715 177.027 92.2213 173.588C91.6553 170.485 91.4455 167.332 91.6856 164.268L91.35 163.996C91.2398 163.394 91.0685 162.673 90.7581 162.127C90.3642 161.081 90.355 159.653 90.1986 158.471C89.8724 156.159 89.6546 152.676 90.2483 149.931C90.5075 146.207 93.0153 143.337 95.7193 141.034C99.0393 137.748 102.363 134.541 105.605 131.128C123.542 112.825 124.961 89.7715 153.042 82.7652L153.055 82.6564C153.277 82.4093 153.367 82.2133 153.619 82.6038C154.546 82.2482 155.702 82.2779 156.479 81.6767C157.857 80.4182 158.835 78.9654 159.475 77.2413C159.967 73.9822 159.619 68.9591 162.471 66.8737C165.64 64.974 182.474 63.6215 183.926 67.7749C184.827 68.6216 185.237 69.6974 185.518 71.0144C186.456 72.7903 187.048 74.7595 187.993 76.5626C190.002 80.6069 191.304 79.7106 194.851 80.6348C195.236 79.776 196.404 79.9491 197.256 80.0738C207.57 81.5246 220.145 85.4839 224.561 95.1873L224.185 95.1392C231.808 109.474 226.865 127.704 225.501 142.895C224.398 156.398 225.66 169.965 228.657 182.56C232.335 195.922 232.546 210.868 225.248 222.962C224.506 224.347 223.603 226.303 222.004 225.435C221.129 226.098 220.145 226.555 218.786 226.954C218.411 227.226 218.023 227.683 217.631 227.878C217.613 227.905 216.981 227.54 216.948 227.53C215.755 229.235 150.237 234.931 143.438 235.815C137.448 236.538 129.533 238.384 124.651 234.059C120.617 232.906 116.396 229.902 113.172 226.92C111.216 255.318 110.134 313.475 108.388 313.88C107.624 314.14 106.593 314.45 105.729 314.698C105.723 316.738 105.572 319.056 105.732 321.062C106 323.327 106.679 326.002 106.986 328.383C108.307 328.295 108.695 329.621 108.849 330.521C109.989 337.961 109.955 343.959 109.873 352.136C96.4688 360.039 80.7588 364.385 65.6758 369.493C64.2312 370.579 61.1007 369.404 59.4326 369.11C53.6412 367.969 47.0606 364.593 48.5225 358.403C49.5928 353.743 54.0868 351.061 57.8698 348.319C62.0086 345.318 66.3716 342.319 70.1779 338.745C73.2314 335.866 75.5119 333.632 78.0585 330.383C79.188 328.872 80.3925 326.389 81.9119 325.276C80.3067 323.37 83.55 325.156 84.7779 325.266C85.5003 321.863 86.3947 318.595 87.4672 315.331L86.4246 315.378C83.0018 312.178 81.0829 296.818 80.8446 292.261C79.1288 262.555 79.1696 228.317 86.0525 203.299C80.8243 206.522 75.0912 209.213 69.8919 212.4C66.6133 214.323 63.2868 216.992 59.6117 217.924C59.3723 218.612 58.496 218.88 58.0178 218.206C57.36 218.287 56.5125 218.014 56.44 217.714C55.7673 216.337 54.7925 214.853 54.9098 213.357C54.9099 213.357 55.8125 211.261 55.8125 211.261C53.7903 212.084 51.5916 213.815 49.4329 213.974C45.0727 228.547 36.4819 220.383 28.2152 214.712C23.2263 211.222 17.769 207.369 12.5186 203.649C8.06406 200.102 -0.632616 196.736 3.63059 189.711" fill="#FFDBB4"/>
<path d="M196.077 80.936C195.689 81.0167 195.436 81.4257 195.226 81.8487L195.184 81.9363L195.095 82.1221C193.016 88.4119 186.418 91.9211 180.47 94.2559L180.106 94.3974L179.738 94.5388C170.02 98.8576 153.894 96.844 152.389 84.2246C129.618 90.2819 123.449 115.926 108.949 131.543C105.551 135.359 101.98 139.014 98.5019 142.755C97.4049 143.832 96.4017 145.451 94.8686 145.832C93.9494 147.277 93.2904 148.913 93.1773 150.622C98.1012 148.419 103.659 149.466 108.871 151.134C110.392 151.621 126.032 159.359 135.141 157.52C135.606 157.426 134.727 175.863 135.636 176.111C143.517 178.261 167.571 180.401 172.392 179.125C188.841 174.771 213.813 235.012 222.99 224.145C225.301 221.408 231.243 210.455 231.158 198.471C231.064 185.414 224.823 170.865 224.68 157.52C224.463 137.381 227.206 125.433 227.323 123.847C229.321 109.091 226.925 89.6177 210.308 84.8154C205.812 82.7532 200.968 81.4186 196.077 80.936ZM93.9913 153.553C92.6906 154.481 92.4162 155.916 92.5666 157.52C92.6261 158.143 92.7038 158.766 92.7831 159.388C94.4172 157.689 96.8415 157.086 99.1694 156.901C99.0796 156.741 98.9803 156.523 98.9859 156.319C97.2175 155.59 95.5482 154.666 93.9913 153.553Z" fill="#E86BBB"/>
<path fill-rule="evenodd" clip-rule="evenodd" d="M81.7209 325.819L81.501 326.128C73.4793 337.394 64.6041 345.875 55.1858 350.218L54.8692 350.363L54.8399 350.38C52.1544 351.95 49.9257 354.44 49.0514 356.996C48.0282 359.988 48.8938 362.809 51.7999 364.872L51.8886 364.934L51.9034 364.944C55.5613 367.337 59.8782 368.825 64.1186 369.122L64.2756 369.133L64.4812 369.146L64.6566 369.037C65.7815 368.342 66.8631 367.943 69.1744 367.279L70.1481 367L70.5501 366.883L70.7498 366.823C71.5931 366.57 72.1586 366.377 72.751 366.137L72.9389 366.059L73.5683 365.847C84.878 362.013 96.0503 357.619 107.045 352.689L107.691 352.398L108.682 351.95L108.705 351.559C109.208 342.991 109.187 336.152 108.471 329.709L108.447 329.499L107.158 329.621C107.346 332.133 104.835 334.259 102.463 333.457L102.391 333.432L102.358 333.421L102.259 333.39C101.591 333.175 101.035 332.862 100.047 332.189L99.3153 331.687L99.1292 331.562L98.9943 331.473C98.9288 331.43 98.8656 331.39 98.8012 331.349L98.7108 331.292C94.6492 328.747 90.2773 327.032 85.8378 326.303C85.4714 326.236 85.0931 326.178 84.6796 326.126L84.2223 326.072L83.752 326.023L82.2929 325.88L81.7209 325.819ZM6.7503 187.648L6.4596 187.96C5.49745 188.991 4.76763 190.001 4.30591 191.043C3.72988 192.344 3.60807 193.631 4.03738 194.877L4.07178 194.973L4.07977 194.991C4.80211 196.651 6.49526 198.118 9.73645 200.258L10.2289 200.58C10.7483 200.917 12.1496 201.823 12.5731 202.104L12.7596 202.228C13.5217 202.738 14.095 203.151 14.5533 203.526L14.6289 203.588L15.7123 204.342L17.9417 205.896L19.5957 207.05L20.7339 207.845C25.0836 210.885 29.2824 213.836 33.3842 216.736L33.5926 216.878L33.7566 216.991L33.992 217.156L34.3243 217.391L35.4279 218.182L35.6484 218.338L35.866 218.491L36.086 218.644L36.3088 218.797L36.5278 218.945C38.771 220.449 40.424 221.193 42.1847 221.296C43.4379 221.369 44.6192 221.06 45.7179 220.329L45.7962 220.276L45.8304 220.253L45.9485 220.146L46.0472 220.056L46.144 219.965L46.2392 219.874C46.7437 219.387 47.2023 218.858 47.9226 217.966L48.529 217.21L48.7713 216.911L48.95 216.693L49.0778 216.54C49.4718 216.069 49.7715 215.742 50.1098 215.412L50.2218 215.304L50.9872 214.574L49.9898 214.223C45.9671 212.807 42.6782 208.305 41.3268 203.152L41.279 202.967L41.269 202.938C41.0248 202.25 40.9367 201.546 40.9128 200.395L40.9011 199.517L40.8955 199.228L40.8903 199.033L40.8839 198.842C40.8324 197.464 40.6805 196.68 40.2454 195.811L40.1902 195.703L40.1719 195.668L40.1496 195.636C40.1224 195.596 40.1194 195.59 40.1306 195.57L40.3597 195.181L40.0881 194.833C39.9678 194.679 39.8356 194.527 39.6813 194.364L39.6138 194.294L39.4632 194.138L39.2492 194.104C32.5192 193.039 25.6113 191.468 17.3802 189.223L16.5517 188.996L16.1392 188.885L15.8606 188.811L15.5849 188.738C12.8627 188.03 11.2 187.757 9.2987 187.781L9.13735 187.784C8.96121 187.787 8.81167 187.797 8.55702 187.82L8.29384 187.844L8.17275 187.854L8.05645 187.863C7.62858 187.892 7.40098 187.876 7.17827 187.801L7.15132 187.792L6.7503 187.648Z" fill="white"/>
<path fill-rule="evenodd" clip-rule="evenodd" d="M192.317 79.7445C188.106 78.7201 187.387 68.6145 184.844 70.0536C183.374 71.3332 185.778 73.7473 186.204 75.1916L186.391 75.5584C187.253 77.2406 188.229 78.9172 189.929 79.8871C191.022 81.0389 194.288 79.908 193.808 81.7424C192.131 87.2709 183.23 91.099 177.983 92.8204C169.829 95.8866 156.638 94.8491 154.723 84.5711C159.195 83.7514 162.502 75.6726 159.745 72.309C159.651 75.5764 158.76 78.9483 156.198 81.1619L156.056 81.2918C155.606 81.7036 155.022 82.1953 154.44 82.1038C153.872 81.3127 152.771 81.7627 152.447 82.5976C126.981 87.0045 121.308 114.5 105.271 130.684C102.068 134.06 98.7192 137.292 95.4135 140.566C92.0374 143.248 89.6483 146.986 89.4818 151.376C89.1801 153.817 89.3295 156.26 89.6523 158.706L89.6747 158.927C89.8243 160.442 89.9132 162.07 90.6337 163.415C90.758 163.871 90.7077 164.447 91.1017 164.769C90.9296 167.559 91.0934 170.399 91.5648 173.18L90.3361 173.729C76.8161 179.757 63.14 185.439 49.0425 189.958C47.8377 189.739 47.9359 191.141 48.5192 191.779C48.3654 192.529 48.3487 193.308 48.5293 194.05C45.9478 194.421 43.3256 194.112 40.7774 193.641C39.9713 191.864 37.8295 191.959 36.1734 191.909C34.116 191.78 32.0623 191.579 30.0198 191.293C24.9872 190.168 20.0452 188.687 15.061 187.386C11.7258 186.446 8.12902 186.491 4.78321 187.356C4.21481 187.993 3.6899 188.674 3.24689 189.397C0.18844 194.145 3.20207 198.495 7.47135 200.988C14.3208 205.849 21.1721 210.703 28.0521 215.518L28.552 215.875C36.7376 221.74 45.9464 229.164 50.318 214.889C51.7873 214.717 53.0749 213.729 54.4439 213.147C54.0756 214.86 55.1752 216.59 55.9334 218.059C56.2599 218.895 57.1522 219.171 57.9762 219.163C58.6817 219.856 60.0057 219.583 60.4671 218.762C64.2091 217.689 67.3007 215.186 70.6129 213.241C75.3224 210.377 80.2627 207.936 85.04 205.194C77.1038 238.087 79.0448 272.349 81.1567 305.831L81.1717 306.133C81.4334 311.021 82.5532 313.334 86.6034 316.33C85.8979 318.485 85.2667 320.648 84.7854 322.864C84.6154 323.378 83.8332 322.894 83.8268 323.6C82.388 323.263 79.4636 323.624 80.4839 325.616C77.5949 328.043 75.639 331.331 73.1066 334.098C68.6466 339.449 62.8166 343.432 57.1002 347.357C43.9594 354.06 43.2063 365.675 58.5811 369.643L58.7352 369.68C60.8524 370.19 63.4023 371.356 65.4548 370.374C68.5251 369.782 71.5722 368.584 74.5761 367.672C86.6716 363.665 98.5019 358.973 109.965 353.582C110.38 353.386 110.615 352.938 110.626 352.49C110.498 348.791 111.502 328.518 107.67 328.081C106.814 323.939 106.68 319.664 106.835 315.437C108.078 315.045 109.335 314.668 110.623 314.423C111.873 314.029 113.828 313.94 114.665 312.927C114.966 312.818 115.186 312.548 115.141 312.123C114.464 305.77 113.951 299.401 113.577 293.023C112.294 271.634 112.73 250.177 114.19 228.811C117.2 231.417 120.63 233.698 124.448 234.912C126.555 237.025 129.935 237.479 132.812 237.735C136.511 237.964 140.146 237.224 143.797 236.764C149.996 235.983 156.153 236.675 162.308 237.441L164.411 237.703C179.479 239.358 195.763 239.7 209.807 233.253C212.451 233.488 215.734 230.628 217.383 228.716C218.112 229.166 218.827 228.287 219.408 227.824C220.366 227.533 221.452 227.114 222.321 226.504C224.527 227.226 225.716 224.36 226.554 222.802C239.85 200.01 225.043 177.323 226.157 153.155C225.482 134.206 234.116 114.466 225.772 96.2926C224.083 88.6022 214.21 83.2873 206.779 81.3328C204.384 80.937 195.318 77.6558 194.32 80.415C193.847 79.7939 193.041 79.7474 192.317 79.7445ZM82.0285 326.504C83.2745 326.638 84.4895 326.715 85.7209 326.941C90.2162 327.679 94.5041 329.421 98.3671 331.842C99.618 332.623 100.735 333.607 102.17 334.042C105.12 335.114 108.02 332.452 107.804 329.573C108.626 336.807 108.485 344.25 108.058 351.521C96.5188 356.746 84.7209 361.406 72.7087 365.453C70.0036 366.588 66.8006 366.951 64.3164 368.486C60.0801 368.218 55.8159 366.729 52.2579 364.401C46.3559 360.302 50.2741 353.8 55.1666 350.94C65.9369 346.075 75.1045 336.229 82.0285 326.504ZM105.626 315.806C105.851 317.95 104.223 321.291 104.453 325.565C104.63 326.899 105.045 328.298 104.901 329.637C104.238 334.607 98.8622 328.291 96.6406 327.599C93.4868 325.863 90.0596 324.681 86.5373 324.034C86.5587 322.888 87.3168 322.431 87.4163 321.298C87.5592 319.63 87.552 318.027 87.6272 316.342C92.2084 318.427 100.766 316.953 105.626 315.806ZM80.9423 326.18C81.0221 326.233 81.1064 326.279 81.193 326.319C80.5563 327.091 80.0048 327.947 79.2496 328.611L79.5711 328.112C80.0012 327.445 80.4411 326.781 80.9423 326.18ZM223.226 148.366C223.457 149.305 223.877 150.188 224.507 150.939C221.255 177.334 237.987 199.338 222.603 223.88C222.409 223.971 222.231 224.083 222.061 224.224C221.97 224.164 221.88 224.101 221.791 224.037C214.58 211.265 204.316 200.248 196.138 188.026C194.568 184.958 191.984 181.87 190.994 178.325C207.43 171.829 213.995 162.351 223.226 148.366ZM6.933 188.402C7.62988 188.652 8.4053 188.446 9.14896 188.432C11.7892 188.376 14.3695 189.066 16.8948 189.763C24.2396 191.773 31.6231 193.554 39.148 194.744C39.3001 194.902 39.4454 195.063 39.5775 195.232C39.4471 195.453 39.4271 195.729 39.6163 196.004C40.7515 198.175 39.8338 200.832 40.6585 203.156C41.8534 207.86 45.0318 213.165 49.7749 214.835C48.1928 216.343 47.0594 218.285 45.4299 219.742C41.4251 222.489 37.0146 218.394 33.7451 216.198C27.5204 211.796 21.2793 207.425 15.0211 203.072C12.2174 200.746 6.01519 197.814 4.67359 194.733C3.81411 192.37 5.37849 190.068 6.933 188.402ZM49.8316 194.4C52.511 199.87 54.0578 205.685 55.6051 211.558C53.9957 212.001 52.5133 212.695 50.9313 213.162C48.7033 213.664 45.5576 209.354 44.4404 207.643C43.2888 205.729 42.4824 203.627 42.1084 201.424C41.7928 199.267 42.129 197.027 41.1916 195.029C44.0943 195.325 47.0388 195.388 49.8316 194.4ZM209.122 183.114C206.606 182.408 212.33 188.106 212.659 188.714C216.381 193.113 219.791 197.758 223.175 202.418L224.201 203.833C224.299 203.976 224.978 204.981 224.487 204.853C224.442 204.842 224.421 204.901 224.457 204.925C227.586 205.479 210.631 183.501 209.122 183.114ZM147.782 180.424C147.578 179.81 148.544 179.548 148.748 180.158L149.389 182.092C151.81 189.397 154.215 196.713 157.108 203.848C157.35 204.446 156.383 204.707 156.142 204.115C152.996 196.351 150.425 188.372 147.782 180.424ZM119.646 177.866C120.528 182.058 122.758 185.836 124.109 189.843C121.571 189.283 119.616 186.915 118.136 184.878L118.092 184.811C117.394 183.735 116.582 182.055 114.997 182.814C112.591 184.213 114.315 189.176 114.36 191.528C114.665 194.752 115.712 197.768 116.426 200.9C114.591 199.645 114.064 197.171 113.17 195.243L109.729 186.98C107.2 183.51 108.374 193.9 108.505 194.88C108.711 197.034 109.617 199.201 109.261 201.37C107.835 199.833 106.936 197.902 106.181 195.943C105.134 193.218 104.178 190.458 103.181 187.715C102.837 186.836 101.53 187.144 101.72 188.112C101.784 191.225 101.835 194.338 101.885 197.451L101.922 199.786C101.929 200.229 102.147 201.522 101.384 201.164C97.3723 196.95 96.3438 188.523 96.8657 182.861C104.751 183.051 112.796 182.027 119.646 177.866ZM49.4785 193.589C49.5109 193.692 49.5482 193.795 49.5854 193.898C49.5627 193.902 49.5385 193.907 49.5158 193.913C49.5012 193.804 49.4883 193.697 49.4785 193.589ZM224.48 193.589C225.355 192.942 210.654 174.048 211.606 179.502C215.708 184.36 220.49 188.617 224.48 193.589ZM94.6499 151.836C108.398 148.603 120.505 160.681 134.312 158.856C134.152 163.182 133.93 167.537 134.018 171.865C115.682 173.379 117.769 181.191 96.6619 180.404C93.9344 178.576 92.8142 167.368 93.0446 163.984C92.8683 159.984 96.3071 158.188 99.7326 157.487C100.97 158.235 103.191 156.003 101.353 155.217C98.934 154.489 96.6706 153.344 94.6499 151.836ZM196.076 80.9358C200.968 81.4184 205.812 82.753 210.307 84.8151C226.925 89.6175 229.321 109.09 227.323 123.847C226.495 135.069 223.298 146.044 216.577 155.169C198.683 182.487 169.046 178.161 140.974 174.548C139.962 173.843 138.247 174.344 137.272 173.413C137.374 173.377 137.466 173.329 137.544 173.269C137.076 172.903 136.713 172.261 136.605 171.578L136.403 171.598C136.205 167.362 136.363 163.208 136.299 159.005C145.523 156.472 155.416 155.178 164.764 152.656C165.827 153.398 167.052 152.544 168.09 152.141C170.781 150.995 173.496 149.906 176.23 148.87L176.915 148.612C178.697 147.943 180.479 147.257 182.245 146.542L182.906 146.273C183.918 145.859 186.472 144.326 187.576 145.283L187.487 145.475C186.832 146.904 184.578 152.193 187.349 151.147C189.6 149.565 190.766 138.534 192.995 138.437C193.762 140.491 194.311 142.622 194.436 144.817C194.481 145.311 195.13 145.728 195.52 145.266C198.163 141.781 194.17 137.985 194.064 134.307C193.812 130.029 195.702 126.027 196.644 121.933L196.702 121.651C197.254 118.995 198.113 115.775 197.885 113.393L197.337 115.46C196.787 117.529 196.223 119.599 195.576 121.639C193.972 126.734 191.074 131.983 192.684 137.435C189.454 137.543 188.908 142.647 187.695 144.978C185.732 142.428 171.918 148.543 168.765 149.524L168.157 148.833C158.285 137.626 151.158 130.042 135.857 138.907C138.5 130.37 138.755 121.303 139.206 112.438C139.052 110.752 140.025 106.303 138.652 105.383C138.414 105.417 138.182 105.489 137.964 105.585L137.964 106.459C137.957 108.152 137.878 110.959 137.169 111.596L136.844 114.948C135.992 123.663 135.026 132.371 132.426 140.769C126.186 144.262 120.492 148.635 115.136 153.353L114.526 153.13C107.907 150.704 99.944 147.595 93.1772 150.622C93.2903 148.913 93.9493 147.277 94.8685 145.831C96.4016 145.451 97.4048 143.832 98.5018 142.755C101.98 139.014 105.551 135.359 108.949 131.543C123.449 115.926 129.618 90.2817 152.389 84.2243C153.894 96.8437 170.02 98.8574 179.737 94.5386L180.106 94.3972C186.147 92.063 192.974 88.54 195.095 82.1219L195.183 81.9361C195.402 81.4834 195.662 81.022 196.076 80.9358ZM192.492 152.749C192.475 152.73 192.44 152.756 192.456 152.777C195.287 156.334 197.591 161.186 194.777 165.435C194.257 166.391 195.472 167.31 196.25 166.581C200.156 162.141 195.823 156.123 192.492 152.749ZM93.9912 153.553C95.5481 154.665 97.2174 155.59 98.9858 156.319C98.9802 156.523 99.0796 156.741 99.1693 156.901C96.8414 157.086 94.4171 157.688 92.783 159.388C92.7037 158.766 92.626 158.143 92.5665 157.519C92.4161 155.916 92.6905 154.48 93.9912 153.553ZM201.047 137.829L201.029 137.743C201.016 137.646 200.869 137.639 200.873 137.743C200.927 139.015 201.851 139.919 202.634 140.825C203.796 142.168 204.957 143.511 206.119 144.853C208.062 147.193 210.924 149.546 210.28 152.936C210.268 154.14 211.775 154.398 212.387 153.513C214.819 148.869 207.163 144.918 204.583 141.923C203.371 140.626 201.461 139.672 201.047 137.829ZM164.597 151.77C164.56 151.827 164.534 151.89 164.521 151.954C164.113 151.998 163.707 152.044 163.301 152.094L164.597 151.77ZM225.489 140.91C225.417 141.395 225.349 141.881 225.284 142.368L225.219 142.855L225.209 142.812C225.176 142.686 225.113 142.576 225.032 142.488L225.004 142.46C225.172 141.946 225.334 141.429 225.489 140.91ZM113.723 135.887C112.748 135.783 117.168 138.965 117.412 139.359C117.768 139.669 118.185 139.118 117.805 138.849C116.431 137.879 115.078 136.883 113.723 135.887ZM122.323 126.527C121.644 126.249 121.183 127.38 121.827 127.696C124.172 128.844 126.651 129.657 128.812 131.168C128.907 131.234 129.026 131.08 128.936 131.009L128.676 130.803C126.686 129.221 124.698 127.501 122.323 126.527ZM224.68 112.219C224.024 115.309 220.478 116.324 217.726 117.147L216.866 117.475C214.436 118.407 211.918 119.454 210.17 121.422C209.485 123.641 214.374 119.775 215.057 119.579C218.396 117.506 224.43 117.154 224.68 112.219ZM152.289 83.3671C152.27 83.5243 152.261 83.6847 152.256 83.8452C152.051 83.8452 151.846 83.8468 151.641 83.8534C151.88 83.7128 152.1 83.5524 152.289 83.3671Z" fill="black"/>
<path fill-rule="evenodd" clip-rule="evenodd" d="M137.877 39.6119C138.489 29.5295 141.751 18.0987 151.351 13.1484C172.515 4.62925 200.341 26.083 201.815 47.9997C202.328 55.5019 198.175 63.6997 190.586 65.7855C188.899 68.0277 186.347 69.397 183.828 70.5855C153.83 86.196 134.452 73.5063 137.877 39.6119Z" fill="#FFDBB4"/>
<path fill-rule="evenodd" clip-rule="evenodd" d="M131.043 33.34C132.103 30.3867 133.223 27.4561 134.401 24.5481C135.548 21.718 136.585 18.8267 138.01 16.1307C146.52 0.0286028 161.995 0.0286017 169.995 2.13255C174.143 0.339817 181.914 0.845499 186.233 2.46321C193.226 5.08212 201.751 15.3843 204.665 20.013C211.1 30.2327 215.116 43.8349 210.842 55.6442C210.283 57.1876 209.571 58.6171 208.768 59.9947C209.274 60.6817 209.855 61.3323 210.5 61.9716C212.414 63.8716 214.329 65.7091 215.983 67.8521C217.627 69.9818 218.99 72.2466 220.004 74.7436C221.917 79.4526 222.009 84.7848 219.48 89.2781C217.28 93.1878 213.383 96.0991 208.991 96.3767C208.766 96.4082 208.54 96.437 208.314 96.4599C207.732 97.4211 207.022 98.3061 206.213 99.0777C203.732 101.444 197.819 102.658 194.446 102.736C194.273 102.875 194.099 103.015 193.924 103.153C191.86 104.782 189.695 106.425 187.326 107.584C185.721 108.37 183.617 109.027 181.942 108.46C181.183 108.968 179.937 108.861 179.184 108.445C177.946 107.761 176.939 106.529 176.327 105.268C174.841 102.206 175.199 98.8556 175.58 95.5846C176 91.9716 176.404 88.357 176.815 84.744C177.136 81.9187 177.472 79.0464 178.329 76.3249C178.772 74.9147 179.352 73.5597 180.102 72.2856C180.082 72.1786 180.086 72.0717 180.116 71.9712C180.362 71.1704 180.869 70.7506 181.471 70.206C181.548 70.1363 181.626 70.065 181.702 69.992C182.002 69.6484 182.324 69.3291 182.668 69.0584C182.801 68.9238 182.932 68.7877 183.062 68.6515C184.15 67.5088 185.178 66.3077 186.091 65.0207C186.977 63.7726 187.777 62.4694 188.538 61.1418C189.312 59.7916 189.824 58.302 190.597 56.9615C190.663 56.8464 190.831 56.8237 190.925 56.9194C191.164 57.1674 191.317 57.4429 191.288 57.7331L191.408 57.7509C191.453 57.3133 191.855 56.9567 192.402 57.0523C193.219 57.1949 193.892 57.2484 194.6 56.9761C194.475 56.1478 194.36 55.3179 194.247 54.4864C194.04 52.9562 193.848 51.4212 193.683 49.8862C193.284 49.9819 192.888 50.1196 192.5 50.2947C191.948 50.5427 191.426 50.8766 190.98 51.2867C190.54 51.6919 190.236 52.2382 189.7 52.5202C189.082 52.8428 188.337 52.3095 188.518 51.6093C188.885 50.1942 190.962 49.3838 192.247 49.1163C192.688 49.0239 193.139 48.985 193.59 48.9947C193.488 48.0092 193.397 47.0237 193.323 46.0366C193.287 45.5697 193.255 45.1029 193.224 44.6345C192.226 44.3314 191.156 44.2406 190.117 44.3832C189.774 44.6572 189.431 44.9279 189.1 45.2018C188.048 46.0739 187.001 46.9508 185.967 47.8439C185.873 47.9233 185.781 48.0027 185.687 48.0838C185.073 48.6138 184.307 48.0886 184.41 47.3382C185.254 41.1884 181.498 36.2965 177.101 32.5068C172.233 28.3103 163.384 27.8216 157.595 20.5526C154.929 21.0968 148.976 22.7133 146.52 26.6391C143.081 32.1405 143.53 37.0697 143.268 43.3102C143.006 49.5556 142.341 56.07 143.755 62.2279C145.059 67.9059 148.59 72.7573 154.068 74.9877C154.204 75.0428 154.342 75.0963 154.479 75.1482C157.312 76.2196 160.403 76.5227 163.384 75.9586C166.682 75.3329 169.436 73.819 172.18 71.9566C172.338 71.8512 172.569 72.0684 172.45 72.2273C168.833 77.0349 161.729 78.6412 156.093 77.372C155.83 77.3121 155.568 77.2472 155.308 77.1759C156.569 80.8116 156.315 84.8023 154.673 88.3424C153.685 90.4723 152.179 92.3152 150.345 93.7692C148.323 95.3707 145.815 96.6641 144.412 98.9123C143.128 100.973 143.509 103.287 145.709 104.477C146.263 104.778 146.476 105.753 145.927 106.181C145.717 106.343 145.507 106.508 145.292 106.67C144.06 107.602 140.678 109.353 140.13 109.417C135.266 109.996 131.995 106.414 129.899 102.188C127.437 97.2282 128.077 91.1838 130.789 86.4605C132.964 82.6708 137.248 78.9362 135.545 74.1399C134.937 72.4266 133.695 70.9662 132.487 69.6468C131.111 68.1442 129.63 66.7372 128.31 65.1812C126.998 63.6364 125.834 61.9555 125.184 60.0169C124.236 57.1836 124.708 54.1201 125.42 51.2916C126.948 45.2196 128.931 39.2287 131.043 33.34Z" fill="black"/>
<path fill-rule="evenodd" clip-rule="evenodd" d="M154.889 61.8666C154.64 61.4343 154.068 61.0337 153.545 61.0952C151.2 61.3704 151.204 64.2157 152.11 65.8769C152.912 67.3498 154.574 68.2144 156.237 68.0881C157.984 67.9553 159.472 66.9274 160.127 65.2917C160.56 64.2097 160.761 62.2123 159.608 61.4853C159.587 61.4717 159.551 61.4751 159.534 61.4947C158.982 62.1381 158.96 63.104 158.476 63.8202C158.027 64.4864 157.328 65.0366 156.509 65.1215C155.897 65.185 155.279 64.9643 155.039 64.4148C154.91 64.1176 154.925 63.9562 154.973 63.7516L155.018 63.5739C155.171 62.9512 155.24 62.4771 154.889 61.8666ZM154.262 49.388C153.039 50.132 151.176 51.8669 152.491 53.7114C154.04 55.3377 156.269 53.473 157.368 52.6297C158.387 51.9761 159.532 53.657 158.586 54.4202C150.647 60.3034 147.425 49.5825 153.643 48.5132C154.328 48.3954 154.582 49.1578 154.262 49.388ZM167.176 44.2863C166.426 43.1591 164.712 43.3251 164.299 44.6626C164.075 45.3872 164.384 46.0385 164.368 46.762C164.355 47.3733 164.395 48.0544 164.582 48.6463C165.009 49.9962 166.222 50.9497 167.657 50.9101C169.087 50.8707 170.347 49.9646 170.946 48.6885C171.547 47.4075 171.42 46.0817 170.981 44.7792C170.96 44.7166 170.878 44.6863 170.828 44.739C170.31 45.2908 169.93 45.8733 169.537 46.4912L169.134 47.1245C168.826 47.6014 168.379 48.2106 167.805 48.1723L167.718 48.1638C167.559 48.1501 167.583 48.1818 167.46 47.9639C167.403 47.8631 167.413 47.6757 167.386 47.5568L167.376 47.5166L167.381 47.4949C167.394 47.4373 167.406 47.3287 167.415 47.1403L167.418 47.0987C167.459 46.2174 167.708 45.0849 167.176 44.2863ZM148.149 45.0367C148.283 43.595 146.258 43.2749 145.585 44.3416C145.234 44.8979 145.132 45.5967 145.054 46.2587L145.018 46.573C144.938 47.2529 144.906 47.9603 145.201 48.5946C145.666 49.5935 146.676 50.1216 147.765 50.038C148.806 49.9579 149.755 49.3541 150.256 48.4375C150.702 47.6196 151.145 46.0227 150.604 45.1696C150.571 45.1179 150.505 45.1112 150.461 45.1511C149.948 45.6061 149.865 46.436 149.561 47.0288C149.247 47.6402 148.77 48.236 148.048 48.3289C147.358 48.4177 147.094 48.0402 147.27 47.3813C147.498 46.5306 148.063 45.952 148.149 45.0367ZM166.629 35.7154L166.298 35.5885C165.163 35.1595 163.606 34.6636 162.683 35.587C162.114 36.1565 162.006 36.9953 162.412 37.6902C162.904 38.5319 163.787 38.5527 164.639 38.6767C165.609 38.8177 166.595 39.0858 167.498 39.468C168.515 39.8987 169.458 40.4355 170.383 41.0351C171.262 41.6048 172.137 42.536 173.189 42.7116C173.232 42.7187 173.281 42.7002 173.292 42.6531C173.531 41.6238 172.867 40.6109 172.275 39.8079C171.558 38.8357 170.689 38.0377 169.719 37.3222C168.782 36.6316 167.711 36.1325 166.629 35.7154ZM146.018 39.3749L145.917 39.3571C145.229 39.2425 144.606 39.2689 144.087 39.8143C143.691 40.2304 143.539 40.7697 143.728 41.3198C143.902 41.8273 144.291 42.3429 144.856 42.4493C146.764 42.8085 148.877 42.7491 150.794 42.4771C151.671 42.3526 152.556 42.2003 153.41 41.9601L153.803 41.846C154.517 41.6421 155.333 41.4291 155.851 40.904C156.037 40.7154 155.93 40.4453 155.707 40.358C154.803 40.0036 153.564 40.1921 152.6 40.1644C151.479 40.1323 150.356 40.0482 149.24 39.9323C148.149 39.8188 147.094 39.5723 146.018 39.3749Z" fill="black"/>
</svg>
