<svg width="184" height="423" viewBox="0 0 184 423" fill="none" xmlns="http://www.w3.org/2000/svg">
<path fill-rule="evenodd" clip-rule="evenodd" d="M151.524 144.78L151.73 147.235L151.883 146.948C151.905 151.901 152.638 156.909 153.447 161.852C155.56 160.112 157.298 158.577 156.796 155.607C155.525 151.374 153.895 147.245 152.577 143.035L152.356 144.139L151.487 144.314L151.524 144.78ZM0.586686 405.74C0.975833 404.019 1.40058 402.197 1.79845 400.471C1.83768 400.325 2.20197 400.293 2.31939 400.253C4.42322 395.095 6.26419 393.92 10.3389 393.218C16.9095 392.028 23.3935 389.448 29.6005 385.625C29.4556 385.056 29.0595 384.073 28.6994 383.024C28.7464 383.04 28.7937 383.054 28.8426 383.064C28.9258 383.08 29.0042 383.084 29.0788 383.078C29.4998 384.068 29.958 384.937 30.2004 385.258C30.9756 384.757 31.8383 384.207 32.598 383.675L32.5948 383.665C33.271 383.196 34.1067 382.616 34.7687 382.255C34.8928 381.569 35.8969 381.356 36.4215 380.903C37.4398 380.175 38.0047 379.799 38.9387 380.729C40.9535 378.109 42.5762 375.339 44.1715 371.758C45.1698 369.665 45.6602 367.347 47.0024 365.478C46.9767 365.463 46.1234 365.197 46.1025 365.173C61.356 331.341 63.7999 293.696 67.0535 257.532C67.7712 249.445 68.5221 241.284 69.9211 233.434C70.1131 232.245 70.2854 231.074 70.9999 230.126C62.4279 223.055 62.3444 209.348 66.4964 199.182C56.95 173.399 75.6626 146.015 74.2817 119.702C73.5076 101.853 76.7167 81.1716 96.8548 76.8891C99.3522 75.45 102.346 75.2351 104.729 75.1963C106.874 74.1112 107.213 71.7155 107.976 69.7461L108.723 69.7507C108.942 68.8594 109.158 67.8821 109.347 66.9841C109.63 66.4146 109.462 65.6725 110.354 65.8303C112.377 62.8992 128.56 61.4256 128.744 66.1452C129.328 66.4901 129.443 67.1633 129.579 67.9807C130.477 73.7773 136.659 78.3999 142.23 77.4677L142.321 77.3861C166.037 76.5061 175.374 93.3983 180.008 116.42C183.629 134.307 185.931 153.692 183.095 171.609C180.325 179.729 171.933 183.636 165.442 188.638C166.19 190.526 166.26 192.609 166.283 194.652C166.368 197.011 166.539 199.388 166.748 201.715C167.175 204.664 167.866 209.74 163.856 210.084C162.303 245.33 159.059 280.482 164.016 315.83C168.132 335.379 166.556 359.032 161.468 378.159C161.174 379.104 160.42 379.954 159.457 379.652C158.968 379.969 158.586 380.167 158.182 379.868C157.943 380.31 157.682 380.735 157.4 381.146C157.293 386.401 156.698 391.557 156.969 396.846C157.373 396.799 158.261 396.353 158.607 396.645L158.656 397.048L158.985 397.16C159.673 399.104 160.104 401.144 160.424 402.79C161.816 405.611 163.595 410.603 162.603 413.746C162.651 413.801 162.918 414.112 162.96 414.16C163.197 414.296 163.241 414.477 163.299 414.686C163.974 414.939 164.044 415.712 164.113 416.503C164.452 418.418 163.949 420.159 163.776 422.033L163.766 422.021C163.766 422.021 163.199 422.679 163.198 422.68C156.068 423.114 149.047 423.226 141.949 423.481C141.414 422.454 141.252 421.066 140.85 419.937C132.435 426.101 117.855 423.743 107.285 422.229C102.992 421.61 98.937 421.024 95.3415 420.829C95.1076 420.797 95.0909 420.696 95.0848 420.603C95.0495 419.192 94.7844 417.746 94.9167 416.377C94.1743 415.654 94.5127 414.339 95.0229 413.183C96.899 409.115 101.998 408.67 106.13 407.975C113.903 406.465 120.153 403.624 125.209 399.282C124.869 398.973 124.56 398.671 124.279 398.375C124.389 398.302 124.499 398.228 124.608 398.154C124.874 398.038 125.129 397.918 125.362 397.767C125.481 397.834 125.63 397.847 125.777 397.765C126.285 397.479 126.699 397.059 127.182 396.738C127.278 396.876 127.374 397.016 127.471 397.163C127.934 396.674 128.458 396.121 128.915 395.609C128.932 395.467 128.895 395.114 129.067 395.076C130.369 395.208 131.877 395.647 133.238 396.135C134.777 391.071 135.669 385.59 135.566 380.415C134.053 380.415 132.727 380.401 131.598 379.681C131.29 379.764 130.86 379.943 130.78 379.457C130.322 377.475 130.203 375.377 130.088 373.348C127.745 334.963 124.176 304.118 112.336 271.602C111.2 276.117 109.291 280.812 107.554 285.307C99.6509 304.09 93.9576 324.347 89.0773 344.062C87.1571 351.442 85.0698 359.551 83.0083 366.854C82.2088 370.365 80.5836 371.65 77.1779 371.622C74.5536 371.745 71.9202 371.707 69.2852 371.522C65.693 374.801 64.2199 379.227 63.1705 383.212C64.0448 383.863 65.4326 383.618 66.4549 383.832C67.3363 385.255 67.0313 387.244 67.0107 388.999C66.8723 391.279 66.9902 393.725 66.3273 395.877C66.2088 398.231 66.1942 400.811 66.0173 403.548C67.9648 404.679 67.6081 407.177 66.9613 409.567C66.6722 410.175 56.2054 410.054 53.6089 410.029C50.5579 409.851 46.2071 410.632 45.2067 407.283C37.9429 411.323 26.8922 409.958 18.4298 408.769C12.2881 408.019 6.7241 407.322 0.692904 406.051C0.630564 406.024 0.542947 405.829 0.586686 405.74Z" fill="#D08B5B"/>
<path d="M162.176 206.318C160.332 206.121 141.565 207.581 139.69 207.144L139.608 207.125L138.878 206.95L138.454 207.57C136.362 210.632 135.307 212.643 134.78 214.685L134.743 214.831L134.728 214.892C134.284 216.731 134.25 218.435 134.49 221.89L134.515 222.242L134.543 222.624L134.611 223.516L134.609 223.522C134.492 223.897 134.13 224.007 133.68 223.754L133.649 223.736L133.635 223.727L133.586 223.694C132.621 223.015 131.973 222.12 131.541 220.944L131.511 220.862L131.482 220.778C131.136 219.768 130.956 218.682 130.803 216.942L130.775 216.623L130.69 215.556C130.569 214.061 130.478 213.267 130.308 212.419L130.286 212.308L129.8 210.039L128.368 211.724C127.649 212.569 127.21 213.721 126.937 215.231L126.905 215.412C126.757 216.279 126.672 217.147 126.583 218.541L126.558 218.944L126.481 220.262L126.45 220.743C126.332 222.528 126.214 223.458 125.976 224.334L125.951 224.424L125.933 224.487C125.624 225.55 125.205 226.092 124.595 226.263L124.559 226.273L124.544 226.276L124.52 226.275C123.825 226.229 123.65 225.892 123.699 224.767L123.705 224.658L123.708 224.603L123.716 224.478L123.733 224.249L123.722 224.11C123.675 223.579 123.58 223.136 123.374 222.386L123.352 222.304L123.15 221.58L123.104 221.408C122.604 219.459 122.499 217.306 122.777 215.113L122.796 214.966L123.516 209.596L120.776 214.269C118.961 217.364 117.887 220.894 117.601 224.576L117.589 224.741L117.579 224.878C117.44 225.125 117.172 225.182 116.947 225.014L116.924 224.996L116.903 224.977C116.316 224.442 115.954 223.477 115.617 221.772L115.599 221.683L115.467 220.991L115.407 220.678L115.37 220.522C114.728 217.733 114.593 215.516 115.077 213.509L115.101 213.412L115.977 209.936L113.315 212.335C112.89 212.718 112.457 213.088 112.019 213.443C111.183 214.115 110.517 214.193 110.13 213.898C109.716 213.582 109.529 212.811 109.796 211.787L109.812 211.729L110.289 209.99L108.529 210.373C102.609 211.663 97.1748 212.294 92.1158 212.151C86.2943 211.987 81.1163 210.792 76.6246 208.426L76.48 208.349L75.1943 207.662L74.8995 209.091C74.4704 211.17 74.5776 213.306 75.1368 215.643L75.1767 215.807C75.5658 217.389 76.0758 218.829 77.0196 221.163L77.1188 221.408L77.5662 222.503L77.8996 223.326L78.0559 223.718C78.5316 224.932 78.6839 225.831 78.5797 226.371C78.5244 226.658 78.4333 226.752 78.2148 226.801C77.4094 226.98 75.8098 226.32 74.3478 225.071L74.2852 225.017L72.785 223.699L72.2917 226.014L72.4087 226.317C72.6877 227.039 72.7851 227.729 72.6699 228.277L72.6577 228.332L72.5444 228.803L72.8185 229.204C72.84 229.235 72.8384 229.273 72.7831 229.358C72.713 229.466 72.6041 229.533 72.5231 229.54L72.5049 229.54L71.565 229.509L71.3968 230.435L71.3041 230.952C70.8344 233.597 69.7397 244.049 68.0199 262.309C67.455 269.47 60.756 317.443 59.4967 323.566C56.6534 338.321 53.256 351.125 48.8426 362.989L48.7086 363.348L48.3475 364.313L49.2889 364.729C57.924 368.545 67.8469 370.279 77.8738 369.861L78.155 369.848L78.2644 369.847C80.4788 369.813 81.5884 368.875 82.147 366.735L82.1807 366.602L82.1963 366.538L82.2157 366.455L82.583 365.206C83.7514 361.217 97.032 312.091 99.1941 305.272L99.3356 304.828L99.5967 304.011L99.8256 303.302C102.845 293.991 106.02 285.784 109.648 278.155L109.773 277.893L109.798 277.848C110.205 277.103 110.531 276.326 110.897 275.276L110.937 275.163L111.014 274.937L111.072 274.765L111.422 273.71L111.543 273.349L111.593 273.185C112.022 271.747 112.256 270.369 112.272 269.022L112.273 268.883L112.273 268.864L112.34 269.016C113.764 272.241 115.378 276.5 117.038 281.562L117.104 281.765L117.316 282.418C121.84 296.452 125.076 311.482 127.427 328.428L127.554 329.353C129.309 342.217 130.466 355.002 131.718 373.6L131.834 375.343L131.971 377.414L132.813 377.563C133.777 377.733 134.61 377.961 135.349 378.272L135.449 378.315L135.621 378.39L135.809 378.403L138.271 378.579C138.474 378.593 138.661 378.606 138.84 378.617L139.365 378.649C146.656 379.125 152.727 378.772 158.35 377.294L158.522 377.248L158.738 377.196L160.781 376.684L166.637 343.243L163.007 311.897L162.876 310.956C160.724 295.179 163.24 224.022 163.413 219.32L163.449 218.319L163.482 217.353L163.528 216.644L163.688 213.873L163.714 213.463C163.868 211.091 164.052 209.482 164.389 207.894L164.652 206.678L163.516 206.496C163.075 206.425 162.628 206.366 162.176 206.318Z" fill="#E86BBB"/>
<path fill-rule="evenodd" clip-rule="evenodd" d="M96.4509 415.242C95.6014 416.223 95.3108 417.775 95.579 419.897C95.6583 419.928 116.079 423.525 129.873 423.388C135.498 423.331 139.427 419.46 141.352 419.46C141.934 419.46 141.634 423.166 143.823 422.806L163.895 421.917L164.312 415.242L162.278 413.061C152.535 415.002 145.173 415.729 140.19 415.242C131.343 414.378 98.34 413.061 96.4509 415.242ZM3.0149 400.406C2.03488 401.221 1.43066 402.702 1.20221 404.85C12.2733 407.395 19.6694 408.706 23.3906 408.783L24.4701 408.803L25.713 408.822C27.3165 408.842 37.8899 410.297 44.7196 407.097C45.9877 406.503 48.2597 409.225 50.2678 409.233C54.8755 409.251 60.4854 409.121 67.0978 408.842C67.1241 408.381 67.5049 406.105 67.5412 405.395C66.6968 403.68 66.2583 402.357 66.2259 401.424C66.1604 399.542 53.9946 401.592 40.5055 401.424C23.605 401.214 4.49647 399.175 3.0149 400.406Z" fill="white"/>
<path fill-rule="evenodd" clip-rule="evenodd" d="M128.843 64.9404C128.374 64.8457 127.97 64.9853 127.685 65.2429C127.624 65.8785 127.631 66.5126 127.683 67.1467C127.736 67.1918 127.794 67.2356 127.858 67.2762L127.809 67.2451C127.765 67.2166 127.735 67.1956 127.715 67.1802C128.334 71.3135 131.2 74.8295 134.916 76.6986C135.146 77.0782 135.665 77.0525 136.039 77.2237L136.564 77.3891C138.009 77.8427 139.471 78.2715 141 78.3C137.113 89.2309 121.915 95.1696 111.163 95.9765C101.878 96.4666 96.7249 88.7563 99.1746 80.1081C104.554 79.4112 109.842 73.6815 107.892 68.145L107.831 67.9773C107.818 67.9207 107.742 67.9409 107.736 67.9904C107.677 68.5547 107.341 69.176 107.192 69.7272L107.123 69.923C106.605 71.4158 106.146 73.1958 104.685 73.9903L104.435 73.996C101.806 74.0646 99.0611 74.4123 96.7464 75.7155C94.1653 76.2233 91.6982 77.2471 89.4014 78.5156C71.263 88.3755 74.1661 109.347 73.601 126.813C71.8411 150.745 57.2783 174.661 65.8674 198.688C61.9456 208.694 61.6423 222.142 70.202 229.775C70.108 229.923 70.0287 230.086 69.9623 230.251C69.5549 231.27 69.4287 232.436 69.2365 233.517L69.214 233.641C68.751 236.154 68.418 238.694 68.0925 241.228C67.4504 246.227 66.984 251.248 66.5397 256.269L66.4763 256.986C65.3638 269.606 64.3921 282.253 62.9328 294.841L62.6604 296.706C60.6851 310.182 58.5339 323.69 55.2936 336.895C55.198 337.249 55.103 337.603 55.0055 337.957C53.8377 342.193 52.4632 346.357 51.1715 350.554C50.7625 351.883 50.3094 353.192 49.8317 354.49L49.2381 355.965C49.139 356.211 49.0397 356.457 48.94 356.702C47.8867 359.296 46.7649 361.861 45.5838 364.399C45.3708 364.856 45.681 365.278 46.0466 365.396C44.9683 367.108 44.5617 369.148 43.6607 370.966C42.3723 373.865 40.8458 376.685 38.941 379.228C37.8873 378.434 36.7103 379.458 35.8342 380.044C35.2719 380.394 34.5424 380.657 34.3215 381.276C33.8972 381.52 33.4845 381.789 33.0936 382.058L33.0546 381.931C32.5798 380.41 31.6506 378.368 30.141 377.689C28.3759 376.946 26.9678 378.427 27.4962 380.199C27.8201 381.783 28.3256 383.299 28.865 384.826C23.4352 388.109 17.4974 390.598 11.2511 391.847L11.0381 391.889C9.53117 392.189 7.99959 392.397 6.61766 393.114C4.32855 394.372 2.85028 396.763 1.92551 399.155C1.60437 399.233 1.30939 399.514 1.23819 399.822L0.628785 402.459C0.425893 403.339 0.223908 404.218 0.0248296 405.098C-0.0841549 405.575 0.170142 406.176 0.696173 406.282C4.32172 407.008 7.96471 407.643 11.6237 408.181C22.0105 409.143 35.3746 412.528 45.0194 407.776C46.5583 410.943 50.8433 410.037 53.7513 410.276C55.5175 410.145 67.9153 410.82 67.7972 409.32L67.8658 409.062C68.4139 406.967 68.908 404.151 66.9108 402.708C67.036 400.343 67.1292 397.976 67.168 395.61C67.8637 393.364 67.743 390.88 67.8845 388.535C67.8662 386.788 68.2731 384.77 67.3191 383.207C67.2354 382.172 64.9358 382.724 64.1745 382.345L64.2418 382.099C65.2921 378.287 66.7519 374.577 69.7008 371.786C72.2503 371.956 74.8069 371.986 77.3586 371.866C81.2444 371.882 83.0168 370.196 83.863 366.536C84.4689 364.389 85.0603 362.237 85.643 360.083C90.1891 343.136 94.3172 326.039 99.3412 309.223C101.262 303.587 103.386 298.02 105.529 292.467C106.981 288.704 108.435 284.941 109.888 281.178C110.634 279.245 111.37 277.3 112.019 275.332C112.218 274.727 112.399 274.119 112.57 273.508C123.839 304.859 127.414 338.167 129.408 371.242C129.59 373.884 129.622 376.554 130.219 379.139C130.402 379.935 131.074 380.154 131.666 379.98C132.758 380.559 133.566 380.627 134.971 380.649L134.96 381.102C134.881 384.353 134.682 387.594 133.945 390.768C133.653 392.093 133.13 393.382 132.846 394.701C131.701 394.311 130.532 394.017 129.328 393.873C128.721 393.801 128.374 394.31 128.349 394.832C128.125 395.079 127.9 395.323 127.67 395.566L127.554 395.417C126.474 394.019 125.089 392.105 123.211 391.948C122.356 391.895 121.576 392.378 121.39 393.248C121.212 395.247 122.866 397.436 124.261 398.762C119.09 403.044 112.681 405.518 106.14 406.779L105.884 406.822C101.687 407.509 96.511 408.051 94.51 412.396L94.468 412.49C93.9986 413.549 93.5549 415.154 94.3197 416.124C94.2293 417.45 94.474 418.814 94.5057 420.152C94.5391 420.696 94.9053 421.012 95.424 421.072C108.777 421.789 129.131 428.046 140.568 420.602C140.804 421.426 141.046 422.25 141.272 423.077C141.37 423.442 141.738 423.74 142.123 423.726C149.203 423.471 156.306 423.356 163.377 422.924C163.582 422.928 163.754 422.836 163.898 422.67C164.063 422.873 164.487 422.818 164.544 422.529C164.644 422.02 164.644 421.505 164.69 420.99C164.743 420.393 164.902 419.843 164.995 419.26C165.168 418.184 165.09 417.029 164.983 415.949L164.956 415.676C164.882 414.962 164.749 414.151 164.104 413.746L164.061 413.72C164.059 413.719 164.057 413.718 164.054 413.717C163.983 413.489 163.814 413.293 163.6 413.137L163.587 413.122C163.924 412.318 163.794 411.299 163.696 410.461C163.425 407.543 162.609 404.656 161.264 402.065C160.881 400.095 160.416 398.056 159.725 396.181C159.744 396.096 159.636 396.023 159.553 396.061C159.525 396.046 159.497 396.034 159.469 396.025C159.465 395.996 159.46 395.968 159.45 395.94C159.331 395.588 158.962 395.395 158.617 395.34C158.325 395.294 158.071 395.372 157.809 395.438C157.619 390.346 158.22 385.262 158.282 380.172C158.765 380.406 159.308 380.198 159.754 379.929C161.047 380.128 161.964 379.024 162.319 377.863L162.527 376.922C164.391 368.45 166.071 359.904 166.974 351.269C168.223 339.215 166.715 327.15 164.882 315.237C159.909 283.87 163.512 252.162 163.866 220.622C164.163 217.179 164.285 213.697 164.663 210.256C166.065 210.089 167.126 208.775 167.599 207.515C168.342 205.52 167.806 203.217 167.618 201.166C167.41 198.893 167.258 196.615 167.159 194.336L167.147 193.67C167.114 191.893 167.036 190.104 166.447 188.412C172.733 183.569 181.068 179.764 183.728 171.667C184.938 170.576 184.694 165.52 184.892 163.664C185.699 147.619 184.331 131.466 180.865 115.781C176.527 94.4055 167.639 75.2511 142.729 76.1662C142.748 76.1518 142.768 76.1357 142.787 76.1197C142.524 76.0324 142.253 76.1182 142.059 76.2928C137.818 76.8379 133.764 74.3298 131.645 70.7249C131.124 69.826 130.738 68.8878 130.532 67.8682L130.515 67.7867C130.3 66.6654 130.239 65.2214 128.843 64.9404ZM161.024 414.018C161.626 414.352 162.285 414.392 162.839 414.836C163.228 416.968 163.196 419.181 162.729 421.297C156.088 421.368 149.438 421.704 142.8 421.932C142.533 420.904 142.28 419.87 142.001 418.844L141.995 418.823L141.98 418.783C141.291 418.806 140.602 418.826 139.913 418.843C129.718 426.157 108.598 419.942 96.2916 419.332L96.1651 417.282C96.2897 417.369 96.413 417.417 96.5315 417.434C96.4171 417.135 96.6204 416.745 97.0261 416.859C97.681 417.042 98.3392 417.211 98.9996 417.37C99.0497 417.35 99.1066 417.341 99.1702 417.346C104.947 417.84 110.748 417.794 116.54 417.811C122.313 417.828 128.08 418.072 133.853 418.056C136.208 418.049 138.562 418.014 140.916 417.944C147.696 416.683 154.427 415.196 161.024 414.018ZM2.77967 401.523C3.06541 401.73 3.43865 401.747 3.83547 401.801L3.89232 401.809C4.25517 401.862 4.61874 401.912 4.98391 401.94C5.88615 402.524 7.68323 402.445 8.55322 402.611C27.6504 404.521 46.8802 402.254 65.9968 403.789C66.9092 405.092 66.6869 406.705 66.2017 408.161C60.8636 408.362 55.5203 408.471 50.1795 408.239L49.7526 408.224C49.0931 408.198 48.4165 408.15 47.8065 407.901C47.2617 407.678 46.5923 407.126 46.6776 406.465L46.6833 406.427C46.814 405.668 46.0177 404.779 45.2432 405.319C37.9388 410.17 28.0141 407.731 19.7844 407.253C13.8542 406.625 7.95598 405.73 2.10279 404.597C2.32962 403.573 2.55501 402.548 2.77967 401.523ZM136.183 380.035C136.796 380.105 137.409 380.168 138.023 380.224C140.486 380.446 142.957 380.558 145.429 380.629L146.583 380.661C148.886 380.723 151.203 380.778 153.502 380.652C154.665 380.589 155.857 380.452 156.981 380.135C155.992 385.328 155.483 390.615 155.499 395.899C155.19 396.167 155.253 396.609 155.335 396.947L155.258 397.176C155.077 397.714 154.905 398.26 154.837 398.81C147.701 403.058 141.776 398.707 135.27 395.661C136.342 392.869 136.669 389.808 136.848 386.844C136.948 384.538 136.776 382.287 136.183 380.035ZM123.212 393.747C123.509 393.781 123.785 393.967 124.026 394.132C125.018 394.843 125.876 395.685 126.659 396.596C126.358 396.893 126.052 397.185 125.739 397.472C124.567 396.526 123.646 395.209 123.212 393.747ZM47.3677 366.751L48.3338 367.076C54.2983 369.08 60.3862 370.96 66.7219 371.522C66.3818 371.859 66.0956 372.259 65.8442 372.684C65.6251 372.87 65.4042 373.108 65.4664 373.391C65.2629 373.802 65.0828 374.22 64.9113 374.614C63.9091 377 62.7522 379.347 61.9075 381.804C61.6624 382.829 60.6985 384.263 61.1477 385.255C54.4122 388.191 46.0336 386.884 40.8882 381.513L41.0697 381.245C44.0264 376.86 46.6249 372.044 47.3677 366.751ZM29.099 379.145C29.5073 378.793 30.2237 379.764 30.4053 380.006C31.0767 380.9 31.5388 381.879 31.8817 382.903C31.4504 383.199 31.0158 383.478 30.5768 383.761L30.5527 383.721C30.1444 383.015 28.6756 379.592 29.099 379.145ZM157.191 379.069L157.184 379.105C156.822 379.162 156.46 379.212 156.096 379.253C155.212 379.354 154.317 379.398 153.425 379.417C154.68 379.236 155.936 379.089 157.191 379.069ZM147.618 208.378L147.915 208.348L148.297 208.3C153.199 207.691 158.138 206.876 163.074 207.668C162.391 210.833 162.345 214.15 162.124 217.393C161.071 248.626 157.277 280.038 161.528 311.198L161.659 312.142C163.208 323.224 165.052 334.345 164.31 345.574C163.731 355.81 161.65 365.872 159.582 375.888C159.086 376.013 158.589 376.138 158.09 376.26C158.076 376.121 157.989 376.201 157.972 376.289C151.849 377.926 145.459 378.066 139.168 377.655C137.981 377.587 136.8 377.491 135.615 377.409C134.701 377.012 133.724 376.758 132.733 376.583C130.643 344.799 127.907 312.651 118.084 282.177C111.831 262.818 104.021 243.967 99.3998 224.112C99.2399 223.554 98.3971 223.789 98.534 224.352L98.6783 225.113C99.8516 231.331 100.909 237.569 102.736 243.647C101.349 242.135 99.7673 240.8 98.4582 239.217C98.0498 238.718 97.6749 238.193 97.3522 237.633C97.0463 236.939 96.555 236.396 95.7946 236.234C95.4458 236.092 95.1218 236.389 95.007 236.681C94.6871 237.488 94.822 238.064 95.2879 238.775L95.4043 238.95C97.4589 241.99 100.747 243.766 103.461 246.152C105.733 253.744 108.348 261.228 110.911 268.723C110.944 270.214 110.673 271.687 110.237 273.109C109.741 274.57 109.296 276.119 108.534 277.49C97.9346 299.669 92.5933 323.835 86.1531 347.435C84.4579 353.728 82.7411 360.02 80.8926 366.271L80.8661 366.384C80.445 368.146 79.7879 368.855 77.8586 368.852C68.192 369.298 58.2664 367.718 49.4602 363.826C54.3109 350.868 57.6791 337.457 60.2979 323.867C61.6192 317.443 62.6899 310.968 63.5916 304.468C64.8472 296.168 65.9551 287.85 67.0775 279.574C69.3743 263.353 69.2733 246.847 72.2002 230.725C73.1998 230.758 74.0565 229.569 73.4484 228.682C73.6604 227.799 73.4712 226.834 73.1563 226.018L73.1941 225.841C76.6231 228.89 81.0981 229.275 78.8016 223.415L78.643 223.017C76.9185 218.717 74.7244 214.123 75.6978 209.406C85.6442 214.721 97.8021 213.864 108.492 211.534C107.659 214.565 109.902 216.423 112.433 214.388C112.889 214.019 113.337 213.636 113.776 213.241C113.132 215.794 113.478 218.471 114.072 221.002L114.129 221.294C114.418 222.812 114.746 224.828 115.9 225.879C116.741 226.644 118.009 226.318 118.386 225.226C118.597 221.613 119.604 218.058 121.447 214.916C121.139 217.213 121.214 219.572 121.779 221.774C121.997 222.616 122.3 223.476 122.371 224.347L122.36 224.49C122.252 226.025 122.455 227.435 124.368 227.466C128.902 226.666 126.042 215.923 128.929 212.526C129.806 216.626 128.784 222.016 132.771 224.737C133.872 225.427 135.216 225.027 135.44 223.688L135.361 222.637C134.885 216.22 134.974 214.296 139.085 208.28C141.872 208.949 144.791 208.663 147.618 208.378ZM66.841 373.298C66.8381 373.322 66.8367 373.346 66.8352 373.37C66.7878 373.419 66.7403 373.468 66.6933 373.518L66.6231 373.593L66.7044 373.392C66.7495 373.363 66.796 373.33 66.841 373.298ZM70.5833 230.107L70.7702 230.265C70.8015 230.291 70.833 230.317 70.8647 230.343C70.6989 231.083 70.5439 231.825 70.3935 232.568L70.4227 232.078C70.4499 231.597 70.3736 230.724 70.5833 230.107ZM73.6103 164.328C75.0128 157.794 76.4107 155.036 74.6345 164.448L74.4417 165.464C73.6724 169.54 72.8617 174.159 72.1004 179.133L71.9416 180.174C71.147 185.331 69.8978 192.88 69.8055 198.927C69.7008 205.789 73.1804 207.825 74.5557 208.714C74.813 209.469 74.4864 210.098 74.2694 210.823C73.9773 211.987 73.9018 213.105 73.9849 214.301C74.2736 218.38 76.4507 222.065 77.4401 225.936C76.1723 225.587 74.758 224.443 73.6504 223.537C71.6837 221.97 70.3112 219.649 69.7182 217.188C69.4363 216.026 69.6412 214.59 68.8507 213.637C68.6182 213.357 68.1154 213.384 67.8786 213.637C67.2334 214.326 67.2944 215.169 67.399 216.049C67.7506 219.043 69.0658 221.978 71.1844 224.133C71.2843 225.239 71.6138 226.225 71.8325 227.277C71.7483 227.512 71.664 227.748 71.584 227.985C70.1489 226.744 68.9491 225.243 68.0195 223.589C63.8708 216.295 65.3196 207.895 66.3935 199.94C66.609 200.473 67.1001 200.685 67.5778 200.633C67.8523 201.32 68.5697 200.882 68.5982 199.993C68.7757 194.45 69.5113 186.57 70.8647 178.498C71.6712 173.688 72.6481 168.812 73.6103 164.328ZM126.001 189.497C128.059 195.89 136.168 197.137 140.905 201.037C138.526 207.321 131.866 214.051 133.826 222.157L133.837 222.218C133.896 222.528 134.089 223.404 133.881 223.569C133.749 223.674 132.935 222.878 132.793 222.721C129.943 219.326 131.601 214.525 129.998 210.654C129.788 210.139 129.131 209.835 128.686 210.308C126.682 212.434 126.198 215.299 125.891 218.099L125.88 218.196C125.633 220.374 125.769 222.618 125.124 224.736L125.1 224.81C124.963 225.22 124.707 225.797 124.421 225.901C123.632 226.187 123.929 224.922 123.901 224.421C123.818 222.976 123.205 221.621 122.99 220.198C122.531 217.143 122.988 213.939 124.001 211.043C124.322 210.123 123.058 209.798 122.57 210.439C120.543 213.104 118.918 216.065 117.847 219.243C117.416 220.525 117.186 221.822 116.898 223.128C115.103 217.673 115.155 211.938 119.22 207.466C120.182 206.31 118.58 204.643 117.544 205.789C116.469 207.071 115.417 208.367 114.249 209.566C113.098 210.728 111.988 212.159 110.563 212.989C110.794 207.767 116.39 205.408 119.375 201.833C122.417 198.232 124.081 193.741 126.001 189.497ZM152.895 145.401C153.985 148.719 155.261 151.978 156.246 155.33C156.451 157.599 155.753 158.54 154.088 159.98C153.368 155.865 153.07 151.691 152.684 147.531C152.743 146.82 152.755 146.103 152.895 145.401ZM152.358 143.771L152.467 144.107L152.43 144.171L152.395 144.236L152.358 143.771ZM85.9405 102.256L85.5244 105.003C83.9957 115.073 82.4186 125.143 80.2489 135.098C80.1293 135.646 79.4237 134.91 79.5534 133.848C80.8879 122.925 85.9217 102.127 85.9414 102.246L85.9405 102.256ZM98.7851 80.1707C98.6878 80.2869 98.5962 80.4091 98.5076 80.5329C98.5265 80.4222 98.5454 80.3102 98.5657 80.1982C98.6398 80.1894 98.7125 80.1809 98.7851 80.1707Z" fill="black"/>
<path fill-rule="evenodd" clip-rule="evenodd" d="M116.427 13.9771C108.193 13.9771 99.6773 20.3787 96.6592 24.4637C93.1693 29.1873 90.4164 51.8628 91.7079 59.5571C92.9993 67.2514 99.4143 75.6377 110.551 75.6377C121.687 75.6377 128.464 74.2618 128.736 72.2633C128.917 70.931 131.365 66.5568 136.081 59.1407C140.904 57.78 143.325 55.4746 143.344 52.2243C143.362 48.9741 142.07 46.7577 139.467 45.5751C140.395 32.7483 139.69 24.6651 137.353 21.3256C133.846 16.3163 124.661 13.9771 116.427 13.9771Z" fill="#D08B5B"/>
<path fill-rule="evenodd" clip-rule="evenodd" d="M121.978 1.55336C120.871 0.246229 118.918 1.48177 118.962 2.91015C118.52 3.03017 117.999 3.44429 117.797 3.98419C117.362 3.95588 116.924 4.04261 116.528 4.26935L116.445 4.16638C115.075 2.48914 113.263 1.04988 111.393 2.28503C110.884 2.62118 110.656 3.1767 110.768 3.77885L110.777 3.82148L110.735 3.63557C110.693 3.45892 110.756 3.81237 110.78 3.88716L110.783 3.89564C110.832 4.02157 110.881 4.08499 110.926 4.1802C109.011 2.8157 106.096 3.61442 107.632 6.25578L107.007 6.01139C104.846 5.17352 102.158 4.27379 100.188 5.78021C99.3073 6.63009 100.285 7.76332 101.182 8.03803L101.028 8.01215C99.3059 7.7188 95.713 6.99373 95.1997 9.24255C95.0151 10.0517 95.5534 10.6431 96.2327 10.9686C94.7955 10.9633 93.3781 11.201 92.1345 11.9045C90.9516 12.7477 91.9076 14.1431 93.1447 14.0822C92.7612 14.558 92.6339 15.363 93.0042 15.8769C92.3012 16.062 91.6526 16.3001 91.0548 16.6712L90.8905 16.6924C89.6956 16.842 88.3323 16.931 87.675 18.1081C86.7076 20.6623 90.1525 20.5606 91.6312 19.6635C91.5434 19.8065 91.4783 19.9627 91.4418 20.1295L90.9627 20.2644C89.1551 20.7687 87.1093 21.3258 85.9454 22.8518C85.412 23.73 86.1544 25.2224 87.2698 24.9557C84.2473 26.3995 85.4058 30.203 88.3616 28.2245C88.4998 28.3528 88.668 28.4482 88.8441 28.4902L88.2204 28.8294C86.6362 29.6994 84.731 30.8904 85.0618 32.8656C85.3764 33.9109 86.822 33.7198 87.5567 33.3198C86.273 34.4271 85.0617 35.626 83.9613 36.9222L83.6568 37.2855C82.8011 38.3143 81.3123 40.2082 82.925 41.1979C84.9131 42.2129 85.9039 39.2157 87.0602 38.1459C86.1357 40.328 89.1414 41.8498 90.1905 39.6519C90.3667 39.6829 90.5439 39.6861 90.7176 39.6627C89.8131 40.6244 87.3668 47.2047 90.4096 45.7618C90.8942 45.2475 91.3195 44.6855 91.7104 44.0955C91.2219 47.8656 90.8646 51.6536 90.6335 55.4442L90.5513 56.8184C90.4673 58.2437 90.4037 59.6751 90.5633 61.0957C90.7476 62.7495 91.2216 64.3014 91.9394 65.7996C92.6008 67.1814 93.4534 68.4614 94.4292 69.6381C94.9512 70.2679 95.5051 70.8802 96.1866 71.3412C96.7291 71.7079 97.3628 71.9493 97.9733 72.182C98.9664 73.1769 100.241 73.9289 101.487 74.5296C103.54 75.5172 105.766 76.0627 108.018 76.3361C110.32 76.6138 112.646 76.547 114.93 76.15C117.112 75.7718 119.452 74.8045 120.796 72.9616C120.912 72.8031 120.696 72.6533 120.554 72.7187C116.653 74.5296 112.269 75.0023 108.018 74.4307C106.034 74.1645 104.082 73.6147 102.271 72.7609C100.743 72.0409 99.4538 70.9937 98.082 70.0453C97.815 69.689 97.5455 69.3384 97.2379 69.0126L96.7581 68.5079C96.3995 68.1288 96.0473 67.7446 95.7271 67.3297C94.738 66.0512 93.9189 64.6011 93.3779 63.0753C92.3258 60.1052 92.6103 56.8812 92.7962 53.786L92.8123 53.5132C93.0037 50.2027 93.3157 46.9039 93.7476 43.6167C93.9273 42.2487 94.1272 40.883 94.3461 39.5203C94.697 38.9477 95.0717 38.3937 95.4912 37.8747C95.1498 39.2052 96.3318 41.0549 97.7811 40.1767C99.4408 38.7536 99.3605 36.4566 100.751 34.714C102.193 32.4799 112.142 28.135 115.1 27.5249C114.623 28.2202 113.753 28.7046 113.55 29.5252C109.912 32.749 115.842 34.4651 117.693 29.8708C117.652 31.4004 117.498 32.9167 117.158 34.4097C116.664 35.7808 116.277 39.7541 118.754 38.555C119.94 38.8986 120.844 37.8854 120.993 36.7422C121.85 39.3256 121.04 43.4528 122.61 45.3568C123.092 45.8576 123.836 45.5242 124.087 44.9523C125.54 44.5706 125.416 42.8719 125.592 41.6559C126.917 46.5026 128.575 49.8667 128.803 54.9227C127.778 56.3866 130.027 57.4632 130.992 56.29C132.347 54.3269 131.098 51.6432 130.779 49.4942C131.16 49.4745 131.537 49.3048 131.852 48.9341C132.023 49.6086 131.925 50.4971 131.867 51.2286C132.726 54.5972 135.992 52.4395 135.857 49.707C135.998 50.4779 136.104 51.2566 136.172 52.0411C135.541 52.7689 135.074 53.6402 134.797 54.5649C134.599 55.233 135.276 55.6336 135.793 55.5367C136.068 56.4778 137.26 57.1569 138.045 56.2573C138.82 55.4707 138.955 54.334 139.017 53.2023C139.125 53.0872 139.19 52.9365 139.18 52.754C139.17 52.5825 139.128 52.437 139.061 52.3146C139.074 52.0833 139.091 51.8563 139.116 51.6368C139.716 53.5096 139.326 55.472 139.273 57.3901C138.213 57.9889 137.003 58.2448 135.787 58.4976L135.611 58.5342C135.235 58.6128 135.116 59.1742 135.399 59.4099C134.647 60.1488 133.997 61.0302 133.363 61.8433C132.522 62.9219 131.717 64.0434 130.934 65.1672L130.475 65.8274C129.133 67.7448 127.277 70.3423 128.108 72.7042C128.221 73.0286 128.694 73.1449 128.878 72.8046C129.483 71.6846 129.821 70.4511 130.395 69.3181C130.959 68.2068 131.661 67.177 132.357 66.1472L132.759 65.5504C133.427 64.5537 134.089 63.5463 134.703 62.5196L135.131 61.8088C135.532 61.1375 135.93 60.4439 136.226 59.7226C137.28 59.9775 138.383 59.7946 139.394 59.3537L139.407 59.4242L139.433 59.5509C139.577 60.1606 140.415 60.5774 140.951 60.1786C142.233 59.209 142.755 57.7657 142.891 56.2226C143.15 55.7868 143.369 55.3265 143.548 54.8502C143.632 55.8005 143.997 56.7219 145.124 56.6933C147.078 56.5324 147.27 54.6808 146.741 52.8392C149.055 53.548 149.326 50.2658 148.596 48.5361C148.867 48.4548 149.118 48.2928 149.262 48.0746L149.382 48.2855C149.827 49.0578 150.331 49.8076 151.033 50.2084C152.015 50.7683 153.442 50.0748 153.377 48.8417C153.167 46.8322 151.411 45.3017 150.342 43.6912C150.532 43.7182 150.73 43.7114 150.924 43.675C153.06 44.8706 154.08 42.0567 153.328 40.4264C152.776 38.9617 151.778 37.7021 150.708 36.5917L151.022 36.7797C151.588 37.1139 152.219 37.4366 152.841 37.3055C156.912 39.9884 158.248 35.4762 153.68 34.066L153.681 34.045C154.14 33.6015 154.339 32.8996 153.982 32.1985C155.658 32.7888 158.05 31.4533 156.573 29.6279C155.61 28.718 154.473 27.9354 153.213 27.5258C153.276 27.1908 153.296 26.85 153.27 26.507L153.346 26.5172C154.141 26.6321 155.122 26.9579 155.612 26.0988C155.861 25.6662 155.832 24.9533 155.424 24.617C154.02 23.4589 152.418 22.4957 150.677 22.1052C150.614 21.8927 150.547 21.6814 150.477 21.4711C151.961 21.4434 153.628 19.4656 151.923 18.345C150.424 17.5788 148.879 17.086 147.186 17.1317C148.179 16.1501 147.593 14.3709 146.273 14.0974C147.138 12.2516 145.003 11.2992 143.41 11.5903C143.469 10.7702 143.031 9.85616 142.189 9.65031C142.63 7.05526 139.891 7.30076 138.175 7.91589C138.749 6.9154 138.159 5.73844 137.145 5.38759C135.484 5.01055 133.895 6.5971 132.631 7.57003C133.062 6.55502 132.698 5.61917 131.672 5.21474C130.614 4.79956 129.474 5.60191 128.592 6.14711C128.112 5.54258 127.292 5.34551 126.557 5.3829C126.479 5.15586 126.364 4.96651 126.216 4.81681C126.22 3.41795 123.846 2.6489 123.017 3.95195C122.876 3.04591 122.504 2.17409 121.978 1.55336ZM92.273 26.9252L92.2457 27.0758C92.2105 27.107 92.1775 27.1398 92.1438 27.1718C92.0379 27.1969 91.9357 27.2234 91.8389 27.2505C91.98 27.1359 92.1254 27.0298 92.273 26.9252ZM90.4402 23.2541L90.4725 23.2989C90.478 23.3063 90.4836 23.3136 90.4895 23.3206C90.3999 23.3546 90.3107 23.3893 90.2218 23.4252L90.0886 23.4798L90.0416 23.5006C90.1739 23.4173 90.3067 23.3348 90.4402 23.2541ZM111.814 4.77337L111.894 4.7933C111.919 4.79952 111.944 4.80531 111.966 4.81061C111.974 4.81273 111.981 4.81363 111.989 4.81666L111.968 4.81212C112.006 4.84103 112.055 4.87509 112.097 4.90233C112.056 4.899 112.016 4.89507 111.975 4.8928C111.922 4.85284 111.868 4.81303 111.814 4.77337Z" fill="black"/>
<path fill-rule="evenodd" clip-rule="evenodd" d="M102.767 58.642C102.269 57.7614 100.781 57.9045 100.553 58.9316C100.092 61.0136 102.572 62.9362 104.456 62.9842C106.328 63.0317 108.429 61.4368 108.158 59.4223C108.091 58.924 107.426 58.9845 107.199 59.2969L107.111 59.4168C106.495 60.2447 105.683 61.1017 104.54 60.8998C104.067 60.8163 103.637 60.5202 103.35 60.139C103.005 59.6789 103.043 59.1295 102.767 58.642ZM114.671 43.4101C114.417 43.3402 114.161 43.3672 113.936 43.4629C113.435 43.555 113.015 43.9739 112.868 44.4521C112.856 44.4935 112.843 44.5344 112.829 44.5749L112.807 44.6353L112.867 44.482C112.839 44.6329 112.716 44.7916 112.672 44.9432C112.618 45.1295 112.604 45.3411 112.623 45.5462C112.463 45.5478 112.304 45.5532 112.144 45.567L111.991 45.5808C111.13 45.6609 110.185 45.8078 109.675 46.5522C109.388 46.9705 109.657 47.7237 110.184 47.8042C110.994 47.9283 111.692 47.4794 112.5 47.3896C113.263 47.3045 114.062 47.3532 114.816 47.4912C116.372 47.7759 117.801 48.4072 119.317 48.8032L119.524 48.8557L119.524 48.8547C119.783 48.9175 120.078 48.5559 119.821 48.3444C118.607 47.3456 117.051 46.5362 115.519 46.0432C115.743 45.6879 115.812 45.2198 115.659 44.8383C115.635 44.7592 115.606 44.6824 115.575 44.6057L115.511 44.4481C115.504 44.3737 115.49 44.3003 115.47 44.2283L115.466 44.2063L115.464 44.2076C115.35 43.8366 115.052 43.5154 114.671 43.4101ZM99.1741 43.4675C98.8419 43.1349 98.375 43.184 98.0284 43.4459L97.9824 43.4819C97.6556 43.6273 97.3851 43.9448 97.2076 44.239C97.0231 44.5446 96.9006 44.8559 96.8959 45.1923C96.0917 45.1949 95.3214 45.4364 94.731 46.0863C94.5403 46.296 94.4101 46.6195 94.515 46.9039L94.5775 47.073C94.7758 47.6101 95.6671 47.9192 95.97 47.2877L95.984 47.2569C96.3059 46.5069 97.5415 46.5856 98.1981 46.6623C98.6559 46.7159 99.108 46.8298 99.55 46.9574C99.7057 47.0023 99.8601 47.0511 100.014 47.1009L100.168 47.151C100.251 47.1776 100.679 47.4105 100.413 47.3553C100.341 47.3405 100.287 47.4449 100.36 47.48C100.678 47.632 101.017 47.3293 100.995 46.9878C100.959 46.3949 100.018 46.0699 99.5656 45.8655L99.5385 45.8531C99.365 45.7728 99.1832 45.6959 98.9956 45.6245C99.1011 45.4674 99.1883 45.2928 99.2608 45.1055C99.3294 44.9286 99.3752 44.7567 99.4003 44.5686C99.425 44.4767 99.425 44.3848 99.4003 44.2927L99.3965 44.2664C99.4093 44.2056 99.4154 44.1427 99.4146 44.0795L99.4172 44.0549H99.4146C99.4057 43.8334 99.3178 43.6114 99.1741 43.4675ZM104.482 49.7809C103.206 50.1756 101.1 51.251 101.765 52.9107C102.694 54.4351 105.157 53.3148 106.35 52.8223C107.423 52.4668 107.981 53.9709 106.944 54.4243C98.3766 57.817 98.4082 48.8631 104.171 48.9946C104.806 49.009 104.826 49.6497 104.482 49.7809ZM115.817 38.1058L115.6 38.0422C114.468 37.7142 113.313 37.1478 112.309 38.0316C111.915 38.3787 111.833 39.0998 112.116 39.5327C112.758 40.519 113.712 40.3683 114.75 40.4524C115.541 40.5164 116.319 40.7488 117.057 41.0393C117.66 41.2768 118.22 41.6112 118.748 41.9841C119.266 42.3508 119.621 42.924 120.153 43.2541C120.348 43.3751 120.573 43.2506 120.643 43.0544C120.892 42.3584 120.472 41.4913 120.117 40.8983C119.684 40.1749 119.026 39.5832 118.319 39.1355C117.544 38.6451 116.687 38.362 115.817 38.1058ZM99.3332 37.3569C97.4211 37.3564 95.5811 38.4209 94.5116 39.9815C94.1482 40.5116 94.4145 41.2971 94.9362 41.6024C95.5215 41.9451 96.1472 41.6983 96.5329 41.2073L96.5557 41.1775C97.1691 40.3599 97.9597 39.716 98.897 39.2968C99.3543 39.0922 99.86 38.9262 100.355 38.842L100.515 38.8146C100.739 38.777 100.998 38.7411 101.201 38.7763C101.31 38.7905 101.409 38.8264 101.501 38.8811C101.457 38.9777 101.571 39.0941 101.676 39.0362C102.152 38.7749 102.093 38.3089 101.701 37.9467C101.146 37.4343 100.05 37.3571 99.3332 37.3569Z" fill="black"/>
</svg>
