<svg width="398" height="497" viewBox="0 0 398 497" fill="none" xmlns="http://www.w3.org/2000/svg">
<path fill-rule="evenodd" clip-rule="evenodd" d="M56.5525 288.614C63.4267 260.022 87.806 237.836 120.594 226.784C126.896 223.654 133.006 210.226 141.476 207.767C142.834 207.373 140.691 210.51 141.476 210.697C144.277 211.366 147.416 211.435 150.509 209.022C156.036 204.709 157.77 192.108 161.131 186.413C178.856 156.376 223.11 168.128 229.039 201.333C233.173 203.699 239.017 205.783 243.517 207.689C248.151 209.652 252.227 214.406 257.002 216.106C261.263 217.622 268.283 216.548 272.577 217.87C292.323 223.951 309.048 231.625 322.16 247.172C324.923 250.451 328.038 254.482 330.552 257.795C343.514 270.895 352.517 285.578 360.809 301.331C384.009 347.569 390.319 398.765 395.98 448.583C395.851 457.3 402.44 481.471 392.695 485.65C393.278 486.18 393.067 487.244 391.986 487.235C367.278 487.016 342.627 488.957 318.302 492.732C306.566 494.553 294.892 497.05 282.937 497.461C258.121 497.31 233.394 493.66 208.61 497.114C178.816 497.114 142.608 496.352 109.462 495.233C78.4846 494.188 47.341 496.549 16.7472 491.924C14.3255 491.588 13.1429 488.995 13.6505 487.137C17.2399 475.654 19.002 463.836 21.0161 452.084C20.6149 444.546 21.3325 436.677 24.5089 429.656C32.8079 382.258 43.4498 335.169 56.5525 288.614Z" fill="#FFDBB4"/>
<path fill-rule="evenodd" clip-rule="evenodd" d="M141.476 210.871C140.69 210.684 142.834 207.546 141.476 207.94C133.006 210.4 126.896 223.828 120.594 226.957C87.8058 238.01 63.4266 260.196 56.5524 288.787C43.4496 335.343 32.8077 382.432 24.5087 429.829C21.3323 436.85 20.6148 444.72 21.0159 452.258L20.6997 454.114C18.8113 465.253 17.0509 476.432 13.6504 487.31C13.1428 489.168 14.3254 491.761 16.747 492.098C46.9932 496.67 77.7768 494.414 108.406 495.373L114.79 495.583C146.451 496.605 180.405 497.288 208.61 497.288C233.394 493.833 258.121 497.484 282.937 497.634C294.892 497.224 306.565 494.727 318.302 492.905C342.627 489.131 367.278 487.19 391.986 487.409C393.067 487.418 393.278 486.353 392.695 485.823C402.44 481.644 395.851 457.474 395.98 448.757L395.468 444.27C389.925 395.871 383.312 346.355 360.809 301.504L360.135 300.229C352.027 284.959 343.163 270.714 330.552 257.968L329.78 256.954C327.418 253.857 324.647 250.297 322.16 247.345C309.048 231.798 292.323 224.125 272.576 218.044C268.283 216.722 261.263 217.796 257.002 216.279C252.536 214.69 248.681 210.428 244.41 208.277L244.41 224.32L182.605 277.77L147.551 230.582L143.986 211.255C143.127 211.208 142.287 211.065 141.476 210.871Z" fill="#8FA7DF"/>
<path fill-rule="evenodd" clip-rule="evenodd" d="M66.5497 350.915C67.2034 353.701 68.1196 356.488 69.3378 359.128C70.5115 361.675 72.2795 363.958 73.4973 366.475C73.6607 366.814 73.9281 367.071 74.2505 367.266L74.15 367.951L74.0573 368.636C73.4499 373.257 72.7668 377.865 72.1752 382.485L71.8878 384.797C70.7245 394.444 68.8872 404.043 67.4609 413.665C66.0644 423.086 64.6426 432.508 63.1227 441.916C61.5529 451.616 59.9533 461.303 58.0863 470.963C57.2981 475.043 56.4754 479.12 55.6184 483.193L54.9565 486.311C48.1422 487.75 46.2801 496.089 53.2182 499.167C56.3673 500.558 60.4134 500.223 63.0089 498.037C65.706 495.758 65.8179 491.649 66.4439 488.562L67.0469 485.694C71.5591 464.128 75.4752 442.314 77.306 420.443C77.7765 414.796 78.1727 409.144 78.4302 403.487C78.6749 398.166 78.558 392.846 78.6516 387.526L78.6827 386.074C78.8259 380.401 78.7075 374.736 78.5391 369.062C78.5193 368.371 78.4846 367.679 78.445 366.984C78.6724 366.749 78.8363 366.471 78.9051 366.201L78.9948 365.845C79.2176 364.927 78.965 363.853 78.1623 363.197C77.8161 359.332 77.3605 355.471 77.2367 351.61C77.2268 351.293 76.7068 351.302 76.6766 351.61C76.3844 354.897 75.8005 358.193 75.2162 361.484C71.4574 358.832 68.6792 354.458 67.04 350.797C66.9211 350.532 66.4799 350.628 66.5497 350.915ZM155.483 197.258C154.859 199.762 153.625 202.01 151.971 204.102C151.184 205.102 150.288 206.032 149.213 206.81C148.291 207.475 147.242 207.91 146.261 208.488C144.835 208.292 143.345 208.767 142.344 209.688L142.502 208.341C142.552 207.906 141.73 207.819 141.636 208.24C137.303 227.423 133.352 246.618 129.931 265.94L128.432 274.472L127.021 282.483C124.679 295.831 122.413 309.174 120.707 322.619C118.434 340.563 116.523 358.554 115.127 376.57C113.725 394.713 112.863 412.869 112.249 431.047C112.096 435.63 111.932 440.208 111.774 444.79L110.716 439.311C109.66 433.832 108.625 428.347 107.738 422.843C104.553 403.144 102.008 383.305 100.765 363.436C99.6255 345.254 100.007 326.711 105.276 308.998C106.604 304.542 108.228 300.155 110.189 295.881C112.091 291.725 114.685 287.873 116.731 283.778C119.108 279.012 119.821 274.517 118.598 269.387C117.528 264.917 115.651 260.713 115.315 256.113C114.685 247.574 117.85 239.305 122.322 231.831C123.501 229.862 124.744 227.918 126.041 225.992C129.968 220.171 134.396 214.562 138.991 209.184C139.239 208.897 138.714 208.58 138.446 208.815C134.257 212.449 129.676 216.023 125.907 219.992C124.075 221.923 122.288 223.892 120.594 225.914C102.012 228.64 86.0464 238.8 75.1321 252.218C62.7465 267.443 56.4818 285.769 51.846 303.816C46.6907 323.872 42.3427 344.111 37.7123 364.266C32.919 385.122 28.1499 405.978 23.3264 426.83C20.9295 437.181 18.5321 447.534 16.1407 457.89C14.9274 463.133 13.6542 468.363 12.3225 473.589C11.6386 476.268 10.9057 478.941 10.2718 481.628C9.55917 484.659 10.2228 486.597 12.5598 488.824C13.4219 489.65 14.7838 489.637 15.8535 489.198L16.1879 489.059L16.5111 488.922C17.8347 488.351 18.8724 487.76 19.696 486.489C20.6027 485.093 20.7463 483.546 21.0578 481.994C21.6328 479.137 22.2018 476.281 22.7763 473.42C23.6346 469.142 24.5679 464.876 25.5178 460.611L30.2838 439.297C31.5546 433.614 32.8274 427.932 34.1075 422.252C38.6785 401.939 43.2544 381.631 47.8297 361.323C52.2229 341.823 56.1104 322.189 61.1117 302.803L61.3961 301.71L61.6853 300.62C66.1575 283.907 72.4061 267.741 83.744 253.578C92.4699 242.687 104.588 232.962 118.861 228.04C117.855 229.31 116.889 230.605 115.968 231.927C110.184 240.222 105.96 250.07 106.95 259.948C107.435 264.774 109.525 269.517 109.327 274.382C109.144 278.704 106.098 282.499 103.993 286.26C99.215 294.782 95.7578 303.838 93.5293 313.128C89.0574 331.784 89.0722 350.98 90.6129 369.918C92.2867 390.505 95.4656 411.087 99.0857 431.473C100.943 441.929 103.414 452.299 105.306 462.738C106.242 467.885 107.515 473.02 108.629 478.141L109.16 480.588C109.458 481.946 109.766 483.3 110.122 484.639L110.342 485.441V485.584C110.352 486.572 110.66 487.389 111.155 488.041C111.833 489.949 112.675 491.811 113.794 493.598C114.368 494.511 115.201 495.023 116.107 495.211C117.018 497.041 119.083 498.449 121.549 498.441L153.982 498.332C172.82 498.267 191.659 498.158 210.497 498.067C215.251 498.045 220 497.967 224.749 497.858C229.201 497.75 233.47 497.28 237.873 496.793C242.845 496.245 245.539 493.154 244.796 488.793C244.633 487.832 244.455 486.876 244.286 485.92C245.277 486.206 246.455 486.072 247.252 485.389L248 484.747C249.036 483.847 249.963 482.963 250.62 481.763C251.298 480.528 251.849 479.224 252.448 477.963C253.74 475.25 254.998 472.529 256.222 469.794C258.672 464.324 261.124 458.833 263.402 453.307C267.913 442.364 271.905 431.255 275.376 420.021C281.567 399.979 286.044 379.549 288.867 358.936L289.542 354.024L289.738 352.572C290.808 344.583 291.709 336.47 291.284 328.498C291.021 323.506 290.14 318.477 288.015 313.815C286.054 309.516 283.028 305.838 280.151 301.994L279.822 301.551L279.491 301.096C276.974 297.605 274.972 293.956 274.872 289.717C274.77 285.414 276.198 281.228 277.794 277.2L278.192 276.207L278.459 275.549C281.855 267.225 285.719 259.019 284.444 249.961C282.562 236.622 273.351 225.871 261.763 217.579C272.069 219.371 282.27 222.909 291.273 227.397C301.906 232.701 311.479 239.701 319.734 247.6C335.334 262.53 346.472 280.443 355.588 298.938C365.132 318.294 372.209 338.576 377.542 359.123C382.905 379.788 386.495 400.783 388.947 421.861C390.17 432.352 391.131 442.868 391.928 453.39C392.334 458.781 392.641 464.181 393.116 469.563C393.592 474.942 393.805 480.402 395.301 485.637C395.999 488.076 400.709 488.324 401.213 485.637C402.333 479.636 402.02 473.431 401.708 467.355L401.679 466.803C401.372 460.751 400.971 454.703 400.496 448.655C399.525 436.295 398.228 423.952 396.534 411.648C390.596 368.458 379.646 325.494 358.168 286.069C348.056 267.5 335.076 249.457 317.02 236.049C308.423 229.67 298.732 224.579 288.287 220.892C278.947 217.593 269.458 216.032 259.534 216.036C254.557 212.688 249.214 209.771 243.876 207.279C243.554 207.128 243.217 207.493 243.484 207.728C243.622 207.845 243.757 207.966 243.895 208.08C243.291 208.115 242.667 208.362 242.108 208.88C240.146 210.684 238.492 212.94 237.012 215.283C234.758 217.753 232.609 220.305 230.36 222.748C226.761 226.661 223.076 230.518 219.346 234.344C213.083 240.774 206.616 247.082 199.872 253.136L198.745 254.143C195.249 257.252 191.708 260.973 187.573 263.434L187.352 263.563C185.608 264.561 184.371 264.742 182.883 263.252C181.531 261.896 180.405 260.322 179.248 258.826L178.981 258.483C173.073 250.948 167.595 243.135 162.638 235.092C160.379 231.432 158.229 227.718 156.19 223.963L155.581 222.836C154.472 220.766 153.268 218.736 152.353 216.605C152.14 216.106 151.932 215.606 151.729 215.11C154.849 213.314 157.265 209.428 158.141 206.384C159.053 203.223 158.592 199.98 156.968 197.089C156.661 196.545 155.631 196.68 155.483 197.258ZM309.393 325.702C309.825 337.72 310.087 349.75 310.731 361.758L310.953 365.857C309.949 366.84 309.359 367.975 309.83 369.532C310.012 370.127 310.553 370.666 311.226 370.866L311.436 374.678C312.392 391.827 313.512 408.941 315.56 426.047C318.12 447.456 321.081 468.828 324.037 490.198C324.458 493.224 326.856 495.623 330.585 495.18C334.358 494.732 335.888 491.849 335.393 488.845C333.447 477.059 331.575 465.263 329.935 453.438L328.068 439.965C325.727 423.123 323.331 406.284 320.571 389.496C319.417 382.479 318.218 375.466 317.015 368.453L317.436 367.975C319.155 366.014 320.933 364.097 322.691 362.167C326.068 358.445 329.401 354.753 332.496 350.858C332.65 350.662 332.337 350.375 332.115 350.524C327.777 353.337 323.671 356.345 319.541 359.402L315.925 362.088C313.846 349.971 311.785 337.85 309.949 325.702C309.904 325.398 309.384 325.376 309.393 325.702ZM246.99 210.697C249.6 212.857 252.269 214.971 254.899 217.119L255.863 217.909L256.822 218.703C261.444 222.551 265.872 226.557 269.562 231.157C276.337 239.605 280.373 249.904 277.556 260.217C275.218 268.76 269.855 276.504 268.414 285.26C267.691 289.647 268.042 294.056 269.924 298.198C271.846 302.425 274.916 306.046 277.675 309.859C283.667 318.146 284.484 327.242 283.889 336.841C283.265 346.867 281.953 356.897 280.334 366.832C277.056 386.962 272.113 406.883 265.571 426.391C262.297 436.16 258.43 445.721 254.582 455.32C252.666 460.099 250.432 464.764 248.13 469.407C246.916 471.85 245.673 474.28 244.41 476.706C244.876 473.281 244.876 469.763 245.104 466.359C245.431 461.481 245.847 456.612 246.228 451.738C247.005 441.847 247.698 431.947 248.317 422.047C250.511 386.744 252.126 351.41 252.007 316.051C251.947 298.368 251.536 280.686 250.67 263.021C250.263 254.703 249.476 246.392 248.765 238.085L248.614 236.305C247.985 228.849 247.233 221.375 245.941 213.984C246.323 213.226 246.655 212.459 246.902 211.671L246.99 211.375L246.926 211.384C246.985 211.153 247.005 210.923 246.99 210.697ZM224.417 180.315C224.364 180.111 224.032 180.128 223.972 180.315C222.501 184.663 223.021 189.445 224.289 193.819C224.972 196.189 225.943 198.489 227.116 200.706L227.527 201.482C228.533 203.37 229.665 205.316 231.624 206.493C232.44 206.984 233.902 207.014 234.719 206.493L235.135 206.215C235.204 206.168 235.272 206.12 235.338 206.071C236.1 205.51 236.477 204.271 236.125 203.454C235.219 201.345 233.163 199.797 231.742 197.919C230.484 196.25 229.37 194.489 228.444 192.658C226.448 188.698 225.552 184.493 224.417 180.315Z" fill="black"/>
<path fill-rule="evenodd" clip-rule="evenodd" d="M233.283 15.7979L229.014 20.2636C231.378 21.7289 233.609 23.2012 235.707 24.6806L235.709 24.6761C225.988 19.0962 215.222 15.7979 203.592 15.7979C181.192 15.7979 135.691 32.7265 125.406 44.9371C120.301 50.9968 110.816 69.5996 105.895 89.8241C101.942 106.074 96.0618 151.983 101.942 169.234C109.467 191.312 134.226 211.717 159.756 211.717C185.286 211.717 224.921 195.502 253.13 159.967C254.42 158.342 269.232 156.459 279.799 150.36L277.025 177.25L274.916 192.892L275.382 194.005C282.95 212.012 288.947 221.406 293.373 222.188C297.89 222.985 307.088 216.472 320.968 202.646L322.742 196.097C327.246 179.391 329.499 170.424 329.499 169.195L329.496 168.971C329.429 166.144 328.322 150.14 328.299 145.834L328.299 81.286C313.372 37.6272 299.127 15.7979 285.564 15.7979H233.283Z" fill="#FFDBB4"/>
<path fill-rule="evenodd" clip-rule="evenodd" d="M268.653 0.929675C264.264 -0.565934 259.179 -0.283333 255.013 1.96878C246.834 1.66009 238.7 5.86866 234.436 12.012C234.347 12.0989 234.252 12.1859 234.168 12.2728L233.264 13.1995C232.409 14.0845 231.506 15.0599 230.791 16.0671C234.294 16.1375 237.212 17.3935 239.249 19.9304C240.702 21.7406 237.373 23.4607 235.887 21.7486L235.835 21.686C234.612 20.163 232.766 19.5731 230.71 19.5422C230.12 19.5335 229.673 19.3348 229.356 19.0418C229.23 19.4457 229.118 19.8539 229.014 20.2639C218.665 16.7227 207.509 15.7849 196.397 16.6249C196.884 17.3188 197.291 18.0622 197.605 18.8435C197.96 19.7291 197.202 20.7461 196.224 20.9826C195.166 21.2382 194.21 20.6929 193.828 19.8503L193.793 19.7678C193.366 18.7035 192.668 17.7901 191.732 17.0818C186.501 17.7057 181.308 18.6979 176.241 19.977C170.151 21.5156 164.118 23.3934 158.219 25.5433C159.218 25.8881 160.081 26.4707 160.686 27.4433C161.892 29.3846 158.575 31.1235 157.317 29.2675L157.272 29.1989C157.149 28.9998 157.039 28.8802 156.959 28.812L156.931 28.7889L156.757 28.7184L156.432 28.6367L156.308 28.6098C156.198 28.5881 156.153 28.5894 155.864 28.5754C155.479 28.5563 155.094 28.558 154.709 28.5576C153.804 28.5571 153.226 28.1132 152.965 27.5454C150.054 28.7015 147.179 29.9188 144.356 31.194L143.685 31.4997C134.97 35.5055 126.715 40.7661 121.925 48.5066C121.608 49.0239 121.51 49.5891 121.589 50.1283C120.566 51.2065 119.578 52.3195 118.629 53.4499C115.733 56.9107 113.613 60.8453 111.607 64.7452C107.569 72.5885 104.851 80.6448 102.731 89.0445C100.68 97.1399 99.0248 105.322 97.4874 113.505C95.783 122.596 94.3647 131.765 94.0677 140.986C93.5439 157.425 97.1964 173.959 107.688 187.798C117.047 200.146 131.141 209.95 147.855 213.089C164.855 216.28 182.843 213.167 196.24 203.202C198.4 201.598 198.103 198.359 196.24 196.715C194.13 194.863 191.017 195.12 188.867 196.715C176.251 206.102 157.887 207.55 142.685 202.767C128.631 198.341 117.621 188.133 110.865 176.668C102.622 162.686 101.233 146.625 102.499 131.156C103.19 122.661 104.629 114.235 106.111 105.822L107.006 100.758C107.983 95.2732 109.008 89.7956 110.346 84.3664L110.659 83.1015C112.294 76.5543 114.209 69.8393 117.171 63.6844C118.723 60.454 120.59 57.3411 122.503 54.2673C122.874 53.6716 123.255 53.0673 123.645 52.4586C124.169 52.6195 124.767 52.6456 125.394 52.4717C130.796 50.9934 136.345 50.0022 141.993 49.6717C144.567 49.5204 147.144 49.497 149.718 49.5852C154.125 49.3596 158.654 49.7004 162.852 50.8891C163.263 50.5791 163.679 50.2756 164.095 49.9722C164.207 49.9643 164.32 49.9539 164.432 49.9343C165.503 49.7491 166.256 49.0796 166.71 48.234C166.734 48.1892 166.755 48.1444 166.775 48.0996C167.312 47.7383 167.854 47.3827 168.401 47.0318C169.733 47.3357 170.9 46.3605 171.214 45.2919C171.511 45.1158 171.812 44.9454 172.112 44.7728C172.347 44.8232 172.58 44.8649 172.807 44.8797C173.788 44.9419 174.735 44.8097 175.605 44.398C176.705 43.8767 177.408 43.0359 177.879 42.0807C179.543 42.1707 181.228 41.6955 182.715 40.8363C183.923 40.1394 184.848 39.1773 185.768 38.2169C196.975 33.8192 209.158 31.2227 221.369 30.5575C222.572 30.761 223.766 31.0032 224.946 31.2849C225.225 31.3518 225.621 31.4831 226.077 31.6405C223.355 31.351 220.597 31.3223 217.801 31.6766C204.53 33.3648 194.194 42.1063 185.299 50.3578C183.182 49.9817 181.044 52.3925 183.002 53.989L198.271 66.4369C197.896 67.829 199.711 69.2012 201.301 68.8668C203.966 68.3034 206.636 67.7556 209.308 67.2169C212.096 68.4034 215.6 68.2003 218.128 66.4804C218.246 66.4004 218.501 66.2726 218.723 66.1456C218.931 66.2965 219.21 66.4478 219.321 66.5121C220.22 67.0356 221.315 67.1895 222.365 67.0425C223.445 66.8917 224.42 66.4095 225.261 65.8091C225.796 65.4266 227.043 63.8308 227.737 63.7133L227.805 63.7066C227.342 63.7183 228.83 64.9352 229.23 65.187C230.163 65.7726 231.194 66.0804 232.355 65.9682C234.378 65.7724 236.118 64.1502 237.107 62.6524L237.182 62.5375L237.213 62.4662L237.239 62.5433C237.244 62.5569 237.25 62.5715 237.256 62.5879C237.405 62.9405 237.87 63.3413 238.186 63.5879C239.088 64.2891 240.204 64.5974 241.396 64.4144C242.404 64.2599 243.253 63.7236 243.935 63.0747L244.041 62.9714C244.243 62.7711 245.572 61.2001 245.362 60.8236L245.338 60.7919L245.404 60.7797C246.212 60.9545 246.891 60.7792 247.388 60.4127C250.162 59.878 252.901 59.2549 255.551 58.4628C255.759 58.9758 255.962 59.4888 256.159 60.0062C254.712 60.7932 253.373 61.9149 252.142 62.7148C249.809 64.2278 247.477 65.7408 245.149 67.2582L235.927 73.2432L234.872 72.9941C233.525 72.6758 232.369 73.366 231.874 74.421L231.833 74.5123C231.637 74.9745 231.401 75.4019 231.123 75.811C228.818 75.7301 226.866 76.9753 226.235 78.7613C225.665 78.75 225.09 78.7692 224.502 78.8261C222.891 78.9817 221.806 80.0339 222.098 81.4787L222.12 81.5778L222.159 81.7386C221.225 82.0873 220.548 82.7608 220.398 83.779C220.148 84.1099 219.946 84.4699 219.817 84.8707C219.144 86.9507 220.454 89.5219 221.152 91.5144L221.206 91.6705C221.654 92.9801 222.118 94.2833 222.587 95.586L223.755 98.8201C226.995 107.834 230.154 117.337 227.532 126.787C226.973 128.787 229.879 129.691 231.139 128.126C234.194 124.337 237.495 120.766 240.961 117.338L241.129 117.315C243.556 116.885 244.498 115.377 245.612 113.84C246.268 114.01 246.974 114.05 247.656 113.934C248.643 113.767 249.528 113.271 250.226 112.644C250.818 112.113 251.36 110.75 252.059 110.413C252.934 109.99 254.692 110.594 255.737 110.458C256.586 110.348 257.379 110.092 258.149 109.77C259.563 111.466 260.501 113.459 260.73 115.609C260.82 116.426 261.097 117.118 261.497 117.692C260.024 117.644 258.547 117.735 257.088 117.974C251.692 118.857 247.822 121.787 245.648 126.152C245.555 126.343 245.836 126.5 245.965 126.317C249.191 121.948 256.214 121.726 261.314 123.265C266.73 124.9 269.77 129.096 270.851 133.882C272.037 139.13 270.516 144.786 267.268 149.256C265.762 151.334 263.705 153.23 260.973 153.995C257.726 154.903 254.727 153.277 251.401 154.117C249.137 154.686 248.139 156.612 248.549 158.538C248.712 159.295 249.014 159.956 249.419 160.529C248.223 162.616 247.116 164.764 245.708 166.738C243.533 169.786 240.904 172.307 238.038 174.851C235.078 177.477 232.063 180.051 228.896 182.485C225.861 184.82 222.382 186.481 219.199 188.62C216.966 190.12 215.859 192.224 216.961 194.633C217.87 196.624 220.935 198.32 223.415 197.42C228.164 195.698 232.32 192.768 236.105 189.75C239.614 186.95 242.669 183.603 244.976 179.968C247.154 176.541 248.758 172.65 250.111 168.901L250.279 168.434C250.917 166.651 251.588 164.647 252.023 162.625C254.627 163.877 258.161 164.06 260.948 163.721C265.45 163.177 269.557 161.182 272.66 158.273C274.107 156.92 275.385 155.376 276.489 153.702C276.389 154.721 276.329 155.706 276.265 156.603C273.685 159.089 272.65 162.677 273.566 165.951C271.407 167.905 270.802 170.84 271.929 173.338C269.566 175.399 269.655 178.68 270.677 181.66C267.884 184.406 267.619 188.685 269.8 191.784L269.866 192.006C267.664 195.248 268.16 199.437 270.919 202.3C269.035 205.516 269.327 209.841 274.036 211.088C275.752 211.543 277.416 211.155 278.66 210.309C277.524 215.282 277.015 220.331 278.531 225.328C279.134 227.31 281.338 228.758 283.656 228.758C285.593 228.758 287.002 227.901 287.975 226.641C287.861 229.149 288.034 231.671 288.642 234.214C289.009 235.75 290.628 236.948 292.347 237.319C291.727 237.934 291.48 238.824 292.074 239.751C294.595 243.677 300.686 242.048 301.098 238.287C302.818 237.158 303.618 235.303 303.949 233.299C304.431 230.377 304.606 227.502 305.152 224.617L305.361 224.789L305.469 224.871L305.504 225.08C305.817 226.506 306.731 227.504 307.918 228.1C307.66 230.588 308.137 233.121 309.931 235.01C311.126 236.269 313.162 236.765 314.907 236.492C315.016 236.497 315.128 236.496 315.245 236.483C319.197 236.021 321.484 232.723 320.443 229.696C322.035 227.981 322.705 225.804 322.234 223.652C325.313 221.859 325.25 217.919 324.184 214.754C327.412 212.513 328.626 208.323 327.004 204.993C329.913 201.814 330.318 197.385 328.341 193.765C331.542 191.452 331.524 186.986 328.349 184.62C330.04 181.667 331.059 178.129 329.37 175.427C330.562 174.27 331.216 172.62 331.078 171.027C330.876 168.686 329.116 167.068 326.932 165.991L326.78 165.258C326.267 165.314 325.721 165.188 325.239 164.781C324.762 164.378 324.271 164.054 323.764 163.786C323.189 163.779 322.694 163.554 322.347 163.208C321.395 162.923 320.371 162.798 319.236 162.786C316.784 162.763 316.698 159.537 318.98 159.328C319.34 159.009 319.836 158.807 320.374 158.807L320.796 158.809C321.781 158.817 322.776 158.87 323.69 159.215C324.284 159.439 324.742 159.776 325.077 160.188C325.14 160.811 325.526 161.433 326.36 161.946C327.324 162.539 328.643 162.608 329.675 162.072C331.119 161.321 331.134 160.148 330.967 158.873C330.603 156.085 332.425 153.46 331.991 150.608C331.799 149.346 331.322 148.257 330.543 147.378C332.185 145.216 332.474 142.426 331.211 140.054C333.843 137.562 334.298 133.721 332.62 130.723C332.595 130.65 332.577 130.576 332.55 130.504C332.361 129.995 332.099 129.535 331.811 129.096C333.285 126.85 333.274 124.093 331.776 121.857C334.045 119.53 334.117 115.827 332.099 113.32C332.087 113.113 332.063 112.905 332.042 112.697C332.968 110.582 332.746 108.177 331.571 106.21C331.99 105.36 332.314 104.445 332.52 103.47C333.049 100.957 332.777 98.5138 331.987 96.0617C331.859 95.6748 331.715 95.2878 331.562 94.9009C331.536 93.2214 331.464 91.5492 331.368 89.8801C331.744 88.4672 331.804 86.9146 331.812 85.4731L331.815 84.5384C331.833 82.1597 332.022 78.6769 330.312 76.6549C331.41 74.4706 330.959 71.7185 329.127 69.9872C330.413 68.0416 330.682 65.6526 329.39 63.494C329.183 63.1466 328.942 62.8231 328.678 62.517C328.785 60.5401 328.312 58.5015 327.114 56.5368C326.337 55.2577 325.175 54.1503 323.793 53.2643C323.817 53.0021 323.831 52.7403 323.826 52.4825C323.802 51.3321 323.512 50.1769 323.024 49.0992C323.9 47.7835 324.306 46.3005 323.793 44.7023C323.22 42.8937 321.712 41.3372 319.83 40.459C319.678 38.7538 319.375 37.0586 318.943 35.3861C320.099 33.1196 319.178 30.1284 316.564 28.7932C316.905 26.982 316.597 25.1038 315.099 23.689C314.531 23.1529 313.862 22.7464 313.142 22.4769C313.489 20.6556 313.097 18.7609 311.666 17.2779C310.497 16.0671 308.764 15.3314 307.001 15.2232C306.322 12.0554 302.882 9.68681 299.252 9.8755C298.799 8.48076 297.715 7.26471 296.034 6.64821C295.603 6.49038 295.168 6.38647 294.735 6.32865C291.784 3.70959 287.39 1.93443 283.586 1.02532C279.771 0.117069 275.903 0.0291536 272.627 1.08514L272.389 1.16445L272.122 1.13402C270.965 1.02098 269.809 0.955761 268.653 0.929675ZM297.646 215.591C298.665 215.312 299.802 215.922 300.078 216.806C300.37 217.74 299.72 218.665 298.697 218.945C297.423 219.295 296.084 219.382 294.756 219.383C293.688 219.384 292.779 218.583 292.779 217.644C292.779 216.7 293.684 215.906 294.756 215.905C295.836 215.904 296.634 215.869 297.646 215.591ZM306.711 197.123C308.235 197.124 309.541 197.444 310.671 198.383C311.424 199.01 311.443 200.22 310.671 200.843C309.891 201.472 308.76 201.509 307.96 200.91L307.806 200.788C307.787 200.773 307.773 200.762 307.761 200.752C307.697 200.715 307.632 200.678 307.564 200.647L307.693 200.721C307.791 200.783 307.563 200.681 307.436 200.633L307.396 200.619L307.383 200.616L307.28 200.609C307.091 200.6 306.901 200.601 306.711 200.601C305.677 200.6 304.687 199.802 304.734 198.862C304.783 197.92 305.603 197.122 306.711 197.123ZM277.961 186.089C275.821 184.935 277.732 181.982 279.878 183.046L279.956 183.086C281.056 183.68 282.409 183.599 283.655 183.6C286.199 183.601 286.203 187.079 283.655 187.078L283.234 187.076C281.407 187.064 279.559 186.952 277.961 186.089ZM294.8 173.394C296.416 173.127 298.227 172.888 299.928 173.051L300.211 173.082H300.734C301.189 173.082 301.629 173.243 301.982 173.496C302.542 173.7 303.071 173.974 303.555 174.342C305.481 175.811 302.674 178.262 300.759 176.802C300.653 176.721 300.529 176.654 300.392 176.599L300.287 176.56H298.172C297.98 176.56 297.793 176.525 297.61 176.474C296.924 176.557 296.284 176.676 295.851 176.748C293.364 177.16 292.299 173.808 294.8 173.394ZM296.605 140.013C299.704 138.748 303.135 138.757 306.001 140.513C308.05 141.768 306.147 144.729 304.08 143.56L304.006 143.516C303.749 143.359 303.485 143.227 303.218 143.108C301.763 143.478 300.299 143.495 298.892 143.04L298.709 142.978L298.6 143.016C296.307 143.951 294.297 140.954 296.605 140.013ZM262.864 134.563C265.994 134.254 266.019 129.904 262.864 130.215C256.202 130.873 250.157 133.478 245.73 137.953C243.67 140.034 247.062 143.078 249.159 141.09L249.224 141.027C252.744 137.469 257.495 135.092 262.864 134.563ZM297.93 112.228C298.626 112.161 299.321 112.127 300.004 112.156C301.646 112.226 303.645 113.189 302.925 114.93C302.347 116.325 300.453 116.38 299.518 115.636C299.129 115.645 298.741 115.667 298.354 115.702C297.322 115.795 296.299 115.969 295.282 116.145C292.796 116.575 291.732 113.223 294.231 112.791L295.335 112.598C295.708 112.534 296.083 112.472 296.461 112.414C296.687 112.316 296.929 112.249 297.187 112.232L297.318 112.228H297.93ZM317.572 85.2438L317.804 85.2161C321.142 84.8403 326.501 85.1861 326.906 88.9245C327.13 90.9949 323.73 91.1249 323.059 89.3545C320.594 88.9636 318.108 88.8889 315.66 89.1263C314.726 88.2915 314.719 86.6868 316.274 86.2863C316.493 85.7672 316.951 85.3225 317.572 85.2438ZM241.268 78.9296C242.039 78.3066 243.304 78.224 244.063 78.9296C244.501 79.3357 244.866 79.787 245.155 80.2835L245.347 80.6187C245.38 80.6744 245.413 80.7297 245.448 80.7843C245.513 80.8856 245.585 80.9821 245.656 81.0804L245.704 81.1215C245.722 81.1383 245.745 81.1587 245.771 81.1834C246.482 81.8447 246.573 82.9956 245.771 83.6429C245 84.266 243.735 84.3486 242.976 83.6429C242.539 83.2369 242.173 82.786 241.884 82.2891L241.692 81.9541C241.659 81.8985 241.626 81.8433 241.591 81.7886C241.527 81.6869 241.453 81.5904 241.383 81.4921L241.305 81.423C241.293 81.4128 241.281 81.4015 241.268 81.3891C240.556 80.7282 240.467 79.577 241.268 78.9296ZM281.803 74.4006C284.589 72.6641 287.901 72.5833 290.461 74.6723C292.309 76.1802 289.594 78.5961 287.731 77.1833L287.665 77.1318C287.598 77.0762 287.529 77.0275 287.461 76.981C287.127 77.2314 286.702 77.3901 286.217 77.3905C286.09 77.3908 285.963 77.3905 285.837 77.3929L285.647 77.3988L285.545 77.4062L285.532 77.4083L285.444 77.4416C285.281 77.5061 285.057 77.6057 285.364 77.4362C285.296 77.4679 285.231 77.5053 285.166 77.5418L285.053 77.6327C284.307 78.2527 283.018 78.3344 282.278 77.6488C280.968 77.2592 280.273 75.354 281.803 74.4006ZM254.573 68.703L254.522 68.689C252.08 68.0756 253.118 64.7187 255.573 65.3348C258.178 65.9891 259.422 68.1216 259.943 70.3059C260.162 71.2246 259.636 72.1859 258.562 72.4454C257.581 72.6824 256.351 72.1541 256.13 71.2307C255.976 70.5813 255.797 70.0304 255.515 69.5191L255.344 69.2272C255.265 69.0942 255.237 69.0721 254.967 68.8651C254.922 68.8303 254.716 68.7461 254.573 68.703ZM295.938 51.1856L296.32 51.109C298.7 50.6504 301.858 50.411 303.294 52.486C304.604 54.3764 301.3 56.0972 299.94 54.3103C299.919 54.3097 299.895 54.3099 299.867 54.3119L299.823 54.3164L299.213 54.2729C298.453 54.2681 297.726 54.3864 296.99 54.5399C294.516 55.0551 293.46 51.7021 295.938 51.1856ZM210.526 37.8147C208.725 36.23 211.519 33.7696 213.321 35.3556C214.746 36.6091 216.12 37.8712 217.046 39.4638C217.532 40.2994 217.294 41.3507 216.337 41.8433C215.454 42.2976 214.121 42.0585 213.632 41.2194C212.83 39.839 211.817 38.9512 210.526 37.8147ZM233.255 33.6548C235.035 34.5817 236.187 36.1087 236.886 37.876C237.237 38.7629 236.486 39.7781 235.505 40.0151C234.451 40.2699 233.488 39.7266 233.109 38.8829L233.074 38.8003C232.887 38.3277 232.587 37.7695 232.217 37.3482C231.901 36.9886 231.409 36.6286 231.039 36.5091C230.148 36.2213 229.516 35.5109 229.598 34.6813C231.064 35.1269 232.424 34.5909 233.255 33.6548ZM286.527 26.0898C288.322 24.6238 290.731 24.4294 292.907 25.3168C293.876 25.7116 294.119 26.9407 293.616 27.6963C293.035 28.5706 291.884 28.7167 290.912 28.3202C291.162 28.4219 290.711 28.2876 290.516 28.2385C290.491 28.2486 290.165 28.2356 290.052 28.237L289.917 28.2445C289.916 28.2453 289.949 28.2448 290.017 28.2428C289.922 28.2616 289.828 28.2842 289.736 28.3101L289.618 28.346C289.677 28.3351 289.41 28.4882 289.336 28.5391L289.322 28.5489C287.459 30.0701 284.657 27.6163 286.527 26.0898Z" fill="black"/>
<path fill-rule="evenodd" clip-rule="evenodd" d="M147.977 167.104C147.217 165.944 145.468 164.87 143.867 165.035C136.697 165.773 136.709 173.405 139.478 177.861C141.933 181.811 147.013 184.13 152.098 183.792C157.44 183.436 161.992 180.678 163.995 176.291C165.32 173.389 165.932 168.031 162.408 166.081C162.343 166.045 162.235 166.054 162.183 166.107C160.493 167.832 160.427 170.423 158.947 172.344C157.572 174.131 155.434 175.607 152.93 175.835C151.06 176.005 149.169 175.413 148.437 173.939C148.041 173.142 148.086 172.709 148.235 172.16L148.37 171.683C148.839 170.013 149.049 168.742 147.977 167.104ZM146.06 133.633C142.32 135.629 136.622 140.282 140.645 145.23C145.381 149.592 152.199 144.59 155.558 142.328C158.674 140.575 162.174 145.084 159.283 147.131C135.006 162.911 125.153 134.155 144.168 131.287C146.262 130.971 147.04 133.016 146.06 133.633ZM185.551 119.949C183.255 116.926 178.016 117.371 176.751 120.959C176.066 122.902 177.012 124.649 176.963 126.59C176.922 128.229 177.045 130.056 177.617 131.644C178.922 135.265 182.632 137.822 187.02 137.716C191.394 137.61 195.246 135.18 197.078 131.757C198.916 128.321 198.527 124.765 197.185 121.271C197.12 121.103 196.87 121.022 196.719 121.163C195.132 122.643 193.971 124.206 192.77 125.863L191.538 127.562C190.597 128.841 189.229 130.475 187.472 130.372L187.208 130.35C186.72 130.313 186.795 130.398 186.418 129.814C186.244 129.543 186.276 129.041 186.191 128.721L186.162 128.614L186.178 128.556C186.215 128.401 186.252 128.11 186.282 127.604L186.288 127.493C186.416 125.129 187.177 122.091 185.551 119.949ZM127.366 121.962C127.777 118.095 121.585 117.236 119.526 120.098C118.452 121.59 118.14 123.464 117.902 125.24L117.791 126.083C117.548 127.906 117.451 129.804 118.353 131.505C119.773 134.185 122.862 135.601 126.194 135.377C129.376 135.162 132.279 133.542 133.809 131.084C135.173 128.89 136.53 124.607 134.873 122.318C134.773 122.18 134.573 122.162 134.435 122.269C132.869 123.489 132.614 125.715 131.683 127.305C130.723 128.945 129.267 130.543 127.06 130.792C124.948 131.031 124.141 130.018 124.68 128.251C125.375 125.969 127.104 124.417 127.366 121.962ZM183.878 96.9599L182.865 96.6194C179.396 95.4687 174.632 94.1387 171.811 96.6156C170.071 98.1429 169.74 100.393 170.982 102.257C172.487 104.514 175.186 104.57 177.793 104.903C180.758 105.281 183.773 106 186.534 107.025C189.643 108.18 192.529 109.62 195.356 111.229C198.043 112.757 200.721 115.255 203.938 115.725C204.069 115.745 204.218 115.695 204.252 115.569C204.983 112.808 202.953 110.091 201.141 107.937C198.949 105.329 196.293 103.189 193.325 101.27C190.46 99.4172 187.187 98.0786 183.878 96.9599ZM120.852 106.776L120.543 106.728C118.439 106.42 116.532 106.491 114.946 107.954C113.736 109.07 113.269 110.517 113.846 111.992C114.379 113.354 115.569 114.737 117.297 115.022C123.13 115.985 129.592 115.826 135.454 115.097C138.136 114.763 140.843 114.354 143.455 113.71L144.657 113.404C146.838 112.857 149.335 112.285 150.919 110.877C151.489 110.371 151.161 109.647 150.479 109.412C147.715 108.462 143.926 108.968 140.978 108.893C137.549 108.807 134.115 108.582 130.702 108.271C127.368 107.966 124.141 107.305 120.852 106.776Z" fill="black"/>
</svg>
