<svg width="424" height="497" viewBox="0 0 424 497" fill="none" xmlns="http://www.w3.org/2000/svg">
<path fill-rule="evenodd" clip-rule="evenodd" d="M82.5525 288.614C89.4267 260.022 113.806 237.836 146.594 226.784C152.896 223.654 159.006 210.226 167.476 207.767C168.834 207.373 166.691 210.51 167.476 210.697C170.277 211.366 173.416 211.435 176.509 209.022C182.036 204.709 183.77 192.108 187.131 186.413C204.856 156.376 249.11 168.128 255.039 201.333C259.173 203.699 265.017 205.783 269.517 207.689C274.151 209.652 278.227 214.406 283.002 216.106C287.263 217.622 294.283 216.548 298.577 217.87C318.323 223.951 335.048 231.625 348.16 247.172C350.923 250.451 354.038 254.482 356.552 257.795C369.514 270.895 378.517 285.578 386.809 301.331C410.009 347.569 416.319 398.765 421.98 448.583C421.851 457.3 428.44 481.471 418.695 485.65C419.278 486.18 419.067 487.244 417.986 487.235C393.278 487.016 368.627 488.957 344.302 492.732C332.566 494.553 320.892 497.05 308.937 497.461C284.121 497.31 259.394 493.66 234.61 497.114C204.816 497.114 168.608 496.352 135.462 495.233C104.485 494.188 73.341 496.549 42.7472 491.924C40.3255 491.588 39.1429 488.995 39.6505 487.137C43.2399 475.654 45.002 463.836 47.016 452.084C46.6149 444.546 47.3325 436.677 50.5089 429.656C58.8079 382.258 69.4498 335.169 82.5525 288.614Z" fill="#FFDBB4"/>
<path fill-rule="evenodd" clip-rule="evenodd" d="M167.476 210.871C166.691 210.684 168.834 207.546 167.476 207.94C159.006 210.4 152.896 223.828 146.594 226.957C113.806 238.01 89.4266 260.196 82.5524 288.787C69.4497 335.343 58.8077 382.432 50.5087 429.829C47.3323 436.85 46.6148 444.72 47.0159 452.258L46.6997 454.114C44.8113 465.253 43.0509 476.432 39.6504 487.31C39.1428 489.168 40.3254 491.761 42.7471 492.098C72.9932 496.67 103.777 494.414 134.406 495.373L140.79 495.583C172.451 496.605 206.405 497.288 234.61 497.288C259.394 493.833 284.121 497.484 308.937 497.634C320.892 497.224 332.565 494.727 344.302 492.905C368.627 489.131 393.278 487.19 417.986 487.409C419.067 487.418 419.278 486.353 418.695 485.823C428.44 481.644 421.851 457.474 421.98 448.757L421.468 444.27C415.925 395.871 409.312 346.355 386.809 301.504L386.135 300.229C378.027 284.959 369.163 270.714 356.552 257.968L355.78 256.954C353.418 253.857 350.647 250.297 348.16 247.345C335.048 231.798 318.323 224.125 298.576 218.044C294.283 216.722 287.263 217.796 283.002 216.279C278.536 214.69 274.681 210.428 270.41 208.277L270.41 224.32L208.605 277.77L173.551 230.582L169.986 211.255C169.127 211.208 168.287 211.065 167.476 210.871Z" fill="#8FA7DF"/>
<path fill-rule="evenodd" clip-rule="evenodd" d="M92.5497 350.915C93.2034 353.701 94.1196 356.488 95.3378 359.128C96.5115 361.675 98.2795 363.958 99.4973 366.475C99.6607 366.814 99.9281 367.071 100.25 367.266L100.15 367.951L100.057 368.636C99.4499 373.257 98.7668 377.865 98.1752 382.485L97.8878 384.797C96.7245 394.444 94.8872 404.043 93.4609 413.665C92.0644 423.086 90.6426 432.508 89.1227 441.916C87.5529 451.616 85.9533 461.303 84.0863 470.963C83.2981 475.043 82.4754 479.12 81.6184 483.193L80.9565 486.311C74.1421 487.75 72.2801 496.089 79.2182 499.167C82.3674 500.558 86.4134 500.223 89.0088 498.037C91.706 495.758 91.8179 491.649 92.4439 488.562L93.0469 485.694C97.5591 464.128 101.475 442.314 103.306 420.443C103.776 414.796 104.173 409.144 104.43 403.487C104.675 398.166 104.558 392.846 104.652 387.526L104.683 386.074C104.826 380.401 104.708 374.736 104.539 369.062C104.519 368.371 104.485 367.679 104.445 366.984C104.672 366.749 104.836 366.471 104.905 366.201L104.995 365.845C105.218 364.927 104.965 363.853 104.162 363.197C103.816 359.332 103.36 355.471 103.237 351.61C103.227 351.293 102.707 351.302 102.677 351.61C102.384 354.897 101.801 358.193 101.216 361.484C97.4574 358.832 94.6792 354.458 93.04 350.797C92.9211 350.532 92.4799 350.628 92.5497 350.915ZM181.483 197.258C180.859 199.762 179.625 202.01 177.971 204.102C177.184 205.102 176.288 206.032 175.213 206.81C174.291 207.475 173.241 207.91 172.261 208.488C170.835 208.292 169.345 208.767 168.344 209.688L168.502 208.341C168.552 207.906 167.73 207.819 167.636 208.24C163.303 227.423 159.352 246.618 155.931 265.94L154.432 274.472L153.021 282.483C150.679 295.831 148.413 309.174 146.707 322.619C144.434 340.563 142.523 358.554 141.127 376.57C139.725 394.713 138.863 412.869 138.249 431.047C138.096 435.63 137.932 440.208 137.774 444.79L136.716 439.311C135.66 433.832 134.625 428.347 133.738 422.843C130.553 403.144 128.008 383.305 126.765 363.436C125.625 345.254 126.007 326.711 131.276 308.998C132.604 304.542 134.228 300.155 136.189 295.881C138.091 291.725 140.685 287.873 142.731 283.778C145.108 279.012 145.821 274.517 144.598 269.387C143.528 264.917 141.651 260.713 141.315 256.113C140.685 247.574 143.85 239.305 148.322 231.831C149.501 229.862 150.744 227.918 152.041 225.992C155.968 220.171 160.396 214.562 164.991 209.184C165.239 208.897 164.714 208.58 164.446 208.815C160.257 212.449 155.676 216.023 151.907 219.992C150.075 221.923 148.288 223.892 146.594 225.914C128.012 228.64 112.046 238.8 101.132 252.218C88.7465 267.443 82.4818 285.769 77.846 303.816C72.6907 323.872 68.3426 344.111 63.7123 364.266C58.919 385.122 54.1499 405.978 49.3264 426.83C46.9295 437.181 44.5321 447.534 42.1407 457.89C40.9274 463.133 39.6542 468.363 38.3225 473.589C37.6386 476.268 36.9057 478.941 36.2718 481.628C35.5592 484.659 36.2228 486.597 38.5597 488.824C39.4219 489.65 40.7838 489.637 41.8535 489.198L42.1879 489.059L42.5111 488.922C43.8347 488.351 44.8724 487.76 45.6959 486.489C46.6027 485.093 46.7463 483.546 47.0578 481.994C47.6328 479.137 48.2018 476.281 48.7763 473.42C49.6346 469.142 50.5679 464.876 51.5178 460.611L56.2838 439.297C57.5546 433.614 58.8274 427.932 60.1075 422.252C64.6785 401.939 69.2544 381.631 73.8298 361.323C78.2229 341.823 82.1104 322.189 87.1117 302.803L87.3961 301.71L87.6853 300.62C92.1575 283.907 98.4061 267.741 109.744 253.578C118.47 242.687 130.588 232.962 144.861 228.04C143.855 229.31 142.889 230.605 141.968 231.927C136.184 240.222 131.96 250.07 132.95 259.948C133.435 264.774 135.525 269.517 135.327 274.382C135.144 278.704 132.098 282.499 129.993 286.26C125.215 294.782 121.758 303.838 119.529 313.128C115.057 331.784 115.072 350.98 116.613 369.918C118.287 390.505 121.466 411.087 125.086 431.473C126.943 441.929 129.414 452.299 131.306 462.738C132.242 467.885 133.515 473.02 134.629 478.141L135.16 480.588C135.458 481.946 135.766 483.3 136.122 484.639L136.342 485.441V485.584C136.352 486.572 136.66 487.389 137.155 488.041C137.833 489.949 138.675 491.811 139.794 493.598C140.368 494.511 141.201 495.023 142.107 495.211C143.018 497.041 145.083 498.449 147.549 498.441L179.982 498.332C198.82 498.267 217.659 498.158 236.497 498.067C241.251 498.045 246 497.967 250.749 497.858C255.201 497.75 259.47 497.28 263.873 496.793C268.845 496.245 271.539 493.154 270.796 488.793C270.633 487.832 270.455 486.876 270.286 485.92C271.277 486.206 272.455 486.072 273.252 485.389L274 484.747C275.036 483.847 275.963 482.963 276.62 481.763C277.298 480.528 277.849 479.224 278.448 477.963C279.74 475.25 280.998 472.529 282.222 469.794C284.672 464.324 287.124 458.833 289.402 453.307C293.913 442.364 297.905 431.255 301.376 420.021C307.567 399.979 312.044 379.549 314.867 358.936L315.542 354.024L315.738 352.572C316.808 344.583 317.709 336.47 317.284 328.498C317.021 323.506 316.14 318.477 314.015 313.815C312.054 309.516 309.028 305.838 306.151 301.994L305.822 301.551L305.491 301.096C302.974 297.605 300.972 293.956 300.872 289.717C300.77 285.414 302.198 281.228 303.794 277.2L304.192 276.207L304.459 275.549C307.855 267.225 311.719 259.019 310.444 249.961C308.562 236.622 299.351 225.871 287.763 217.579C298.069 219.371 308.27 222.909 317.273 227.397C327.906 232.701 337.479 239.701 345.734 247.6C361.334 262.53 372.472 280.443 381.588 298.938C391.132 318.294 398.209 338.576 403.542 359.123C408.905 379.788 412.495 400.783 414.947 421.861C416.17 432.352 417.131 442.868 417.928 453.39C418.334 458.781 418.641 464.181 419.116 469.563C419.592 474.942 419.805 480.402 421.301 485.637C421.999 488.076 426.709 488.324 427.213 485.637C428.333 479.636 428.02 473.431 427.708 467.355L427.679 466.803C427.372 460.751 426.971 454.703 426.496 448.655C425.525 436.295 424.228 423.952 422.534 411.648C416.596 368.458 405.646 325.494 384.168 286.069C374.056 267.5 361.076 249.457 343.02 236.049C334.423 229.67 324.732 224.579 314.287 220.892C304.947 217.593 295.458 216.032 285.534 216.036C280.557 212.688 275.214 209.771 269.876 207.279C269.554 207.128 269.217 207.493 269.484 207.728C269.622 207.845 269.757 207.966 269.895 208.08C269.291 208.115 268.667 208.362 268.108 208.88C266.146 210.684 264.492 212.94 263.012 215.283C260.758 217.753 258.609 220.305 256.36 222.748C252.761 226.661 249.076 230.518 245.346 234.344C239.083 240.774 232.616 247.082 225.872 253.136L224.745 254.143C221.249 257.252 217.708 260.973 213.573 263.434L213.352 263.563C211.608 264.561 210.371 264.742 208.883 263.252C207.531 261.896 206.405 260.322 205.248 258.826L204.981 258.483C199.073 250.948 193.595 243.135 188.638 235.092C186.379 231.432 184.229 227.718 182.19 223.963L181.581 222.836C180.472 220.766 179.268 218.736 178.353 216.605C178.14 216.106 177.932 215.606 177.729 215.11C180.849 213.314 183.265 209.428 184.141 206.384C185.053 203.223 184.592 199.98 182.968 197.089C182.661 196.545 181.631 196.68 181.483 197.258ZM335.393 325.702C335.825 337.72 336.087 349.75 336.731 361.758L336.953 365.857C335.949 366.84 335.359 367.975 335.83 369.532C336.012 370.127 336.553 370.666 337.226 370.866L337.436 374.678C338.392 391.827 339.512 408.941 341.56 426.047C344.12 447.455 347.081 468.828 350.037 490.198C350.458 493.224 352.856 495.623 356.585 495.18C360.358 494.732 361.888 491.849 361.393 488.845C359.447 477.059 357.575 465.263 355.935 453.438L354.068 439.965C351.727 423.123 349.331 406.284 346.571 389.496C345.417 382.479 344.218 375.466 343.015 368.453L343.436 367.975C345.155 366.014 346.933 364.097 348.691 362.167C352.068 358.445 355.401 354.753 358.496 350.858C358.65 350.662 358.337 350.375 358.115 350.524C353.777 353.337 349.671 356.345 345.541 359.402L341.925 362.088C339.846 349.971 337.785 337.85 335.949 325.702C335.904 325.398 335.384 325.376 335.393 325.702ZM272.99 210.697C275.6 212.857 278.269 214.971 280.899 217.119L281.863 217.909L282.822 218.703C287.444 222.551 291.872 226.557 295.562 231.157C302.337 239.605 306.373 249.904 303.556 260.217C301.218 268.76 295.855 276.504 294.414 285.26C293.691 289.647 294.042 294.056 295.924 298.198C297.846 302.425 300.916 306.046 303.675 309.859C309.667 318.146 310.484 327.242 309.889 336.841C309.265 346.867 307.953 356.897 306.334 366.832C303.056 386.962 298.113 406.883 291.571 426.391C288.297 436.16 284.43 445.721 280.582 455.32C278.666 460.099 276.432 464.764 274.13 469.407C272.916 471.85 271.673 474.28 270.41 476.706C270.876 473.281 270.876 469.763 271.104 466.359C271.431 461.481 271.847 456.612 272.228 451.738C273.005 441.847 273.698 431.947 274.317 422.047C276.511 386.744 278.126 351.41 278.007 316.051C277.947 298.368 277.536 280.686 276.67 263.021C276.263 254.703 275.476 246.392 274.765 238.085L274.614 236.305C273.985 228.849 273.233 221.375 271.941 213.984C272.323 213.226 272.655 212.459 272.902 211.671L272.99 211.375L272.926 211.384C272.985 211.153 273.005 210.923 272.99 210.697ZM250.417 180.315C250.364 180.111 250.032 180.128 249.972 180.315C248.501 184.663 249.021 189.445 250.289 193.819C250.972 196.189 251.943 198.489 253.116 200.706L253.527 201.482C254.533 203.37 255.665 205.316 257.624 206.493C258.44 206.984 259.902 207.014 260.719 206.493L261.135 206.215C261.204 206.168 261.272 206.12 261.338 206.071C262.1 205.51 262.477 204.271 262.125 203.454C261.219 201.345 259.163 199.797 257.742 197.919C256.484 196.25 255.37 194.489 254.444 192.658C252.448 188.698 251.552 184.493 250.417 180.315Z" fill="black"/>
<path fill-rule="evenodd" clip-rule="evenodd" d="M259.283 15.7979L255.014 20.2636C257.378 21.7289 259.609 23.2012 261.707 24.6806L261.709 24.6761C251.988 19.0962 241.222 15.7979 229.592 15.7979C207.192 15.7979 161.691 32.7265 151.406 44.9371C146.301 50.9968 136.816 69.5996 131.895 89.8241C127.942 106.074 122.062 151.983 127.942 169.234C135.467 191.312 160.226 211.717 185.756 211.717C211.286 211.717 250.921 195.502 279.13 159.967C280.42 158.342 295.232 156.459 305.799 150.36L303.025 177.25L300.916 192.892L301.382 194.005C308.95 212.012 314.947 221.406 319.373 222.188C323.89 222.985 333.088 216.472 346.968 202.646L348.742 196.097C353.246 179.391 355.499 170.424 355.499 169.195L355.496 168.971C355.429 166.144 354.322 150.14 354.299 145.834L354.299 81.286C339.372 37.6272 325.127 15.7979 311.564 15.7979H259.283Z" fill="#FFDBB4"/>
<path fill-rule="evenodd" clip-rule="evenodd" d="M294.653 0.929675C290.264 -0.565934 285.179 -0.283333 281.013 1.96878C272.834 1.66009 264.7 5.86866 260.436 12.012C260.347 12.0989 260.252 12.1859 260.168 12.2728L259.264 13.1995C258.409 14.0845 257.506 15.0599 256.791 16.0671C260.294 16.1375 263.212 17.3935 265.249 19.9304C266.702 21.7406 263.373 23.4607 261.887 21.7486L261.835 21.686C260.612 20.163 258.766 19.5731 256.71 19.5422C256.12 19.5335 255.673 19.3348 255.356 19.0418C255.23 19.4457 255.118 19.8539 255.014 20.2639C244.665 16.7227 233.509 15.7849 222.397 16.6249C222.884 17.3188 223.291 18.0622 223.605 18.8435C223.96 19.7291 223.202 20.7461 222.224 20.9826C221.166 21.2382 220.21 20.6929 219.828 19.8503L219.793 19.7678C219.366 18.7035 218.668 17.7901 217.732 17.0818C212.501 17.7057 207.308 18.6979 202.241 19.977C196.151 21.5156 190.118 23.3934 184.219 25.5433C185.218 25.8881 186.081 26.4707 186.686 27.4433C187.892 29.3846 184.575 31.1235 183.317 29.2675L183.272 29.1989C183.149 28.9998 183.039 28.8802 182.959 28.812L182.931 28.7889L182.757 28.7184L182.432 28.6367L182.308 28.6098C182.198 28.5881 182.153 28.5894 181.864 28.5754C181.479 28.5563 181.094 28.558 180.709 28.5576C179.804 28.5571 179.226 28.1132 178.965 27.5454C176.054 28.7015 173.179 29.9188 170.356 31.194L169.685 31.4997C160.97 35.5055 152.715 40.7661 147.925 48.5066C147.608 49.0239 147.51 49.5891 147.589 50.1283C146.566 51.2065 145.578 52.3195 144.629 53.4499C141.733 56.9107 139.613 60.8453 137.607 64.7452C133.569 72.5885 130.851 80.6448 128.731 89.0445C126.68 97.1399 125.025 105.322 123.487 113.505C121.783 122.596 120.365 131.765 120.068 140.987C119.544 157.425 123.196 173.959 133.688 187.798C143.047 200.146 157.141 209.95 173.855 213.089C190.855 216.28 208.843 213.167 222.24 203.202C224.4 201.598 224.103 198.359 222.24 196.715C220.13 194.863 217.017 195.12 214.867 196.715C202.251 206.102 183.887 207.55 168.685 202.767C154.631 198.341 143.621 188.133 136.865 176.668C128.622 162.686 127.233 146.625 128.499 131.156C129.19 122.661 130.629 114.235 132.111 105.822L133.006 100.758C133.983 95.2732 135.008 89.7956 136.346 84.3664L136.659 83.1015C138.294 76.5543 140.209 69.8393 143.171 63.6844C144.723 60.454 146.59 57.3411 148.503 54.2673C148.874 53.6716 149.255 53.0673 149.645 52.4586C150.169 52.6195 150.767 52.6456 151.394 52.4717C156.796 50.9934 162.345 50.0022 167.993 49.6717C170.567 49.5204 173.144 49.497 175.718 49.5852C180.125 49.3596 184.654 49.7004 188.852 50.8891C189.263 50.5791 189.679 50.2756 190.095 49.9722C190.207 49.9643 190.32 49.9539 190.432 49.9343C191.503 49.7491 192.256 49.0796 192.71 48.234C192.734 48.1892 192.755 48.1444 192.775 48.0996C193.312 47.7383 193.854 47.3827 194.401 47.0318C195.733 47.3357 196.9 46.3605 197.214 45.2919C197.511 45.1158 197.812 44.9454 198.112 44.7728C198.347 44.8232 198.58 44.8649 198.807 44.8797C199.788 44.9419 200.735 44.8097 201.605 44.398C202.705 43.8767 203.408 43.0359 203.879 42.0807C205.543 42.1707 207.228 41.6955 208.715 40.8363C209.923 40.1394 210.848 39.1773 211.768 38.2169C222.975 33.8192 235.158 31.2227 247.369 30.5575C248.572 30.761 249.766 31.0032 250.946 31.2849C251.225 31.3518 251.621 31.4831 252.077 31.6405C249.355 31.351 246.597 31.3223 243.801 31.6766C230.53 33.3648 220.194 42.1063 211.299 50.3578C209.182 49.9817 207.044 52.3925 209.002 53.989L224.271 66.4369C223.896 67.829 225.711 69.2012 227.301 68.8668C229.966 68.3034 232.636 67.7556 235.308 67.2169C238.096 68.4034 241.6 68.2003 244.128 66.4804C244.246 66.4004 244.501 66.2726 244.723 66.1456C244.931 66.2965 245.21 66.4478 245.321 66.5121C246.22 67.0356 247.315 67.1895 248.365 67.0425C249.445 66.8917 250.42 66.4095 251.261 65.8091C251.796 65.4266 253.043 63.8308 253.737 63.7133L253.805 63.7066C253.342 63.7183 254.83 64.9352 255.23 65.1869C256.163 65.7726 257.194 66.0804 258.355 65.9682C260.378 65.7724 262.118 64.1502 263.107 62.6524L263.182 62.5375L263.213 62.4662L263.239 62.5433C263.244 62.5569 263.25 62.5715 263.256 62.5879C263.405 62.9405 263.87 63.3413 264.186 63.5879C265.088 64.2891 266.204 64.5974 267.396 64.4144C268.404 64.2599 269.253 63.7236 269.935 63.0747L270.041 62.9714C270.243 62.7711 271.572 61.2001 271.362 60.8236L271.338 60.7919L271.404 60.7797C272.212 60.9545 272.891 60.7792 273.388 60.4127C276.162 59.878 278.901 59.2549 281.551 58.4628C281.759 58.9758 281.962 59.4889 282.159 60.0062C280.712 60.7932 279.373 61.9149 278.142 62.7148C275.809 64.2278 273.477 65.7408 271.149 67.2582L261.927 73.2432L260.872 72.9941C259.525 72.6758 258.369 73.366 257.874 74.421L257.833 74.5123C257.637 74.9745 257.401 75.4019 257.123 75.811C254.818 75.7301 252.866 76.9753 252.235 78.7613C251.665 78.75 251.09 78.7692 250.502 78.8261C248.891 78.9817 247.806 80.0339 248.098 81.4787L248.12 81.5778L248.159 81.7386C247.225 82.0873 246.548 82.7608 246.398 83.779C246.148 84.1099 245.946 84.4699 245.817 84.8707C245.144 86.9507 246.454 89.5219 247.152 91.5144L247.206 91.6705C247.654 92.9801 248.118 94.2833 248.587 95.586L249.755 98.8201C252.995 107.834 256.154 117.337 253.532 126.787C252.973 128.787 255.879 129.691 257.139 128.126C260.194 124.337 263.495 120.766 266.961 117.338L267.129 117.315C269.556 116.885 270.498 115.377 271.612 113.84C272.268 114.01 272.974 114.05 273.656 113.934C274.643 113.767 275.528 113.271 276.226 112.644C276.818 112.113 277.36 110.75 278.059 110.413C278.934 109.99 280.692 110.594 281.737 110.458C282.586 110.348 283.379 110.092 284.149 109.77C285.563 111.466 286.501 113.459 286.73 115.609C286.82 116.426 287.097 117.118 287.497 117.692C286.024 117.644 284.547 117.735 283.088 117.974C277.692 118.857 273.822 121.787 271.648 126.152C271.555 126.343 271.836 126.5 271.965 126.317C275.191 121.948 282.214 121.726 287.314 123.265C292.73 124.9 295.77 129.096 296.851 133.882C298.037 139.13 296.516 144.786 293.268 149.256C291.762 151.334 289.705 153.23 286.973 153.995C283.726 154.903 280.727 153.277 277.401 154.117C275.137 154.686 274.139 156.612 274.549 158.538C274.712 159.295 275.014 159.956 275.419 160.529C274.223 162.616 273.116 164.764 271.708 166.738C269.533 169.786 266.904 172.307 264.038 174.851C261.078 177.477 258.063 180.051 254.896 182.485C251.861 184.82 248.382 186.481 245.199 188.62C242.966 190.12 241.859 192.224 242.961 194.633C243.87 196.624 246.935 198.32 249.415 197.42C254.164 195.698 258.32 192.768 262.105 189.75C265.614 186.95 268.669 183.603 270.976 179.968C273.154 176.541 274.758 172.65 276.111 168.901L276.279 168.434C276.917 166.651 277.588 164.647 278.023 162.625C280.627 163.877 284.161 164.06 286.948 163.721C291.45 163.177 295.557 161.182 298.66 158.273C300.107 156.92 301.385 155.376 302.489 153.702C302.389 154.721 302.329 155.707 302.265 156.603C299.685 159.089 298.65 162.677 299.566 165.951C297.407 167.905 296.802 170.84 297.929 173.338C295.566 175.399 295.655 178.68 296.677 181.66C293.884 184.406 293.619 188.685 295.8 191.784L295.866 192.006C293.664 195.248 294.16 199.437 296.919 202.3C295.035 205.516 295.327 209.841 300.036 211.088C301.752 211.543 303.416 211.155 304.66 210.309C303.524 215.282 303.015 220.331 304.531 225.328C305.134 227.31 307.338 228.758 309.656 228.758C311.593 228.758 313.002 227.901 313.975 226.641C313.861 229.149 314.034 231.671 314.642 234.214C315.009 235.75 316.628 236.948 318.347 237.319C317.727 237.934 317.48 238.824 318.074 239.751C320.595 243.677 326.686 242.048 327.098 238.287C328.818 237.158 329.618 235.303 329.949 233.299C330.431 230.377 330.606 227.502 331.152 224.617L331.361 224.789L331.469 224.871L331.504 225.08C331.817 226.506 332.731 227.504 333.918 228.1C333.66 230.588 334.137 233.121 335.931 235.01C337.126 236.269 339.162 236.765 340.907 236.492C341.016 236.497 341.128 236.496 341.245 236.483C345.197 236.021 347.484 232.723 346.443 229.696C348.035 227.981 348.705 225.804 348.234 223.652C351.313 221.859 351.25 217.919 350.184 214.754C353.412 212.513 354.626 208.323 353.004 204.993C355.913 201.814 356.318 197.385 354.341 193.765C357.542 191.452 357.524 186.986 354.349 184.62C356.04 181.667 357.059 178.129 355.37 175.427C356.562 174.27 357.216 172.62 357.078 171.026C356.876 168.686 355.116 167.068 352.932 165.991L352.78 165.258C352.267 165.314 351.721 165.188 351.239 164.781C350.762 164.378 350.271 164.054 349.764 163.786C349.189 163.779 348.694 163.554 348.346 163.208C347.395 162.923 346.371 162.798 345.236 162.786C342.784 162.763 342.698 159.537 344.98 159.328C345.34 159.009 345.836 158.807 346.374 158.807L346.796 158.809C347.781 158.817 348.776 158.87 349.69 159.215C350.284 159.439 350.742 159.776 351.077 160.188C351.14 160.811 351.526 161.433 352.36 161.946C353.324 162.539 354.643 162.608 355.675 162.072C357.119 161.321 357.134 160.148 356.967 158.873C356.603 156.085 358.425 153.46 357.991 150.608C357.799 149.346 357.322 148.257 356.543 147.378C358.185 145.216 358.474 142.426 357.211 140.054C359.843 137.562 360.298 133.721 358.62 130.723C358.595 130.65 358.577 130.576 358.55 130.504C358.361 129.995 358.099 129.535 357.811 129.096C359.285 126.85 359.274 124.094 357.776 121.857C360.045 119.53 360.117 115.827 358.099 113.32C358.087 113.113 358.063 112.905 358.042 112.697C358.968 110.582 358.746 108.177 357.571 106.21C357.99 105.36 358.314 104.445 358.52 103.47C359.049 100.957 358.777 98.5138 357.987 96.0617C357.859 95.6748 357.715 95.2878 357.562 94.9009C357.536 93.2214 357.464 91.5492 357.368 89.8801C357.744 88.4672 357.804 86.9146 357.812 85.4731L357.815 84.5384C357.833 82.1597 358.022 78.6769 356.312 76.6549C357.41 74.4706 356.959 71.7185 355.127 69.9872C356.413 68.0416 356.682 65.6526 355.39 63.494C355.183 63.1466 354.942 62.8231 354.678 62.517C354.785 60.5401 354.312 58.5015 353.114 56.5368C352.337 55.2577 351.175 54.1503 349.793 53.2642C349.817 53.0021 349.831 52.7404 349.826 52.4825C349.802 51.3321 349.512 50.1769 349.024 49.0992C349.9 47.7835 350.306 46.3005 349.793 44.7023C349.22 42.8937 347.712 41.3372 345.83 40.459C345.678 38.7538 345.375 37.0586 344.943 35.3861C346.099 33.1196 345.178 30.1284 342.564 28.7932C342.905 26.982 342.597 25.1038 341.099 23.689C340.531 23.1529 339.862 22.7464 339.142 22.4769C339.489 20.6556 339.097 18.7609 337.666 17.2779C336.497 16.0671 334.764 15.3314 333.001 15.2232C332.322 12.0554 328.882 9.68681 325.252 9.8755C324.799 8.48076 323.715 7.26471 322.034 6.64821C321.603 6.49038 321.168 6.38647 320.735 6.32865C317.784 3.70959 313.39 1.93443 309.586 1.02532C305.771 0.117069 301.903 0.0291536 298.627 1.08514L298.389 1.16445L298.122 1.13402C296.965 1.02098 295.809 0.955761 294.653 0.929675ZM323.646 215.591C324.665 215.312 325.802 215.922 326.078 216.806C326.37 217.74 325.72 218.665 324.697 218.945C323.423 219.295 322.084 219.382 320.756 219.383C319.688 219.384 318.779 218.583 318.779 217.644C318.779 216.7 319.684 215.906 320.756 215.905C321.836 215.904 322.634 215.869 323.646 215.591ZM332.711 197.123C334.235 197.124 335.541 197.444 336.671 198.383C337.424 199.01 337.443 200.22 336.671 200.843C335.891 201.472 334.76 201.509 333.96 200.91L333.806 200.788C333.787 200.773 333.773 200.762 333.761 200.752C333.697 200.715 333.632 200.678 333.564 200.647L333.693 200.721C333.791 200.783 333.563 200.681 333.436 200.633L333.396 200.619L333.383 200.616L333.28 200.609C333.091 200.6 332.901 200.601 332.711 200.601C331.677 200.6 330.687 199.802 330.734 198.862C330.783 197.92 331.603 197.122 332.711 197.123ZM303.961 186.089C301.821 184.935 303.732 181.982 305.878 183.046L305.956 183.086C307.056 183.68 308.409 183.599 309.655 183.6C312.199 183.601 312.203 187.079 309.655 187.078L309.234 187.076C307.407 187.064 305.559 186.952 303.961 186.089ZM320.8 173.394C322.416 173.127 324.227 172.888 325.928 173.051L326.211 173.082H326.734C327.189 173.082 327.629 173.243 327.982 173.496C328.542 173.7 329.071 173.974 329.555 174.342C331.481 175.811 328.674 178.262 326.759 176.802C326.653 176.721 326.529 176.654 326.392 176.599L326.287 176.56H324.172C323.98 176.56 323.793 176.525 323.61 176.474C322.924 176.557 322.284 176.676 321.851 176.748C319.364 177.16 318.299 173.808 320.8 173.394ZM322.605 140.013C325.704 138.748 329.135 138.757 332.001 140.513C334.05 141.768 332.147 144.729 330.08 143.56L330.006 143.516C329.749 143.359 329.485 143.227 329.218 143.108C327.763 143.478 326.299 143.495 324.892 143.04L324.709 142.978L324.6 143.016C322.307 143.951 320.297 140.954 322.605 140.013ZM288.864 134.563C291.994 134.254 292.019 129.904 288.864 130.215C282.202 130.873 276.157 133.478 271.73 137.953C269.67 140.034 273.062 143.078 275.159 141.09L275.224 141.027C278.744 137.469 283.495 135.092 288.864 134.563ZM323.93 112.228C324.626 112.161 325.321 112.127 326.004 112.156C327.646 112.226 329.645 113.189 328.925 114.93C328.347 116.325 326.453 116.38 325.518 115.636C325.129 115.645 324.741 115.667 324.354 115.702C323.322 115.795 322.299 115.969 321.282 116.145C318.796 116.575 317.732 113.223 320.231 112.791L321.335 112.598C321.708 112.534 322.083 112.472 322.461 112.414C322.687 112.316 322.929 112.249 323.187 112.232L323.318 112.228H323.93ZM343.572 85.2438L343.804 85.2161C347.142 84.8403 352.501 85.1861 352.906 88.9245C353.13 90.9949 349.73 91.1249 349.059 89.3545C346.594 88.9636 344.108 88.8889 341.66 89.1263C340.726 88.2915 340.719 86.6868 342.274 86.2863C342.493 85.7672 342.951 85.3225 343.572 85.2438ZM267.268 78.9296C268.039 78.3066 269.304 78.224 270.063 78.9296C270.501 79.3357 270.866 79.787 271.155 80.2835L271.347 80.6187C271.38 80.6744 271.413 80.7297 271.448 80.7843C271.513 80.8856 271.585 80.9821 271.656 81.0804L271.704 81.1215C271.722 81.1383 271.745 81.1587 271.771 81.1834C272.482 81.8447 272.573 82.9956 271.771 83.6429C271 84.266 269.735 84.3486 268.976 83.6429C268.539 83.2369 268.173 82.786 267.884 82.2891L267.692 81.9541C267.659 81.8985 267.626 81.8433 267.591 81.7886C267.527 81.6869 267.453 81.5904 267.383 81.4921L267.305 81.423C267.293 81.4128 267.281 81.4015 267.268 81.3891C266.556 80.7282 266.467 79.577 267.268 78.9296ZM307.803 74.4006C310.589 72.6641 313.901 72.5833 316.461 74.6723C318.309 76.1802 315.594 78.5961 313.731 77.1833L313.665 77.1318C313.598 77.0762 313.529 77.0275 313.461 76.981C313.127 77.2314 312.702 77.3901 312.217 77.3905C312.09 77.3908 311.963 77.3905 311.837 77.3929L311.647 77.3988L311.545 77.4062L311.532 77.4083L311.444 77.4416C311.281 77.5061 311.057 77.6057 311.364 77.4362C311.296 77.4679 311.231 77.5053 311.166 77.5418L311.053 77.6327C310.307 78.2527 309.018 78.3344 308.278 77.6488C306.968 77.2592 306.273 75.354 307.803 74.4006ZM280.573 68.703L280.522 68.689C278.08 68.0756 279.118 64.7187 281.573 65.3348C284.178 65.9891 285.422 68.1216 285.943 70.3059C286.162 71.2246 285.636 72.1859 284.562 72.4454C283.581 72.6824 282.351 72.1541 282.13 71.2307C281.976 70.5813 281.797 70.0304 281.515 69.5191L281.344 69.2272C281.265 69.0942 281.237 69.0721 280.967 68.8651C280.922 68.8303 280.716 68.7461 280.573 68.703ZM321.938 51.1856L322.32 51.109C324.7 50.6504 327.858 50.411 329.294 52.486C330.604 54.3764 327.3 56.0972 325.94 54.3103C325.919 54.3097 325.895 54.3099 325.867 54.3119L325.823 54.3164L325.213 54.2729C324.453 54.2681 323.726 54.3864 322.99 54.5399C320.516 55.0551 319.46 51.7021 321.938 51.1856ZM236.526 37.8147C234.725 36.23 237.519 33.7696 239.321 35.3556C240.746 36.6091 242.12 37.8712 243.046 39.4638C243.532 40.2994 243.294 41.3507 242.337 41.8433C241.454 42.2976 240.121 42.0585 239.632 41.2194C238.83 39.839 237.817 38.9512 236.526 37.8147ZM259.255 33.6548C261.035 34.5817 262.187 36.1087 262.886 37.876C263.237 38.7629 262.486 39.7781 261.505 40.0151C260.451 40.2699 259.488 39.7266 259.109 38.8829L259.074 38.8003C258.887 38.3277 258.587 37.7695 258.217 37.3482C257.901 36.9886 257.409 36.6286 257.039 36.5091C256.148 36.2213 255.516 35.5109 255.598 34.6813C257.064 35.1269 258.424 34.5909 259.255 33.6548ZM312.527 26.0898C314.322 24.6238 316.731 24.4294 318.907 25.3168C319.876 25.7116 320.119 26.9407 319.616 27.6963C319.035 28.5706 317.884 28.7167 316.912 28.3202C317.162 28.4219 316.711 28.2876 316.516 28.2385C316.491 28.2486 316.165 28.2356 316.052 28.237L315.917 28.2445C315.916 28.2453 315.949 28.2448 316.017 28.2428C315.922 28.2616 315.828 28.2842 315.736 28.3101L315.618 28.346C315.677 28.3351 315.41 28.4882 315.336 28.5391L315.322 28.5489C313.459 30.0701 310.657 27.6163 312.527 26.0898Z" fill="black"/>
<path fill-rule="evenodd" clip-rule="evenodd" d="M173.977 167.104C173.217 165.944 171.468 164.87 169.867 165.035C162.697 165.773 162.709 173.405 165.478 177.861C167.933 181.811 173.013 184.13 178.098 183.792C183.44 183.436 187.992 180.678 189.995 176.291C191.32 173.389 191.932 168.031 188.408 166.081C188.343 166.045 188.235 166.054 188.183 166.107C186.493 167.832 186.427 170.423 184.947 172.344C183.572 174.131 181.434 175.607 178.93 175.835C177.06 176.005 175.169 175.413 174.437 173.939C174.041 173.142 174.086 172.709 174.235 172.16L174.37 171.683C174.839 170.013 175.049 168.742 173.977 167.104ZM172.06 133.633C168.32 135.629 162.622 140.282 166.645 145.23C171.381 149.592 178.199 144.59 181.558 142.328C184.674 140.575 188.174 145.084 185.283 147.131C161.006 162.911 151.153 134.155 170.168 131.287C172.262 130.971 173.04 133.016 172.06 133.633ZM211.551 119.949C209.255 116.926 204.016 117.371 202.751 120.959C202.066 122.902 203.012 124.649 202.963 126.59C202.922 128.229 203.045 130.056 203.617 131.644C204.922 135.265 208.632 137.822 213.02 137.716C217.394 137.61 221.246 135.18 223.078 131.757C224.916 128.321 224.527 124.765 223.185 121.271C223.12 121.103 222.87 121.022 222.719 121.163C221.132 122.643 219.971 124.206 218.77 125.863L217.538 127.562C216.597 128.841 215.229 130.475 213.472 130.372L213.208 130.35C212.72 130.313 212.795 130.398 212.418 129.814C212.244 129.543 212.276 129.041 212.191 128.721L212.162 128.614L212.178 128.556C212.215 128.401 212.252 128.11 212.282 127.604L212.288 127.493C212.416 125.129 213.177 122.091 211.551 119.949ZM153.366 121.962C153.777 118.095 147.585 117.236 145.526 120.098C144.452 121.59 144.14 123.464 143.902 125.24L143.791 126.083C143.548 127.906 143.451 129.804 144.353 131.505C145.773 134.185 148.862 135.601 152.194 135.377C155.376 135.162 158.279 133.542 159.809 131.084C161.173 128.89 162.53 124.607 160.873 122.318C160.773 122.18 160.573 122.162 160.435 122.269C158.869 123.489 158.614 125.715 157.683 127.305C156.723 128.945 155.267 130.543 153.06 130.792C150.948 131.031 150.141 130.018 150.68 128.251C151.375 125.969 153.104 124.417 153.366 121.962ZM209.878 96.9599L208.865 96.6194C205.396 95.4687 200.632 94.1387 197.811 96.6156C196.071 98.1429 195.74 100.393 196.982 102.257C198.487 104.514 201.186 104.57 203.793 104.903C206.758 105.281 209.773 106 212.534 107.025C215.643 108.18 218.529 109.62 221.356 111.229C224.043 112.757 226.721 115.255 229.938 115.725C230.069 115.745 230.218 115.695 230.252 115.569C230.983 112.808 228.953 110.091 227.141 107.937C224.949 105.329 222.293 103.189 219.325 101.27C216.46 99.4172 213.187 98.0786 209.878 96.9599ZM146.852 106.776L146.543 106.728C144.439 106.42 142.532 106.491 140.946 107.954C139.736 109.07 139.269 110.517 139.846 111.992C140.379 113.354 141.569 114.737 143.297 115.022C149.13 115.985 155.592 115.826 161.454 115.097C164.136 114.763 166.843 114.354 169.455 113.71L170.657 113.404C172.838 112.857 175.335 112.285 176.919 110.877C177.489 110.371 177.161 109.647 176.479 109.412C173.715 108.462 169.926 108.968 166.978 108.893C163.549 108.807 160.115 108.582 156.702 108.271C153.368 107.966 150.141 107.305 146.852 106.776Z" fill="black"/>
</svg>
