<svg width="399" height="503" viewBox="0 0 399 503" fill="none" xmlns="http://www.w3.org/2000/svg">
<g clip-path="url(#clip0_1_450)">
<path d="M68.9249 313.102H183.451V440.023H68.9249V313.102Z" fill="#FDEA6B"/>
<path fill-rule="evenodd" clip-rule="evenodd" d="M216.855 188.96C204.509 180.499 173.516 176.695 160.34 184.841C147.326 193.021 145.907 206.249 139.843 218.418C134.121 215.99 124.672 219.468 123.013 224.246C120.956 226.499 120.864 232.831 119.445 235.86C57.7098 244.704 48.3373 288.018 40.9066 337.192C31.0764 387.092 8.76088 436.882 18.4486 488.229C17.1863 489.873 16.191 491.471 15.2708 493.368C13.0658 496.745 15.906 501.524 20.3535 501.339C26.1103 500.884 31.8101 500.263 37.5939 500.069C53.6274 499.568 69.6755 499.628 85.715 499.811L87.9022 499.837C168.737 500.742 249.567 502.527 330.405 503C333.338 503.004 334.774 500.637 334.382 498.302C333.594 493.601 332.862 488.898 332.098 484.194C351.219 488.739 371.545 489.883 390.611 484.672C391.945 483.449 387.504 484.112 386.799 483.927C404.346 473.136 399.106 450.404 397.552 434.031C387.886 377.929 384.479 315.856 347.136 267.983C330.981 248.446 307.296 232.978 280.081 229.497L279.326 229.404C271.368 228.449 262.499 228.142 255.541 224.246C247.716 218.624 244.381 208.236 236.148 208.139C233.43 208.106 229.732 211.201 225.752 213.303C225.455 208.68 222.687 204.779 222.076 201.195L222.026 200.889C221.389 196.71 222.262 192.951 216.855 188.96ZM84.1807 338.675C101.53 327.828 146.347 333.278 147.373 333.885C149.632 335.223 150.604 335.341 151.826 337.077C153.032 337.221 154.238 337.371 155.442 337.525C157.858 338.235 156.068 340.909 153.277 339.955C154.955 346.469 150.016 351.102 148.049 357.543C147.411 359.634 148.026 363.395 148.049 365.531C147.859 368.256 144.512 371.473 145.07 374.207C147.053 383.923 157.814 393.402 153.277 402.825C150.271 408.147 141.231 410.861 135.221 412.67C122.769 416.971 101.072 412.508 93.8364 402.825C89.9773 397.66 85.5064 384.631 83.2054 380.59L82.6953 374.18C81.4376 358.244 80.3188 341.089 84.1807 338.675Z" fill="#D08B5B"/>
<path fill-rule="evenodd" clip-rule="evenodd" d="M236.79 208.168L231.825 210.91L202.99 223.738C197.399 225.147 194.604 226.835 194.604 228.803V248.839C194.604 251.521 189.358 257.598 178.866 267.07L169.173 258.374L169.39 257.236C170.313 252.33 170.774 249.048 170.774 247.39C170.774 245.608 161.291 238.841 142.325 227.089L134.027 220.059L134.912 217.638C129.796 217.855 124.248 220.691 123.013 224.246C120.956 226.5 120.864 232.831 119.445 235.861C57.7098 244.704 48.3373 288.019 40.9066 337.193C31.0764 387.092 8.76088 436.883 18.4486 488.23C17.1863 489.873 16.191 491.471 15.2708 493.369C13.0658 496.745 15.906 501.525 20.3535 501.34C26.1103 500.884 31.8101 500.263 37.5939 500.069C53.6274 499.568 69.6755 499.628 85.715 499.811L87.9022 499.837C168.737 500.743 249.567 502.527 330.405 503.001C333.338 503.004 334.774 500.637 334.382 498.302C333.594 493.601 332.862 488.898 332.098 484.195C351.219 488.74 371.545 489.883 390.611 484.673C391.945 483.45 387.504 484.113 386.799 483.927C404.346 473.136 399.106 450.405 397.552 434.032C387.886 377.93 384.479 315.856 347.136 267.983C330.981 248.446 307.296 232.978 280.081 229.498L279.326 229.405L278.565 229.316C270.807 228.427 262.278 228.019 255.541 224.246C247.922 218.773 244.56 208.781 236.79 208.168ZM167.696 325.775C170.524 325.775 176.317 329.727 185.073 337.633L185.844 337.954C196.429 342.378 203.441 346.216 206.881 349.468L207.003 349.585C210.478 352.94 217.359 361.86 227.646 376.347L242.542 384.275H248.179L252.192 410.471L242.542 429.175L220.685 422.55L185.073 414.102L164.637 395.444L153.11 391.961C154.508 395.598 155.015 399.216 153.277 402.826C150.271 408.148 141.231 410.862 135.221 412.671C122.769 416.972 101.072 412.509 93.8364 402.826C89.9773 397.661 85.5064 384.632 83.2054 380.591L82.5454 372.263C81.356 356.896 80.4733 340.993 84.1807 338.675C101.53 327.829 146.347 333.278 147.373 333.886C149.632 335.223 150.604 335.341 151.826 337.078L152.459 337.154L148.902 332.813L150.161 332.208C159.147 327.919 164.992 325.775 167.696 325.775ZM153.277 339.955C154.884 346.192 150.425 350.704 148.316 356.729L153.704 347.447L153.704 340.076C153.565 340.045 153.422 340.005 153.277 339.955Z" fill="#9DDADB"/>
<path fill-rule="evenodd" clip-rule="evenodd" d="M239.171 207.199C237.973 206.244 236.201 207.444 236.962 208.733C238.672 211.631 240.427 214.377 242.722 216.939C244.114 218.492 245.605 219.961 247.116 221.414C243.238 224.432 239.913 228.18 236.773 231.693C232.758 236.185 228.961 240.867 224.454 244.978C220.008 249.032 215.093 251.866 209.15 253.755L207.949 254.131C201.979 256.017 195.598 258.564 192.232 263.652C191.569 264.655 192.905 265.894 194.028 265.268C199.876 262.01 206.747 261.354 213.113 259.201C219.262 257.121 224.622 253.92 229.358 249.835C234.086 245.757 238.056 241.116 242.197 236.574C246.292 232.083 250.701 228.247 255.544 224.447C263.019 228.972 271.551 230.941 280.226 232.875L281.173 233.086C289.859 235.021 298.498 237.269 306.647 240.639C313.832 243.61 320.898 247.158 326.751 251.993C332.963 257.124 337.798 263.677 342.224 270.085C352.123 284.423 359.083 300.13 365.209 316.029C371.582 332.566 376.912 349.433 381.215 366.502C383.404 375.184 385.181 383.927 386.642 392.732C387.345 396.973 387.97 401.222 388.518 405.481C389.104 410.029 389.238 414.708 390.789 419.081C391.453 420.955 393.023 421.733 394.594 421.667L394.913 425.258C395.336 430.046 395.73 434.835 395.863 439.653C396.084 447.663 395.984 455.65 395.344 463.644L395.253 464.734C394.75 470.568 393.626 477.123 388.751 481.394C383.703 485.819 375.94 487.21 369.136 487.289C353.289 487.475 338.034 480.737 324.011 474.825C309.569 468.737 295.521 461.979 281.81 454.65C274.828 450.918 267.921 447.061 261.101 443.092C257.755 441.143 254.432 439.162 251.135 437.149C249.246 435.996 247.456 434.731 245.533 433.708C246.475 432.919 246.896 431.678 246.107 430.594C251.665 426.252 253.979 418.503 254.249 412.233C254.468 407.172 253.64 402.125 252.987 397.112C252.658 394.584 252.25 392.06 251.828 389.543C251.661 388.549 251.533 387.485 251.338 386.436C266.348 393.859 281.779 400.47 297.618 406.343C305.737 409.353 313.959 412.06 322.296 414.54L323.985 415.041C331.884 417.367 339.972 419.565 348.138 420.896C348.574 420.967 348.929 420.387 348.463 420.202C340.505 417.042 332.272 414.376 324.194 411.466L322.867 410.98C323.019 410.972 323.177 410.953 323.343 410.918C328.08 409.889 332.78 408.303 337.426 406.968C341.738 405.729 346.582 404.951 350.613 403.08C350.923 402.936 350.749 402.549 350.447 402.53C345.917 402.247 340.999 403.436 336.558 404.135L334.889 404.398C332.094 404.841 329.237 405.318 326.456 405.94C326.355 405.101 325.835 404.259 325.094 403.765C316.944 398.334 317.771 387.363 316.9 379.272L316.253 373.266C315.116 362.755 313.913 352.244 312.086 341.811C311.988 341.254 311.031 341.414 311.027 341.94C310.932 354.873 312.017 367.746 312.561 380.659L312.645 382.777C312.946 390.744 313.181 399.018 318.757 405.149C317.978 404.739 316.924 404.739 316.292 405.415C315.516 406.246 315.068 407.179 315.082 408.095C310.043 406.194 305.026 404.243 300.034 402.253C283.984 395.854 268.271 388.693 252.973 380.944C251.326 380.11 249.761 380.766 248.947 381.865L248.83 381.85C248.81 381.848 248.79 381.846 248.77 381.846L248.653 381.841C248.649 381.841 248.644 381.841 248.64 381.841C246.487 380.777 243.553 381.535 241.705 383.088C241.651 383.135 241.604 383.185 241.556 383.235C239.216 382.29 237.032 381.014 235.049 379.397C230.992 376.088 227.556 371.996 224.56 367.893C219.044 360.336 214.357 351.933 206.905 345.713C200.85 340.659 193.344 337.512 185.468 335.537C185.501 335.33 185.413 335.109 185.254 334.963C184.85 334.59 184.561 334.46 184.039 334.687C183.997 334.705 183.972 334.73 183.955 334.757L183.187 333.576C182.767 332.935 182.336 332.289 182.187 332.119C181.293 331.106 180.373 330.1 179.439 329.116C177.855 327.45 176.05 325.805 173.96 324.649C169.384 322.119 164.573 323.551 159.869 324.934C157.026 325.769 154.193 326.632 151.355 327.481L151.063 327.567C148.947 328.178 146.471 328.714 145.524 330.731C145.15 331.529 145.092 332.358 145.266 333.162C125.17 328.563 102.849 330.676 83.2379 336.075C82.4852 336.282 81.7336 336.839 81.575 337.571C79.328 347.941 78.3273 358.576 79.344 369.123C80.2212 378.227 82.4627 387.149 86.6867 395.484L86.9268 395.954C90.8965 403.679 97.1881 413.201 106.797 415.622C112.599 417.084 119.015 416.222 124.933 415.954C130.684 415.693 136.562 415.656 142.258 414.842C147.331 414.117 151.776 412.071 154.912 408.359C157.616 405.156 159.04 401.285 160.207 397.435C160.741 397.588 161.272 397.75 161.794 397.934C163.998 398.709 165.866 399.959 167.554 401.431C171.119 404.538 173.885 408.312 177.615 411.277C180.992 413.961 184.84 416.048 188.967 417.653C197.52 420.979 206.695 422.308 215.741 424.071L216.372 424.194C223.183 425.539 230.135 427.191 236.146 430.382C236.263 431.321 236.739 432.205 237.501 432.784C236.441 433.68 235.992 435.099 236.924 436.43C239.526 440.147 244.009 442.262 248.033 444.639L248.295 444.794C252.254 447.156 256.247 449.471 260.273 451.739C268.458 456.351 276.813 460.708 285.286 464.874C298.915 471.575 312.836 477.895 327.009 483.628C326.159 487.394 326.469 491.278 325.83 495.07L325.732 495.611C325.459 497.018 325.828 498.195 326.905 499.115L327.019 499.209L327.017 499.196L327.118 499.279L327.152 499.305L327.14 499.297C327.265 499.399 327.393 499.494 327.523 499.576L327.689 499.672C328.727 500.24 330.062 500.233 331.124 499.732L331.246 499.672L331.45 499.567C332.853 498.841 333.821 497.041 333.239 495.611C331.808 492.097 331.267 488.346 329.946 484.809L330.994 485.23L332.376 485.772C347.318 491.587 363.916 496.484 380.197 492.52C387.39 490.768 394.114 487.062 397.713 481.021C401.255 475.078 401.756 468.176 401.944 461.564C402.176 453.404 401.69 445.119 400.494 437.029C399.691 431.599 398.721 426.065 397.223 420.691C397.993 420.079 398.559 419.202 398.709 418.116C399.416 412.983 398.179 407.646 397.422 402.539C396.682 397.554 395.865 392.578 394.941 387.617C393.075 377.599 390.907 367.602 388.383 357.701C383.891 340.08 377.959 322.772 370.817 305.878L370.192 304.407C363.593 288.965 355.952 273.853 345.312 260.288C340.222 253.798 334.842 247.913 327.65 243.237C320.913 238.855 313.313 235.7 305.47 233.288C297.619 230.875 289.549 229.258 281.337 228.252C272.997 227.23 264.193 226.604 256.413 223.525C257.397 221.937 256.552 219.794 254.896 218.809C249.322 215.494 244.167 211.183 239.171 207.199ZM60.728 351.322C60.4944 351.003 59.9398 351.205 60.0423 351.582C62.7534 361.578 65.2985 371.594 66.9604 381.78C69.9603 400.166 69.4085 418.791 69.1633 437.313L69.1509 438.271C69.0248 448.247 68.8498 458.224 68.4832 468.196C68.2982 473.236 67.9321 478.326 68.1311 483.368C68.2397 486.104 69.0499 488.691 69.3369 491.394C69.5885 493.758 69.3644 496.157 69.2389 498.524C69.1549 500.097 71.7354 500.03 71.911 498.524L72.1354 496.575C72.427 494.11 72.7875 491.659 73.6854 489.299C74.7651 486.46 75.2833 483.672 75.6578 480.692C76.2316 476.125 76.4867 471.512 76.7082 466.913L76.8596 463.732C77.7843 444.512 77.7519 425.201 76.2549 406.001L76.1455 404.63C74.6631 386.481 72.091 366.872 60.728 351.322ZM118.518 236.937C119.227 236.675 118.979 235.712 118.194 235.879L116.768 236.186C106.319 238.438 96.0587 240.879 86.3052 245.07C76.5455 249.264 68.2826 255.525 61.7172 263.224C48.9543 278.189 43.6506 296.377 39.4636 314.547C34.8106 334.738 30.5741 355.002 25.8806 375.187L25.009 378.947C20.666 397.746 16.5656 416.556 13.5443 435.578L13.3273 436.958C10.2805 456.519 8.44786 476.757 11.7724 496.369C12.4301 500.249 19.6047 499.283 19.3241 495.449C18.5139 484.367 17.9338 473.343 18.4944 462.236C19.0555 451.127 20.2133 440.066 21.9392 429.055C23.3916 419.787 25.5567 410.636 27.4727 401.442L27.773 399.99C29.3774 392.171 31.0313 384.359 32.6817 376.547L35.1479 364.85C38.8442 347.337 42.6129 329.808 46.8713 312.404L47.124 311.38C51.2914 294.636 57.4352 277.097 69.9355 263.801C82.6209 250.307 100.78 243.511 118.518 236.937ZM164.612 414.535C164.307 413.924 163.24 413.991 162.912 414.535C161.626 416.67 161.484 419.394 161.241 421.804L161.215 422.052C160.906 424.992 160.632 427.943 160.465 430.893C160.147 436.491 159.995 442.082 160.015 447.688C160.035 453.433 160.163 459.171 160.507 464.907L160.601 466.444C160.915 471.429 161.442 476.989 164.074 481.347C165.03 482.931 167.633 482.466 168.187 480.863C170.002 475.617 169.07 469.397 168.604 464.024L168.243 459.832C167.885 455.639 167.543 451.444 167.272 447.246C166.901 441.503 166.595 435.755 166.301 430.009C166.205 428.142 166.102 426.275 165.992 424.409L165.824 421.61C165.681 419.269 165.693 416.7 164.612 414.535ZM368.732 421.97L367.929 421.272C365.462 419.099 362.344 415.753 358.697 415.96C357.243 416.043 356.316 417.13 356.617 418.417C357.262 421.17 360.382 422.598 362.628 424.279C365.088 426.119 367.407 428.087 369.722 430.073C371.775 431.834 373.75 433.645 375.677 435.513L376.398 436.216C377.089 436.894 382.008 440.899 381.476 441.938L381.447 441.985C381.299 442.183 381.546 442.457 381.792 442.387C383.916 441.783 383.783 440.145 382.98 438.484C381.437 435.294 378.734 432.343 376.374 429.619C374.021 426.901 371.473 424.37 368.732 421.97ZM156.914 341.968C158.557 338.474 164.609 338.547 168.045 338.756C176.696 339.282 186.058 341.252 193.756 344.892C201.737 348.665 207.113 354.71 211.923 361.395L212.148 361.709C216.837 368.268 221.353 376.032 228.694 380.542C232.434 382.839 236.8 384.937 241.337 385.846C241.649 386.339 242.153 386.729 242.815 386.871L243.122 386.934C244.415 387.191 246.422 387.475 248.156 387.305C248.145 388.068 248.154 388.826 248.132 389.549C248.071 391.622 248.045 393.703 248.045 395.777C248.044 400.123 248.304 404.477 248.102 408.822C247.924 412.665 247.32 416.68 245.27 420.116C243.766 422.636 241.781 424.304 239.385 425.897C233.491 422.664 226.826 420.693 220.061 419.212C211.88 417.42 203.504 416.224 195.509 413.795C191.661 412.625 187.962 411.094 184.61 409.015C181.053 406.808 178.336 403.821 175.54 400.899L175.103 400.446C172.25 397.501 169.137 394.683 165.105 393.087C161.633 391.711 157.056 391.466 154.02 389.338C152.432 388.225 152.299 386.609 152.132 384.955C154.077 385.205 156.135 384.804 158.073 384.6L159.077 384.493C160.91 384.298 162.7 384.082 164.504 383.662C164.839 383.585 164.839 383.13 164.504 383.052C162.372 382.557 160.259 382.346 158.073 382.115L157.56 382.057C155.582 381.824 153.504 381.472 151.564 381.864C151.216 380.672 150.713 379.534 150.008 378.394C149.018 376.793 147.145 374.978 146.892 373.108C146.817 372.55 146.961 371.891 147.254 371.397L147.355 371.229C147.478 371.03 147.623 370.831 147.836 370.707C147.86 370.731 147.91 370.76 148.019 370.79C149.511 371.213 150.814 370.556 151.505 369.542C154.439 369.87 157.641 369.76 160.393 369.869L163.175 369.99C166.148 370.113 169.255 370.167 172.049 369.626C172.439 369.551 172.557 368.967 172.166 368.816C168.732 367.494 164.566 367.073 160.889 366.565C158.836 366.281 156.767 366.065 154.708 365.815C153.337 365.649 151.881 365.374 150.461 365.308C146.898 361.317 148.818 355.021 153.775 353.303C155.581 354.017 157.205 353.602 159.178 353.449C161.147 353.297 163.122 353.194 165.099 353.201C169.062 353.217 173.261 354.155 177.185 353.751C177.823 353.685 178.416 352.921 177.781 352.455C174.778 350.249 170.473 349.53 166.66 349.06L165.87 348.964C164.592 348.814 163.037 348.594 161.425 348.463C161.06 347.823 160.406 347.339 159.424 347.219C159.132 347.183 158.838 347.161 158.545 347.139L158.549 347.113C156.153 347.009 156.257 343.366 156.914 341.968ZM320.985 410.121C321.028 410.18 321.074 410.236 321.123 410.29L321.2 410.369L320.805 410.225L320.985 410.121ZM115.094 334.16C125.181 333.185 135.283 333.391 145.4 333.652C146.209 336.034 149.026 338.064 151.755 338.141C149.617 341.068 149.397 345.031 150.896 348.136C147.713 349.276 144.972 351.324 143.307 354.24C140.999 358.283 141.301 362.782 143.583 366.519C141.636 368.105 140.487 370.681 140.602 373.108C140.73 375.815 142.523 378.128 144.013 380.369C145.623 382.793 145.677 384.928 146.172 387.642C146.895 391.616 149.873 394.025 153.704 395.53L153.501 396.251C152.513 399.712 151.284 403.363 148.461 405.893C144.829 409.148 139.195 409.118 134.396 409.324L134.165 409.334C129.771 409.532 125.379 409.764 120.987 409.988L117.693 410.153C112.636 410.404 107.779 410.434 103.651 407.425C96.9105 402.514 92.2899 394.386 89.3653 387.191C83.2269 372.088 83.1534 355.514 85.971 339.785C95.4206 337.044 105.225 335.114 115.094 334.16ZM198.982 359.216L198.908 359.221C196.831 359.435 195.404 360.948 194.896 362.744C194.158 365.353 194.52 367.712 192.744 370.068C190.917 372.49 189.794 374.43 189.528 377.422C189.419 378.654 189.469 379.882 189.165 381.087L188.944 381.932C188.709 382.832 188.517 383.699 188.634 384.666C188.74 385.548 189.218 386.235 190.2 386.517C193.402 387.439 195.875 385.316 196.702 382.63C197.417 380.31 196.463 377.546 197.471 375.368C198.03 374.16 199.06 373.15 199.642 371.935C200.219 370.73 200.508 369.471 200.601 368.161C200.776 365.684 198.342 362.708 199.7 360.463C199.989 359.984 199.662 359.202 198.982 359.216ZM241.518 333.653C239.349 333.257 236.889 332.348 234.751 333.103C233.652 333.492 233.108 334.698 234.037 335.537C235.65 336.991 237.993 337.072 240.165 337.415L240.356 337.446C242.924 337.874 245.497 338.279 248.073 338.664C252.919 339.386 257.777 340.025 262.653 340.568C267.66 341.125 272.681 341.622 277.709 341.995L279.656 342.139C283.903 342.445 288.322 342.675 292.49 342.09C293.095 342.005 292.998 341.211 292.49 341.072C287.924 339.829 282.916 339.495 278.196 338.969C273.178 338.409 268.168 337.817 263.172 337.115C258.183 336.413 253.201 335.661 248.237 334.829C245.994 334.454 243.754 334.062 241.518 333.653ZM163.273 329.66C165.176 329.054 167.269 328.156 169.331 328.456C172.887 328.975 176.052 332.093 178.866 334.146L177.453 333.899C170.222 332.648 160.646 331.3 154.575 335.438C154.56 335.414 154.548 335.39 154.53 335.366C154.04 334.697 153.473 334.174 152.853 333.601C152.794 333.551 152.737 333.499 152.68 333.446L152.346 333.126L153.111 332.887C154.748 332.367 156.689 331.694 156.995 331.596L157.017 331.589C159.105 330.952 161.195 330.323 163.273 329.66ZM222.687 193.254C222.985 189.81 217.028 189.838 216.733 193.254C216.089 200.712 217.954 208.099 221.968 214.637C221.998 214.685 222.03 214.727 222.061 214.772C219.55 215.948 217.011 217.076 214.416 218.084C211.096 219.374 207.713 220.549 204.27 221.545C201.155 222.447 197.317 222.803 194.699 224.68C189.177 228.637 191.252 236.849 192.314 242.172L192.48 243.012C193.008 245.751 193.391 248.562 192.108 251.191C190.737 253.999 187.966 256.082 185.494 258.091L184.995 258.498C182.805 260.294 180.303 262.475 178.696 264.909C177.23 262.181 175.231 259.951 173.118 257.441C171.61 255.65 172.683 255.059 173.766 253.31C174.809 251.625 175.318 249.83 174.992 247.909C174.39 244.36 171.239 241.797 168.102 239.871C164.398 237.598 160.264 235.914 156.434 233.799C148.565 229.454 140.902 224.486 133.998 218.968C133.808 218.816 133.478 219.016 133.63 219.224C139.084 226.689 145.479 233.14 153.338 238.616C156.525 240.836 159.873 242.678 163.243 244.614L164.212 245.173C165.565 245.962 167.253 247.017 167.864 248.36C168.48 249.71 167.167 250.73 166.461 251.849C164.217 255.402 165.299 258.717 167.959 261.731L168.083 261.87C170.727 264.801 172.73 267.528 173.689 271.273C175.748 279.319 172.88 287.7 169.878 295.254L169.759 295.551C168.135 299.623 166.409 303.664 164.999 307.801L164.61 308.945C163.332 312.751 162.285 316.505 163.719 320.417C164.207 321.748 166.224 322.063 167.062 320.81C170.017 316.393 170.753 311.078 172.606 306.222C174.411 301.489 176.484 296.841 178.228 292.089C180.474 285.97 181.976 279.384 181.161 272.966C181.185 272.928 181.211 272.893 181.231 272.854L181.803 271.728C183.362 268.681 184.867 266.021 187.702 263.592C190.658 261.058 193.868 258.816 196.194 255.749C201.248 249.087 198.122 241.677 197.512 234.393L197.442 233.5C197.331 231.987 197.27 229.932 198.368 228.885C199.603 227.707 202.499 227.406 204.137 226.885C208.371 225.536 212.543 223.965 216.517 222.078C220.3 220.283 223.964 218.299 227.376 215.975L229.106 214.804C231.834 212.951 234.663 210.928 236.492 208.406C236.703 208.116 236.344 207.647 235.962 207.786C232.909 208.901 230.12 210.674 227.264 212.217C227.22 212.123 227.168 212.028 227.11 211.933C223.576 206.177 222.123 199.801 222.687 193.254ZM125.174 232.688C123.957 229.686 118.414 229.918 118.635 233.484C118.805 236.224 120.097 238.697 121.279 241.185L121.405 241.452C122.625 244.044 124.035 246.477 125.721 248.853C128.943 253.394 132.718 257.608 136.749 261.586C140.404 265.192 145.201 267.397 150.729 267.03C153.058 266.876 155.409 266.342 157.45 265.296C159.874 264.052 162.506 260.316 165.599 261.221C165.898 261.308 166.177 260.914 165.919 260.727C162.348 258.14 158.296 262.152 154.878 263.119C149.727 264.575 144.441 262.965 141.126 259.217C137.665 255.305 134.479 250.924 131.57 246.664C130.093 244.501 128.745 242.256 127.581 239.942C126.406 237.607 126.139 235.069 125.174 232.688ZM133.476 214.216C133.626 213.801 133.054 213.407 132.649 213.644C130.303 215.018 128.27 216.834 126.106 218.426C123.705 220.192 121.287 221.922 118.831 223.626C115.25 226.11 119.403 230.682 122.555 227.969C126.868 224.257 131.591 219.404 133.476 214.216ZM146.356 199.687C145.403 196.38 139.766 197.744 140.588 201.013L140.615 201.112C142.171 206.512 139.955 212.009 135.224 215.509L135.05 215.636C132.057 217.792 136.297 221.56 139.26 219.425C145.729 214.766 148.42 206.851 146.356 199.687Z" fill="black"/>
<path fill-rule="evenodd" clip-rule="evenodd" d="M97.9277 45.9656C99.0361 43.4429 100.996 40.2722 104.273 40.1457C106.807 33.1583 113.108 26.0422 121.872 26.2312C147.598 2.50599 179.985 3.62442 213.846 8.6468C231.71 11.6348 249.849 17.4858 263.173 29.032C279.131 42.6252 285.345 66.3436 272.848 83.5324C283.649 88.7519 283.858 101.138 279.239 110.076C284.791 113.538 285.129 121.942 278.877 124.583C279.209 125.811 278.974 127.08 278.341 128.171C281.44 130.498 285.475 132.217 288.81 133.695C290.284 134.348 291.134 135.414 291.488 136.616C302.439 143.096 329.746 158.93 329.421 171.533C329.582 178.107 324.174 182.434 317.602 184.157C321.513 191.207 324.48 199.441 320.737 207.045C319.703 209.343 311.951 216.096 311.561 216.22C310.879 216.748 299.759 212.143 294.354 209.795C293.306 215.943 286.016 219.164 279.732 217.057C273.774 215.438 270.112 210.889 266.354 206.751C261.366 216.564 246.69 216.677 237.205 212.446C228.686 208.897 222.211 202.393 218.604 194.555C199.449 203.011 177.038 205.476 156.228 202.098C154.892 204.23 151.936 205.661 149.302 204.837C138.236 201.837 126.001 201.668 116.62 194.794C97.0678 182.138 95.4214 158.804 96.7849 138.914C97.9941 119.082 96.9356 99.0856 100.933 79.4683C99.1983 73.6925 96.3127 68.5864 93.6428 63.1603C90.7423 57.4704 90.8031 49.0122 97.9277 45.9656Z" fill="#D08B5B"/>
<path fill-rule="evenodd" clip-rule="evenodd" d="M186.694 6.60107L185.934 6.60377C184.678 6.61124 183.423 6.63363 182.172 6.67082C175.559 6.86708 168.663 7.6407 160.899 8.96492L159.718 9.16945C157.787 9.51042 156.057 9.85258 153.298 10.4339L147.822 11.5977C145.033 12.1837 142.981 12.5891 141.088 12.9152L140.84 12.9575C131.111 17.1629 124.675 20.649 121.533 23.4158L121.063 23.8331L120.863 24.0136L118.814 24.0719L118.794 24.3052L118.776 24.3076C116.742 24.593 114.901 25.5434 113.19 27.0229L113.007 27.1834L112.831 27.3424C111.497 28.5656 110.434 29.8691 108.969 31.9349L108.637 32.4069L108.041 33.2591L107.559 33.9434C107.245 34.391 106.944 34.8338 106.655 35.2725L106.37 35.7099L106.165 36.0314L100.874 38.8147C100.112 39.2157 99.4179 39.7347 98.7832 40.3563L98.6116 40.5283L98.4429 40.7054L97.0013 42.2523L97.2919 42.5251L97.1514 42.6918L96.8996 43.0027L96.6541 43.3178L96.4151 43.637L96.3122 43.7773L96.1568 44.0802L96.0811 44.2315L96.0208 44.356L95.8402 44.4398L95.4727 45.0379C93.5653 48.1414 92.5381 51.666 92.4685 55.2879C92.4205 57.7861 92.7623 60.055 93.5736 62.2437C94.135 63.757 94.8873 64.9462 96.188 66.5835L97.2158 67.8548L97.4257 68.1171L97.6765 68.4363C97.7162 68.4875 97.7551 68.5379 97.7933 68.5879C99.4649 70.7709 113.749 74.903 122.528 75.1028L122.793 75.1076L123.13 75.1106C123.968 75.1139 124.778 75.0868 125.558 75.028C128.935 74.7733 132.093 74.1324 135.761 73.0843L136.522 72.8625L140.564 71.6381C140.692 71.5997 140.796 71.569 140.868 71.5484L141.237 71.4443C142.127 71.1981 142.774 71.0566 143.215 71.0053L143.305 70.9955L143.314 71.1462L143.317 71.2883L143.316 71.4039C143.29 73.0814 144.42 74.3043 146.172 75.0835C147.288 75.5798 148.726 75.9342 150.531 76.2002L150.819 76.2415C153.769 76.6525 157.287 76.828 163.172 76.9483C163.396 76.9529 163.622 76.9503 163.85 76.9409C165.113 76.8888 166.106 76.6945 167.952 76.2166L168.825 75.9907L169.298 75.8728C170.176 75.6589 170.665 75.5735 171.127 75.5502L171.261 75.5451L171.395 75.5431C171.949 75.5424 172.35 75.6538 172.745 75.9252L172.947 76.0708L175.66 78.1207C176.013 78.3859 176.33 78.6211 176.562 78.7879L176.656 78.8551C180.38 81.4882 183.931 82.9924 188.113 83.1354L188.393 83.143L188.685 83.1459C188.897 83.1463 189.11 83.1428 189.324 83.1355C191.086 83.075 192.914 82.4862 195.411 81.3508L195.928 81.1121L196.29 80.9417C196.475 80.854 196.668 80.7617 196.877 80.6608L198.74 79.762L199.692 79.3135C200.829 78.7861 201.463 78.5315 201.89 78.4266L201.96 78.41L202 78.4447C202.988 79.3146 203.835 80.4093 204.747 81.9205L204.885 82.1503L205.084 82.4928L206.38 84.8189L206.625 85.2516C207.587 86.9306 208.348 88.0037 209.343 88.9452C210.788 90.3116 212.539 91.1044 214.683 91.2317L214.898 91.2422L215.154 91.2478C216.164 91.2567 217.234 91.1169 218.394 90.8263L218.664 90.7565L218.926 90.6839C220.655 90.1916 223.387 90.4981 225.557 91.5368C227.914 92.665 229.212 94.3863 229.155 96.5861C229.126 97.6788 228.987 98.8501 228.742 100.12L228.672 100.469C228.351 102.038 227.915 103.613 227.243 105.713L225.798 110.107L225.635 110.62L225.472 111.148C225.237 111.916 225.05 112.586 224.896 113.216C224.307 115.626 224.208 117.436 224.799 118.978C227.405 125.777 231.926 129.388 237.072 129.541L237.25 129.545L237.47 129.545C241.424 129.507 245.007 127.183 244.963 124.173C244.959 123.858 244.893 123.564 244.777 123.298L244.724 123.186L244.699 123.138L244.739 123.048C245.955 120.425 248.765 118.51 252.065 118.134L252.252 118.115L252.437 118.099C252.618 118.085 252.799 118.075 252.97 118.07L253.138 118.066L253.339 118.064C257.737 118.07 262.089 120.711 265.512 125.03C266.226 125.931 266.889 126.914 267.484 127.953L267.68 128.301L268.632 130.057L269.275 131.756C272.817 141.108 271.024 150.894 264.109 155.953L263.898 156.105C261.407 157.867 258.477 158.938 255.35 159.226C254.99 159.259 254.628 159.28 254.279 159.288L254.02 159.292L253.723 159.292C252.704 159.28 251.729 159.165 250.854 158.952C250.14 158.778 249.643 158.567 249.297 158.298C249.206 158.228 249.133 158.164 249.069 158.1L249.016 158.043L248.996 158.018L244.271 158.65C243.467 163.252 241.145 168.02 237.367 173.488L237.129 173.83L236.714 174.42L236.292 175.01C231.847 181.175 226.89 186.367 221.441 190.351L221.061 190.627L220.55 190.992L220.081 191.323C219.171 191.96 218.412 192.456 217.653 192.899L217.463 193.008L215.671 194.032L216.503 195.792C218.444 199.898 221.122 203.63 224.424 206.808L224.735 207.105L227.03 209.239L228.794 207.212C228.808 207.197 228.847 207.178 228.894 207.17L228.926 207.166H228.944L228.968 207.169L228.997 207.175L229.025 207.187C230.346 207.833 231.072 208.327 232.114 209.293L232.266 209.434L232.442 209.602L232.684 209.829C233.767 210.83 234.925 211.683 236.186 212.392C239.1 214.03 242.334 214.94 245.683 215.022L245.998 215.027L246.314 215.027C246.428 215.026 246.541 215.024 246.655 215.022C253.643 214.847 259.904 210.81 262.982 204.893C263.104 204.658 263.216 204.581 263.423 204.566L263.482 204.563L263.556 204.562C264.069 204.565 264.698 204.841 265.049 205.211L265.111 205.281L266.29 206.709L266.741 207.247C270.943 212.223 274.393 214.944 279.027 215.77C279.392 215.835 279.778 215.875 280.188 215.891L280.436 215.901H280.582C282.575 215.905 284.871 215.385 286.661 214.468C289.029 213.255 290.493 211.39 290.307 209.078L290.293 208.93L290.261 208.683C290.106 207.449 291.201 206.778 292.039 207.384L292.096 207.427L292.165 207.484C295.618 210.404 299.589 212.644 303.865 214.027L304.244 214.147L304.806 214.32C307.503 215.14 309.405 215.547 311.407 215.579C313.141 215.606 314.582 215.042 315.624 213.959C316.319 213.236 316.744 212.432 317.168 211.26L317.239 211.061L317.394 210.605L317.49 210.309C318.731 206.371 318.758 202.161 317.783 197.516C317.056 194.046 315.897 190.693 313.949 185.995L313.571 185.089L312.791 183.241C312.712 183.056 313.181 182.408 313.471 182.336L313.505 182.33L313.77 182.355C313.956 182.371 314.143 182.382 314.334 182.389L314.626 182.395H314.817C321.145 182.337 325.978 176.741 325.935 170.813C325.885 165.26 322.788 160.485 316.875 154.817L316.362 154.329L315.806 153.81L315.257 153.303C310.003 148.479 304.632 144.267 299.039 140.656L298.576 140.358L298.06 140.03C296.177 138.838 294.345 137.758 291.811 136.337L290.319 135.506L284.273 129.072C284.128 128.998 283.985 128.924 283.844 128.85L283.768 126.618L277.942 126.726C279.42 126.042 280.645 125.212 281.64 124.149C284.946 120.613 284.531 115.701 280.511 113.288L280.369 113.205L278.675 112.261L277.288 113.358C276.08 114.314 274.799 114.947 273.463 115.24L273.251 115.283L272.206 115.483L272.002 115.78L271.885 115.626C271.885 115.611 271.889 115.596 271.894 115.581L271.905 115.559L271.927 115.528L272.058 115.382L272.204 115.226C272.669 114.732 273.191 114.254 274.139 113.431L274.804 112.854L275.322 112.4C276.68 111.197 277.404 110.451 278.173 109.416C280.087 106.84 281.168 103.936 281.213 100.987C281.307 94.8534 277.077 89.0545 270.809 86.4078C270.589 86.3152 270.427 85.6564 270.691 85.221C276.76 75.1778 278.444 63.1391 275.395 51.9402C272.551 41.4916 265.473 32.269 255.341 25.2043C237.946 13.0756 213.817 6.82115 188.215 6.60575L187.439 6.60107H186.694Z" fill="#ECDCBF"/>
<path fill-rule="evenodd" clip-rule="evenodd" d="M279.714 130.144C278.561 129.883 277.943 131.28 278.921 131.841C285.131 135.403 291.546 138.585 297.546 142.461C303.252 146.146 308.522 150.343 313.436 154.856L313.981 155.358C318.424 159.481 323.345 164.725 323.395 170.806C323.433 175.532 319.392 180.692 313.754 180.071C311.63 179.837 309.678 182.267 310.419 184.019L311.199 185.866C314.336 193.339 317.527 201.807 315.05 209.67L314.959 209.95C314.359 211.75 313.727 213.341 311.41 213.305C309.26 213.271 307.022 212.617 305.009 211.993C300.831 210.697 297.045 208.536 293.832 205.819C290.99 203.415 287.358 205.857 287.741 208.912L287.755 209.009C288.278 212.437 282.223 214.029 279.47 213.539C274.035 212.569 270.16 207.658 267.073 203.914C265.589 202.115 261.986 201.406 260.682 203.914C258.099 208.88 252.775 212.592 246.546 212.748C243.31 212.829 240.206 211.998 237.466 210.458C236.347 209.829 235.347 209.081 234.43 208.234L234.202 208.02C232.845 206.722 231.908 206.032 230.174 205.185C228.466 204.35 226.256 205.385 226.267 207.206C226.281 209.566 227.047 211.134 228.851 212.845C230.344 214.263 232.118 215.507 233.982 216.501C237.729 218.497 242.184 219.621 246.546 219.491C253.422 219.286 259.985 216.195 264.239 211.388C268.583 216.072 273.972 220.376 280.974 220.26C286.216 220.174 291.101 217.713 293.442 213.9C296.746 215.954 300.373 217.56 304.252 218.61L304.598 218.702C310.09 220.143 316.409 220.716 319.944 215.799C323.263 211.183 323.511 204.791 322.75 199.515C322.071 194.802 320.463 190.326 318.616 185.911C323.872 184.495 327.952 180.043 329.353 175.243C331.473 167.985 327.361 160.946 322.276 155.554C316.753 149.696 309.802 144.741 302.799 140.404C295.814 136.079 287.989 132.015 279.714 130.144ZM100.118 73.3754C100.105 73.1737 99.7387 73.1031 99.7047 73.3245C97.2923 89.1122 95.8954 104.868 94.7391 120.764C94.1527 128.817 93.487 136.862 92.7583 144.906C92.0592 152.619 90.8954 160.537 91.1584 168.281C91.5701 180.408 98.0997 190.268 108.807 197.364C119.066 204.164 131.793 207.526 144.28 208.947C151.531 209.772 158.884 209.811 166.144 209.036C169.914 208.634 173.68 208.098 177.373 207.293L178.97 206.933C181.878 206.263 185.125 205.354 185.54 202.247C185.741 200.743 184.855 199.633 183.424 198.878C181.558 197.893 179.418 198.473 177.495 198.921C174.255 199.677 170.98 200.326 167.668 200.775C160.555 201.74 153.243 201.797 146.094 201.129C134.067 200.005 121.381 196.487 112.109 189.222C108.079 186.065 104.575 182.219 102.732 177.649C100.362 171.773 100.713 165.364 100.793 159.211C100.977 144.906 100.815 130.6 101.035 116.293C101.257 101.942 101.064 87.7048 100.118 73.3754ZM221.057 6.51925C207.004 3.25081 192.742 2.40152 178.308 3.38538C164.695 4.31253 149.188 7.05934 138.07 14.6102C137.53 14.9766 137.853 15.6702 138.521 15.5743C145.954 14.5058 153.199 12.5624 160.6 11.2765C167.719 10.0397 174.966 9.11123 182.214 8.89609C206.729 8.16742 234.007 13.1772 253.774 26.9607C263.043 33.4233 270.117 42.1134 272.932 52.4529C275.819 63.058 274.257 74.5268 268.46 84.1202C267.625 85.5014 267.969 87.6866 269.711 88.422C274.996 90.6535 278.76 95.5971 278.678 100.932C278.639 103.519 277.65 106.001 276.06 108.139C274.379 110.401 271.821 111.983 269.941 114.096C269.201 114.927 269.172 116.073 269.759 116.839C268.659 117.273 267.473 117.506 266.391 118.019C265.474 118.455 265.448 119.813 266.391 120.242C268.777 121.325 271.356 120.175 272.966 118.428C273.253 118.117 273.502 117.792 273.729 117.461C275.657 117.092 277.385 116.219 278.893 115.026C281.768 116.578 282.162 120.034 279.692 122.674C278.431 124.022 276.64 124.855 274.829 125.453L274.611 125.523C272.849 126.088 271.235 126.403 270.09 127.674C269.335 126.255 268.469 124.917 267.502 123.697C263.989 119.266 258.59 115.334 252.182 115.833C247.163 116.223 242.815 119.464 241.786 123.935C241.711 124.265 242.263 124.524 242.428 124.179C244.836 119.115 252.455 118.929 256.994 121.568C262.331 124.671 265.248 130.52 266.418 135.967C267.57 141.333 266.904 147.859 262.451 151.941C260.629 153.611 258.15 154.766 255.563 155.07C254.299 155.219 253.183 155.072 251.974 154.853L251.172 154.702C250.616 154.598 250.064 154.514 249.48 154.561L248.612 154.666L248.118 154.874C247.69 155.048 247.728 155 248.234 154.731C246.758 154.623 245.994 155.606 245.914 156.685C245.867 156.712 245.821 156.741 245.783 156.783C240.181 162.966 236.021 170.074 230.076 176.054L228.336 177.806C223.861 182.295 218.754 187.161 212.676 189.489L211.952 189.759C210.184 190.433 208.408 191.355 208.183 193.277C207.981 194.999 209.486 196.295 211.221 196.697C215.173 197.611 219.677 194.444 222.571 192.366C228.794 187.899 234.025 182.204 238.344 176.213L238.771 175.616C242.322 170.615 245.659 164.912 246.696 158.977L246.883 159.25C246.897 159.269 246.908 159.284 246.915 159.293C247.126 159.552 247.359 159.771 247.63 159.981C248.356 160.546 249.243 160.877 250.164 161.101C251.892 161.522 253.787 161.605 255.563 161.441C259.172 161.108 262.545 159.869 265.398 157.852C274.083 151.709 275.109 140.278 271.596 131.004C274.479 131.625 277.762 129.876 280.013 128.376C282.594 126.656 284.722 124.173 285.231 121.252C285.736 118.354 283.687 114.515 280.648 113.397C283.801 109.982 285.637 105.136 285.827 101.256C286.156 94.507 282.18 88.1276 276.076 84.4451C281.816 73.3503 282.922 60.4787 279.057 48.6984C271.387 25.322 245.694 12.2496 221.057 6.51925ZM242.926 184.129L242.854 183.924C242.242 182.116 241.453 178.52 238.458 179.889C235.597 181.196 237.424 185.067 238.424 186.951C239.621 189.205 241.689 191.013 244.466 191.497C246.724 191.891 249.205 191.385 250.785 189.811C251.245 189.352 251.505 188.849 251.778 188.294C251.885 188.078 251.933 187.93 251.953 187.833C251.979 187.939 252.052 188.097 252.241 188.282C253.502 189.524 254.692 190.97 255.607 192.44C255.824 192.787 256.506 192.544 256.334 192.163C255.268 189.813 255.447 186.179 253.072 184.479C250.979 182.98 249.012 184.16 247.905 185.905L247.848 185.996C246.23 188.646 243.651 186.129 242.926 184.129ZM265.697 175.637L265.479 175.363C263.24 172.604 259.465 169.286 255.688 171.852C254.487 172.668 254.442 174.029 255.688 174.839L256.159 175.143C257.81 176.198 259.453 177.194 260.665 178.707C261.982 180.352 263.164 182.094 264.935 183.384C268.067 185.666 273.128 186.116 275.845 183.04L276.112 182.735C276.34 182.471 276.6 182.153 276.812 181.836L276.977 182.042C276.993 182.062 277.008 182.082 277.022 182.101L277.06 182.153C278.177 183.762 279.588 185.088 281.345 186.134C284.685 188.121 288.448 188.397 292.227 187.345C292.596 187.242 292.497 186.795 292.139 186.765C287.662 186.388 283.3 183.52 281.479 179.826L281.273 179.411C280.536 177.942 279.711 176.546 277.89 175.969C276.118 175.407 274.258 176 273.042 177.209C272.026 178.22 271.765 180.228 269.932 179.785C267.924 179.3 266.795 177.033 265.697 175.637ZM278.52 151.098C277.529 150.418 275.976 151.147 275.703 152.132C274.466 156.59 279.604 161.844 284.542 161.982C285.813 162.017 287.035 161.74 288.161 161.209C289.035 160.798 290.068 159.747 291.027 159.572C292.265 159.348 293.362 160.835 294.234 161.598C295.315 162.546 296.385 163.425 297.597 164.233C298.081 164.555 298.832 164.013 298.628 163.518L298.218 162.533C296.734 159.026 294.179 153.906 289.396 155.362C287.053 156.074 285.29 158.479 282.822 156.575C280.847 155.051 280.662 152.565 278.52 151.098ZM257.421 133.149C252.963 128.534 242.483 130.972 240.496 136.586C240.057 137.826 240.515 139.438 241.589 140.316C243.004 141.472 245.022 141.822 246.74 140.915C248.218 140.135 248.825 138.859 249.911 137.764C251.505 136.159 253.672 135.268 255.905 134.63C256.464 134.895 256.983 135.243 257.449 135.662C257.688 135.877 258.139 135.583 257.927 135.33C257.64 134.986 257.288 134.662 256.888 134.364L257.081 134.313C257.669 134.165 257.796 133.538 257.421 133.149ZM228.447 82.1941C227.448 82.1955 226.284 83.0416 226.412 84.0295L226.45 84.3038C226.738 86.1846 227.408 87.2496 229.496 88.1234C231.267 88.8638 233.127 89.2729 235.069 89.4349C235.803 89.4961 236.581 89.4997 237.369 89.4471L237.535 90.3104C237.864 92.0371 238.169 93.765 238.227 95.5249C238.333 98.7875 236.983 101.476 235.536 104.389C232.756 109.984 232.444 115.57 235.47 121.157C235.912 121.974 237.166 122.64 238.177 122.557C239.488 122.45 240.121 122.108 240.884 121.157C241.524 120.358 241.378 119.23 240.934 118.395L240.884 118.303C239.359 115.639 238.878 112.629 239.657 109.701C240.388 106.949 242.046 104.475 242.786 101.732C243.992 97.2626 242.708 92.8294 240.198 88.9952C242.092 88.5033 243.844 87.6265 245.013 86.2893L245.008 86.2875C245.454 85.8577 245.21 84.9598 244.427 85.0138L243.542 85.0783C241.009 85.2693 238.677 85.4679 236.116 84.8311C234.802 84.5043 233.669 83.9595 232.542 83.2999L232.3 83.1568C230.89 82.3116 230.108 82.1923 228.447 82.1941ZM222.385 49.1619C216.035 48.8365 210.613 52.6158 207.978 57.6467C205.115 63.1086 206.316 69.3756 208.843 74.7494L209.561 76.2534C210.818 78.8592 212.467 81.9581 215.041 83.3563C217.931 84.9271 220.43 83.1056 219.578 80.2103C219.07 78.486 217.695 77.1561 216.582 75.7329C215.544 74.4039 214.576 73.0284 213.726 71.5936C212.062 68.7797 210.82 65.6445 210.834 62.4206C210.857 56.5364 215.168 49.7929 222.385 49.8793C222.9 49.8847 222.892 49.1876 222.385 49.1619ZM190.269 39.6673C190.665 39.3964 190.311 38.7937 189.868 39.048C182.505 43.2715 177.007 51.205 175.9 58.9989C175.285 63.3232 175.754 67.9446 177.797 71.9354C178.968 74.2254 180.978 76.4114 183.789 77.0392C186.373 77.6158 189.036 76.2849 189.838 74.0102C190.149 73.1276 189.614 72.2045 188.806 71.7225C186.186 70.1603 184.077 68.189 182.842 65.5371C181.558 62.78 181.046 59.854 181.031 56.88C180.993 49.9151 184.075 43.9124 190.269 39.6673ZM100.319 42.686C100.659 42.3453 100.231 41.843 99.7796 42.0564C94.4562 44.5813 91.0736 49.4178 90.1044 54.7147C89.1547 59.9005 90.4323 66.9603 94.8834 70.7108C97.3951 72.8279 101.895 70.0123 99.8066 67.2853C98.3344 65.3621 96.7429 63.7783 95.9 61.5059C95.1484 59.4783 94.8824 57.4336 94.9233 55.3029C95.0126 50.6546 96.8542 46.1516 100.319 42.686ZM165.404 36.1922C156.309 35.8016 150.797 45.1654 149.534 52.1447C148.755 56.4568 149.341 60.8982 151.981 64.6383L152.137 64.856C154.315 67.8438 158.276 71.2838 162.543 69.8691C164.349 69.2709 164.83 67.526 163.616 66.2023C161.76 64.1761 158.89 63.3502 157.145 61.1867C155.186 58.7603 154.544 55.7205 154.658 52.7698L154.673 52.4439C154.977 47.0163 157.847 36.5988 165.404 36.7832C165.828 36.7931 165.823 36.2098 165.404 36.1922ZM136.955 34.6364C128.157 33.6224 122.8 42.956 121.148 49.3858C120.116 53.4054 119.89 57.8895 121.21 61.879L121.308 62.1632C122.383 65.1406 125.553 70.2422 129.691 68.7206C130.825 68.3038 131.983 67.1683 131.44 65.9441C130.746 64.3791 129.746 63.9732 128.412 62.9718C127.385 62.2008 126.668 61.094 126.14 60.004C124.734 57.0987 124.42 53.7047 124.613 50.574L124.639 50.2035C125.136 44.0884 128.813 34.9752 136.955 35.1428C137.327 35.1504 137.301 34.676 136.955 34.6364ZM120.849 25.8617C115.952 24.1802 111.941 28.4024 109.126 31.4156C105.6 35.1913 102.402 39.2586 100.594 43.9587C98.9835 48.1467 98.7 52.8031 100.151 57.0662C100.869 59.1771 101.988 61.1345 103.515 62.8574L103.71 63.0747C105.299 64.8224 106.834 65.8964 109.437 65.2707C110.497 65.0155 110.944 64.0708 110.761 63.1679C110.369 61.2389 109.267 60.7379 107.839 59.3913C106.58 58.2036 105.645 56.7408 105.017 55.2029C103.722 52.0304 103.654 48.5931 104.524 45.3247C105.497 41.6657 107.413 38.2869 109.629 35.1207L110.107 34.4425C112.455 31.095 115.802 25.94 120.755 26.4832C121.18 26.53 121.185 25.9769 120.849 25.8617Z" fill="black"/>
<path fill-rule="evenodd" clip-rule="evenodd" d="M138.469 164.286C137.702 163.086 135.935 161.973 134.319 162.144C127.078 162.908 127.09 170.809 129.886 175.421C132.365 179.511 137.496 181.912 142.631 181.561C148.026 181.193 152.622 178.338 154.645 173.796C155.983 170.792 156.601 165.246 153.043 163.227C152.976 163.19 152.867 163.199 152.815 163.254C151.109 165.04 151.042 167.722 149.548 169.711C148.158 171.561 146 173.088 143.471 173.324C141.583 173.5 139.672 172.887 138.934 171.362C138.534 170.536 138.58 170.088 138.73 169.52L138.866 169.027C139.339 167.298 139.552 165.981 138.469 164.286ZM136.533 129.637C132.756 131.703 127.002 136.52 131.065 141.642C135.847 146.157 142.732 140.98 146.125 138.638C149.271 136.823 152.806 141.491 149.887 143.61C125.37 159.945 115.42 130.177 134.623 127.208C136.737 126.881 137.522 128.998 136.533 129.637ZM176.413 115.471C174.095 112.341 168.804 112.802 167.527 116.516C166.836 118.528 167.791 120.336 167.741 122.346C167.7 124.043 167.823 125.934 168.402 127.578C169.72 131.326 173.466 133.973 177.897 133.863C182.314 133.754 186.205 131.238 188.055 127.695C189.911 124.138 189.518 120.457 188.163 116.84C188.098 116.666 187.845 116.582 187.692 116.728C186.09 118.26 184.917 119.878 183.704 121.594L182.46 123.352C181.51 124.676 180.128 126.368 178.354 126.261L178.088 126.238C177.594 126.2 177.67 126.288 177.29 125.683C177.114 125.403 177.146 124.883 177.061 124.552L177.031 124.441L177.047 124.381C177.085 124.221 177.122 123.919 177.152 123.396L177.159 123.28C177.287 120.833 178.056 117.689 176.413 115.471ZM117.654 117.555C118.07 113.552 111.817 112.663 109.738 115.625C108.653 117.169 108.338 119.11 108.098 120.948L107.986 121.821C107.74 123.709 107.642 125.673 108.553 127.434C109.987 130.208 113.106 131.674 116.471 131.442C119.684 131.22 122.616 129.543 124.161 126.998C125.539 124.727 126.909 120.293 125.236 117.924C125.135 117.78 124.932 117.762 124.794 117.873C123.213 119.136 122.955 121.44 122.015 123.086C121.045 124.784 119.574 126.438 117.345 126.696C115.213 126.943 114.398 125.895 114.942 124.065C115.644 121.703 117.39 120.096 117.654 117.555ZM174.724 91.6727L173.702 91.3202C170.198 90.1291 165.387 88.7522 162.539 91.3163C160.781 92.8974 160.447 95.2265 161.701 97.156C163.221 99.4932 165.947 99.5508 168.579 99.8951C171.574 100.287 174.619 101.031 177.406 102.092C180.547 103.288 183.461 104.779 186.316 106.444C189.03 108.026 191.734 110.611 194.982 111.099C195.114 111.119 195.265 111.067 195.299 110.936C196.037 108.078 193.987 105.266 192.158 103.036C189.944 100.337 187.262 98.121 184.265 96.1343C181.371 94.2166 178.066 92.8308 174.724 91.6727ZM111.076 101.834L110.764 101.785C108.639 101.466 106.714 101.54 105.112 103.054C103.89 104.209 103.419 105.707 104.002 107.234C104.539 108.644 105.742 110.075 107.487 110.37C113.377 111.368 119.902 111.203 125.823 110.448C128.531 110.102 131.264 109.679 133.903 109.012L135.117 108.695C137.319 108.129 139.841 107.538 141.441 106.08C142.016 105.556 141.684 104.806 140.996 104.564C138.204 103.58 134.378 104.103 131.401 104.026C127.939 103.937 124.47 103.703 121.024 103.382C117.656 103.067 114.398 102.382 111.076 101.834Z" fill="black"/>
<path fill-rule="evenodd" clip-rule="evenodd" d="M92.7967 131.759C97.3876 136.921 115.36 142.65 124.925 136.43C134.491 130.21 138.271 125.876 139.549 118.104C139.686 117.275 141.351 116.724 142.055 117.312C145.996 120.607 148.547 124.803 151.075 129.01C153.926 133.755 156.734 138.529 161.915 141.741C171.091 146.167 187.692 146.798 192.596 144.845C201.991 141.105 209.423 133.105 211.113 122.096C212.259 118.841 213.334 116.871 214.338 116.186C215.766 115.212 223.644 114.344 224.507 114.2C240.06 111.603 259.731 109.947 273.583 119.084C275.458 120.104 281.876 123.935 281.972 122.993C282.038 119.303 277.391 110.951 266.823 106.976C253.754 102.062 234.327 101.774 223.072 102.859C222.506 102.913 220.577 102.487 220.441 102.434C203.39 95.7902 183.771 97.5546 165.527 100.347C162.913 100.803 139.509 106.019 130.2 102.859C114.808 97.2042 98.3981 93.1075 81.777 94.7192C81.638 94.7327 79.5397 106.194 81.1742 106.976C82.475 107.599 84.6884 109.193 85.4747 110.066C86.1776 110.846 86.6206 111.816 86.5813 113.159C86.2652 120.932 88.7295 127.186 92.7967 131.759ZM156.08 124.823C154.129 122.283 153.513 116.575 154.33 112.412C154.744 110.303 155.547 108.625 156.555 107.79C157.225 107.235 157.99 106.973 158.824 107.012C159.281 107.033 159.776 107.15 160.3 107.405C167.399 103.949 175.998 102.705 184.149 103.063C190.638 103.062 195.267 104.44 198.407 106.586C202.185 109.168 203.887 112.879 203.985 116.904C204.102 121.68 201.922 126.905 198.346 131.039C194.923 134.996 190.24 137.93 185.161 138.607C179.394 139.637 173.517 138.64 168.408 136.203C163.168 133.702 158.741 129.686 156.08 124.823ZM99.1781 127.518C95.889 124.02 93.702 119.47 93.3691 114.961C93.0662 110.858 94.2871 106.794 97.6627 103.435C100.723 101.071 106.131 101.032 111.819 102.348C119.175 104.05 126.784 107.854 129.321 110.311C129.919 110.593 130.473 111.084 130.956 112.137L130.96 112.513C131.728 115.702 131.272 118.939 129.943 121.924C128.499 125.168 126.023 128.112 123.003 130.359C118.991 133.333 114.803 134.243 110.884 133.763C106.444 133.219 102.315 130.854 99.1781 127.518Z" fill="white"/>
<path fill-rule="evenodd" clip-rule="evenodd" d="M130.729 101.595C115.143 95.8687 98.4828 91.7411 81.616 93.3767C80.2212 92.8991 78.4898 93.3015 77.8717 95.0766C71.8638 111.547 85.2613 106.967 85.0813 113.124C83.677 147.646 135.236 153.541 141.033 118.301L141.14 118.358C149.481 125.363 151.238 136.761 161.063 142.852C180.884 155.898 208.982 145.562 212.591 122.338L212.669 122.024C213.881 117.284 215.329 116.109 221.304 116.132L222.247 115.964C237.77 113.211 258.442 110.738 272.739 120.203C275.849 121.831 275.995 126.015 278.622 127.833C281.501 128.336 283.274 125.22 283.47 123.064C283.926 101.567 241.181 100.02 222.038 101.865C221.672 101.524 220.891 101.567 220.628 101.991C203.315 95.2454 183.811 96.1788 165.273 99.0157C153.79 101.016 142.449 105.573 130.729 101.595ZM83.1679 97.3454C92.5205 96.9246 101.171 97.385 110.351 99.4081C115.19 100.459 118.902 101.787 123.533 103.384C152.419 114.901 155.751 94.4294 220.499 102.454C219.662 105.683 219.508 108.88 219.463 111.913C206.242 111.434 209.355 122.795 204.402 130.774L204.249 131.015C197.031 142.658 179.997 148.088 166.256 140.366C154.792 134.353 153.674 119.102 142.261 113.049C132.367 112.699 136.319 124.716 130.935 129.655C123.356 138.756 107.247 140.029 97.7436 131.468C93.2851 127.349 90.9156 122.119 90.7846 116.501C90.536 112.911 91.2202 109.263 88.2045 106.738C86.0905 104.805 82.3347 105.45 81.9036 102.529C81.6295 100.802 82.4277 98.9279 83.1679 97.3454ZM184.811 102.051C175.52 101.639 165.69 103.091 157.713 107.191C151.808 102.962 150.361 119.769 154.281 124.63C159.927 135.028 173.074 141.864 185.732 139.594C205.48 137.019 219.239 102.02 184.811 102.051ZM158.28 108.318L158.785 108.252C167.344 107.077 190.646 101.632 199.634 110.225C208.356 124.479 186.228 148.42 163.2 129.35C156.791 123.478 154.307 116.358 158.28 108.318ZM131.159 110.14C126.727 105.417 104.14 95.8515 96.2664 101.99C81.8966 116.483 104.685 145.798 123.773 131.515C130.13 126.741 134.312 119.135 132.482 111.77L132.479 111.461C132.475 111.349 132.452 111.375 132.319 111.235C132.083 110.678 131.659 110.323 131.159 110.14ZM96.4669 118.924C91.6208 95.2696 111.875 104.262 128.509 110.576C127.616 111.31 127.62 112.312 127.876 113.136C129.631 130.687 105.927 140.633 96.4669 118.924ZM222.374 103.015C229.312 105.129 275.203 101.347 279.442 120.707C274.967 114.182 265.699 111.593 257.367 110.188C246.034 108.276 234.763 109.383 223.589 111.394L223.358 109.313C223.11 107.106 222.849 105.041 222.374 103.015Z" fill="black"/>
</g>
<defs>
<clipPath id="clip0_1_450">
<rect width="619" height="505" fill="white" transform="translate(-217 -2)"/>
</clipPath>
</defs>
</svg>
