<svg width="411" height="503" viewBox="0 0 411 503" fill="none" xmlns="http://www.w3.org/2000/svg">
<g clip-path="url(#clip0_1_450)">
<path d="M80.9249 313.102H195.451V440.023H80.9249V313.102Z" fill="#FDEA6B"/>
<path fill-rule="evenodd" clip-rule="evenodd" d="M228.855 188.96C216.509 180.499 185.516 176.695 172.34 184.841C159.326 193.021 157.907 206.249 151.843 218.418C146.121 215.99 136.672 219.468 135.013 224.246C132.956 226.499 132.864 232.831 131.445 235.86C69.7098 244.704 60.3373 288.018 52.9066 337.192C43.0764 387.092 20.7609 436.882 30.4486 488.229C29.1863 489.873 28.191 491.471 27.2708 493.368C25.0658 496.745 27.906 501.524 32.3535 501.339C38.1103 500.884 43.8101 500.263 49.5939 500.069C65.6274 499.568 81.6755 499.628 97.715 499.811L99.9022 499.837C180.737 500.742 261.567 502.527 342.405 503C345.338 503.004 346.774 500.637 346.382 498.302C345.594 493.601 344.862 488.898 344.098 484.194C363.219 488.739 383.545 489.883 402.611 484.672C403.945 483.449 399.504 484.112 398.799 483.927C416.346 473.136 411.106 450.404 409.552 434.031C399.886 377.929 396.479 315.856 359.136 267.983C342.981 248.446 319.296 232.978 292.081 229.497L291.326 229.404C283.368 228.449 274.499 228.142 267.541 224.246C259.716 218.624 256.381 208.236 248.148 208.139C245.43 208.106 241.732 211.201 237.752 213.303C237.455 208.68 234.687 204.779 234.076 201.195L234.026 200.889C233.389 196.71 234.262 192.951 228.855 188.96ZM96.1807 338.675C113.53 327.828 158.347 333.278 159.373 333.885C161.632 335.223 162.604 335.341 163.826 337.077C165.032 337.221 166.238 337.371 167.442 337.525C169.858 338.235 168.068 340.909 165.277 339.955C166.955 346.469 162.016 351.102 160.049 357.543C159.411 359.634 160.026 363.395 160.049 365.531C159.859 368.256 156.512 371.473 157.07 374.207C159.053 383.923 169.814 393.402 165.277 402.825C162.271 408.147 153.231 410.861 147.221 412.67C134.769 416.971 113.072 412.508 105.836 402.825C101.977 397.66 97.5064 384.631 95.2054 380.59L94.6953 374.18C93.4376 358.244 92.3188 341.089 96.1807 338.675Z" fill="#D08B5B"/>
<path fill-rule="evenodd" clip-rule="evenodd" d="M248.79 208.168L243.825 210.91L214.99 223.738C209.399 225.147 206.604 226.835 206.604 228.803V248.839C206.604 251.521 201.358 257.598 190.866 267.07L181.173 258.374L181.39 257.236C182.313 252.33 182.774 249.048 182.774 247.39C182.774 245.608 173.291 238.841 154.325 227.089L146.027 220.059L146.912 217.638C141.796 217.855 136.248 220.691 135.013 224.246C132.956 226.5 132.864 232.831 131.445 235.861C69.7098 244.704 60.3373 288.019 52.9066 337.193C43.0764 387.092 20.7609 436.883 30.4486 488.23C29.1863 489.873 28.191 491.471 27.2708 493.369C25.0658 496.745 27.906 501.525 32.3535 501.34C38.1103 500.884 43.8101 500.263 49.5939 500.069C65.6274 499.568 81.6755 499.628 97.715 499.811L99.9022 499.837C180.737 500.743 261.567 502.527 342.405 503.001C345.338 503.004 346.774 500.637 346.382 498.302C345.594 493.601 344.862 488.898 344.098 484.195C363.219 488.74 383.545 489.883 402.611 484.673C403.945 483.45 399.504 484.113 398.799 483.927C416.346 473.136 411.106 450.405 409.552 434.032C399.886 377.93 396.479 315.856 359.136 267.983C342.981 248.446 319.296 232.978 292.081 229.498L291.326 229.405L290.565 229.316C282.807 228.427 274.278 228.019 267.541 224.246C259.922 218.773 256.56 208.781 248.79 208.168ZM179.696 325.775C182.524 325.775 188.317 329.727 197.073 337.633L197.844 337.954C208.429 342.378 215.441 346.216 218.881 349.468L219.003 349.585C222.478 352.94 229.359 361.86 239.646 376.347L254.542 384.275H260.179L264.192 410.471L254.542 429.175L232.685 422.55L197.073 414.102L176.637 395.444L165.11 391.961C166.508 395.598 167.015 399.216 165.277 402.826C162.271 408.148 153.231 410.862 147.221 412.671C134.769 416.972 113.072 412.509 105.836 402.826C101.977 397.661 97.5064 384.632 95.2054 380.591L94.5454 372.263C93.356 356.896 92.4733 340.993 96.1807 338.675C113.53 327.829 158.347 333.278 159.373 333.886C161.632 335.223 162.604 335.341 163.826 337.078L164.459 337.154L160.902 332.813L162.161 332.208C171.147 327.919 176.992 325.775 179.696 325.775ZM165.277 339.955C166.884 346.192 162.425 350.704 160.316 356.729L165.704 347.447L165.704 340.076C165.565 340.045 165.422 340.005 165.277 339.955Z" fill="#9DDADB"/>
<path fill-rule="evenodd" clip-rule="evenodd" d="M251.171 207.199C249.973 206.244 248.201 207.444 248.962 208.733C250.672 211.631 252.427 214.377 254.722 216.939C256.114 218.492 257.605 219.961 259.116 221.414C255.238 224.432 251.913 228.18 248.773 231.693C244.758 236.185 240.961 240.867 236.454 244.978C232.008 249.032 227.093 251.866 221.15 253.755L219.949 254.131C213.979 256.017 207.598 258.564 204.232 263.652C203.569 264.655 204.905 265.894 206.028 265.268C211.876 262.01 218.747 261.354 225.113 259.201C231.262 257.121 236.622 253.92 241.358 249.835C246.086 245.757 250.056 241.116 254.197 236.574C258.292 232.083 262.701 228.247 267.544 224.447C275.019 228.972 283.551 230.941 292.226 232.875L293.173 233.086C301.859 235.021 310.498 237.269 318.647 240.639C325.832 243.61 332.898 247.158 338.751 251.993C344.963 257.124 349.798 263.677 354.224 270.085C364.123 284.423 371.083 300.13 377.209 316.029C383.582 332.566 388.912 349.433 393.215 366.502C395.404 375.184 397.181 383.927 398.642 392.732C399.345 396.973 399.97 401.222 400.518 405.481C401.104 410.029 401.238 414.708 402.789 419.081C403.453 420.955 405.023 421.733 406.594 421.667L406.913 425.258C407.336 430.046 407.73 434.835 407.863 439.653C408.084 447.663 407.984 455.65 407.344 463.644L407.253 464.734C406.75 470.568 405.626 477.123 400.751 481.394C395.703 485.819 387.94 487.21 381.136 487.289C365.289 487.475 350.034 480.737 336.011 474.825C321.569 468.737 307.521 461.979 293.81 454.65C286.828 450.918 279.921 447.061 273.101 443.092C269.755 441.143 266.432 439.162 263.135 437.149C261.246 435.996 259.456 434.731 257.533 433.708C258.475 432.919 258.896 431.678 258.107 430.594C263.665 426.252 265.979 418.503 266.249 412.233C266.468 407.172 265.64 402.125 264.987 397.112C264.658 394.584 264.25 392.06 263.828 389.543C263.661 388.549 263.533 387.485 263.338 386.436C278.348 393.859 293.779 400.47 309.618 406.343C317.737 409.353 325.959 412.06 334.296 414.54L335.985 415.041C343.884 417.367 351.972 419.565 360.138 420.896C360.574 420.967 360.929 420.387 360.463 420.202C352.505 417.042 344.272 414.376 336.194 411.466L334.867 410.98C335.019 410.972 335.177 410.953 335.343 410.918C340.08 409.889 344.78 408.303 349.426 406.968C353.738 405.729 358.582 404.951 362.613 403.08C362.923 402.936 362.749 402.549 362.447 402.53C357.917 402.247 352.999 403.436 348.558 404.135L346.889 404.398C344.094 404.841 341.237 405.318 338.456 405.94C338.355 405.101 337.835 404.259 337.094 403.765C328.944 398.334 329.771 387.363 328.9 379.272L328.253 373.266C327.116 362.755 325.913 352.244 324.086 341.811C323.988 341.254 323.031 341.414 323.027 341.94C322.932 354.873 324.017 367.746 324.561 380.659L324.645 382.777C324.946 390.744 325.181 399.018 330.757 405.149C329.978 404.739 328.924 404.739 328.292 405.415C327.516 406.246 327.068 407.179 327.082 408.095C322.043 406.194 317.026 404.243 312.034 402.253C295.984 395.854 280.271 388.693 264.973 380.944C263.326 380.11 261.761 380.766 260.947 381.865L260.83 381.85C260.81 381.848 260.79 381.846 260.77 381.846L260.653 381.841C260.649 381.841 260.644 381.841 260.64 381.841C258.487 380.777 255.553 381.535 253.705 383.088C253.651 383.135 253.604 383.185 253.556 383.235C251.216 382.29 249.032 381.014 247.049 379.397C242.992 376.088 239.556 371.996 236.56 367.893C231.044 360.336 226.357 351.933 218.905 345.713C212.85 340.659 205.344 337.512 197.468 335.537C197.501 335.33 197.413 335.109 197.254 334.963C196.85 334.59 196.561 334.46 196.039 334.687C195.997 334.705 195.972 334.73 195.955 334.757L195.187 333.576C194.767 332.935 194.336 332.289 194.187 332.119C193.293 331.106 192.373 330.1 191.439 329.116C189.855 327.45 188.05 325.805 185.96 324.649C181.384 322.119 176.573 323.551 171.869 324.934C169.026 325.769 166.193 326.632 163.355 327.481L163.063 327.567C160.947 328.178 158.471 328.714 157.524 330.731C157.15 331.529 157.092 332.358 157.266 333.162C137.17 328.563 114.849 330.676 95.2379 336.075C94.4852 336.282 93.7336 336.839 93.575 337.571C91.328 347.941 90.3273 358.576 91.344 369.123C92.2212 378.227 94.4627 387.149 98.6867 395.484L98.9268 395.954C102.896 403.679 109.188 413.201 118.797 415.622C124.599 417.084 131.015 416.222 136.933 415.954C142.684 415.693 148.562 415.656 154.258 414.842C159.331 414.117 163.776 412.071 166.912 408.359C169.616 405.156 171.04 401.285 172.207 397.435C172.741 397.588 173.272 397.75 173.794 397.934C175.998 398.709 177.866 399.959 179.554 401.431C183.119 404.538 185.885 408.312 189.615 411.277C192.992 413.961 196.84 416.048 200.967 417.653C209.52 420.979 218.695 422.308 227.741 424.071L228.372 424.194C235.183 425.539 242.135 427.191 248.146 430.382C248.263 431.321 248.739 432.205 249.501 432.784C248.441 433.68 247.992 435.099 248.924 436.43C251.526 440.147 256.009 442.262 260.033 444.639L260.295 444.794C264.254 447.156 268.247 449.471 272.273 451.739C280.458 456.351 288.813 460.708 297.286 464.874C310.915 471.575 324.836 477.895 339.009 483.628C338.159 487.394 338.469 491.278 337.83 495.07L337.732 495.611C337.459 497.018 337.828 498.195 338.905 499.115L339.019 499.209L339.017 499.196L339.118 499.279L339.152 499.305L339.14 499.297C339.265 499.399 339.393 499.494 339.523 499.576L339.689 499.672C340.727 500.24 342.062 500.233 343.124 499.732L343.246 499.672L343.45 499.567C344.853 498.841 345.821 497.041 345.239 495.611C343.808 492.097 343.267 488.346 341.946 484.809L342.994 485.23L344.376 485.772C359.318 491.587 375.916 496.484 392.197 492.52C399.39 490.768 406.114 487.062 409.713 481.021C413.255 475.078 413.756 468.176 413.944 461.564C414.176 453.404 413.69 445.119 412.494 437.029C411.691 431.599 410.721 426.065 409.223 420.691C409.993 420.079 410.559 419.202 410.709 418.116C411.416 412.983 410.179 407.646 409.422 402.539C408.682 397.554 407.865 392.578 406.941 387.617C405.075 377.599 402.907 367.602 400.383 357.701C395.891 340.08 389.959 322.772 382.817 305.878L382.192 304.407C375.593 288.965 367.952 273.853 357.312 260.288C352.222 253.798 346.842 247.913 339.65 243.237C332.913 238.855 325.313 235.7 317.47 233.288C309.619 230.875 301.549 229.258 293.337 228.252C284.997 227.23 276.193 226.604 268.413 223.525C269.397 221.937 268.552 219.794 266.896 218.809C261.322 215.494 256.167 211.183 251.171 207.199ZM72.728 351.322C72.4944 351.003 71.9398 351.205 72.0423 351.582C74.7534 361.578 77.2985 371.594 78.9604 381.78C81.9603 400.166 81.4085 418.791 81.1633 437.313L81.1509 438.271C81.0248 448.247 80.8498 458.224 80.4832 468.196C80.2982 473.236 79.9321 478.326 80.1311 483.368C80.2397 486.104 81.0499 488.691 81.3369 491.394C81.5885 493.758 81.3644 496.157 81.2389 498.524C81.1549 500.097 83.7354 500.03 83.911 498.524L84.1354 496.575C84.427 494.11 84.7875 491.659 85.6854 489.299C86.7651 486.46 87.2833 483.672 87.6578 480.692C88.2316 476.125 88.4867 471.512 88.7082 466.913L88.8596 463.732C89.7843 444.512 89.7519 425.201 88.2549 406.001L88.1455 404.63C86.6631 386.481 84.091 366.872 72.728 351.322ZM130.518 236.937C131.227 236.675 130.979 235.712 130.194 235.879L128.768 236.186C118.319 238.438 108.059 240.879 98.3052 245.07C88.5455 249.264 80.2826 255.525 73.7172 263.224C60.9543 278.189 55.6506 296.377 51.4636 314.547C46.8106 334.738 42.5741 355.002 37.8806 375.187L37.009 378.947C32.666 397.746 28.5656 416.556 25.5443 435.578L25.3273 436.958C22.2805 456.519 20.4479 476.757 23.7724 496.369C24.4301 500.249 31.6047 499.283 31.3241 495.449C30.5139 484.367 29.9338 473.343 30.4944 462.236C31.0555 451.127 32.2133 440.066 33.9392 429.055C35.3916 419.787 37.5567 410.636 39.4727 401.442L39.773 399.99C41.3774 392.171 43.0313 384.359 44.6817 376.547L47.1479 364.85C50.8442 347.337 54.6129 329.808 58.8713 312.404L59.124 311.38C63.2914 294.636 69.4352 277.097 81.9355 263.801C94.6209 250.307 112.78 243.511 130.518 236.937ZM176.612 414.535C176.307 413.924 175.24 413.991 174.912 414.535C173.626 416.67 173.484 419.394 173.241 421.804L173.215 422.052C172.906 424.992 172.632 427.943 172.465 430.893C172.147 436.491 171.995 442.082 172.015 447.688C172.035 453.433 172.163 459.171 172.507 464.907L172.601 466.444C172.915 471.429 173.442 476.989 176.074 481.347C177.03 482.931 179.633 482.466 180.187 480.863C182.002 475.617 181.07 469.397 180.604 464.024L180.243 459.832C179.885 455.639 179.543 451.444 179.272 447.246C178.901 441.503 178.595 435.755 178.301 430.009C178.205 428.142 178.102 426.275 177.992 424.409L177.824 421.61C177.681 419.269 177.693 416.7 176.612 414.535ZM380.732 421.97L379.929 421.272C377.462 419.099 374.344 415.753 370.697 415.96C369.243 416.043 368.316 417.13 368.617 418.417C369.262 421.17 372.382 422.598 374.628 424.279C377.088 426.119 379.407 428.087 381.722 430.073C383.775 431.834 385.75 433.645 387.677 435.513L388.398 436.216C389.089 436.894 394.008 440.899 393.476 441.938L393.447 441.985C393.299 442.183 393.546 442.457 393.792 442.387C395.916 441.783 395.783 440.145 394.98 438.484C393.437 435.294 390.734 432.343 388.374 429.619C386.021 426.901 383.473 424.37 380.732 421.97ZM168.914 341.968C170.557 338.474 176.609 338.547 180.045 338.756C188.696 339.282 198.058 341.252 205.756 344.892C213.737 348.665 219.113 354.71 223.923 361.395L224.148 361.709C228.837 368.268 233.353 376.032 240.694 380.542C244.434 382.839 248.8 384.937 253.337 385.846C253.649 386.339 254.153 386.729 254.815 386.871L255.122 386.934C256.415 387.191 258.422 387.475 260.156 387.305C260.145 388.068 260.154 388.826 260.132 389.549C260.071 391.622 260.045 393.703 260.045 395.777C260.044 400.123 260.304 404.477 260.102 408.822C259.924 412.665 259.32 416.68 257.27 420.116C255.766 422.636 253.781 424.304 251.385 425.897C245.491 422.664 238.826 420.693 232.061 419.212C223.88 417.42 215.504 416.224 207.509 413.795C203.661 412.625 199.962 411.094 196.61 409.015C193.053 406.808 190.336 403.821 187.54 400.899L187.103 400.446C184.25 397.501 181.137 394.683 177.105 393.087C173.633 391.711 169.056 391.466 166.02 389.338C164.432 388.225 164.299 386.609 164.132 384.955C166.077 385.205 168.135 384.804 170.073 384.6L171.077 384.493C172.91 384.298 174.7 384.082 176.504 383.662C176.839 383.585 176.839 383.13 176.504 383.052C174.372 382.557 172.259 382.346 170.073 382.115L169.56 382.057C167.582 381.824 165.504 381.472 163.564 381.864C163.216 380.672 162.713 379.534 162.008 378.394C161.018 376.793 159.145 374.978 158.892 373.108C158.817 372.55 158.961 371.891 159.254 371.397L159.355 371.229C159.478 371.03 159.623 370.831 159.836 370.707C159.86 370.731 159.91 370.76 160.019 370.79C161.511 371.213 162.814 370.556 163.505 369.542C166.439 369.87 169.641 369.76 172.393 369.869L175.175 369.99C178.148 370.113 181.255 370.167 184.049 369.626C184.439 369.551 184.557 368.967 184.166 368.816C180.732 367.494 176.566 367.073 172.889 366.565C170.836 366.281 168.767 366.065 166.708 365.815C165.337 365.649 163.881 365.374 162.461 365.308C158.898 361.317 160.818 355.021 165.775 353.303C167.581 354.017 169.205 353.602 171.178 353.449C173.147 353.297 175.122 353.194 177.099 353.201C181.062 353.217 185.261 354.155 189.185 353.751C189.823 353.685 190.416 352.921 189.781 352.455C186.778 350.249 182.473 349.53 178.66 349.06L177.87 348.964C176.592 348.814 175.037 348.594 173.425 348.463C173.06 347.823 172.406 347.339 171.424 347.219C171.132 347.183 170.838 347.161 170.545 347.139L170.549 347.113C168.153 347.009 168.257 343.366 168.914 341.968ZM332.985 410.121C333.028 410.18 333.074 410.236 333.123 410.29L333.2 410.369L332.805 410.225L332.985 410.121ZM127.094 334.16C137.181 333.185 147.283 333.391 157.4 333.652C158.209 336.034 161.026 338.064 163.755 338.141C161.617 341.068 161.397 345.031 162.896 348.136C159.713 349.276 156.972 351.324 155.307 354.24C152.999 358.283 153.301 362.782 155.583 366.519C153.636 368.105 152.487 370.681 152.602 373.108C152.73 375.815 154.523 378.128 156.013 380.369C157.623 382.793 157.677 384.928 158.172 387.642C158.895 391.616 161.873 394.025 165.704 395.53L165.501 396.251C164.513 399.712 163.284 403.363 160.461 405.893C156.829 409.148 151.195 409.118 146.396 409.324L146.165 409.334C141.771 409.532 137.379 409.764 132.987 409.988L129.693 410.153C124.636 410.404 119.779 410.434 115.651 407.425C108.91 402.514 104.29 394.386 101.365 387.191C95.2269 372.088 95.1534 355.514 97.971 339.785C107.421 337.044 117.225 335.114 127.094 334.16ZM210.982 359.216L210.908 359.221C208.831 359.435 207.404 360.948 206.896 362.744C206.158 365.353 206.52 367.712 204.744 370.068C202.917 372.49 201.794 374.43 201.528 377.422C201.419 378.654 201.469 379.882 201.165 381.087L200.944 381.932C200.709 382.832 200.517 383.699 200.634 384.666C200.74 385.548 201.218 386.235 202.2 386.517C205.402 387.439 207.875 385.316 208.702 382.63C209.417 380.31 208.463 377.546 209.471 375.368C210.03 374.16 211.06 373.15 211.642 371.935C212.219 370.73 212.508 369.471 212.601 368.161C212.776 365.684 210.342 362.708 211.7 360.463C211.989 359.984 211.662 359.202 210.982 359.216ZM253.518 333.653C251.349 333.257 248.889 332.348 246.751 333.103C245.652 333.492 245.108 334.698 246.037 335.537C247.65 336.991 249.993 337.072 252.165 337.415L252.356 337.446C254.924 337.874 257.497 338.279 260.073 338.664C264.919 339.386 269.777 340.025 274.653 340.568C279.66 341.125 284.681 341.622 289.709 341.995L291.656 342.139C295.903 342.445 300.322 342.675 304.49 342.09C305.095 342.005 304.998 341.211 304.49 341.072C299.924 339.829 294.916 339.495 290.196 338.969C285.178 338.409 280.168 337.817 275.172 337.115C270.183 336.413 265.201 335.661 260.237 334.829C257.994 334.454 255.754 334.062 253.518 333.653ZM175.273 329.66C177.176 329.054 179.269 328.156 181.331 328.456C184.887 328.975 188.052 332.093 190.866 334.146L189.453 333.899C182.222 332.648 172.646 331.3 166.575 335.438C166.56 335.414 166.548 335.39 166.53 335.366C166.04 334.697 165.473 334.174 164.853 333.601C164.794 333.551 164.737 333.499 164.68 333.446L164.346 333.126L165.111 332.887C166.748 332.367 168.689 331.694 168.995 331.596L169.017 331.589C171.105 330.952 173.195 330.323 175.273 329.66ZM234.687 193.254C234.985 189.81 229.028 189.838 228.733 193.254C228.089 200.712 229.954 208.099 233.968 214.637C233.998 214.685 234.03 214.727 234.061 214.772C231.55 215.948 229.011 217.076 226.416 218.084C223.096 219.374 219.713 220.549 216.27 221.545C213.155 222.447 209.317 222.803 206.699 224.68C201.177 228.637 203.252 236.849 204.314 242.172L204.48 243.012C205.008 245.751 205.391 248.562 204.108 251.191C202.737 253.999 199.966 256.082 197.494 258.091L196.995 258.498C194.805 260.294 192.303 262.475 190.696 264.909C189.23 262.181 187.231 259.951 185.118 257.441C183.61 255.65 184.683 255.059 185.766 253.31C186.809 251.625 187.318 249.83 186.992 247.909C186.39 244.36 183.239 241.797 180.102 239.871C176.398 237.598 172.264 235.914 168.434 233.799C160.565 229.454 152.902 224.486 145.998 218.968C145.808 218.816 145.478 219.016 145.63 219.224C151.084 226.689 157.479 233.14 165.338 238.616C168.525 240.836 171.873 242.678 175.243 244.614L176.212 245.173C177.565 245.962 179.253 247.017 179.864 248.36C180.48 249.71 179.167 250.73 178.461 251.849C176.217 255.402 177.299 258.717 179.959 261.731L180.083 261.87C182.727 264.801 184.73 267.528 185.689 271.273C187.748 279.319 184.88 287.7 181.878 295.254L181.759 295.551C180.135 299.623 178.409 303.664 176.999 307.801L176.61 308.945C175.332 312.751 174.285 316.505 175.719 320.417C176.207 321.748 178.224 322.063 179.062 320.81C182.017 316.393 182.753 311.078 184.606 306.222C186.411 301.489 188.484 296.841 190.228 292.089C192.474 285.97 193.976 279.384 193.161 272.966C193.185 272.928 193.211 272.893 193.231 272.854L193.803 271.728C195.362 268.681 196.867 266.021 199.702 263.592C202.658 261.058 205.868 258.816 208.194 255.749C213.248 249.087 210.122 241.677 209.512 234.393L209.442 233.5C209.331 231.987 209.27 229.932 210.368 228.885C211.603 227.707 214.499 227.406 216.137 226.885C220.371 225.536 224.543 223.965 228.517 222.078C232.3 220.283 235.964 218.299 239.376 215.975L241.106 214.804C243.834 212.951 246.663 210.928 248.492 208.406C248.703 208.116 248.344 207.647 247.962 207.786C244.909 208.901 242.12 210.674 239.264 212.217C239.22 212.123 239.168 212.028 239.11 211.933C235.576 206.177 234.123 199.801 234.687 193.254ZM137.174 232.688C135.957 229.686 130.414 229.918 130.635 233.484C130.805 236.224 132.097 238.697 133.279 241.185L133.405 241.452C134.625 244.044 136.035 246.477 137.721 248.853C140.943 253.394 144.718 257.608 148.749 261.586C152.404 265.192 157.201 267.397 162.729 267.03C165.058 266.876 167.409 266.342 169.45 265.296C171.874 264.052 174.506 260.316 177.599 261.221C177.898 261.308 178.177 260.914 177.919 260.727C174.348 258.14 170.296 262.152 166.878 263.119C161.727 264.575 156.441 262.965 153.126 259.217C149.665 255.305 146.479 250.924 143.57 246.664C142.093 244.501 140.745 242.256 139.581 239.942C138.406 237.607 138.139 235.069 137.174 232.688ZM145.476 214.216C145.626 213.801 145.054 213.407 144.649 213.644C142.303 215.018 140.27 216.834 138.106 218.426C135.705 220.192 133.287 221.922 130.831 223.626C127.25 226.11 131.403 230.682 134.555 227.969C138.868 224.257 143.591 219.404 145.476 214.216ZM158.356 199.687C157.403 196.38 151.766 197.744 152.588 201.013L152.615 201.112C154.171 206.512 151.955 212.009 147.224 215.509L147.05 215.636C144.057 217.792 148.297 221.56 151.26 219.425C157.729 214.766 160.42 206.851 158.356 199.687Z" fill="black"/>
<path fill-rule="evenodd" clip-rule="evenodd" d="M109.928 45.9656C111.036 43.4429 112.996 40.2722 116.273 40.1457C118.807 33.1583 125.108 26.0422 133.872 26.2312C159.598 2.50599 191.985 3.62442 225.846 8.6468C243.71 11.6348 261.849 17.4858 275.173 29.032C291.131 42.6252 297.345 66.3436 284.848 83.5324C295.649 88.7519 295.858 101.138 291.239 110.076C296.791 113.538 297.129 121.942 290.877 124.583C291.209 125.811 290.974 127.08 290.341 128.171C293.44 130.498 297.475 132.217 300.81 133.695C302.284 134.348 303.134 135.414 303.488 136.616C314.439 143.096 341.746 158.93 341.421 171.533C341.582 178.107 336.174 182.434 329.602 184.157C333.513 191.207 336.48 199.441 332.737 207.045C331.703 209.343 323.951 216.096 323.561 216.22C322.879 216.748 311.759 212.143 306.354 209.795C305.306 215.943 298.016 219.164 291.732 217.057C285.774 215.438 282.112 210.889 278.354 206.751C273.366 216.564 258.69 216.677 249.205 212.446C240.686 208.897 234.211 202.393 230.604 194.555C211.449 203.011 189.038 205.476 168.228 202.098C166.892 204.23 163.936 205.661 161.302 204.837C150.236 201.837 138.001 201.668 128.62 194.794C109.068 182.138 107.421 158.804 108.785 138.914C109.994 119.082 108.936 99.0856 112.933 79.4683C111.198 73.6925 108.313 68.5864 105.643 63.1603C102.742 57.4704 102.803 49.0122 109.928 45.9656Z" fill="#D08B5B"/>
<path fill-rule="evenodd" clip-rule="evenodd" d="M198.694 6.60107L197.934 6.60377C196.678 6.61124 195.423 6.63363 194.172 6.67082C187.559 6.86708 180.663 7.6407 172.899 8.96492L171.718 9.16945C169.787 9.51042 168.057 9.85258 165.298 10.4339L159.822 11.5977C157.033 12.1837 154.981 12.5891 153.088 12.9152L152.84 12.9575C143.111 17.1629 136.675 20.649 133.533 23.4158L133.063 23.8331L132.863 24.0136L130.814 24.0719L130.794 24.3052L130.776 24.3076C128.742 24.593 126.901 25.5434 125.19 27.0229L125.007 27.1834L124.831 27.3424C123.497 28.5656 122.434 29.8691 120.969 31.9349L120.637 32.4069L120.041 33.2591L119.559 33.9434C119.245 34.391 118.944 34.8338 118.655 35.2725L118.37 35.7099L118.165 36.0314L112.874 38.8147C112.112 39.2157 111.418 39.7347 110.783 40.3563L110.612 40.5283L110.443 40.7054L109.001 42.2523L109.292 42.5251L109.151 42.6918L108.9 43.0027L108.654 43.3178L108.415 43.637L108.312 43.7773L108.157 44.0802L108.081 44.2315L108.021 44.356L107.84 44.4398L107.473 45.0379C105.565 48.1414 104.538 51.666 104.468 55.2879C104.42 57.7861 104.762 60.055 105.574 62.2437C106.135 63.757 106.887 64.9462 108.188 66.5835L109.216 67.8548L109.426 68.1171L109.676 68.4363C109.716 68.4875 109.755 68.5379 109.793 68.5879C111.465 70.7709 125.749 74.903 134.528 75.1028L134.793 75.1076L135.13 75.1106C135.968 75.1139 136.778 75.0868 137.558 75.028C140.935 74.7733 144.093 74.1324 147.761 73.0843L148.522 72.8625L152.564 71.6381C152.692 71.5997 152.796 71.569 152.868 71.5484L153.237 71.4443C154.127 71.1981 154.774 71.0566 155.215 71.0053L155.305 70.9955L155.314 71.1462L155.317 71.2883L155.316 71.4039C155.29 73.0814 156.42 74.3043 158.172 75.0835C159.288 75.5798 160.726 75.9342 162.531 76.2002L162.819 76.2415C165.769 76.6525 169.287 76.828 175.172 76.9483C175.396 76.9529 175.622 76.9503 175.85 76.9409C177.113 76.8888 178.106 76.6945 179.952 76.2166L180.825 75.9907L181.298 75.8728C182.176 75.6589 182.665 75.5735 183.127 75.5502L183.261 75.5451L183.395 75.5431C183.949 75.5424 184.35 75.6538 184.745 75.9252L184.947 76.0708L187.66 78.1207C188.013 78.3859 188.33 78.6211 188.562 78.7879L188.656 78.8551C192.38 81.4882 195.931 82.9924 200.113 83.1354L200.393 83.143L200.685 83.1459C200.897 83.1463 201.11 83.1428 201.324 83.1355C203.086 83.075 204.914 82.4862 207.411 81.3508L207.928 81.1121L208.29 80.9417C208.475 80.854 208.668 80.7617 208.877 80.6608L210.74 79.762L211.692 79.3135C212.829 78.7861 213.463 78.5315 213.89 78.4266L213.96 78.41L214 78.4447C214.988 79.3146 215.835 80.4093 216.747 81.9205L216.885 82.1503L217.084 82.4928L218.38 84.8189L218.625 85.2516C219.587 86.9306 220.348 88.0037 221.343 88.9452C222.788 90.3116 224.539 91.1044 226.683 91.2317L226.898 91.2422L227.154 91.2478C228.164 91.2567 229.234 91.1169 230.394 90.8263L230.664 90.7565L230.926 90.6839C232.655 90.1916 235.387 90.4981 237.557 91.5368C239.914 92.665 241.212 94.3863 241.155 96.5861C241.126 97.6788 240.987 98.8501 240.742 100.12L240.672 100.469C240.351 102.038 239.915 103.613 239.243 105.713L237.798 110.107L237.635 110.62L237.472 111.148C237.237 111.916 237.05 112.586 236.896 113.216C236.307 115.626 236.208 117.436 236.799 118.978C239.405 125.777 243.926 129.388 249.072 129.541L249.25 129.545L249.47 129.545C253.424 129.507 257.007 127.183 256.963 124.173C256.959 123.858 256.893 123.564 256.777 123.298L256.724 123.186L256.699 123.138L256.739 123.048C257.955 120.425 260.765 118.51 264.065 118.134L264.252 118.115L264.437 118.099C264.618 118.085 264.799 118.075 264.97 118.07L265.138 118.066L265.339 118.064C269.737 118.07 274.089 120.711 277.512 125.03C278.226 125.931 278.889 126.914 279.484 127.953L279.68 128.301L280.632 130.057L281.275 131.756C284.817 141.108 283.024 150.894 276.109 155.953L275.898 156.105C273.407 157.867 270.477 158.938 267.35 159.226C266.99 159.259 266.628 159.28 266.279 159.288L266.02 159.292L265.723 159.292C264.704 159.28 263.729 159.165 262.854 158.952C262.14 158.778 261.643 158.567 261.297 158.298C261.206 158.228 261.133 158.164 261.069 158.1L261.016 158.043L260.996 158.018L256.271 158.65C255.467 163.252 253.145 168.02 249.367 173.488L249.129 173.83L248.714 174.42L248.292 175.01C243.847 181.175 238.89 186.367 233.441 190.351L233.061 190.627L232.55 190.992L232.081 191.323C231.171 191.96 230.412 192.456 229.653 192.899L229.463 193.008L227.671 194.032L228.503 195.792C230.444 199.898 233.122 203.63 236.424 206.808L236.735 207.105L239.03 209.239L240.794 207.212C240.808 207.197 240.847 207.178 240.894 207.17L240.926 207.166H240.944L240.968 207.169L240.997 207.175L241.025 207.187C242.346 207.833 243.072 208.327 244.114 209.293L244.266 209.434L244.442 209.602L244.684 209.829C245.767 210.83 246.925 211.683 248.186 212.392C251.1 214.03 254.334 214.94 257.683 215.022L257.998 215.027L258.314 215.027C258.428 215.026 258.541 215.024 258.655 215.022C265.643 214.847 271.904 210.81 274.982 204.893C275.104 204.658 275.216 204.581 275.423 204.566L275.482 204.563L275.556 204.562C276.069 204.565 276.698 204.841 277.049 205.211L277.111 205.281L278.29 206.709L278.741 207.247C282.943 212.223 286.393 214.944 291.027 215.77C291.392 215.835 291.778 215.875 292.188 215.891L292.436 215.901H292.582C294.575 215.905 296.871 215.385 298.661 214.468C301.029 213.255 302.493 211.39 302.307 209.078L302.293 208.93L302.261 208.683C302.106 207.449 303.201 206.778 304.039 207.384L304.096 207.427L304.165 207.484C307.618 210.404 311.589 212.644 315.865 214.027L316.244 214.147L316.806 214.32C319.503 215.14 321.405 215.547 323.407 215.579C325.141 215.606 326.582 215.042 327.624 213.959C328.319 213.236 328.744 212.432 329.168 211.26L329.239 211.061L329.394 210.605L329.49 210.309C330.731 206.371 330.758 202.161 329.783 197.516C329.056 194.046 327.897 190.693 325.949 185.995L325.571 185.089L324.791 183.241C324.712 183.056 325.181 182.408 325.471 182.336L325.505 182.33L325.77 182.355C325.956 182.371 326.143 182.382 326.334 182.389L326.626 182.395H326.817C333.145 182.337 337.978 176.741 337.935 170.813C337.885 165.26 334.788 160.485 328.875 154.817L328.362 154.329L327.806 153.81L327.257 153.303C322.003 148.479 316.632 144.267 311.039 140.656L310.576 140.358L310.06 140.03C308.177 138.838 306.345 137.758 303.811 136.337L302.319 135.506L296.273 129.072C296.128 128.998 295.985 128.924 295.844 128.85L295.768 126.618L289.942 126.726C291.42 126.042 292.645 125.212 293.64 124.149C296.946 120.613 296.531 115.701 292.511 113.288L292.369 113.205L290.675 112.261L289.288 113.358C288.08 114.314 286.799 114.947 285.463 115.24L285.251 115.283L284.206 115.483L284.002 115.78L283.885 115.626C283.885 115.611 283.889 115.596 283.894 115.581L283.905 115.559L283.927 115.528L284.058 115.382L284.204 115.226C284.669 114.732 285.191 114.254 286.139 113.431L286.804 112.854L287.322 112.4C288.68 111.197 289.404 110.451 290.173 109.416C292.087 106.84 293.168 103.936 293.213 100.987C293.307 94.8534 289.077 89.0545 282.809 86.4078C282.589 86.3152 282.427 85.6564 282.691 85.221C288.76 75.1778 290.444 63.1391 287.395 51.9402C284.551 41.4916 277.473 32.269 267.341 25.2043C249.946 13.0756 225.817 6.82115 200.215 6.60575L199.439 6.60107H198.694Z" fill="#ECDCBF"/>
<path fill-rule="evenodd" clip-rule="evenodd" d="M291.714 130.144C290.561 129.883 289.943 131.28 290.921 131.841C297.131 135.403 303.546 138.585 309.546 142.461C315.252 146.146 320.522 150.343 325.436 154.856L325.981 155.358C330.424 159.481 335.345 164.725 335.395 170.806C335.433 175.532 331.392 180.692 325.754 180.071C323.63 179.837 321.678 182.267 322.419 184.019L323.199 185.866C326.336 193.339 329.527 201.807 327.05 209.67L326.959 209.95C326.359 211.75 325.727 213.341 323.41 213.305C321.26 213.271 319.022 212.617 317.009 211.993C312.831 210.697 309.045 208.536 305.832 205.819C302.99 203.415 299.358 205.857 299.741 208.912L299.755 209.009C300.278 212.437 294.223 214.029 291.47 213.539C286.035 212.569 282.16 207.658 279.073 203.914C277.589 202.115 273.986 201.406 272.682 203.914C270.099 208.88 264.775 212.592 258.546 212.748C255.31 212.829 252.206 211.998 249.466 210.458C248.347 209.829 247.347 209.081 246.43 208.234L246.202 208.02C244.845 206.722 243.908 206.032 242.174 205.185C240.466 204.35 238.256 205.385 238.267 207.206C238.281 209.566 239.047 211.134 240.851 212.845C242.344 214.263 244.118 215.507 245.982 216.501C249.729 218.497 254.184 219.621 258.546 219.491C265.422 219.286 271.985 216.195 276.239 211.388C280.583 216.072 285.972 220.376 292.974 220.26C298.216 220.174 303.101 217.713 305.442 213.9C308.746 215.954 312.373 217.56 316.252 218.61L316.598 218.702C322.09 220.143 328.409 220.716 331.944 215.799C335.263 211.183 335.511 204.791 334.75 199.515C334.071 194.802 332.463 190.326 330.616 185.911C335.872 184.495 339.952 180.043 341.353 175.243C343.473 167.985 339.361 160.946 334.276 155.554C328.753 149.696 321.802 144.741 314.799 140.404C307.814 136.079 299.989 132.015 291.714 130.144ZM112.118 73.3754C112.105 73.1737 111.739 73.1031 111.705 73.3245C109.292 89.1122 107.895 104.868 106.739 120.764C106.153 128.817 105.487 136.862 104.758 144.906C104.059 152.619 102.895 160.537 103.158 168.281C103.57 180.408 110.1 190.268 120.807 197.364C131.066 204.164 143.793 207.526 156.28 208.947C163.531 209.772 170.884 209.811 178.144 209.036C181.914 208.634 185.68 208.098 189.373 207.293L190.97 206.933C193.878 206.263 197.125 205.354 197.54 202.247C197.741 200.743 196.855 199.633 195.424 198.878C193.558 197.893 191.418 198.473 189.495 198.921C186.255 199.677 182.98 200.326 179.668 200.775C172.555 201.74 165.243 201.797 158.094 201.129C146.067 200.005 133.381 196.487 124.109 189.222C120.079 186.065 116.575 182.219 114.732 177.649C112.362 171.773 112.713 165.364 112.793 159.211C112.977 144.906 112.815 130.6 113.035 116.293C113.257 101.942 113.064 87.7048 112.118 73.3754ZM233.057 6.51925C219.004 3.25081 204.742 2.40152 190.308 3.38538C176.695 4.31253 161.188 7.05934 150.07 14.6102C149.53 14.9766 149.853 15.6702 150.521 15.5743C157.954 14.5058 165.199 12.5624 172.6 11.2765C179.719 10.0397 186.966 9.11123 194.214 8.89609C218.729 8.16742 246.007 13.1772 265.774 26.9607C275.043 33.4233 282.117 42.1134 284.932 52.4529C287.819 63.058 286.257 74.5268 280.46 84.1202C279.625 85.5014 279.969 87.6866 281.711 88.422C286.996 90.6535 290.76 95.5971 290.678 100.932C290.639 103.519 289.65 106.001 288.06 108.139C286.379 110.401 283.821 111.983 281.941 114.096C281.201 114.927 281.172 116.073 281.759 116.839C280.659 117.273 279.473 117.506 278.391 118.019C277.474 118.455 277.448 119.813 278.391 120.242C280.777 121.325 283.356 120.175 284.966 118.428C285.253 118.117 285.502 117.792 285.729 117.461C287.657 117.092 289.385 116.219 290.893 115.026C293.768 116.578 294.162 120.034 291.692 122.674C290.431 124.022 288.64 124.855 286.829 125.453L286.611 125.523C284.849 126.088 283.235 126.403 282.09 127.674C281.335 126.255 280.469 124.917 279.502 123.697C275.989 119.266 270.59 115.334 264.182 115.833C259.163 116.223 254.815 119.464 253.786 123.935C253.711 124.265 254.263 124.524 254.428 124.179C256.836 119.115 264.455 118.929 268.994 121.568C274.331 124.671 277.248 130.52 278.418 135.967C279.57 141.333 278.904 147.859 274.451 151.941C272.629 153.611 270.15 154.766 267.563 155.07C266.299 155.219 265.183 155.072 263.974 154.853L263.172 154.702C262.616 154.598 262.064 154.514 261.48 154.561L260.612 154.666L260.118 154.874C259.69 155.048 259.728 155 260.234 154.731C258.758 154.623 257.994 155.606 257.914 156.685C257.867 156.712 257.821 156.741 257.783 156.783C252.181 162.966 248.021 170.074 242.076 176.054L240.336 177.806C235.861 182.295 230.754 187.161 224.676 189.489L223.952 189.759C222.184 190.433 220.408 191.355 220.183 193.277C219.981 194.999 221.486 196.295 223.221 196.697C227.173 197.611 231.677 194.444 234.571 192.366C240.794 187.899 246.025 182.204 250.344 176.213L250.771 175.616C254.322 170.615 257.659 164.912 258.696 158.977L258.883 159.25C258.897 159.269 258.908 159.284 258.915 159.293C259.126 159.552 259.359 159.771 259.63 159.981C260.356 160.546 261.243 160.877 262.164 161.101C263.892 161.522 265.787 161.605 267.563 161.441C271.172 161.108 274.545 159.869 277.398 157.852C286.083 151.709 287.109 140.278 283.596 131.004C286.479 131.625 289.762 129.876 292.013 128.376C294.594 126.656 296.722 124.173 297.231 121.252C297.736 118.354 295.687 114.515 292.648 113.397C295.801 109.982 297.637 105.136 297.827 101.256C298.156 94.507 294.18 88.1276 288.076 84.4451C293.816 73.3503 294.922 60.4787 291.057 48.6984C283.387 25.322 257.694 12.2496 233.057 6.51925ZM254.926 184.129L254.854 183.924C254.242 182.116 253.453 178.52 250.458 179.889C247.597 181.196 249.424 185.067 250.424 186.951C251.621 189.205 253.689 191.013 256.466 191.497C258.724 191.891 261.205 191.385 262.785 189.811C263.245 189.352 263.505 188.849 263.778 188.294C263.885 188.078 263.933 187.93 263.953 187.833C263.979 187.939 264.052 188.097 264.241 188.282C265.502 189.524 266.692 190.97 267.607 192.44C267.824 192.787 268.506 192.544 268.334 192.163C267.268 189.813 267.447 186.179 265.072 184.479C262.979 182.98 261.012 184.16 259.905 185.905L259.848 185.996C258.23 188.646 255.651 186.129 254.926 184.129ZM277.697 175.637L277.479 175.363C275.24 172.604 271.465 169.286 267.688 171.852C266.487 172.668 266.442 174.029 267.688 174.839L268.159 175.143C269.81 176.198 271.453 177.194 272.665 178.707C273.982 180.352 275.164 182.094 276.935 183.384C280.067 185.666 285.128 186.116 287.845 183.04L288.112 182.735C288.34 182.471 288.6 182.153 288.812 181.836L288.977 182.042C288.993 182.062 289.008 182.082 289.022 182.101L289.06 182.153C290.177 183.762 291.588 185.088 293.345 186.134C296.685 188.121 300.448 188.397 304.227 187.345C304.596 187.242 304.497 186.795 304.139 186.765C299.662 186.388 295.3 183.52 293.479 179.826L293.273 179.411C292.536 177.942 291.711 176.546 289.89 175.969C288.118 175.407 286.258 176 285.042 177.209C284.026 178.22 283.765 180.228 281.932 179.785C279.924 179.3 278.795 177.033 277.697 175.637ZM290.52 151.098C289.529 150.418 287.976 151.147 287.703 152.132C286.466 156.59 291.604 161.844 296.542 161.982C297.813 162.017 299.035 161.74 300.161 161.209C301.035 160.798 302.068 159.747 303.027 159.572C304.265 159.348 305.362 160.835 306.234 161.598C307.315 162.546 308.385 163.425 309.597 164.233C310.081 164.555 310.832 164.013 310.628 163.518L310.218 162.533C308.734 159.026 306.179 153.906 301.396 155.362C299.053 156.074 297.29 158.479 294.822 156.575C292.847 155.051 292.662 152.565 290.52 151.098ZM269.421 133.149C264.963 128.534 254.483 130.972 252.496 136.586C252.057 137.826 252.515 139.438 253.589 140.316C255.004 141.472 257.022 141.822 258.74 140.915C260.218 140.135 260.825 138.859 261.911 137.764C263.505 136.159 265.672 135.268 267.905 134.63C268.464 134.895 268.983 135.243 269.449 135.662C269.688 135.877 270.139 135.583 269.927 135.33C269.64 134.986 269.288 134.662 268.888 134.364L269.081 134.313C269.669 134.165 269.796 133.538 269.421 133.149ZM240.447 82.1941C239.448 82.1955 238.284 83.0416 238.412 84.0295L238.45 84.3038C238.738 86.1846 239.408 87.2496 241.496 88.1234C243.267 88.8638 245.127 89.2729 247.069 89.4349C247.803 89.4961 248.581 89.4997 249.369 89.4471L249.535 90.3104C249.864 92.0371 250.169 93.765 250.227 95.5249C250.333 98.7875 248.983 101.476 247.536 104.389C244.756 109.984 244.444 115.57 247.47 121.157C247.912 121.974 249.166 122.64 250.177 122.557C251.488 122.45 252.121 122.108 252.884 121.157C253.524 120.358 253.378 119.23 252.934 118.395L252.884 118.303C251.359 115.639 250.878 112.629 251.657 109.701C252.388 106.949 254.046 104.475 254.786 101.732C255.992 97.2626 254.708 92.8294 252.198 88.9952C254.092 88.5033 255.844 87.6265 257.013 86.2893L257.008 86.2875C257.454 85.8577 257.21 84.9598 256.427 85.0138L255.542 85.0783C253.009 85.2693 250.677 85.4679 248.116 84.8311C246.802 84.5043 245.669 83.9595 244.542 83.2999L244.3 83.1568C242.89 82.3116 242.108 82.1923 240.447 82.1941ZM234.385 49.1619C228.035 48.8365 222.613 52.6158 219.978 57.6467C217.115 63.1086 218.316 69.3756 220.843 74.7494L221.561 76.2534C222.818 78.8592 224.467 81.9581 227.041 83.3563C229.931 84.9271 232.43 83.1056 231.578 80.2103C231.07 78.486 229.695 77.1561 228.582 75.7329C227.544 74.4039 226.576 73.0284 225.726 71.5936C224.062 68.7797 222.82 65.6445 222.834 62.4206C222.857 56.5364 227.168 49.7929 234.385 49.8793C234.9 49.8847 234.892 49.1876 234.385 49.1619ZM202.269 39.6673C202.665 39.3964 202.311 38.7937 201.868 39.048C194.505 43.2715 189.007 51.205 187.9 58.9989C187.285 63.3232 187.754 67.9446 189.797 71.9354C190.968 74.2254 192.978 76.4114 195.789 77.0392C198.373 77.6158 201.036 76.2849 201.838 74.0102C202.149 73.1276 201.614 72.2045 200.806 71.7225C198.186 70.1603 196.077 68.189 194.842 65.5371C193.558 62.78 193.046 59.854 193.031 56.88C192.993 49.9151 196.075 43.9124 202.269 39.6673ZM112.319 42.686C112.659 42.3453 112.231 41.843 111.78 42.0564C106.456 44.5813 103.074 49.4178 102.104 54.7147C101.155 59.9005 102.432 66.9603 106.883 70.7108C109.395 72.8279 113.895 70.0123 111.807 67.2853C110.334 65.3621 108.743 63.7783 107.9 61.5059C107.148 59.4783 106.882 57.4336 106.923 55.3029C107.013 50.6546 108.854 46.1516 112.319 42.686ZM177.404 36.1922C168.309 35.8016 162.797 45.1654 161.534 52.1447C160.755 56.4568 161.341 60.8982 163.981 64.6383L164.137 64.856C166.315 67.8438 170.276 71.2838 174.543 69.8691C176.349 69.2709 176.83 67.526 175.616 66.2023C173.76 64.1761 170.89 63.3502 169.145 61.1867C167.186 58.7603 166.544 55.7205 166.658 52.7698L166.673 52.4439C166.977 47.0163 169.847 36.5988 177.404 36.7832C177.828 36.7931 177.823 36.2098 177.404 36.1922ZM148.955 34.6364C140.157 33.6224 134.8 42.956 133.148 49.3858C132.116 53.4054 131.89 57.8895 133.21 61.879L133.308 62.1632C134.383 65.1406 137.553 70.2422 141.691 68.7206C142.825 68.3038 143.983 67.1683 143.44 65.9441C142.746 64.3791 141.746 63.9732 140.412 62.9718C139.385 62.2008 138.668 61.094 138.14 60.004C136.734 57.0987 136.42 53.7047 136.613 50.574L136.639 50.2035C137.136 44.0884 140.813 34.9752 148.955 35.1428C149.327 35.1504 149.301 34.676 148.955 34.6364ZM132.849 25.8617C127.952 24.1802 123.941 28.4024 121.126 31.4156C117.6 35.1913 114.402 39.2586 112.594 43.9587C110.983 48.1467 110.7 52.8031 112.151 57.0662C112.869 59.1771 113.988 61.1345 115.515 62.8574L115.71 63.0747C117.299 64.8224 118.834 65.8964 121.437 65.2707C122.497 65.0155 122.944 64.0708 122.761 63.1679C122.369 61.2389 121.267 60.7379 119.839 59.3913C118.58 58.2036 117.645 56.7408 117.017 55.2029C115.722 52.0304 115.654 48.5931 116.524 45.3247C117.497 41.6657 119.413 38.2869 121.629 35.1207L122.107 34.4425C124.455 31.095 127.802 25.94 132.755 26.4832C133.18 26.53 133.185 25.9769 132.849 25.8617Z" fill="black"/>
<path fill-rule="evenodd" clip-rule="evenodd" d="M150.469 164.286C149.702 163.086 147.935 161.973 146.319 162.144C139.078 162.908 139.09 170.809 141.886 175.421C144.365 179.511 149.496 181.912 154.631 181.561C160.026 181.193 164.622 178.338 166.645 173.796C167.983 170.792 168.601 165.246 165.043 163.227C164.976 163.19 164.867 163.199 164.815 163.254C163.109 165.04 163.042 167.722 161.548 169.711C160.158 171.561 158 173.088 155.471 173.324C153.583 173.5 151.672 172.887 150.934 171.362C150.534 170.536 150.58 170.088 150.73 169.52L150.866 169.027C151.339 167.298 151.552 165.981 150.469 164.286ZM148.533 129.637C144.756 131.703 139.002 136.52 143.065 141.642C147.847 146.157 154.732 140.98 158.125 138.638C161.271 136.823 164.806 141.491 161.887 143.61C137.37 159.945 127.42 130.177 146.623 127.208C148.737 126.881 149.522 128.998 148.533 129.637ZM188.413 115.471C186.095 112.341 180.804 112.802 179.527 116.516C178.836 118.528 179.791 120.336 179.741 122.346C179.7 124.043 179.823 125.934 180.402 127.578C181.72 131.326 185.466 133.973 189.897 133.863C194.314 133.754 198.205 131.238 200.055 127.695C201.911 124.138 201.518 120.457 200.163 116.84C200.098 116.666 199.845 116.582 199.692 116.728C198.09 118.26 196.917 119.878 195.704 121.594L194.46 123.352C193.51 124.676 192.128 126.368 190.354 126.261L190.088 126.238C189.594 126.2 189.67 126.288 189.29 125.683C189.114 125.403 189.146 124.883 189.061 124.552L189.031 124.441L189.047 124.381C189.085 124.221 189.122 123.919 189.152 123.396L189.159 123.28C189.287 120.833 190.056 117.689 188.413 115.471ZM129.654 117.555C130.07 113.552 123.817 112.663 121.738 115.625C120.653 117.169 120.338 119.11 120.098 120.948L119.986 121.821C119.74 123.709 119.642 125.673 120.553 127.434C121.987 130.208 125.106 131.674 128.471 131.442C131.684 131.22 134.616 129.543 136.161 126.998C137.539 124.727 138.909 120.293 137.236 117.924C137.135 117.78 136.932 117.762 136.794 117.873C135.213 119.136 134.955 121.44 134.015 123.086C133.045 124.784 131.574 126.438 129.345 126.696C127.213 126.943 126.398 125.895 126.942 124.065C127.644 121.703 129.39 120.096 129.654 117.555ZM186.724 91.6727L185.702 91.3202C182.198 90.1291 177.387 88.7522 174.539 91.3163C172.781 92.8974 172.447 95.2265 173.701 97.156C175.221 99.4932 177.947 99.5508 180.579 99.8951C183.574 100.287 186.619 101.031 189.406 102.092C192.547 103.288 195.461 104.779 198.316 106.444C201.03 108.026 203.734 110.611 206.982 111.099C207.114 111.119 207.265 111.067 207.299 110.936C208.037 108.078 205.987 105.266 204.158 103.036C201.944 100.337 199.262 98.121 196.265 96.1343C193.371 94.2166 190.066 92.8308 186.724 91.6727ZM123.076 101.834L122.764 101.785C120.639 101.466 118.714 101.54 117.112 103.054C115.89 104.209 115.419 105.707 116.002 107.234C116.539 108.644 117.742 110.075 119.487 110.37C125.377 111.368 131.902 111.203 137.823 110.448C140.531 110.102 143.264 109.679 145.903 109.012L147.117 108.695C149.319 108.129 151.841 107.538 153.441 106.08C154.016 105.556 153.684 104.806 152.996 104.564C150.204 103.58 146.378 104.103 143.401 104.026C139.939 103.937 136.47 103.703 133.024 103.382C129.656 103.067 126.398 102.382 123.076 101.834Z" fill="black"/>
<path fill-rule="evenodd" clip-rule="evenodd" d="M104.797 131.759C109.388 136.921 127.36 142.65 136.925 136.43C146.491 130.21 150.271 125.876 151.549 118.104C151.686 117.275 153.351 116.724 154.055 117.312C157.996 120.607 160.547 124.803 163.075 129.01C165.926 133.755 168.734 138.529 173.915 141.741C183.091 146.167 199.692 146.798 204.596 144.845C213.991 141.105 221.423 133.105 223.113 122.096C224.259 118.841 225.334 116.871 226.338 116.186C227.766 115.212 235.644 114.344 236.507 114.2C252.06 111.603 271.731 109.947 285.583 119.084C287.458 120.104 293.876 123.935 293.972 122.993C294.038 119.303 289.391 110.951 278.823 106.976C265.754 102.062 246.327 101.774 235.072 102.859C234.506 102.913 232.577 102.487 232.441 102.434C215.39 95.7902 195.771 97.5546 177.527 100.347C174.913 100.803 151.509 106.019 142.2 102.859C126.808 97.2042 110.398 93.1075 93.777 94.7192C93.638 94.7327 91.5397 106.194 93.1742 106.976C94.475 107.599 96.6884 109.193 97.4747 110.066C98.1776 110.846 98.6206 111.816 98.5813 113.159C98.2652 120.932 100.729 127.186 104.797 131.759ZM168.08 124.823C166.129 122.283 165.513 116.575 166.33 112.412C166.744 110.303 167.547 108.625 168.555 107.79C169.225 107.235 169.99 106.973 170.824 107.012C171.281 107.033 171.776 107.15 172.3 107.405C179.399 103.949 187.998 102.705 196.149 103.063C202.638 103.062 207.267 104.44 210.407 106.586C214.185 109.168 215.887 112.879 215.985 116.904C216.102 121.68 213.922 126.905 210.346 131.039C206.923 134.996 202.24 137.93 197.161 138.607C191.394 139.637 185.517 138.64 180.408 136.203C175.168 133.702 170.741 129.686 168.08 124.823ZM111.178 127.518C107.889 124.02 105.702 119.47 105.369 114.961C105.066 110.858 106.287 106.794 109.663 103.435C112.723 101.071 118.131 101.032 123.819 102.348C131.175 104.05 138.784 107.854 141.321 110.311C141.919 110.593 142.473 111.084 142.956 112.137L142.96 112.513C143.728 115.702 143.272 118.939 141.943 121.924C140.499 125.168 138.023 128.112 135.003 130.359C130.991 133.333 126.803 134.243 122.884 133.763C118.444 133.219 114.315 130.854 111.178 127.518Z" fill="white"/>
<path fill-rule="evenodd" clip-rule="evenodd" d="M142.729 101.595C127.143 95.8687 110.483 91.7411 93.616 93.3767C92.2212 92.8991 90.4898 93.3015 89.8717 95.0766C83.8638 111.547 97.2613 106.967 97.0813 113.124C95.677 147.646 147.236 153.541 153.033 118.301L153.14 118.358C161.481 125.363 163.238 136.761 173.063 142.852C192.884 155.898 220.982 145.562 224.591 122.338L224.669 122.024C225.881 117.284 227.329 116.109 233.304 116.132L234.247 115.964C249.77 113.211 270.442 110.738 284.739 120.203C287.849 121.831 287.995 126.015 290.622 127.833C293.501 128.336 295.274 125.22 295.47 123.064C295.926 101.567 253.181 100.02 234.038 101.865C233.672 101.524 232.891 101.567 232.628 101.991C215.315 95.2454 195.811 96.1788 177.273 99.0157C165.79 101.016 154.449 105.573 142.729 101.595ZM95.1679 97.3454C104.52 96.9246 113.171 97.385 122.351 99.4081C127.19 100.459 130.902 101.787 135.533 103.384C164.419 114.901 167.751 94.4294 232.499 102.454C231.662 105.683 231.508 108.88 231.463 111.913C218.242 111.434 221.355 122.795 216.402 130.774L216.249 131.015C209.031 142.658 191.997 148.088 178.256 140.366C166.792 134.353 165.674 119.102 154.261 113.049C144.367 112.699 148.319 124.716 142.935 129.655C135.356 138.756 119.247 140.029 109.744 131.468C105.285 127.349 102.916 122.119 102.785 116.501C102.536 112.911 103.22 109.263 100.205 106.738C98.0905 104.805 94.3347 105.45 93.9036 102.529C93.6295 100.802 94.4277 98.9279 95.1679 97.3454ZM196.811 102.051C187.52 101.639 177.69 103.091 169.713 107.191C163.808 102.962 162.361 119.769 166.281 124.63C171.927 135.028 185.074 141.864 197.732 139.594C217.48 137.019 231.239 102.02 196.811 102.051ZM170.28 108.318L170.785 108.252C179.344 107.077 202.646 101.632 211.634 110.225C220.356 124.479 198.228 148.42 175.2 129.35C168.791 123.478 166.307 116.358 170.28 108.318ZM143.159 110.14C138.727 105.417 116.14 95.8515 108.266 101.99C93.8966 116.483 116.685 145.798 135.773 131.515C142.13 126.741 146.312 119.135 144.482 111.77L144.479 111.461C144.475 111.349 144.452 111.375 144.319 111.235C144.083 110.678 143.659 110.323 143.159 110.14ZM108.467 118.924C103.621 95.2696 123.875 104.262 140.509 110.576C139.616 111.31 139.62 112.312 139.876 113.136C141.631 130.687 117.927 140.633 108.467 118.924ZM234.374 103.015C241.312 105.129 287.203 101.347 291.442 120.707C286.967 114.182 277.699 111.593 269.367 110.188C258.034 108.276 246.763 109.383 235.589 111.394L235.358 109.313C235.11 107.106 234.849 105.041 234.374 103.015Z" fill="black"/>
</g>
<defs>
<clipPath id="clip0_1_450">
<rect width="619" height="505" fill="white" transform="translate(-205 -2)"/>
</clipPath>
</defs>
</svg>
