<svg width="619" height="505" viewBox="0 0 619 505" fill="none" xmlns="http://www.w3.org/2000/svg">
<path fill-rule="evenodd" clip-rule="evenodd" d="M273.552 293.614C280.427 265.022 304.806 242.836 337.594 231.784C343.896 228.654 350.006 215.226 358.476 212.767C359.834 212.373 357.691 215.51 358.476 215.697C361.277 216.366 364.416 216.435 367.509 214.022C373.036 209.709 374.77 197.108 378.131 191.413C395.856 161.376 440.11 173.128 446.039 206.333C450.173 208.699 456.017 210.783 460.517 212.689C465.151 214.652 469.227 219.406 474.002 221.106C478.263 222.622 485.283 221.548 489.577 222.87C509.323 228.951 526.048 236.625 539.16 252.172C541.923 255.451 545.038 259.482 547.552 262.795C560.514 275.895 569.517 290.578 577.809 306.331C601.009 352.569 607.319 403.765 612.98 453.583C612.851 462.3 619.44 486.471 609.695 490.65C610.278 491.18 610.067 492.244 608.986 492.235C584.278 492.016 559.627 493.957 535.302 497.732C523.566 499.553 511.892 502.05 499.937 502.461C475.121 502.31 450.394 498.66 425.61 502.114C395.816 502.114 359.608 501.352 326.462 500.233C295.485 499.188 264.341 501.549 233.747 496.924C231.326 496.588 230.143 493.995 230.651 492.137C234.24 480.654 236.002 468.836 238.016 457.084C237.615 449.546 238.332 441.677 241.509 434.656C249.808 387.258 260.45 340.169 273.552 293.614Z" fill="#FFDBB4"/>
<path fill-rule="evenodd" clip-rule="evenodd" d="M358.476 215.871C357.69 215.684 359.834 212.546 358.476 212.94C350.006 215.4 343.896 228.828 337.594 231.957C304.806 243.01 280.427 265.196 273.552 293.787C260.45 340.343 249.808 387.432 241.509 434.829C238.332 441.85 237.615 449.72 238.016 457.258L237.7 459.114C235.811 470.253 234.051 481.432 230.65 492.31C230.143 494.168 231.325 496.761 233.747 497.098C263.993 501.67 294.777 499.414 325.406 500.373L331.79 500.583C363.451 501.605 397.405 502.288 425.61 502.288C450.394 498.833 475.121 502.484 499.937 502.634C511.892 502.224 523.565 499.727 535.302 497.905C559.627 494.131 584.278 492.19 608.986 492.409C610.067 492.418 610.278 491.353 609.695 490.823C619.44 486.644 612.851 462.474 612.98 453.757L612.468 449.27C606.925 400.871 600.312 351.355 577.809 306.504L577.135 305.229C569.027 289.959 560.163 275.714 547.552 262.968L546.78 261.954C544.418 258.857 541.647 255.297 539.16 252.345C526.048 236.798 509.323 229.125 489.576 223.044C485.283 221.722 478.263 222.796 474.002 221.279C469.536 219.69 465.681 215.428 461.41 213.277L461.41 229.32L399.605 282.77L364.551 235.582L360.986 216.255C360.127 216.208 359.287 216.065 358.476 215.871Z" fill="#8FA7DF"/>
<path fill-rule="evenodd" clip-rule="evenodd" d="M283.55 355.915C284.203 358.701 285.12 361.488 286.338 364.128C287.512 366.675 289.279 368.958 290.497 371.475C290.661 371.814 290.928 372.071 291.25 372.266L291.15 372.951L291.057 373.636C290.45 378.257 289.767 382.865 289.175 387.485L288.888 389.797C287.724 399.444 285.887 409.043 284.461 418.665C283.064 428.086 281.643 437.508 280.123 446.916C278.553 456.616 276.953 466.303 275.086 475.963C274.298 480.043 273.475 484.12 272.618 488.193L271.956 491.311C265.142 492.75 263.28 501.089 270.218 504.167C273.367 505.558 277.413 505.223 280.009 503.037C282.706 500.758 282.818 496.649 283.444 493.562L284.047 490.694C288.559 469.128 292.475 447.314 294.306 425.443C294.776 419.796 295.173 414.144 295.43 408.487C295.675 403.166 295.558 397.846 295.652 392.526L295.683 391.074C295.826 385.401 295.708 379.736 295.539 374.062C295.519 373.371 295.485 372.679 295.445 371.984C295.672 371.749 295.836 371.471 295.905 371.201L295.995 370.845C296.218 369.927 295.965 368.853 295.162 368.197C294.816 364.332 294.361 360.471 294.237 356.61C294.227 356.293 293.707 356.302 293.677 356.61C293.384 359.897 292.801 363.193 292.216 366.484C288.457 363.832 285.679 359.458 284.04 355.797C283.921 355.532 283.48 355.628 283.55 355.915ZM372.483 202.258C371.859 204.762 370.625 207.01 368.971 209.102C368.184 210.102 367.288 211.032 366.213 211.81C365.291 212.475 364.242 212.91 363.261 213.488C361.835 213.292 360.345 213.767 359.344 214.688L359.502 213.341C359.552 212.906 358.73 212.819 358.636 213.24C354.303 232.423 350.352 251.618 346.931 270.94L345.432 279.472L344.021 287.483C341.679 300.831 339.413 314.174 337.707 327.619C335.434 345.563 333.523 363.554 332.127 381.57C330.725 399.713 329.863 417.869 329.249 436.047C329.096 440.63 328.932 445.208 328.774 449.79L327.716 444.311C326.66 438.832 325.625 433.347 324.738 427.843C321.553 408.144 319.008 388.305 317.765 368.436C316.625 350.254 317.007 331.711 322.276 313.998C323.604 309.542 325.228 305.155 327.189 300.881C329.091 296.725 331.685 292.873 333.731 288.778C336.108 284.012 336.821 279.517 335.598 274.387C334.528 269.917 332.651 265.713 332.315 261.113C331.685 252.574 334.85 244.305 339.322 236.831C340.501 234.862 341.744 232.918 343.041 230.992C346.968 225.171 351.396 219.562 355.991 214.184C356.239 213.897 355.714 213.58 355.446 213.815C351.257 217.449 346.676 221.023 342.907 224.992C341.075 226.923 339.288 228.892 337.594 230.914C319.012 233.64 303.046 243.8 292.132 257.218C279.746 272.443 273.482 290.769 268.846 308.816C263.691 328.872 259.343 349.111 254.712 369.266C249.919 390.122 245.15 410.978 240.326 431.83C237.93 442.181 235.532 452.534 233.141 462.89C231.927 468.133 230.654 473.363 229.323 478.589C228.639 481.268 227.906 483.941 227.272 486.628C226.559 489.659 227.223 491.597 229.56 493.824C230.422 494.65 231.784 494.637 232.853 494.198L233.188 494.059L233.511 493.922C234.835 493.351 235.872 492.76 236.696 491.489C237.603 490.093 237.746 488.546 238.058 486.994C238.633 484.137 239.202 481.281 239.776 478.42C240.635 474.142 241.568 469.876 242.518 465.611L247.284 444.297C248.555 438.614 249.827 432.932 251.108 427.252C255.678 406.939 260.254 386.631 264.83 366.323C269.223 346.823 273.11 327.189 278.112 307.803L278.396 306.71L278.685 305.62C283.157 288.907 289.406 272.741 300.744 258.578C309.47 247.687 321.588 237.962 335.861 233.04C334.855 234.31 333.889 235.605 332.968 236.927C327.184 245.222 322.96 255.07 323.95 264.948C324.435 269.774 326.525 274.517 326.327 279.382C326.144 283.704 323.098 287.499 320.993 291.26C316.215 299.782 312.758 308.838 310.529 318.128C306.057 336.784 306.072 355.98 307.613 374.918C309.287 395.505 312.466 416.087 316.086 436.473C317.943 446.929 320.414 457.299 322.306 467.738C323.242 472.885 324.515 478.02 325.629 483.141L326.16 485.588C326.458 486.946 326.766 488.3 327.122 489.639L327.342 490.441V490.584C327.352 491.572 327.66 492.389 328.155 493.041C328.833 494.949 329.675 496.811 330.794 498.598C331.368 499.511 332.201 500.023 333.107 500.211C334.018 502.041 336.083 503.449 338.549 503.441L370.982 503.332C389.82 503.267 408.659 503.158 427.497 503.067C432.251 503.045 437 502.967 441.749 502.858C446.201 502.75 450.47 502.28 454.873 501.793C459.845 501.245 462.539 498.154 461.796 493.793C461.633 492.832 461.455 491.876 461.286 490.92C462.277 491.206 463.455 491.072 464.252 490.389L465 489.747C466.036 488.847 466.963 487.963 467.62 486.763C468.298 485.528 468.849 484.224 469.448 482.963C470.74 480.25 471.998 477.529 473.222 474.794C475.672 469.324 478.124 463.833 480.402 458.307C484.913 447.364 488.905 436.255 492.376 425.021C498.567 404.979 503.044 384.549 505.867 363.936L506.542 359.024L506.738 357.572C507.808 349.583 508.709 341.47 508.284 333.498C508.021 328.506 507.14 323.477 505.015 318.815C503.054 314.516 500.028 310.838 497.151 306.994L496.822 306.551L496.491 306.096C493.974 302.605 491.972 298.956 491.872 294.717C491.77 290.414 493.198 286.228 494.794 282.2L495.192 281.207L495.459 280.549C498.855 272.225 502.719 264.019 501.444 254.961C499.562 241.622 490.351 230.871 478.763 222.579C489.069 224.371 499.27 227.909 508.273 232.397C518.906 237.701 528.479 244.701 536.734 252.6C552.334 267.53 563.472 285.443 572.588 303.938C582.132 323.294 589.209 343.576 594.542 364.123C599.905 384.788 603.495 405.783 605.947 426.861C607.17 437.352 608.131 447.868 608.928 458.39C609.334 463.781 609.641 469.181 610.116 474.563C610.592 479.942 610.805 485.402 612.301 490.637C612.999 493.076 617.709 493.324 618.213 490.637C619.333 484.636 619.02 478.431 618.708 472.355L618.679 471.803C618.372 465.751 617.971 459.703 617.496 453.655C616.525 441.295 615.228 428.952 613.534 416.648C607.596 373.458 596.646 330.494 575.168 291.069C565.056 272.5 552.076 254.457 534.02 241.049C525.423 234.67 515.732 229.579 505.287 225.892C495.947 222.593 486.458 221.032 476.534 221.036C471.557 217.688 466.214 214.771 460.876 212.279C460.554 212.128 460.217 212.493 460.484 212.728C460.622 212.845 460.757 212.966 460.895 213.08C460.291 213.115 459.667 213.362 459.108 213.88C457.146 215.684 455.492 217.94 454.012 220.283C451.758 222.753 449.609 225.305 447.36 227.748C443.761 231.661 440.076 235.518 436.346 239.344C430.083 245.774 423.616 252.082 416.872 258.136L415.745 259.143C412.249 262.252 408.708 265.973 404.573 268.434L404.352 268.563C402.608 269.561 401.371 269.742 399.883 268.252C398.531 266.896 397.405 265.322 396.248 263.826L395.981 263.483C390.073 255.948 384.595 248.135 379.638 240.092C377.379 236.432 375.229 232.718 373.19 228.963L372.581 227.836C371.472 225.766 370.268 223.736 369.353 221.605C369.14 221.106 368.932 220.606 368.729 220.11C371.849 218.314 374.265 214.428 375.141 211.384C376.053 208.223 375.592 204.98 373.968 202.089C373.661 201.545 372.631 201.68 372.483 202.258ZM526.393 330.702C526.825 342.72 527.087 354.75 527.731 366.758L527.953 370.857C526.949 371.84 526.359 372.975 526.83 374.532C527.012 375.127 527.553 375.666 528.226 375.866L528.436 379.678C529.392 396.827 530.512 413.941 532.56 431.047C535.12 452.456 538.081 473.828 541.037 495.198C541.458 498.224 543.856 500.623 547.585 500.18C551.358 499.732 552.888 496.849 552.393 493.845C550.447 482.059 548.575 470.263 546.935 458.438L545.068 444.965C542.727 428.123 540.331 411.284 537.571 394.496C536.417 387.479 535.218 380.466 534.015 373.453L534.436 372.975C536.155 371.014 537.933 369.097 539.691 367.167C543.068 363.445 546.401 359.753 549.496 355.858C549.65 355.662 549.337 355.375 549.115 355.524C544.777 358.337 540.671 361.345 536.541 364.402L532.925 367.088C530.846 354.971 528.785 342.85 526.949 330.702C526.904 330.398 526.384 330.376 526.393 330.702ZM463.99 215.697C466.6 217.857 469.269 219.971 471.899 222.119L472.863 222.909L473.822 223.703C478.444 227.551 482.872 231.557 486.562 236.157C493.337 244.605 497.373 254.904 494.556 265.217C492.218 273.76 486.855 281.504 485.414 290.26C484.691 294.647 485.042 299.056 486.924 303.198C488.846 307.425 491.916 311.046 494.675 314.859C500.667 323.146 501.484 332.242 500.889 341.841C500.265 351.867 498.953 361.897 497.334 371.832C494.056 391.962 489.113 411.883 482.571 431.391C479.297 441.16 475.43 450.721 471.582 460.32C469.666 465.099 467.432 469.764 465.13 474.407C463.916 476.85 462.673 479.28 461.41 481.706C461.876 478.281 461.876 474.763 462.104 471.359C462.431 466.481 462.847 461.612 463.228 456.738C464.005 446.847 464.698 436.947 465.317 427.047C467.511 391.744 469.126 356.41 469.007 321.051C468.947 303.368 468.536 285.686 467.67 268.021C467.263 259.703 466.476 251.392 465.765 243.085L465.614 241.305C464.985 233.849 464.233 226.375 462.941 218.984C463.323 218.226 463.655 217.459 463.902 216.671L463.99 216.375L463.926 216.384C463.985 216.153 464.005 215.923 463.99 215.697ZM441.417 185.315C441.364 185.111 441.032 185.128 440.972 185.315C439.501 189.663 440.021 194.445 441.289 198.819C441.972 201.189 442.943 203.489 444.116 205.706L444.527 206.482C445.533 208.37 446.665 210.316 448.624 211.493C449.44 211.984 450.902 212.014 451.719 211.493L452.135 211.215C452.204 211.168 452.272 211.12 452.338 211.071C453.1 210.51 453.477 209.271 453.125 208.454C452.219 206.345 450.163 204.797 448.742 202.919C447.484 201.25 446.37 199.489 445.444 197.658C443.448 193.698 442.552 189.493 441.417 185.315Z" fill="black"/>
<path fill-rule="evenodd" clip-rule="evenodd" d="M450.283 20.7979L446.014 25.2636C448.378 26.7289 450.609 28.2012 452.707 29.6806L452.709 29.6761C442.988 24.0962 432.222 20.7979 420.592 20.7979C398.192 20.7979 352.691 37.7265 342.406 49.9371C337.301 55.9968 327.816 74.5996 322.895 94.8241C318.942 111.074 313.062 156.983 318.942 174.234C326.467 196.312 351.226 216.717 376.756 216.717C402.286 216.717 441.921 200.502 470.13 164.967C471.42 163.342 486.232 161.459 496.799 155.36L494.025 182.25L491.916 197.892L492.382 199.005C499.95 217.012 505.947 226.406 510.373 227.188C514.89 227.985 524.088 221.472 537.968 207.646L539.742 201.097C544.246 184.391 546.499 175.424 546.499 174.195L546.496 173.971C546.429 171.144 545.322 155.14 545.299 150.834L545.299 86.286C530.372 42.6272 516.127 20.7979 502.564 20.7979H450.283Z" fill="#FFDBB4"/>
<path fill-rule="evenodd" clip-rule="evenodd" d="M485.653 5.92967C481.264 4.43407 476.179 4.71667 472.013 6.96878C463.834 6.66009 455.7 10.8687 451.436 17.012C451.347 17.0989 451.252 17.1859 451.168 17.2728L450.264 18.1995C449.409 19.0845 448.506 20.0599 447.791 21.0671C451.294 21.1375 454.212 22.3935 456.249 24.9304C457.702 26.7406 454.373 28.4607 452.887 26.7486L452.835 26.686C451.612 25.163 449.766 24.5731 447.71 24.5422C447.12 24.5335 446.673 24.3348 446.356 24.0418C446.23 24.4457 446.118 24.8539 446.014 25.2639C435.665 21.7227 424.509 20.7849 413.397 21.6249C413.884 22.3188 414.291 23.0622 414.605 23.8435C414.96 24.7291 414.202 25.7461 413.224 25.9826C412.166 26.2382 411.21 25.6929 410.828 24.8503L410.793 24.7678C410.366 23.7035 409.668 22.7901 408.732 22.0818C403.501 22.7057 398.308 23.6979 393.241 24.977C387.151 26.5156 381.118 28.3934 375.219 30.5433C376.218 30.8881 377.081 31.4707 377.686 32.4433C378.892 34.3846 375.575 36.1235 374.317 34.2675L374.272 34.1989C374.149 33.9998 374.039 33.8802 373.959 33.812L373.931 33.7889L373.757 33.7184L373.432 33.6367L373.308 33.6098C373.198 33.5881 373.153 33.5894 372.864 33.5754C372.479 33.5563 372.094 33.558 371.709 33.5576C370.804 33.5571 370.226 33.1132 369.965 32.5454C367.054 33.7015 364.179 34.9188 361.356 36.194L360.685 36.4997C351.97 40.5055 343.715 45.7661 338.925 53.5066C338.608 54.0239 338.51 54.5891 338.589 55.1283C337.566 56.2065 336.578 57.3195 335.629 58.4499C332.733 61.9107 330.613 65.8453 328.607 69.7452C324.569 77.5885 321.851 85.6448 319.731 94.0445C317.68 102.14 316.025 110.322 314.487 118.505C312.783 127.596 311.365 136.765 311.068 145.986C310.544 162.425 314.196 178.959 324.688 192.798C334.047 205.146 348.141 214.95 364.855 218.089C381.855 221.28 399.843 218.167 413.24 208.202C415.4 206.598 415.103 203.359 413.24 201.715C411.13 199.863 408.017 200.12 405.867 201.715C393.251 211.102 374.887 212.55 359.685 207.767C345.631 203.341 334.621 193.133 327.865 181.668C319.622 167.686 318.233 151.625 319.499 136.156C320.19 127.661 321.629 119.235 323.111 110.822L324.006 105.758C324.983 100.273 326.008 94.7956 327.346 89.3664L327.659 88.1015C329.294 81.5543 331.209 74.8393 334.171 68.6844C335.723 65.454 337.59 62.3411 339.503 59.2673C339.874 58.6716 340.255 58.0673 340.645 57.4586C341.169 57.6195 341.767 57.6456 342.394 57.4717C347.796 55.9934 353.345 55.0022 358.993 54.6717C361.567 54.5204 364.144 54.497 366.718 54.5852C371.125 54.3596 375.654 54.7004 379.852 55.8891C380.263 55.5791 380.679 55.2756 381.095 54.9722C381.207 54.9643 381.32 54.9539 381.432 54.9343C382.503 54.7491 383.256 54.0796 383.71 53.234C383.734 53.1892 383.755 53.1444 383.775 53.0996C384.312 52.7383 384.854 52.3827 385.401 52.0318C386.733 52.3357 387.9 51.3605 388.214 50.2919C388.511 50.1158 388.812 49.9454 389.112 49.7728C389.347 49.8232 389.58 49.8649 389.807 49.8797C390.788 49.9419 391.735 49.8097 392.605 49.398C393.705 48.8767 394.408 48.0359 394.879 47.0807C396.543 47.1707 398.228 46.6955 399.715 45.8363C400.923 45.1394 401.848 44.1773 402.768 43.2169C413.975 38.8192 426.158 36.2227 438.369 35.5575C439.572 35.761 440.766 36.0032 441.946 36.2849C442.225 36.3518 442.621 36.4831 443.077 36.6405C440.355 36.351 437.597 36.3223 434.801 36.6766C421.53 38.3648 411.194 47.1063 402.299 55.3578C400.182 54.9817 398.044 57.3925 400.002 58.989L415.271 71.4369C414.896 72.829 416.711 74.2012 418.301 73.8668C420.966 73.3034 423.636 72.7556 426.308 72.2169C429.096 73.4034 432.6 73.2003 435.128 71.4804C435.246 71.4004 435.501 71.2726 435.723 71.1456C435.931 71.2965 436.21 71.4478 436.321 71.5121C437.22 72.0356 438.315 72.1895 439.365 72.0425C440.445 71.8917 441.42 71.4095 442.261 70.8091C442.796 70.4266 444.043 68.8308 444.737 68.7133L444.805 68.7066C444.342 68.7183 445.83 69.9352 446.23 70.187C447.163 70.7726 448.194 71.0804 449.355 70.9682C451.378 70.7724 453.118 69.1502 454.107 67.6524L454.182 67.5375L454.213 67.4662L454.239 67.5433C454.244 67.5569 454.25 67.5715 454.256 67.5879C454.405 67.9405 454.87 68.3413 455.186 68.5879C456.088 69.2891 457.204 69.5974 458.396 69.4144C459.404 69.2599 460.253 68.7236 460.935 68.0747L461.041 67.9714C461.243 67.7711 462.572 66.2001 462.362 65.8236L462.338 65.7919L462.404 65.7797C463.212 65.9545 463.891 65.7792 464.388 65.4127C467.162 64.878 469.901 64.2549 472.551 63.4628C472.759 63.9758 472.962 64.4888 473.159 65.0062C471.712 65.7932 470.373 66.9149 469.142 67.7148C466.809 69.2278 464.477 70.7408 462.149 72.2582L452.927 78.2432L451.872 77.9941C450.525 77.6758 449.369 78.366 448.874 79.421L448.833 79.5123C448.637 79.9745 448.401 80.4019 448.123 80.811C445.818 80.7301 443.866 81.9753 443.235 83.7613C442.665 83.75 442.09 83.7692 441.502 83.8261C439.891 83.9817 438.806 85.0339 439.098 86.4787L439.12 86.5778L439.159 86.7386C438.225 87.0873 437.548 87.7608 437.398 88.779C437.148 89.1099 436.946 89.4699 436.817 89.8707C436.144 91.9507 437.454 94.5219 438.152 96.5144L438.206 96.6705C438.654 97.9801 439.118 99.2833 439.587 100.586L440.755 103.82C443.995 112.834 447.154 122.337 444.532 131.787C443.973 133.787 446.879 134.691 448.139 133.126C451.194 129.337 454.495 125.766 457.961 122.338L458.129 122.315C460.556 121.885 461.498 120.377 462.612 118.84C463.268 119.01 463.974 119.05 464.656 118.934C465.643 118.767 466.528 118.271 467.226 117.644C467.818 117.113 468.36 115.75 469.059 115.413C469.934 114.99 471.692 115.594 472.737 115.458C473.586 115.348 474.379 115.092 475.149 114.77C476.563 116.466 477.501 118.459 477.73 120.609C477.82 121.426 478.097 122.118 478.497 122.692C477.024 122.644 475.547 122.735 474.088 122.974C468.692 123.857 464.822 126.787 462.648 131.152C462.555 131.343 462.836 131.5 462.965 131.317C466.191 126.948 473.214 126.726 478.314 128.265C483.73 129.9 486.77 134.096 487.851 138.882C489.037 144.13 487.516 149.786 484.268 154.256C482.762 156.334 480.705 158.23 477.973 158.995C474.726 159.903 471.727 158.277 468.401 159.117C466.137 159.686 465.139 161.612 465.549 163.538C465.712 164.295 466.014 164.956 466.419 165.529C465.223 167.616 464.116 169.764 462.708 171.738C460.533 174.786 457.904 177.307 455.038 179.851C452.078 182.477 449.063 185.051 445.896 187.485C442.861 189.82 439.382 191.481 436.199 193.62C433.966 195.12 432.859 197.224 433.961 199.633C434.87 201.624 437.935 203.32 440.415 202.42C445.164 200.698 449.32 197.768 453.105 194.75C456.614 191.95 459.669 188.603 461.976 184.968C464.154 181.541 465.758 177.65 467.111 173.901L467.279 173.434C467.917 171.651 468.588 169.647 469.023 167.625C471.627 168.877 475.161 169.06 477.948 168.721C482.45 168.177 486.557 166.182 489.66 163.273C491.107 161.92 492.385 160.376 493.489 158.702C493.389 159.721 493.329 160.706 493.265 161.603C490.685 164.089 489.65 167.677 490.566 170.951C488.407 172.905 487.802 175.84 488.929 178.338C486.566 180.399 486.655 183.68 487.677 186.66C484.884 189.406 484.619 193.685 486.8 196.784L486.866 197.006C484.664 200.248 485.16 204.437 487.919 207.3C486.035 210.516 486.327 214.841 491.036 216.088C492.752 216.543 494.416 216.155 495.66 215.309C494.524 220.282 494.015 225.331 495.531 230.328C496.134 232.31 498.338 233.758 500.656 233.758C502.593 233.758 504.002 232.901 504.975 231.641C504.861 234.149 505.034 236.671 505.642 239.214C506.009 240.75 507.628 241.948 509.347 242.319C508.727 242.934 508.48 243.824 509.074 244.751C511.595 248.677 517.686 247.048 518.098 243.287C519.818 242.158 520.618 240.303 520.949 238.299C521.431 235.377 521.606 232.502 522.152 229.617L522.361 229.789L522.469 229.871L522.504 230.08C522.817 231.506 523.731 232.504 524.918 233.1C524.66 235.588 525.137 238.121 526.931 240.01C528.126 241.269 530.162 241.765 531.907 241.492C532.016 241.497 532.128 241.496 532.245 241.483C536.197 241.021 538.484 237.723 537.443 234.696C539.035 232.981 539.705 230.804 539.234 228.652C542.313 226.859 542.25 222.919 541.184 219.754C544.412 217.513 545.626 213.323 544.004 209.993C546.913 206.814 547.318 202.385 545.341 198.765C548.542 196.452 548.524 191.986 545.349 189.62C547.04 186.667 548.059 183.129 546.37 180.427C547.562 179.27 548.216 177.62 548.078 176.027C547.876 173.686 546.116 172.068 543.932 170.991L543.78 170.258C543.267 170.314 542.721 170.188 542.239 169.781C541.762 169.378 541.271 169.054 540.764 168.786C540.189 168.779 539.694 168.554 539.347 168.208C538.395 167.923 537.371 167.798 536.236 167.786C533.784 167.763 533.698 164.537 535.98 164.328C536.34 164.009 536.836 163.807 537.374 163.807L537.796 163.809C538.781 163.817 539.776 163.87 540.69 164.215C541.284 164.439 541.742 164.776 542.077 165.188C542.14 165.811 542.526 166.433 543.36 166.946C544.324 167.539 545.643 167.608 546.675 167.072C548.119 166.321 548.134 165.148 547.967 163.873C547.603 161.085 549.425 158.46 548.991 155.608C548.799 154.346 548.322 153.257 547.543 152.378C549.185 150.216 549.474 147.426 548.211 145.054C550.843 142.562 551.298 138.721 549.62 135.723C549.595 135.65 549.577 135.576 549.55 135.504C549.361 134.995 549.099 134.535 548.811 134.096C550.285 131.85 550.274 129.093 548.776 126.857C551.045 124.53 551.117 120.827 549.099 118.32C549.087 118.113 549.063 117.905 549.042 117.697C549.968 115.582 549.746 113.177 548.571 111.21C548.99 110.36 549.314 109.445 549.52 108.47C550.049 105.957 549.777 103.514 548.987 101.062C548.859 100.675 548.715 100.288 548.562 99.9009C548.536 98.2214 548.464 96.5492 548.368 94.8801C548.744 93.4672 548.804 91.9146 548.812 90.4731L548.815 89.5384C548.833 87.1597 549.022 83.6769 547.312 81.6549C548.41 79.4706 547.959 76.7185 546.127 74.9872C547.413 73.0416 547.682 70.6526 546.39 68.494C546.183 68.1466 545.942 67.8231 545.678 67.517C545.785 65.5401 545.312 63.5015 544.114 61.5368C543.337 60.2577 542.175 59.1503 540.793 58.2643C540.817 58.0021 540.831 57.7403 540.826 57.4825C540.802 56.3321 540.512 55.1769 540.024 54.0992C540.9 52.7835 541.306 51.3005 540.793 49.7023C540.22 47.8937 538.712 46.3372 536.83 45.459C536.678 43.7538 536.375 42.0586 535.943 40.3861C537.099 38.1196 536.178 35.1284 533.564 33.7932C533.905 31.982 533.597 30.1038 532.099 28.689C531.531 28.1529 530.862 27.7464 530.142 27.4769C530.489 25.6556 530.097 23.7609 528.666 22.2779C527.497 21.0671 525.764 20.3314 524.001 20.2232C523.322 17.0554 519.882 14.6868 516.252 14.8755C515.799 13.4808 514.715 12.2647 513.034 11.6482C512.603 11.4904 512.168 11.3865 511.735 11.3286C508.784 8.70959 504.39 6.93443 500.586 6.02532C496.771 5.11707 492.903 5.02915 489.627 6.08514L489.389 6.16445L489.122 6.13402C487.965 6.02098 486.809 5.95576 485.653 5.92967ZM514.646 220.591C515.665 220.312 516.802 220.922 517.078 221.806C517.37 222.74 516.72 223.665 515.697 223.945C514.423 224.295 513.084 224.382 511.756 224.383C510.688 224.384 509.779 223.583 509.779 222.644C509.779 221.7 510.684 220.906 511.756 220.905C512.836 220.904 513.634 220.869 514.646 220.591ZM523.711 202.123C525.235 202.124 526.541 202.444 527.671 203.383C528.424 204.01 528.443 205.22 527.671 205.843C526.891 206.472 525.76 206.509 524.96 205.91L524.806 205.788C524.787 205.773 524.773 205.762 524.761 205.752C524.697 205.715 524.632 205.678 524.564 205.647L524.693 205.721C524.791 205.783 524.563 205.681 524.436 205.633L524.396 205.619L524.383 205.616L524.28 205.609C524.091 205.6 523.901 205.601 523.711 205.601C522.677 205.6 521.687 204.802 521.734 203.862C521.783 202.92 522.603 202.122 523.711 202.123ZM494.961 191.089C492.821 189.935 494.732 186.982 496.878 188.046L496.956 188.086C498.056 188.68 499.409 188.599 500.655 188.6C503.199 188.601 503.203 192.079 500.655 192.078L500.234 192.076C498.407 192.064 496.559 191.952 494.961 191.089ZM511.8 178.394C513.416 178.127 515.227 177.888 516.928 178.051L517.211 178.082H517.734C518.189 178.082 518.629 178.243 518.982 178.496C519.542 178.7 520.071 178.974 520.555 179.342C522.481 180.811 519.674 183.262 517.759 181.802C517.653 181.721 517.529 181.654 517.392 181.599L517.287 181.56H515.172C514.98 181.56 514.793 181.525 514.61 181.474C513.924 181.557 513.284 181.676 512.851 181.748C510.364 182.16 509.299 178.808 511.8 178.394ZM513.605 145.013C516.704 143.748 520.135 143.757 523.001 145.513C525.05 146.768 523.147 149.729 521.08 148.56L521.006 148.516C520.749 148.359 520.485 148.227 520.218 148.108C518.763 148.478 517.299 148.495 515.892 148.04L515.709 147.978L515.6 148.016C513.307 148.951 511.297 145.954 513.605 145.013ZM479.864 139.563C482.994 139.254 483.019 134.904 479.864 135.215C473.202 135.873 467.157 138.478 462.73 142.953C460.67 145.034 464.062 148.078 466.159 146.09L466.224 146.027C469.744 142.469 474.495 140.092 479.864 139.563ZM514.93 117.228C515.626 117.161 516.321 117.127 517.004 117.156C518.646 117.226 520.645 118.189 519.925 119.93C519.347 121.325 517.453 121.38 516.518 120.636C516.129 120.645 515.741 120.667 515.354 120.702C514.322 120.795 513.299 120.969 512.282 121.145C509.796 121.575 508.732 118.223 511.231 117.791L512.335 117.598C512.708 117.534 513.083 117.472 513.461 117.414C513.687 117.316 513.929 117.249 514.187 117.232L514.318 117.228H514.93ZM534.572 90.2438L534.804 90.2161C538.142 89.8403 543.501 90.1861 543.906 93.9245C544.13 95.9949 540.73 96.1249 540.059 94.3545C537.594 93.9636 535.108 93.8889 532.66 94.1263C531.726 93.2915 531.719 91.6868 533.274 91.2863C533.493 90.7672 533.951 90.3225 534.572 90.2438ZM458.268 83.9296C459.039 83.3066 460.304 83.224 461.063 83.9296C461.501 84.3357 461.866 84.787 462.155 85.2835L462.347 85.6187C462.38 85.6744 462.413 85.7297 462.448 85.7843C462.513 85.8856 462.585 85.9821 462.656 86.0804L462.704 86.1215C462.722 86.1383 462.745 86.1587 462.771 86.1834C463.482 86.8447 463.573 87.9956 462.771 88.6429C462 89.266 460.735 89.3486 459.976 88.6429C459.539 88.2369 459.173 87.786 458.884 87.2891L458.692 86.9541C458.659 86.8985 458.626 86.8433 458.591 86.7886C458.527 86.6869 458.453 86.5904 458.383 86.4921L458.305 86.423C458.293 86.4128 458.281 86.4015 458.268 86.3891C457.556 85.7282 457.467 84.577 458.268 83.9296ZM498.803 79.4006C501.589 77.6641 504.901 77.5833 507.461 79.6723C509.309 81.1802 506.594 83.5961 504.731 82.1833L504.665 82.1318C504.598 82.0762 504.529 82.0275 504.461 81.981C504.127 82.2314 503.702 82.3901 503.217 82.3905C503.09 82.3908 502.963 82.3905 502.837 82.3929L502.647 82.3988L502.545 82.4062L502.532 82.4083L502.444 82.4416C502.281 82.5061 502.057 82.6057 502.364 82.4362C502.296 82.4679 502.231 82.5053 502.166 82.5418L502.053 82.6327C501.307 83.2527 500.018 83.3344 499.278 82.6488C497.968 82.2592 497.273 80.354 498.803 79.4006ZM471.573 73.703L471.522 73.689C469.08 73.0756 470.118 69.7187 472.573 70.3348C475.178 70.9891 476.422 73.1216 476.943 75.3059C477.162 76.2246 476.636 77.1859 475.562 77.4454C474.581 77.6824 473.351 77.1541 473.13 76.2307C472.976 75.5813 472.797 75.0304 472.515 74.5191L472.344 74.2272C472.265 74.0942 472.237 74.0721 471.967 73.8651C471.922 73.8303 471.716 73.7461 471.573 73.703ZM512.938 56.1856L513.32 56.109C515.7 55.6504 518.858 55.411 520.294 57.486C521.604 59.3764 518.3 61.0972 516.94 59.3103C516.919 59.3097 516.895 59.3099 516.867 59.3119L516.823 59.3164L516.213 59.2729C515.453 59.2681 514.726 59.3864 513.99 59.5399C511.516 60.0551 510.46 56.7021 512.938 56.1856ZM427.526 42.8147C425.725 41.23 428.519 38.7696 430.321 40.3556C431.746 41.6091 433.12 42.8712 434.046 44.4638C434.532 45.2994 434.294 46.3507 433.337 46.8433C432.454 47.2976 431.121 47.0585 430.632 46.2194C429.83 44.839 428.817 43.9512 427.526 42.8147ZM450.255 38.6548C452.035 39.5817 453.187 41.1087 453.886 42.876C454.237 43.7629 453.486 44.7781 452.505 45.0151C451.451 45.2699 450.488 44.7266 450.109 43.8829L450.074 43.8003C449.887 43.3277 449.587 42.7695 449.217 42.3482C448.901 41.9886 448.409 41.6286 448.039 41.5091C447.148 41.2213 446.516 40.5109 446.598 39.6813C448.064 40.1269 449.424 39.5909 450.255 38.6548ZM503.527 31.0898C505.322 29.6238 507.731 29.4294 509.907 30.3168C510.876 30.7116 511.119 31.9407 510.616 32.6963C510.035 33.5706 508.884 33.7167 507.912 33.3202C508.162 33.4219 507.711 33.2876 507.516 33.2385C507.491 33.2486 507.165 33.2356 507.052 33.237L506.917 33.2445C506.916 33.2453 506.949 33.2448 507.017 33.2428C506.922 33.2616 506.828 33.2842 506.736 33.3101L506.618 33.346C506.677 33.3351 506.41 33.4882 506.336 33.5391L506.322 33.5489C504.459 35.0701 501.657 32.6163 503.527 31.0898Z" fill="black"/>
<path fill-rule="evenodd" clip-rule="evenodd" d="M364.977 172.104C364.217 170.944 362.468 169.87 360.867 170.035C353.697 170.773 353.709 178.405 356.478 182.861C358.933 186.811 364.013 189.13 369.098 188.792C374.44 188.436 378.992 185.678 380.995 181.291C382.32 178.389 382.932 173.031 379.408 171.081C379.343 171.045 379.235 171.054 379.183 171.107C377.493 172.832 377.427 175.423 375.947 177.344C374.572 179.131 372.434 180.607 369.93 180.835C368.06 181.005 366.169 180.413 365.437 178.939C365.041 178.142 365.086 177.709 365.235 177.16L365.37 176.683C365.839 175.013 366.049 173.742 364.977 172.104ZM363.06 138.633C359.32 140.629 353.622 145.282 357.645 150.23C362.381 154.592 369.199 149.59 372.558 147.328C375.674 145.575 379.174 150.084 376.283 152.131C352.006 167.911 342.153 139.155 361.168 136.287C363.262 135.971 364.04 138.016 363.06 138.633ZM402.551 124.949C400.255 121.926 395.016 122.371 393.751 125.959C393.066 127.902 394.012 129.649 393.963 131.59C393.922 133.229 394.045 135.056 394.617 136.644C395.922 140.265 399.632 142.822 404.02 142.716C408.394 142.61 412.246 140.18 414.078 136.757C415.916 133.321 415.527 129.765 414.185 126.271C414.12 126.103 413.87 126.022 413.719 126.163C412.132 127.643 410.971 129.206 409.77 130.863L408.538 132.562C407.597 133.841 406.229 135.475 404.472 135.372L404.208 135.35C403.72 135.313 403.795 135.398 403.418 134.814C403.244 134.543 403.276 134.041 403.191 133.721L403.162 133.614L403.178 133.556C403.215 133.401 403.252 133.11 403.282 132.604L403.288 132.493C403.416 130.129 404.177 127.091 402.551 124.949ZM344.366 126.962C344.777 123.095 338.585 122.236 336.526 125.098C335.452 126.59 335.14 128.464 334.902 130.24L334.791 131.083C334.548 132.906 334.451 134.804 335.353 136.505C336.773 139.185 339.862 140.601 343.194 140.377C346.376 140.162 349.279 138.542 350.809 136.084C352.173 133.89 353.53 129.607 351.873 127.318C351.773 127.18 351.573 127.162 351.435 127.269C349.869 128.489 349.614 130.715 348.683 132.305C347.723 133.945 346.267 135.543 344.06 135.792C341.948 136.031 341.141 135.018 341.68 133.251C342.375 130.969 344.104 129.417 344.366 126.962ZM400.878 101.96L399.865 101.619C396.396 100.469 391.632 99.1387 388.811 101.616C387.071 103.143 386.74 105.393 387.982 107.257C389.487 109.514 392.186 109.57 394.793 109.903C397.758 110.281 400.773 111 403.534 112.025C406.643 113.18 409.529 114.62 412.356 116.229C415.043 117.757 417.721 120.255 420.938 120.725C421.069 120.745 421.218 120.695 421.252 120.569C421.983 117.808 419.953 115.091 418.141 112.937C415.949 110.329 413.293 108.189 410.325 106.27C407.46 104.417 404.187 103.079 400.878 101.96ZM337.852 111.776L337.543 111.728C335.439 111.42 333.532 111.491 331.946 112.954C330.736 114.07 330.269 115.517 330.846 116.992C331.379 118.354 332.569 119.737 334.297 120.022C340.13 120.985 346.592 120.826 352.454 120.097C355.136 119.763 357.843 119.354 360.455 118.71L361.657 118.404C363.838 117.857 366.335 117.285 367.919 115.877C368.489 115.371 368.161 114.647 367.479 114.412C364.715 113.462 360.926 113.968 357.978 113.893C354.549 113.807 351.115 113.582 347.702 113.271C344.368 112.966 341.141 112.305 337.852 111.776Z" fill="black"/>
</svg>
