<svg width="1440" height="935" viewBox="0 0 1440 935" fill="none" xmlns="http://www.w3.org/2000/svg">
<path d="M382.184 439.212C431.952 471.228 477.283 518.462 489.012 573.302C501.058 628.144 479.502 690.593 447.486 747.97C415.468 805.347 372.674 857.018 321.32 868.747C269.966 880.159 209.736 850.995 151.724 825.952C93.7135 800.592 37.604 779.353 3.0511 737.192C-31.1849 695.031 -43.8649 631.63 -35.9399 569.498C-28.3319 507.05 -0.118905 445.869 46.48 413.218C93.396 380.567 158.698 376.446 218.294 383.103C278.208 389.76 332.414 407.195 382.184 439.212Z" fill="#FFDBB4"/>
<path fill-rule="evenodd" clip-rule="evenodd" d="M230.579 479.44L225.114 492.962L228.125 535.821L230.365 536.17C254.028 539.841 270.107 541.696 278.603 541.733L278.866 541.734C287.422 541.734 297.674 539.821 309.622 535.996L310.166 535.821L311.546 503.729H308.293L302.409 489.923L302.414 489.918C302.479 490.029 302.547 490.136 302.617 490.24C305.07 493.871 306.492 490.939 312.255 492.223C319.155 493.761 322.219 500.741 328.294 505.957C331.114 508.379 337.034 509.52 339.867 511.186L342.843 512.936C352.168 518.44 362.885 525.127 368.512 533.837C375.109 544.049 379.656 553.739 383.855 565.099C392.906 589.584 399.188 614.569 403.676 640.264C408.226 666.306 410.96 692.672 413.049 719.017C414.016 731.225 414.836 743.444 415.517 755.671L415.685 758.728C416.042 765.381 415.731 771.891 409.687 775.988C405.357 778.923 399.61 779.37 394.529 779.671L394.253 779.688C356.69 781.892 319.126 784.081 281.562 786.274L225.218 789.571C215.843 790.121 206.467 790.667 197.092 791.209L174.207 792.532C163.422 793.146 152.623 793.678 141.823 793.615C128.235 793.536 114.704 792.531 101.241 790.719L100.054 790.557C91.5837 789.386 79.3027 786.425 77.7813 776.259C77.5629 774.799 78.8467 773.887 79.9245 774.097C79.5698 772.442 79.3496 770.785 79.1392 769.345C78.2365 763.194 77.6697 757.003 77.3896 750.793C76.8277 738.366 77.3011 725.881 78.5425 713.508C80.5961 693.038 83.4748 672.604 86.4493 652.241L87.1116 647.717C90.2754 626.143 94.0423 604.606 99.9367 583.591C105.382 564.178 113.876 543.983 125.564 531.708C137.253 519.432 153.917 508.767 171.041 502.235C172.524 501.669 201.987 495.213 203.972 496.153L204.328 495.873C210.202 491.232 218.582 483.079 227.21 485.646L227.229 485.614C227.433 485.24 228.23 482.735 229.331 479.44H230.579Z" fill="#8FA7DF"/>
<path fill-rule="evenodd" clip-rule="evenodd" d="M236.81 461.443C243.946 452.389 251.468 449.51 262.583 450.185C270.121 449.915 277.639 451.874 284.021 456.199C289.869 459.258 295.055 463.467 298.757 468.887C301.923 473.52 299.517 484.969 302.409 489.923C302.381 490.462 302.366 490.953 302.366 491.397C302.366 495.684 305.347 500.467 311.309 505.748L311.546 505.957V537.107C301.523 540.192 289.114 541.734 274.319 541.734C259.744 541.734 244.585 539.285 228.841 534.387L228.125 534.162L225.114 500.307L228.125 490.939L228.124 483.092L229.288 479.582C231.348 473.411 234.502 464.372 236.81 461.443Z" fill="#694D3D"/>
<path fill-rule="evenodd" clip-rule="evenodd" d="M228.125 534.162C245.767 539.304 260.61 541.875 272.654 541.875C284.698 541.875 297.202 539.304 310.167 534.162L307.012 788.049L256.236 788.67L228.125 534.162Z" fill="#9FD8E5"/>
<path fill-rule="evenodd" clip-rule="evenodd" d="M141.01 645.018C140.815 644.651 141.269 644.321 141.57 644.586C148.41 650.593 151.991 660.241 152.742 669.159C153.537 678.615 152.409 688.406 151.978 697.859C151.498 708.388 151.067 718.921 150.482 729.445C149.887 740.122 149.247 750.796 148.698 761.476L147.463 785.5C147.331 788.06 147.616 791.209 146.634 793.598C145.113 797.302 140.593 796.729 139.644 793.633L139.614 793.531L139.527 793.598C138.689 790.808 139.317 787.494 139.459 784.61L140.753 758.362C141.667 739.809 142.482 721.256 143.464 702.707L143.798 696.524C144.257 688.201 144.609 679.898 144.892 671.577L144.984 668.803C145.252 660.448 145.039 652.561 141.01 645.018ZM306.822 491.001C310.633 490.639 313.511 491.904 316.97 493.236C318.477 493.816 319.904 494.486 321.35 495.18C323.16 496.049 324.324 497.584 325.439 499.208L326.035 500.083C330.676 506.889 333.799 514.741 337.322 522.151C341.443 530.819 345.605 539.468 349.638 548.177L351.628 552.468C352.623 554.614 353.615 556.76 354.593 558.914L356.281 562.662C357.978 566.463 359.498 570.485 357.081 574.406C354.832 578.053 350.847 580.875 347.691 583.694C345.058 586.046 342.425 588.398 339.791 590.75C345.236 596.206 348.891 603.077 351.039 610.446C354.092 609.173 357.818 608.929 360.974 608.378C365.392 607.607 365.933 614.301 361.764 614.22C358.684 614.159 355.071 614.474 351.912 613.825C352.461 616.246 352.86 618.704 353.113 621.169C354.441 634.086 351.54 647.079 348.515 659.578L348.266 660.604C344.98 674.131 341.865 687.695 339.078 701.335C336.285 715.004 333.773 728.731 331.543 742.503C329.273 756.521 327.666 770.617 325.94 784.709C325.679 786.842 324.338 788.67 321.983 788.67C320.021 788.67 317.779 786.838 318.025 784.709C319.806 769.363 322.333 754.097 324.843 738.855C329.166 712.608 334.607 686.588 340.866 660.74L341.96 656.238C344.776 644.563 347.331 632.534 345.918 620.492C344.768 610.686 340.671 600.231 332.575 594.14L332.328 593.957C330.437 592.569 329.709 589.914 331.572 588.086C332.757 586.923 333.944 585.761 335.132 584.6L342.259 577.635L343.696 576.229C344.894 575.058 346.098 573.894 347.338 572.767C348.088 572.084 350.123 570.783 350.271 569.661C350.368 568.929 349.502 567.643 349.15 566.968L347.542 563.718C346.628 561.865 345.743 559.999 344.851 558.135C343.003 554.274 341.127 550.425 339.319 546.545L328.456 523.248C325.391 516.676 322.661 509.737 318.654 503.661L317.864 502.476C317.205 501.479 316.622 500.519 316.205 499.299C315.805 498.126 315.302 496.837 314.561 495.836C312.826 493.486 309.509 492.153 306.733 491.66C306.332 491.589 306.478 491.034 306.822 491.001ZM223.269 484.882C223.511 484.882 223.547 485.227 223.325 485.294C219.976 486.302 216.777 487.928 214.166 490.275C212.918 491.398 211.66 492.672 210.889 494.184C210.594 494.763 210.431 495.374 210.311 496.008L210.273 496.22C210.074 497.364 209.789 498.002 209.208 498.918L209.108 499.074C205.791 504.201 203.466 509.896 201.34 515.598L196.711 528.031L192.084 540.466C190.594 544.472 189.102 548.479 187.611 552.486C186.788 554.698 185.941 556.901 185.094 559.104C184.728 560.058 184.334 561.005 183.999 561.971C183.953 562.103 183.806 562.899 183.697 563.092L183.734 563.157C184.667 564.728 187.156 566.041 188.566 567.182L193.423 571.112C196.887 573.915 200.439 576.639 203.798 579.567C205.908 581.405 204.595 584.697 202.242 585.465C198.299 586.75 194.435 588.289 190.551 589.744C188.982 590.331 187.348 590.843 185.797 591.49L184.853 591.899C184.485 592.065 184.662 592.063 184.677 592.744C184.691 593.458 184.894 594.203 185.01 594.905C186.318 602.822 187.705 610.726 189.169 618.616C194.347 646.517 200.533 674.214 207.588 701.698C211.152 715.578 214.974 729.389 218.615 743.249C222.248 757.071 227.028 770.695 231.592 784.232C232.88 788.049 226.832 789.693 225.576 785.892C220.315 769.97 215.503 753.91 210.534 737.898C201.705 709.448 194.747 680.379 188.594 651.241C185.544 636.799 182.755 622.302 180.228 607.76C179.75 605.006 179.281 602.252 178.821 599.495L178.152 595.441C177.693 592.551 177.431 589.541 179.676 587.254C181.867 585.021 185.629 584.23 188.513 583.183L188.723 583.106C190.558 582.421 192.406 581.761 194.247 581.08C191.535 578.943 188.856 576.759 186.151 574.623C183.968 572.9 181.751 571.212 179.6 569.45C177.826 567.996 176.38 566.129 176.195 563.765C176.006 561.349 177.041 559.107 177.875 556.891L177.955 556.677C178.775 554.465 179.596 552.253 180.439 550.049L185.651 536.406C188.964 527.736 192.137 518.996 195.621 510.394C196.999 506.99 198.501 503.639 200.276 500.421C201.132 498.869 202.05 497.351 203.048 495.886C204.165 494.244 205.18 493.443 206.911 492.537C209.68 491.088 211.854 488.659 214.634 487.165C217.363 485.699 220.171 484.916 223.269 484.882ZM232.258 469.415C232.364 469.233 232.645 469.314 232.648 469.521C232.721 473.83 231.698 478.233 231.069 482.493C230.436 486.769 230.234 491.282 229.319 495.512C229.3 495.709 229.262 495.903 229.208 496.094L229.165 496.239C228.779 497.424 227.775 498.428 226.544 498.742C226.931 500.89 227.296 503.041 227.603 505.204C228.13 508.921 228.611 512.644 229.084 516.369L229.65 520.838C230.185 525.05 230.705 529.264 231.219 533.479C232.526 534.026 233.861 534.477 235.227 534.869C238.374 535.77 241.597 536.136 244.845 536.455C251.458 537.104 258.122 537.405 264.759 537.774L266.18 537.854C273.642 538.282 281.144 538.358 288.586 537.592C292.277 537.212 295.938 536.574 299.537 535.671C301.366 535.211 303.143 534.526 304.968 534.077C305.573 533.928 306.114 533.585 306.721 533.218C306.99 532.877 307.368 532.619 307.86 532.52L307.994 532.497L308.126 532.477L308.171 532.457L308.168 532.471C308.541 532.421 308.896 532.421 309.23 532.467C309.364 529.181 309.508 525.895 309.689 522.61C310.174 513.787 311.515 504.583 309.725 495.837C309.665 495.543 310.065 495.439 310.169 495.714C313.681 504.973 313.286 515.098 313.463 524.843C313.636 534.372 313.531 543.909 313.484 553.441C314.166 553.732 314.775 554.125 315.257 554.678C316.219 555.782 316.496 557.702 315.257 558.768C314.707 559.24 314.099 559.568 313.454 559.796C313.42 568.077 313.361 576.358 313.278 584.64C314.852 585.856 314.999 588.744 313.219 589.945C312.923 616.763 312.436 643.581 312.032 670.395L311.186 726.651C311.073 734.147 310.887 741.642 310.82 749.136L310.873 749.157L311.06 749.244C311.375 749.392 311.844 749.632 311.942 749.877C311.967 749.941 311.974 749.985 311.971 750.018C312.487 750.09 312.999 750.335 313.441 750.755C314.534 751.794 314.312 753.36 313.441 754.418L313.209 754.701C312.666 755.36 311.635 755.614 310.794 755.48C310.802 760.158 310.832 764.836 310.817 769.514C310.813 770.942 310.791 772.371 310.766 773.8L310.708 777.226C310.668 779.18 310.495 781.665 308.495 782.543C306.238 783.534 304.214 782.722 303.3 780.428C303.052 779.807 303.106 779.228 303.196 778.613C303.168 777.69 303.023 776.62 303.041 775.764L303.116 772.192C303.127 771.642 303.15 771.091 303.165 770.541L303.1 770.547C295.08 770.937 287.004 770.747 278.971 770.742L275.398 770.747C272.418 770.75 269.43 770.734 266.454 770.62L265.338 770.572C263.109 770.468 260.766 770.434 258.455 770.235C258.75 772.608 259.025 774.983 259.27 777.361C259.502 779.615 257.177 781.531 255.103 781.531C252.64 781.531 251.232 779.593 250.937 777.361C249.545 766.83 248.975 756.201 247.646 745.663C246.455 736.225 245.422 726.765 244.372 717.309L244.021 714.157C240.18 679.745 236.45 645.319 232.883 610.877L231.221 594.777C229.544 578.549 227.856 562.32 226.433 546.068C225.619 536.776 224.869 527.483 224.164 518.182C223.646 511.35 223.321 504.555 223.109 497.735C222.274 496.876 221.856 495.62 222.226 494.324C222.442 493.568 222.693 492.815 222.959 492.064C222.942 491.326 222.925 490.588 222.91 489.849C222.897 489.15 223.606 488.79 224.174 488.906C225.206 486.406 226.342 483.927 227.291 481.451C228.825 477.442 230.09 473.123 232.258 469.415ZM146.543 512.735C162.587 502.672 181.685 495.431 200.814 496.21C201.249 496.228 201.371 496.892 200.919 496.992C190.716 499.272 180.401 502.049 170.742 506.091C161.054 510.145 151.843 515.603 143.638 522.163C128.501 534.266 116.736 550.008 108.989 567.753C104.451 578.148 101.27 589.122 98.4925 600.1C95.5533 611.719 93.131 623.462 91.1169 635.277C87.1388 658.613 84.8227 682.207 83.5904 705.841C82.3365 729.883 82.8533 753.942 81.9591 777.987C81.8045 782.153 75.8548 782.071 75.5523 777.987C73.5262 750.649 74.6487 722.875 76.5225 695.556C78.2074 670.998 81.1497 646.491 85.8876 622.328L86.3003 620.233C90.7296 597.878 96.072 574.981 106.78 554.735C115.922 537.45 130.035 523.09 146.543 512.735ZM369.342 619.58C369.426 619.34 369.742 619.343 369.826 619.58C371.655 624.704 371.721 630.486 372.207 635.887L372.245 636.302C372.712 641.229 373.063 646.162 373.389 651.098L373.51 652.95C374.821 673.09 376.458 693.207 378.926 713.241C381.385 733.199 384.71 753.018 388.305 772.798C388.706 775.001 387.731 777.244 385.423 777.878C383.389 778.437 380.778 777.184 380.348 774.994C378.116 763.641 376.311 752.272 374.7 740.821C371.866 720.655 369.75 700.397 368.39 680.079C367.708 669.874 367.287 659.673 367.12 649.446C367.043 644.701 367.166 639.945 367.419 635.205L367.479 634.111C367.758 629.266 367.729 624.2 369.342 619.58ZM195.973 747.858C196.188 747.742 196.453 747.981 196.317 748.203C193.211 753.256 189.008 757.613 184.946 761.907C180.699 766.396 176.558 771.02 172.225 775.421C169.095 778.6 164.059 773.472 167.363 770.555C172.008 766.454 176.863 762.558 181.591 758.549L183.658 756.795C187.535 753.517 191.526 750.269 195.973 747.858ZM343.53 745.328C343.298 744.885 343.828 744.527 344.188 744.82C346.694 746.859 348.94 749.292 351.36 751.444C353.756 753.576 356.242 755.565 358.796 757.504C361.36 759.451 363.98 761.321 366.671 763.09C368.903 764.557 371.203 765.732 373.541 766.951C374.623 767.09 375.626 767.622 376.428 768.63C377.696 770.224 377.831 773.23 376.072 774.614L375.756 774.862C373.703 776.477 371.265 776.674 369.244 774.862C366.987 772.84 364.854 770.614 362.686 768.476L362.035 767.838C359.706 765.572 357.434 763.233 355.291 760.789L353.352 758.581C349.754 754.475 346.009 750.049 343.53 745.328ZM331.987 508.598C331.57 508.321 331.827 507.577 332.342 507.755L333.286 508.081C337.229 509.453 341.287 510.974 344.867 513.085C348.715 515.354 352.267 518.057 355.661 520.956C362.686 526.958 368.663 534.338 373.742 542.031C383.933 557.467 390.236 575.146 395.324 592.834C400.75 611.694 404.928 630.961 408.339 650.281C411.804 669.916 414.478 689.728 416.235 709.591C417.101 719.375 417.682 729.165 417.974 738.983C418.125 744.034 418.12 749.081 418.078 754.134C418.067 755.433 418.076 756.732 418.091 758.03L418.14 761.927C418.166 764.391 418.461 766.98 417.876 769.387C416.934 773.261 410.534 772.538 410.744 768.578C410.551 767.261 410.543 765.899 410.593 764.535C410.563 764.359 410.53 764.18 410.493 763.997C410.388 763.474 410.478 762.989 410.683 762.572C410.716 761.918 410.746 761.267 410.757 760.628C410.799 758.027 410.796 755.436 410.724 752.835C410.573 747.351 410.355 741.868 410.135 736.387C409.695 725.434 409.083 714.476 408.196 703.551C405.109 665.52 398.592 627.272 387.644 590.684C382.559 573.693 375.55 557.014 365.497 542.332C361.035 535.814 356 529.793 350.419 524.206C344.802 518.583 338.613 512.989 331.987 508.598ZM256.236 753.762L256.994 759.254C257.374 762 257.749 764.747 258.106 767.497C260.527 767.165 263.004 767.026 265.338 766.819C269.423 766.457 273.536 766.281 277.633 766.112C286.105 765.762 294.619 765.156 303.1 765.198C303.187 765.199 303.269 765.204 303.352 765.211L303.772 754.375L297.814 754.366C292.765 754.358 287.718 754.315 282.669 754.271C278.123 754.232 273.574 754.226 269.028 754.131L267.08 754.085C263.633 753.992 259.826 754.184 256.236 753.762ZM304.272 738.033C304.029 738.062 303.782 738.086 303.519 738.097C302.339 738.147 301.149 738.112 299.968 738.122C297.453 738.144 294.939 738.161 292.424 738.16C287.394 738.16 282.365 738.19 277.336 738.251C272.159 738.314 266.986 738.404 261.808 738.414C259.3 738.418 256.799 738.352 254.291 738.282C254.697 741.848 255.121 745.412 255.589 748.967C259.483 748.441 263.671 748.706 267.477 748.67L267.971 748.663C273.166 748.575 278.365 748.64 283.561 748.646C288.906 748.653 294.25 748.67 299.596 748.714L303.987 748.75L303.995 748.529C304.124 745.034 304.207 741.534 304.272 738.033ZM252.36 720.971C252.846 725.181 253.303 729.398 253.769 733.613C254.079 733.566 254.392 733.524 254.712 733.491C257.224 733.228 259.731 733.003 262.252 732.846C267.277 732.535 272.302 732.37 277.336 732.235C282.512 732.096 287.689 731.99 292.867 731.916C295.383 731.881 297.896 731.885 300.412 731.902C301.592 731.91 302.784 731.873 303.962 731.952C304.103 731.962 304.237 731.976 304.37 731.992L304.459 725.662C304.474 724.607 304.49 723.553 304.507 722.498C300.619 722.738 296.666 722.647 292.781 722.648L291.885 722.65C287.004 722.672 282.12 722.605 277.239 722.504C272.204 722.399 267.179 722.234 262.152 721.911C260.116 721.781 258.094 721.607 256.069 721.384L255.056 721.268C254.174 721.164 253.267 721.08 252.36 720.971ZM304.908 703.109C295.544 703.853 286.23 704.164 276.842 704.256L275.433 704.268C267.136 704.331 258.771 704.674 250.455 704.454C250.952 708.768 251.448 713.083 251.948 717.397C253.139 717.341 254.335 717.341 255.499 717.299C257.867 717.213 260.227 717.192 262.596 717.186C267.477 717.175 272.358 717.218 277.239 717.208C282.27 717.197 287.299 717.112 292.329 717.017C296.407 716.941 300.528 716.634 304.617 716.645L304.908 703.109ZM305.304 684.702C304.219 685.063 302.938 685.086 301.534 685.15L297.909 685.331C296.229 685.414 294.548 685.491 292.867 685.552C287.265 685.758 281.664 685.949 276.061 686.128C270.32 686.31 264.551 686.416 258.809 686.235C255.996 686.146 253.207 685.999 250.403 685.764C249.709 685.706 249.003 685.668 248.295 685.618C248.947 691.334 249.603 697.05 250.26 702.765C258.537 701.749 266.877 701.116 275.143 700.064L282.618 699.109C290.089 698.155 297.554 697.219 305.052 696.429L305.304 684.702ZM305.703 666.092C304.111 666.485 302.296 666.466 300.768 666.562L300.484 666.582C297.588 666.802 294.683 666.912 291.78 666.983C286.089 667.124 280.395 667.194 274.702 667.229L271.279 667.25C266.716 667.277 262.155 667.288 257.591 667.182C254.663 667.114 251.741 666.97 248.816 666.824C247.939 666.779 247.043 666.75 246.144 666.705C246.756 672.117 247.374 677.528 247.99 682.939C248.951 682.786 249.917 682.67 250.838 682.514C253.196 682.116 255.549 681.797 257.924 681.512C263.068 680.896 268.239 680.452 273.407 680.077C278.713 679.692 284.023 679.367 289.329 678.994L293.088 678.729C294.34 678.642 295.593 678.558 296.847 678.481C298.987 678.35 301.475 678.498 303.598 678.032C304.173 677.792 304.811 677.737 305.451 677.874L305.703 666.092ZM306.185 644.308C305.634 645.008 304.811 645.375 303.83 645.502C298.721 646.166 293.48 646.272 288.327 646.585L287.419 646.642C282.098 646.993 276.775 647.269 271.45 647.552C265.981 647.842 260.512 648.079 255.038 648.27C252.714 648.351 250.378 648.36 248.051 648.331L247.054 648.316C246.098 648.299 245.097 648.302 244.094 648.269C244.649 653.33 245.21 658.39 245.778 663.449C246.801 663.337 247.824 663.253 248.816 663.147C251.74 662.838 254.66 662.532 257.591 662.301C263.144 661.863 268.701 661.6 274.264 661.324C279.956 661.042 285.651 660.855 291.344 660.589C294.104 660.459 296.864 660.299 299.616 660.045C301.544 659.867 303.835 659.21 305.848 659.452C305.958 654.404 306.072 649.356 306.185 644.308ZM306.634 624.794C306.547 624.929 306.445 625.06 306.321 625.181C304.072 627.406 301.299 627.234 298.318 627.468L298.135 627.482C295.214 627.728 292.291 627.962 289.366 628.173C283.519 628.596 277.661 628.891 271.806 629.154C265.814 629.424 259.783 629.61 253.785 629.487C249.944 629.408 245.921 629.422 242.003 629.048C242.605 634.621 243.21 640.194 243.82 645.766C244.921 645.559 246.03 645.399 247.08 645.234C249.727 644.817 252.376 644.399 255.038 644.092C260.357 643.479 265.677 642.906 271.007 642.389C275.564 641.946 280.12 641.497 284.681 641.093L287.419 640.856C292.86 640.398 298.371 639.643 303.83 639.531C304.73 639.513 305.748 640.003 306.263 640.776C306.384 635.448 306.509 630.121 306.634 624.794ZM307.012 608.997C305.622 609.166 304.125 609.07 302.842 609.112C299.6 609.218 296.357 609.316 293.114 609.412L273.656 609.987C267.032 610.182 260.384 610.329 253.756 610.235C250.841 610.194 247.913 610.189 244.999 610.03L244.028 609.971C242.828 609.891 241.356 609.88 239.919 609.734L241.616 625.464C245.515 624.901 249.533 624.69 253.398 624.359L254.224 624.286C259.926 623.767 265.655 623.423 271.366 623.036C277.225 622.639 283.076 622.157 288.927 621.664C291.851 621.418 294.775 621.172 297.698 620.903L298.059 620.868C300.819 620.579 303.415 619.965 305.859 621.594C306.217 621.832 306.497 622.15 306.689 622.507C306.796 618.004 306.9 613.5 307.012 608.997ZM307.465 590.639C295.615 591.116 283.763 591.478 271.904 591.637C265.229 591.727 258.563 591.664 251.888 591.524C248.994 591.463 246.076 591.325 243.184 591.103L242.101 591.016C240.726 590.9 239.282 590.816 237.843 590.677C238.438 596.086 239.027 601.495 239.613 606.905C241.027 606.642 242.506 606.521 243.746 606.362L244.028 606.325C247.108 605.9 250.218 605.653 253.314 605.381C259.342 604.849 265.401 604.507 271.445 604.216C277.635 603.917 283.828 603.665 290.018 603.389L296.209 603.112C297.241 603.066 298.273 603.021 299.305 602.978C300.779 602.915 302.253 602.856 303.727 602.795C304.454 602.765 305.21 602.666 305.938 602.704L306.146 602.676C306.241 602.664 306.325 602.654 306.403 602.645C306.601 602.495 306.814 602.369 307.04 602.275L307.177 602.221L307.465 590.639ZM235.9 573.241C236.451 578.11 236.995 582.98 237.532 587.851C239.222 587.658 240.932 587.551 242.546 587.405C245.8 587.114 249.069 586.858 252.333 586.708L258.856 586.404C263.205 586.203 267.553 586.009 271.904 585.85C283.814 585.415 295.723 584.916 307.625 584.308C307.709 581.005 307.796 577.701 307.884 574.398C307.313 575.01 306.487 575.413 305.403 575.411C292.907 575.377 280.402 575.449 267.908 575.244C261.654 575.141 255.407 574.989 249.16 574.668C246.104 574.511 243.03 574.191 239.997 573.77C238.703 573.591 237.288 573.463 235.9 573.241ZM233.9 555.891C234.488 560.879 235.064 565.868 235.631 570.858C237.183 570.581 238.786 570.433 240.234 570.236C243.344 569.813 246.474 569.475 249.607 569.298C255.703 568.953 261.803 568.779 267.908 568.65C280.401 568.384 292.907 568.386 305.403 568.287C306.577 568.278 307.448 568.743 308.02 569.437C308.107 566.322 308.199 563.207 308.293 560.092C307.086 559.965 305.889 559.784 304.782 559.707C301.379 559.469 297.974 559.252 294.568 559.056C287.461 558.648 280.346 558.3 273.234 557.99C266.12 557.68 259.003 557.378 251.887 557.114L248.774 557C243.825 556.816 238.792 556.583 233.9 555.891ZM231.663 537.107C232.274 542.159 232.876 547.211 233.477 552.264L233.66 553.828C239.612 552.67 245.884 552.33 251.887 552.075C259.004 551.772 266.11 551.616 273.234 551.638C280.351 551.659 287.457 551.828 294.568 552.122C298.121 552.269 301.674 552.439 305.225 552.632C306.202 552.685 307.347 552.656 308.525 552.673C308.551 551.879 308.572 551.085 308.6 550.292C308.708 547.076 308.814 543.86 308.924 540.644C306.522 541.879 303.399 542.377 300.985 542.903L300.71 542.964C296.724 543.86 292.655 544.44 288.586 544.795C280.597 545.493 272.524 545.232 264.543 544.557L263.145 544.437C256.135 543.829 248.869 543.058 242.074 541.322C238.838 540.495 235.492 539.338 232.591 537.661C232.29 537.487 231.978 537.302 231.663 537.107ZM299.15 477.079C299.22 476.806 299.628 476.744 299.763 476.999C300.707 478.793 301.058 480.947 301.713 482.87C302.418 484.937 303.076 487.02 303.854 489.062C305.48 493.328 307.397 497.428 309.684 501.381C311.948 505.294 305.608 508.088 303.942 503.803C302.222 499.382 300.808 494.81 299.953 490.138C299.535 487.859 299.163 485.548 299.042 483.232C298.938 481.242 298.659 479.02 299.15 477.079Z" fill="black"/>
<path fill-rule="evenodd" clip-rule="evenodd" d="M336.234 349.541C320.552 308.163 292.285 277.868 244.63 296.896C243.263 295.963 241.479 295.713 239.77 296.806C213.81 313.154 195.117 339.364 187.015 368.919C182.085 369.86 177.294 371.499 173.015 374.188C163.715 380.033 157.459 389.332 151.593 398.39C149.83 401.113 151.463 405.621 154.777 406.239C156.217 406.508 157.644 406.668 159.063 406.71C158.717 407.968 158.263 409.183 157.684 410.297C155.587 414.332 159.548 418.615 163.259 417.512C163.671 417.731 164.103 417.91 164.55 418.045C164.601 420.331 165.772 423.39 168.089 423.852C171.837 424.658 176.817 421.781 175.933 417.577C177.065 417.777 178.193 417.802 179.293 417.663C179.416 419.853 179.378 422.137 179.679 424.156C180.664 433.673 190.145 440.066 199.186 437.171C199.741 440.136 200.392 444.303 203.304 445.911C206.709 455.49 212.587 466.422 222.216 470.787C221.359 472.989 221.824 475.669 224.406 477.143C242.031 487.221 263.185 490.631 283.112 486.884C291.075 486.409 298.834 484.604 306.281 480.759C311.712 477.955 316.705 474.394 321.579 470.723C326.455 467.051 331.669 463.476 335.561 458.708C339.788 453.53 341.756 447.437 343.033 440.953C348.885 411.519 346.864 382.619 336.234 354.58C323.075 319.873 349.388 384.25 336.234 349.541Z" fill="#694D3D"/>
<path fill-rule="evenodd" clip-rule="evenodd" d="M172.969 372.496C187.607 363.836 206.274 366.078 215.068 379.492C216.586 381.807 217.634 384.355 218.375 387.304L218.494 387.794L218.614 388.31C218.997 390.015 219.248 391.619 219.589 394.347L219.967 397.442L220.075 398.286C220.441 401.087 220.762 402.857 221.263 404.661L221.362 405.011L221.941 407.009L219.757 407.818C215.574 409.333 214.698 409.469 212.284 408.203C210.399 407.215 209.415 405.884 208.105 403.188L207.916 402.793L207.498 401.914L207.271 401.45C206.418 399.742 205.735 397.92 204.769 397.258C203.458 396.359 199.326 396.002 196.452 396.356L196.302 396.375L196.178 396.401L195.965 396.449C191.132 397.595 186.727 401.508 183.821 405.643C181.482 408.972 180.138 413.166 179.973 417.525L179.963 417.815L179.906 420.04L175.221 419.94L175.267 419.074L175.197 419.228C173.721 422.349 170.012 424.427 166.91 422.361L166.799 422.286L166.687 422.205C164.067 420.271 163.752 416.357 165.902 413.979L166.001 413.872L166.098 413.774L166.078 413.765L166.056 413.757L166.042 413.756C165.31 413.891 164.666 414.267 163.796 415.069L163.572 415.279L163.123 415.767L162.658 416.265L162.458 416.471C162.33 416.6 162.213 416.714 162.103 416.814C161.954 416.95 161.816 417.064 161.667 417.168C161.528 417.264 161.385 417.348 161.212 417.424C160.785 417.61 160.329 417.698 159.745 417.554C158.944 417.357 158.493 416.871 158.22 416.299C158.114 416.077 158.053 415.872 158.01 415.657C157.965 415.431 157.943 415.201 157.931 414.936C157.924 414.762 157.921 414.572 157.922 414.365L157.928 414.041L157.939 413.689L157.951 413.408L158.004 412.365C158.193 408.942 159.09 405.58 160.626 402.406L160.782 402.09L160.84 401.975L160.679 402.191C159.632 403.575 158.621 404.535 157.358 405.168L157.185 405.253L157.015 405.33C155.263 406.102 153.499 405.802 152.434 404.372C151.697 403.382 151.479 402.079 151.63 400.709C151.923 398.05 152.972 395.616 155.024 392.064L155.312 391.57L156.439 389.653C160.781 382.324 166.362 376.404 172.969 372.496Z" fill="#E8E1E1"/>
<path fill-rule="evenodd" clip-rule="evenodd" d="M260.422 288.833C268.447 288.265 276.619 289.622 284.262 292.049C296.451 295.919 307.645 302.748 316.842 311.638C326.32 320.801 333.331 332.097 337.593 344.574C342.733 359.621 343.503 375.687 344.95 391.395C345.68 399.33 346.885 407.145 348.137 415.004L348.335 416.246C349.558 423.903 350.246 431.647 348.557 439.292C345.747 451.998 337.327 462.784 327.331 470.754C306.797 487.126 274.831 497.107 250.923 482.042C247.225 479.711 250.73 473.75 254.34 476.179C256.882 477.889 259.574 479.388 262.461 480.423C274.523 484.746 287.771 483.206 299.693 479.185C311.441 475.222 322.714 468.525 331.383 459.589C340.489 450.204 345.535 438.61 344.806 425.418C344.371 417.57 342.588 409.866 341.599 402.081C340.722 395.186 340.196 388.253 339.591 381.33L339.369 378.84C338.084 364.735 336.24 350.244 329.841 337.44C324.459 326.669 316.578 317.087 307.101 309.686C297.18 301.938 285.33 296.519 272.897 294.498C258.275 292.122 244.279 296.443 232.083 304.489C221.265 311.624 211.966 321.158 204.835 331.977C201.377 337.223 198.431 342.825 195.887 348.57C193.49 353.983 191.837 359.656 189.909 365.235C191.495 365.188 193.108 365.249 194.746 365.431C203.145 366.364 210.971 370.73 215.953 377.614C222.041 386.026 220.396 396.352 222.774 405.919C222.958 406.662 222.645 407.389 222.011 407.8C218.405 410.137 213.58 410.215 210.09 407.583C207.061 405.299 205.639 401.169 206.865 397.561C207.025 397.091 207.708 397.174 207.727 397.678C207.958 403.819 213.638 408.547 219.206 405.625C216.817 397.376 218.074 388.162 213.19 380.711C204.544 367.523 186.652 366.978 174.085 374.412C167.471 378.324 162.236 384.207 158.338 390.786L157.215 392.696C155.721 395.248 154.139 398.135 153.829 400.946C153.65 402.568 154.247 404.092 156.102 403.275C157.603 402.614 158.765 401.072 159.656 399.746C161.177 397.486 164.671 399.439 163.415 401.846L163.372 401.925C161.544 405.172 160.419 408.751 160.213 412.48L160.16 413.512C160.126 414.265 160.101 415.335 160.26 415.374C160.45 415.421 161.772 413.889 161.993 413.677C163.053 412.655 164.146 411.82 165.623 411.548C167.564 411.191 169.523 413.6 167.837 415.179L167.767 415.243C166.263 416.554 166.33 419.169 167.991 420.395C170.336 422.126 173.222 419.301 173.563 416.975L173.574 416.89C173.875 414.377 177.355 414.288 177.544 416.89C177.954 422.536 171.252 427.268 166.152 424.42C164.136 423.294 162.854 421.233 162.452 419.023C161.808 419.364 161.114 419.601 160.38 419.666C157.99 419.879 156.291 418.193 155.904 415.931C155.454 413.296 155.721 410.474 156.413 407.737C155.115 408.051 153.75 407.931 152.378 407.137C148.225 404.734 149.418 399.389 150.986 395.78C157.678 380.377 171.544 366.401 188.723 365.291C188.817 362.574 189.184 360.005 189.785 357.283C195.661 330.666 214.696 306.019 239.476 294.5C246.098 291.421 253.121 289.35 260.422 288.833ZM195.436 395.159L195.671 395.105C198.349 394.527 205.394 393.847 204.545 398.366C204.505 398.578 204.197 398.552 204.142 398.366C203.31 395.525 197.66 397.797 196.011 398.481C193.736 399.423 191.493 400.813 189.636 402.429C185.57 405.968 182.845 410.956 182.431 416.372C182.02 421.745 183.574 427.549 187.439 431.436C189.333 433.341 191.751 434.634 194.467 434.729C196.908 434.814 199.604 432.909 201.856 434.025C202.3 434.245 202.652 434.848 202.611 435.346C202.536 436.287 202.116 437.019 201.491 437.588C205.261 444.478 208.346 451.771 213.155 458.037C215.569 461.181 218.303 464.092 221.4 466.57C222.872 467.748 224.472 468.782 226.122 469.691C228.056 470.757 229.729 471.424 231.109 473.23C232.286 474.77 231.108 477.748 229.169 478.014C224.6 478.638 220.161 474.934 216.807 472.159C213.456 469.386 210.56 465.966 208.167 462.337C203.572 455.369 200.428 447.149 199.171 438.832C197.711 439.296 196.068 439.438 194.832 439.441C191.544 439.448 188.404 438.262 185.819 436.257C176.358 428.917 175.306 413.849 181.983 404.346C185.178 399.799 190.033 396.439 195.436 395.159ZM195.495 412.636C197.689 412.443 199.881 412.79 201.943 413.54L202.793 413.849C204.589 414.508 206.5 415.282 207.797 416.632C209.778 418.696 207.806 422.271 204.983 421.48C201.863 420.606 199.326 417.97 196.207 416.864C193.418 415.876 190.26 416.016 187.785 417.718C187.458 417.943 187.028 417.499 187.242 417.173C189.135 414.282 192.124 412.932 195.495 412.636Z" fill="black"/>
<path fill-rule="evenodd" clip-rule="evenodd" d="M304.043 445.778C304.729 444.586 306.306 443.481 307.75 443.65C314.217 444.409 314.206 452.257 311.709 456.838C309.495 460.901 304.912 463.285 300.326 462.937C295.507 462.571 291.402 459.736 289.595 455.225C288.4 452.24 287.848 446.731 291.027 444.726C291.086 444.689 291.183 444.698 291.23 444.752C292.754 446.527 292.814 449.191 294.148 451.166C295.389 453.004 297.317 454.521 299.575 454.755C301.262 454.93 302.968 454.322 303.628 452.806C303.985 451.986 303.944 451.541 303.81 450.977L303.688 450.487C303.266 448.769 303.076 447.462 304.043 445.778ZM305.772 411.362C309.145 413.414 314.285 418.198 310.656 423.286C306.385 427.771 300.235 422.628 297.205 420.302C294.395 418.5 291.238 423.136 293.845 425.241C315.743 441.467 324.629 411.898 307.478 408.949C305.59 408.624 304.888 410.727 305.772 411.362ZM270.153 397.291C272.223 394.182 276.949 394.64 278.089 398.329C278.707 400.327 277.854 402.123 277.898 404.119C277.935 405.805 277.825 407.683 277.308 409.316C276.131 413.039 272.785 415.669 268.827 415.56C264.882 415.451 261.408 412.952 259.755 409.432C258.097 405.899 258.448 402.243 259.659 398.65C259.717 398.478 259.943 398.394 260.079 398.539C261.51 400.061 262.557 401.668 263.641 403.372L264.752 405.119C265.601 406.434 266.835 408.114 268.42 408.009L268.657 407.985C269.098 407.947 269.03 408.035 269.37 407.434C269.527 407.156 269.499 406.639 269.575 406.311L269.601 406.2L269.587 406.14C269.553 405.981 269.52 405.682 269.493 405.162L269.487 405.048C269.372 402.617 268.686 399.493 270.153 397.291ZM322.634 399.36C322.263 395.384 327.848 394.501 329.705 397.443C330.673 398.978 330.955 400.905 331.169 402.731L331.27 403.598C331.489 405.473 331.576 407.424 330.763 409.173C329.482 411.928 326.696 413.385 323.691 413.154C320.821 412.933 318.202 411.268 316.822 408.74C315.592 406.484 314.368 402.08 315.863 399.727C315.953 399.584 316.133 399.566 316.257 399.676C317.669 400.931 317.9 403.22 318.739 404.855C319.605 406.541 320.919 408.184 322.91 408.44C324.815 408.685 325.542 407.644 325.056 405.827C324.43 403.481 322.87 401.885 322.634 399.36ZM271.661 373.652L272.575 373.302C275.704 372.119 280.001 370.751 282.545 373.298C284.115 374.868 284.414 377.182 283.293 379.098C281.936 381.42 279.501 381.477 277.15 381.819C274.475 382.208 271.756 382.948 269.266 384.002C266.461 385.19 263.858 386.67 261.308 388.324C258.884 389.895 256.469 392.464 253.568 392.948C253.45 392.967 253.315 392.916 253.284 392.786C252.626 389.948 254.457 387.154 256.09 384.939C258.067 382.258 260.463 380.057 263.14 378.084C265.724 376.179 268.677 374.802 271.661 373.652ZM328.509 383.745L328.788 383.696C330.686 383.38 332.406 383.453 333.836 384.957C334.927 386.104 335.348 387.592 334.828 389.109C334.348 390.509 333.274 391.931 331.715 392.224C326.454 393.215 320.626 393.051 315.338 392.301C312.919 391.958 310.478 391.538 308.121 390.875L307.037 390.56C305.07 389.998 302.818 389.41 301.389 387.962C300.875 387.442 301.171 386.697 301.786 386.456C304.279 385.479 307.697 385.999 310.356 385.923C313.448 385.834 316.546 385.602 319.624 385.282C322.632 384.969 325.543 384.289 328.509 383.745Z" fill="black"/>
<path fill-rule="evenodd" clip-rule="evenodd" d="M357.641 377.325C357.273 377.263 356.905 377.206 356.537 377.152C356.25 376.989 355.913 376.863 355.52 376.787C354.625 376.56 353.735 376.406 352.847 376.324C340.103 373.453 310.619 377.529 309.402 388.414C305.343 389.77 301.832 388.556 297.128 388.676C293.547 373.698 231.645 375.812 228.668 384.842C228.657 384.839 228.645 384.837 228.634 384.833C225.773 383.947 221.556 384.161 218.282 384.02C211.291 383.874 204.292 384.497 197.452 385.973C184.643 388.01 167.163 390.395 176.071 406.403C176.072 406.406 176.074 406.409 176.076 406.412L176.077 406.41C177.613 407.985 180.218 406.717 180.315 404.585C177.32 397.001 184.085 396.091 189.289 393.911C202.24 389.255 215.425 388.609 228.819 390.05C229.827 391.237 231.356 392.272 232.972 392.814C241.927 394.302 237.208 400.951 242.869 401.918C241.829 425.094 269.943 437.744 286.233 422.509C292.737 416.145 294.288 406.717 295.796 398.219C296.593 398.04 297.1 397.604 297.396 397.026C299.314 395.11 300.518 393.34 304.31 392.814C308.102 392.288 311.021 393.344 311.416 393.667C311.516 393.868 311.622 394.069 311.747 394.27C311.92 394.57 312.156 394.809 312.424 394.998C308.679 418.076 326.581 432.672 344.653 420.702C352.506 413.309 354.165 401.99 354.493 391.888C355.557 391.245 356.231 389.999 355.863 388.433C355.355 386.273 356.546 384.404 358.443 383.465C360.907 382.246 360.471 377.794 357.641 377.325ZM279.987 388.274C277.743 387.78 276.785 391.241 279.036 391.736C280.629 392.087 281.98 392.891 282.892 394.254L282.988 394.402C284.213 396.352 287.309 394.552 286.076 392.589C284.689 390.381 282.533 388.834 279.987 388.274ZM345.687 386.127C344.896 385.57 343.699 385.984 343.24 386.772C342.735 387.639 343.066 388.605 343.807 389.172L343.882 389.228C344.562 389.707 345.223 390.566 345.306 391.446L345.314 391.556C345.403 393.86 348.979 393.871 348.89 391.556C348.803 389.292 347.493 387.4 345.687 386.127Z" fill="black"/>
<path d="M328.171 219.684C331.369 224.285 333.624 230.047 332.656 235.243C331.716 240.452 327.553 245.094 322.658 248.914C317.762 252.735 312.129 255.665 307.2 254.811C302.282 253.928 298.064 249.194 293.889 244.898C289.727 240.575 285.581 236.68 284.086 231.753C282.619 226.837 283.815 220.862 286.772 215.749C289.712 210.597 294.412 206.306 299.686 205.169C304.988 204.042 310.863 206.068 315.846 208.822C320.856 211.588 324.974 215.083 328.171 219.684Z" fill="#9FD8E5"/>
<path d="M336.115 135.944C341.098 143.136 344.606 152.146 343.086 160.278C341.609 168.427 335.103 175.699 327.455 181.684C319.807 187.67 311.01 192.265 303.318 190.937C295.645 189.566 289.069 182.166 282.562 175.455C276.072 168.699 269.609 162.614 267.285 154.908C265.005 147.22 266.883 137.869 271.507 129.865C276.105 121.799 283.45 115.079 291.683 113.289C299.96 111.517 309.126 114.675 316.897 118.975C324.712 123.293 331.133 128.753 336.115 135.944Z" fill="#9093D1"/>
<path d="M382.076 227.141C383.675 229.44 384.802 232.321 384.318 234.919C383.848 237.524 381.766 239.845 379.319 241.756C376.871 243.665 374.054 245.131 371.59 244.703C369.131 244.263 367.022 241.895 364.935 239.748C362.853 237.586 360.78 235.638 360.033 233.175C359.3 230.717 359.897 227.729 361.376 225.173C362.846 222.597 365.196 220.452 367.833 219.883C370.484 219.32 373.421 220.332 375.912 221.71C378.418 223.092 380.476 224.84 382.076 227.141Z" fill="#9093D1"/>
<path d="M413.34 120.492C415.918 124.2 417.736 128.844 416.955 133.033C416.197 137.231 412.842 140.973 408.895 144.053C404.95 147.132 400.409 149.494 396.437 148.805C392.472 148.094 389.073 144.277 385.707 140.815C382.352 137.331 379.011 134.191 377.806 130.22C376.623 126.258 377.588 121.441 379.97 117.32C382.341 113.167 386.13 109.709 390.38 108.792C394.653 107.884 399.389 109.517 403.405 111.737C407.444 113.966 410.763 116.783 413.34 120.492Z" fill="#9093D1"/>
<path d="M397.231 172.164C400.429 176.765 402.684 182.527 401.716 187.723C400.776 192.932 396.613 197.575 391.717 201.395C386.822 205.215 381.189 208.146 376.26 207.291C371.342 206.409 367.123 201.674 362.949 197.379C358.786 193.056 354.64 189.161 353.146 184.234C351.679 179.318 352.875 173.342 355.831 168.229C358.771 163.077 363.473 158.787 368.746 157.649C374.048 156.523 379.923 158.548 384.906 161.303C389.916 164.069 394.033 167.564 397.231 172.164Z" fill="#F7859C"/>
<path d="M479.765 220.821C484.748 228.012 488.256 237.023 486.736 245.155C485.259 253.303 478.753 260.575 471.105 266.561C463.457 272.546 454.66 277.141 446.968 275.813C439.295 274.442 432.719 267.043 426.212 260.331C419.723 253.576 413.259 247.49 410.935 239.784C408.656 232.097 410.533 222.745 415.157 214.741C419.755 206.675 427.1 199.955 435.333 198.165C443.61 196.394 452.777 199.552 460.548 203.851C468.363 208.169 474.783 213.629 479.765 220.821Z" fill="#FFDBB4"/>
<g clip-path="url(#clip0_1_34)">
<path d="M1261.18 231.212C1310.95 263.228 1356.28 310.462 1368.01 365.302C1380.06 420.144 1358.5 482.593 1326.49 539.97C1294.47 597.347 1251.67 649.018 1200.32 660.747C1148.97 672.159 1088.74 642.995 1030.72 617.952C972.713 592.592 916.604 571.353 882.051 529.192C847.815 487.031 835.135 423.63 843.06 361.498C850.668 299.05 878.881 237.869 925.48 205.218C972.396 172.567 1037.7 168.446 1097.29 175.103C1157.21 181.76 1211.41 199.195 1261.18 231.212Z" fill="#FFDBB4"/>
</g>
<path fill-rule="evenodd" clip-rule="evenodd" d="M1062.95 584.378C1069 555.681 1090.48 533.411 1119.37 522.318C1124.92 519.177 1130.3 505.699 1137.77 503.231C1138.96 502.835 1137.07 505.983 1137.77 506.171C1140.23 506.842 1143 506.912 1145.72 504.491C1150.59 500.161 1152.12 487.513 1155.08 481.796C1170.7 451.648 1209.69 463.444 1214.91 496.772C1218.55 499.147 1223.7 501.238 1227.66 503.152C1231.74 505.122 1235.34 509.894 1239.54 511.601C1243.3 513.123 1249.48 512.044 1253.26 513.371C1270.66 519.475 1285.4 527.177 1296.95 542.782C1299.38 546.073 1302.13 550.12 1304.34 553.445C1315.76 566.594 1323.69 581.332 1331 597.143C1351.44 643.553 1356.99 694.94 1361.98 744.945C1361.87 753.694 1367.67 777.955 1359.09 782.149C1359.6 782.681 1359.42 783.75 1358.46 783.741C1336.7 783.521 1314.98 785.47 1293.55 789.257C1283.21 791.086 1272.92 793.592 1262.39 794.005C1240.53 793.853 1218.74 790.189 1196.91 793.656C1170.66 793.656 1138.76 792.892 1109.56 791.769C1082.27 790.72 1054.83 793.089 1027.88 788.447C1025.75 788.11 1024.7 785.506 1025.15 783.642C1028.31 772.116 1029.87 760.255 1031.64 748.459C1031.29 740.892 1031.92 732.993 1034.72 725.946C1042.03 678.372 1051.4 631.108 1062.95 584.378Z" fill="#FFDBB4"/>
<path fill-rule="evenodd" clip-rule="evenodd" d="M1137.77 506.347C1137.07 506.158 1138.96 503.009 1137.77 503.405C1130.3 505.873 1124.92 519.352 1119.37 522.493C1090.48 533.586 1069 555.855 1062.95 584.553C1051.4 631.282 1042.03 678.546 1034.72 726.121C1031.92 733.169 1031.29 741.067 1031.64 748.633L1031.36 750.496C1029.7 761.677 1028.15 772.897 1025.15 783.816C1024.7 785.682 1025.75 788.284 1027.88 788.621C1054.53 793.211 1081.65 790.947 1108.63 791.908L1114.26 792.119C1142.15 793.145 1172.06 793.831 1196.91 793.831C1218.74 790.363 1240.53 794.028 1262.39 794.179C1272.92 793.766 1283.21 791.26 1293.55 789.432C1314.98 785.644 1336.7 783.696 1358.46 783.915C1359.42 783.924 1359.6 782.856 1359.09 782.323C1367.67 778.129 1361.87 753.869 1361.98 745.12L1361.53 740.615C1356.65 692.036 1350.82 642.336 1331 597.317L1330.4 596.037C1323.26 580.71 1315.45 566.413 1304.34 553.619L1303.66 552.602C1301.58 549.492 1299.14 545.919 1296.95 542.956C1285.4 527.352 1270.66 519.65 1253.26 513.546C1249.48 512.218 1243.3 513.297 1239.54 511.775C1235.61 510.179 1232.21 505.901 1228.45 503.742V519.845L1174 573.495L1143.12 526.13L1139.98 506.732C1139.22 506.685 1138.48 506.541 1137.77 506.347Z" fill="#8FA7DF"/>
<path fill-rule="evenodd" clip-rule="evenodd" d="M1071.76 646.912C1072.33 649.709 1073.14 652.506 1074.21 655.156C1075.25 657.713 1076.8 660.004 1077.88 662.531C1078.02 662.871 1078.26 663.128 1078.54 663.324L1078.45 664.012L1078.37 664.7C1077.83 669.338 1077.23 673.963 1076.71 678.6L1076.46 680.92C1075.43 690.603 1073.81 700.24 1072.56 709.897C1071.33 719.353 1070.08 728.81 1068.74 738.253C1067.35 747.989 1065.94 757.712 1064.3 767.408C1063.6 771.503 1062.88 775.595 1062.13 779.684L1061.54 782.813C1055.54 784.257 1053.9 792.627 1060.01 795.717C1062.78 797.113 1066.35 796.777 1068.64 794.583C1071.01 792.295 1071.11 788.171 1071.66 785.073L1072.19 782.194C1076.17 760.547 1079.62 738.652 1081.23 716.699C1081.65 711.031 1082 705.358 1082.22 699.68C1082.44 694.34 1082.33 689 1082.42 683.66L1082.44 682.203C1082.57 676.508 1082.47 670.822 1082.32 665.127C1082.3 664.433 1082.27 663.739 1082.24 663.041C1082.44 662.806 1082.58 662.526 1082.64 662.256L1082.72 661.898C1082.92 660.977 1082.69 659.899 1081.99 659.24C1081.68 655.361 1081.28 651.486 1081.17 647.61C1081.16 647.292 1080.7 647.301 1080.68 647.61C1080.42 650.909 1079.91 654.217 1079.39 657.521C1076.08 654.859 1073.63 650.468 1072.19 646.794C1072.08 646.528 1071.69 646.624 1071.76 646.912ZM1150.1 492.682C1149.56 495.196 1148.47 497.453 1147.01 499.551C1146.32 500.555 1145.53 501.489 1144.58 502.27C1143.77 502.938 1142.84 503.374 1141.98 503.955C1140.72 503.758 1139.41 504.234 1138.53 505.159L1138.67 503.806C1138.71 503.37 1137.99 503.283 1137.91 503.705C1134.09 522.96 1130.61 542.227 1127.59 561.621L1126.27 570.185L1125.03 578.225C1122.97 591.623 1120.97 605.015 1119.47 618.511C1117.47 636.522 1115.78 654.579 1114.55 672.663C1113.32 690.874 1112.56 709.098 1112.02 727.343C1111.88 731.944 1111.74 736.538 1111.6 741.138L1110.67 735.639C1109.74 730.139 1108.82 724.634 1108.04 719.109C1105.24 699.336 1102.99 679.423 1101.9 659.48C1100.9 641.23 1101.23 622.618 1105.87 604.839C1107.04 600.367 1108.47 595.963 1110.2 591.673C1111.88 587.501 1114.16 583.635 1115.97 579.525C1118.06 574.742 1118.69 570.229 1117.61 565.08C1116.67 560.594 1115.01 556.374 1114.72 551.757C1114.16 543.186 1116.95 534.885 1120.89 527.385C1121.93 525.408 1123.02 523.457 1124.17 521.524C1127.63 515.68 1131.53 510.05 1135.58 504.653C1135.79 504.365 1135.33 504.046 1135.1 504.282C1131.41 507.931 1127.37 511.518 1124.05 515.502C1122.44 517.439 1120.86 519.416 1119.37 521.446C1103 524.182 1088.93 534.379 1079.32 547.847C1068.4 563.129 1062.89 581.524 1058.8 599.637C1054.26 619.769 1050.43 640.083 1046.35 660.313C1042.13 681.248 1037.93 702.182 1033.68 723.11C1031.56 733.5 1029.45 743.891 1027.35 754.286C1026.28 759.549 1025.15 764.799 1023.98 770.044C1023.38 772.732 1022.73 775.417 1022.18 778.114C1021.55 781.155 1022.13 783.1 1024.19 785.335C1024.95 786.165 1026.15 786.151 1027.09 785.711L1027.39 785.572L1027.67 785.434C1028.84 784.861 1029.75 784.268 1030.48 782.991C1031.28 781.592 1031.4 780.038 1031.68 778.48C1032.18 775.612 1032.69 772.745 1033.19 769.874C1033.95 765.58 1034.77 761.298 1035.61 757.018L1039.81 735.624C1040.93 729.921 1042.05 724.217 1043.17 718.516C1047.2 698.127 1051.23 677.743 1055.26 657.359C1059.13 637.787 1062.56 618.08 1066.96 598.621L1067.22 597.525L1067.47 596.43C1071.41 579.654 1076.92 563.427 1086.9 549.213C1094.59 538.281 1105.27 528.519 1117.84 523.579C1116.96 524.854 1116.1 526.154 1115.29 527.481C1110.2 535.807 1106.48 545.691 1107.35 555.606C1107.78 560.45 1109.62 565.211 1109.44 570.095C1109.28 574.432 1106.6 578.242 1104.74 582.016C1100.53 590.57 1097.49 599.66 1095.52 608.985C1091.58 627.711 1091.6 646.978 1092.96 665.987C1094.43 686.65 1097.23 707.309 1100.42 727.771C1102.06 738.265 1104.23 748.674 1105.9 759.152C1106.72 764.318 1107.85 769.473 1108.83 774.614L1109.3 777.069C1109.56 778.433 1109.83 779.791 1110.14 781.135L1110.34 781.94V782.084C1110.35 783.075 1110.62 783.895 1111.05 784.55C1111.65 786.465 1112.39 788.334 1113.38 790.127C1113.88 791.043 1114.62 791.557 1115.42 791.746C1116.22 793.584 1118.04 794.997 1120.21 794.988L1148.78 794.879C1165.38 794.814 1181.98 794.705 1198.57 794.612C1202.76 794.591 1206.94 794.513 1211.13 794.403C1215.05 794.294 1218.81 793.823 1222.69 793.335C1227.07 792.785 1229.44 789.681 1228.79 785.305C1228.65 784.34 1228.49 783.381 1228.34 782.42C1229.21 782.709 1230.25 782.573 1230.95 781.888L1231.61 781.243C1232.53 780.34 1233.34 779.453 1233.92 778.248C1234.52 777.009 1235 775.7 1235.53 774.434C1236.67 771.711 1237.78 768.979 1238.86 766.234C1241.01 760.745 1243.17 755.233 1245.18 749.686C1249.16 738.702 1252.67 727.552 1255.73 716.276C1261.18 696.159 1265.13 675.653 1267.62 654.964L1268.21 650.033L1268.38 648.576C1269.33 640.557 1270.12 632.414 1269.75 624.411C1269.51 619.402 1268.74 614.353 1266.87 609.674C1265.14 605.359 1262.47 601.667 1259.94 597.809L1259.65 597.364L1259.36 596.908C1257.14 593.404 1255.37 589.741 1255.29 585.486C1255.2 581.168 1256.45 576.966 1257.86 572.923L1258.21 571.926L1258.45 571.265C1261.44 562.911 1264.84 554.674 1263.72 545.582C1262.06 532.194 1253.95 521.402 1243.74 513.08C1252.82 514.877 1261.8 518.43 1269.74 522.933C1279.1 528.257 1287.54 535.283 1294.81 543.212C1308.55 558.197 1318.37 576.177 1326.4 594.742C1334.8 614.17 1341.04 634.527 1345.74 655.152C1350.46 675.893 1353.63 696.966 1355.79 718.123C1356.86 728.652 1357.71 739.208 1358.41 749.769C1358.77 755.181 1359.04 760.601 1359.46 766.003C1359.88 771.401 1360.07 776.882 1361.38 782.137C1362 784.585 1366.15 784.834 1366.59 782.137C1367.58 776.114 1367.3 769.885 1367.03 763.786L1367 763.232C1366.73 757.158 1366.38 751.088 1365.96 745.018C1365.11 732.611 1363.96 720.221 1362.47 707.872C1357.24 664.52 1347.59 621.396 1328.67 581.824C1319.76 563.186 1308.33 545.076 1292.42 531.617C1284.85 525.216 1276.31 520.105 1267.11 516.405C1258.88 513.093 1250.52 511.526 1241.77 511.53C1237.39 508.17 1232.68 505.242 1227.98 502.742C1227.7 502.589 1227.4 502.956 1227.63 503.191C1227.76 503.308 1227.87 503.43 1228 503.545C1227.46 503.579 1226.91 503.828 1226.42 504.348C1224.69 506.159 1223.24 508.423 1221.93 510.775C1219.95 513.254 1218.05 515.816 1216.07 518.268C1212.9 522.195 1209.65 526.066 1206.37 529.906C1200.85 536.36 1195.15 542.692 1189.21 548.769L1188.22 549.78C1185.14 552.9 1182.02 556.635 1178.38 559.105L1178.18 559.234C1176.65 560.236 1175.56 560.419 1174.24 558.923C1173.05 557.561 1172.06 555.981 1171.04 554.48L1170.81 554.136C1165.6 546.573 1160.78 538.731 1156.41 530.658C1154.42 526.984 1152.53 523.256 1150.73 519.488L1150.19 518.355C1149.21 516.279 1148.15 514.24 1147.35 512.102C1147.16 511.601 1146.98 511.099 1146.8 510.601C1149.55 508.799 1151.67 504.898 1152.45 501.843C1153.25 498.67 1152.84 495.414 1151.41 492.512C1151.14 491.967 1150.24 492.102 1150.1 492.682ZM1285.7 621.605C1286.08 633.667 1286.31 645.742 1286.88 657.796L1287.07 661.91C1286.19 662.897 1285.67 664.036 1286.08 665.598C1286.25 666.197 1286.72 666.737 1287.31 666.939L1287.5 670.764C1288.34 687.978 1289.33 705.155 1291.13 722.325C1293.39 743.813 1296 765.265 1298.6 786.715C1298.97 789.752 1301.08 792.16 1304.37 791.716C1307.69 791.266 1309.04 788.372 1308.61 785.357C1306.89 773.527 1305.24 761.687 1303.8 749.817L1302.15 736.295C1300.09 719.39 1297.98 702.488 1295.55 685.637C1294.53 678.595 1293.47 671.555 1292.41 664.516L1292.79 664.036C1294.3 662.068 1295.87 660.143 1297.42 658.207C1300.39 654.47 1303.33 650.766 1306.05 646.855C1306.19 646.659 1305.91 646.371 1305.72 646.519C1301.9 649.343 1298.28 652.362 1294.64 655.431L1291.45 658.127C1289.62 645.965 1287.81 633.799 1286.19 621.605C1286.15 621.301 1285.69 621.278 1285.7 621.605ZM1230.72 506.171C1233.02 508.34 1235.37 510.462 1237.69 512.617L1238.54 513.411L1239.38 514.207C1243.46 518.07 1247.36 522.09 1250.61 526.709C1256.58 535.188 1260.13 545.525 1257.65 555.876C1255.59 564.451 1250.87 572.224 1249.6 581.013C1248.96 585.415 1249.27 589.841 1250.93 594C1252.62 598.242 1255.33 601.876 1257.76 605.704C1263.03 614.021 1263.75 623.151 1263.23 632.787C1262.68 642.849 1261.53 652.917 1260.1 662.889C1257.21 683.093 1252.86 703.089 1247.09 722.67C1244.21 732.476 1240.8 742.072 1237.41 751.707C1235.72 756.504 1233.75 761.186 1231.73 765.846C1230.66 768.299 1229.56 770.738 1228.45 773.172C1228.86 769.734 1228.86 766.204 1229.06 762.787C1229.35 757.89 1229.72 753.004 1230.05 748.111C1230.74 738.183 1231.35 728.247 1231.89 718.31C1233.83 682.875 1235.25 647.409 1235.14 611.918C1235.09 594.17 1234.73 576.422 1233.96 558.691C1233.61 550.342 1232.91 542 1232.29 533.661L1232.15 531.876C1231.6 524.391 1230.94 516.89 1229.8 509.471C1230.13 508.71 1230.43 507.94 1230.65 507.15L1230.72 506.853L1230.67 506.861C1230.72 506.629 1230.74 506.399 1230.72 506.171ZM1210.84 475.677C1210.79 475.472 1210.5 475.489 1210.44 475.677C1209.15 480.041 1209.61 484.84 1210.72 489.231C1211.32 491.609 1212.18 493.918 1213.21 496.144L1213.58 496.923C1214.46 498.817 1215.46 500.77 1217.18 501.952C1217.9 502.444 1219.19 502.475 1219.91 501.952L1220.28 501.673C1220.34 501.626 1220.4 501.577 1220.46 501.528C1221.13 500.965 1221.46 499.721 1221.15 498.901C1220.35 496.785 1218.54 495.231 1217.29 493.346C1216.18 491.67 1215.2 489.902 1214.38 488.065C1212.63 484.09 1211.84 479.871 1210.84 475.677Z" fill="black"/>
<path fill-rule="evenodd" clip-rule="evenodd" d="M1180.32 317.494C1155.6 317.494 1130.03 336.701 1120.97 348.957C1110.49 363.129 1102.23 431.161 1106.1 454.245C1109.98 477.33 1129.24 502.491 1162.68 502.491C1196.11 502.491 1216.46 498.363 1217.28 492.367C1217.82 488.37 1225.17 475.246 1239.33 452.996C1253.81 448.914 1261.08 441.997 1261.14 432.245C1261.19 422.494 1257.31 415.844 1249.5 412.296C1252.28 373.812 1250.17 349.561 1243.15 339.542C1232.62 324.513 1205.04 317.494 1180.32 317.494Z" fill="#FFDBB4"/>
<path fill-rule="evenodd" clip-rule="evenodd" d="M1196.99 280.22C1193.66 276.298 1187.8 280.005 1187.93 284.291C1186.61 284.651 1185.04 285.893 1184.44 287.513C1183.13 287.428 1181.81 287.688 1180.63 288.369L1180.38 288.06C1176.26 283.028 1170.82 278.71 1165.21 282.415C1163.68 283.424 1162.99 285.091 1163.33 286.897L1163.36 287.025L1163.23 286.467C1163.11 285.937 1163.3 286.998 1163.37 287.222L1163.38 287.248C1163.52 287.625 1163.67 287.816 1163.81 288.101C1158.06 284.007 1149.3 286.404 1153.92 294.328L1152.04 293.595C1145.55 291.081 1137.48 288.382 1131.57 292.902C1128.92 295.452 1131.86 298.852 1134.55 299.676L1134.09 299.598C1128.92 298.718 1118.13 296.543 1116.59 303.29C1116.03 305.717 1117.65 307.491 1119.69 308.468C1115.37 308.452 1111.12 309.165 1107.38 311.276C1103.83 313.806 1106.7 317.992 1110.42 317.81C1109.27 319.237 1108.88 321.652 1110 323.194C1107.89 323.75 1105.94 324.464 1104.14 325.577L1103.65 325.641C1100.06 326.09 1095.97 326.357 1094 329.888C1091.09 337.551 1101.43 337.246 1105.87 334.555C1105.61 334.984 1105.41 335.453 1105.31 335.953L1103.87 336.358C1098.44 337.871 1092.3 339.542 1088.8 344.121C1087.2 346.755 1089.43 351.233 1092.78 350.433C1083.7 354.765 1087.18 366.176 1096.06 360.24C1096.47 360.625 1096.98 360.911 1097.51 361.037L1095.63 362.055C1090.88 364.665 1085.16 368.238 1086.15 374.164C1087.09 377.3 1091.43 376.727 1093.64 375.527C1089.79 378.849 1086.15 382.446 1082.85 386.335L1081.93 387.425C1079.36 390.512 1074.89 396.194 1079.73 399.163C1085.7 402.208 1088.68 393.216 1092.15 390.007C1089.37 396.553 1098.4 401.119 1101.55 394.525C1102.08 394.618 1102.61 394.628 1103.13 394.557C1100.41 397.442 1093.07 417.185 1102.21 412.855C1103.66 411.313 1104.94 409.626 1106.11 407.856C1104.64 419.168 1103.57 430.533 1102.88 441.906L1102.63 446.028C1102.38 450.305 1102.19 454.599 1102.67 458.861C1103.22 463.823 1104.64 468.479 1106.8 472.974C1108.78 477.12 1111.34 480.96 1114.27 484.491C1115.84 486.38 1117.5 488.218 1119.55 489.6C1121.18 490.7 1123.08 491.425 1124.92 492.123C1127.9 495.107 1131.72 497.364 1135.46 499.166C1141.63 502.13 1148.31 503.766 1155.07 504.586C1161.99 505.42 1168.97 505.219 1175.83 504.028C1182.38 502.893 1189.4 499.991 1193.44 494.462C1193.79 493.986 1193.14 493.537 1192.71 493.733C1181 499.166 1167.84 500.584 1155.07 498.87C1149.12 498.071 1143.26 496.422 1137.82 493.86C1133.23 491.7 1129.36 488.558 1125.24 485.713C1124.44 484.643 1123.63 483.591 1122.71 482.614L1121.27 481.1C1120.19 479.962 1119.13 478.809 1118.17 477.565C1115.2 473.729 1112.74 469.378 1111.12 464.801C1107.96 455.89 1108.81 446.217 1109.37 436.931L1109.42 436.112C1109.99 426.18 1110.93 416.282 1112.23 406.42C1112.77 402.316 1113.37 398.218 1114.03 394.13C1115.08 392.412 1116.2 390.75 1117.46 389.193C1116.44 393.184 1119.99 398.734 1124.34 396.1C1129.32 391.83 1129.08 384.938 1133.26 379.71C1137.59 373.007 1167.46 359.971 1176.34 358.141C1174.91 360.227 1172.29 361.68 1171.68 364.142C1160.76 373.815 1178.56 378.964 1184.12 365.179C1184 369.768 1183.54 374.318 1182.52 378.797C1181.03 382.911 1179.87 394.831 1187.31 391.234C1190.87 392.265 1193.58 389.224 1194.03 385.795C1196.6 393.545 1194.17 405.929 1198.89 411.641C1200.33 413.143 1202.57 412.143 1203.32 410.427C1207.68 409.282 1207.31 404.185 1207.84 400.537C1211.82 415.078 1216.8 425.172 1217.48 440.34C1214.4 444.733 1221.15 447.963 1224.05 444.443C1228.12 438.554 1224.37 430.502 1223.41 424.054C1224.56 423.995 1225.69 423.486 1226.63 422.374C1227.15 424.397 1226.85 427.062 1226.68 429.258C1229.26 439.364 1239.06 432.891 1238.66 424.692C1239.08 427.006 1239.4 429.342 1239.61 431.695C1237.71 433.879 1236.31 436.493 1235.48 439.267C1234.88 441.272 1236.91 442.474 1238.47 442.183C1239.29 445.007 1242.87 447.044 1245.23 444.345C1247.56 441.985 1247.96 438.575 1248.15 435.18C1248.47 434.834 1248.67 434.382 1248.63 433.834C1248.61 433.319 1248.48 432.884 1248.28 432.516C1248.32 431.822 1248.37 431.141 1248.44 430.483C1250.25 436.101 1249.07 441.989 1248.92 447.744C1245.73 449.54 1242.1 450.308 1238.45 451.066L1237.92 451.176C1236.79 451.412 1236.44 453.096 1237.28 453.803C1235.02 456.02 1233.07 458.665 1231.17 461.104C1228.65 464.341 1226.23 467.705 1223.88 471.076L1222.5 473.057C1218.47 478.81 1212.9 486.603 1215.39 493.689C1215.73 494.662 1217.15 495.012 1217.71 493.99C1219.52 490.63 1220.54 486.929 1222.26 483.53C1223.95 480.196 1226.06 477.106 1228.15 474.017L1229.36 472.227C1231.36 469.236 1233.35 466.214 1235.19 463.134L1236.48 461C1237.68 458.987 1238.88 456.906 1239.77 454.741C1242.93 455.507 1246.24 454.958 1249.28 453.635L1249.32 453.846L1249.39 454.227C1249.83 456.056 1252.35 457.306 1253.95 456.109C1257.8 453.2 1259.37 448.871 1259.78 444.241C1260.56 442.933 1261.21 441.553 1261.75 440.123C1262 442.974 1263.1 445.738 1266.48 445.653C1272.35 445.17 1272.93 439.615 1271.34 434.09C1278.29 436.217 1279.1 426.369 1276.91 421.179C1277.72 420.936 1278.48 420.45 1278.91 419.795L1279.27 420.428C1280.6 422.745 1282.12 424.994 1284.23 426.197C1287.17 427.877 1291.46 425.796 1291.26 422.096C1290.63 416.068 1285.36 411.475 1282.15 406.644C1282.72 406.725 1283.31 406.704 1283.9 406.596C1290.31 410.183 1293.37 401.74 1291.11 396.848C1289.46 392.454 1286.46 388.675 1283.25 385.343L1284.19 385.907C1285.89 386.911 1287.78 387.879 1289.65 387.485C1301.87 395.535 1305.89 381.997 1292.17 377.766L1292.18 377.703C1293.55 376.372 1294.15 374.266 1293.08 372.163C1298.11 373.934 1305.29 369.927 1300.86 364.45C1297.97 361.721 1294.55 359.372 1290.77 358.144C1290.96 357.139 1291.02 356.116 1290.94 355.087L1291.17 355.118C1293.56 355.462 1296.5 356.44 1297.97 353.862C1298.72 352.564 1298.63 350.426 1297.41 349.416C1293.19 345.942 1288.38 343.052 1283.16 341.88C1282.96 341.243 1282.77 340.609 1282.55 339.978C1287.01 339.895 1292.02 333.961 1286.9 330.599C1282.39 328.3 1277.76 326.822 1272.67 326.959C1275.65 324.014 1273.9 318.676 1269.93 317.855C1272.53 312.317 1266.12 309.46 1261.34 310.333C1261.51 307.873 1260.2 305.131 1257.67 304.513C1259 296.727 1250.77 297.464 1245.62 299.309C1247.34 296.308 1245.57 292.776 1242.53 291.724C1237.54 290.593 1232.77 295.353 1228.97 298.272C1230.27 295.226 1229.18 292.419 1226.09 291.205C1222.92 289.96 1219.5 292.367 1216.85 294.003C1215.4 292.189 1212.94 291.598 1210.74 291.71C1210.5 291.029 1210.16 290.46 1209.71 290.011C1209.72 285.814 1202.6 283.507 1200.11 287.416C1199.68 284.698 1198.57 282.082 1196.99 280.22ZM1107.8 356.342L1107.72 356.794C1107.61 356.887 1107.51 356.986 1107.41 357.081C1107.09 357.157 1106.79 357.236 1106.5 357.318C1106.92 356.974 1107.36 356.655 1107.8 356.342ZM1102.3 345.328L1102.39 345.462C1102.41 345.484 1102.43 345.506 1102.45 345.527C1102.18 345.629 1101.91 345.733 1101.64 345.841L1101.24 346.005L1101.1 346.067C1101.5 345.817 1101.9 345.57 1102.3 345.328ZM1166.47 289.881L1166.71 289.941C1166.79 289.959 1166.86 289.977 1166.93 289.993C1166.95 289.999 1166.97 290.002 1167 290.011L1166.93 289.997C1167.05 290.084 1167.2 290.186 1167.32 290.268C1167.2 290.258 1167.08 290.246 1166.96 290.239C1166.79 290.119 1166.63 290 1166.47 289.881Z" fill="black"/>
<path fill-rule="evenodd" clip-rule="evenodd" d="M1143.49 462.417C1142.82 461.252 1141.28 460.174 1139.87 460.34C1133.55 461.08 1133.57 468.741 1136 473.213C1138.17 477.179 1142.64 479.506 1147.12 479.166C1151.83 478.809 1155.84 476.042 1157.6 471.638C1158.77 468.725 1159.31 463.348 1156.21 461.39C1156.15 461.353 1156.05 461.363 1156.01 461.415C1154.52 463.147 1154.46 465.748 1153.16 467.676C1151.94 469.47 1150.06 470.951 1147.86 471.179C1146.21 471.35 1144.54 470.756 1143.9 469.277C1143.55 468.477 1143.59 468.042 1143.72 467.491L1143.84 467.013C1144.25 465.336 1144.44 464.061 1143.49 462.417ZM1141.8 428.821C1138.51 430.824 1133.49 435.494 1137.03 440.461C1141.2 444.839 1147.21 439.819 1150.17 437.548C1152.92 435.788 1156 440.314 1153.45 442.369C1132.06 458.208 1123.39 429.345 1140.14 426.466C1141.98 426.148 1142.67 428.201 1141.8 428.821ZM1176.59 415.085C1174.57 412.051 1169.96 412.498 1168.84 416.099C1168.24 418.05 1169.07 419.803 1169.03 421.752C1168.99 423.397 1169.1 425.231 1169.6 426.824C1170.75 430.459 1174.02 433.025 1177.89 432.919C1181.74 432.813 1185.14 430.374 1186.75 426.938C1188.37 423.489 1188.03 419.92 1186.84 416.413C1186.79 416.244 1186.57 416.162 1186.43 416.304C1185.04 417.791 1184.01 419.358 1182.95 421.022L1181.87 422.727C1181.04 424.011 1179.84 425.65 1178.29 425.548L1178.05 425.526C1177.62 425.488 1177.69 425.574 1177.36 424.987C1177.21 424.715 1177.23 424.211 1177.16 423.891L1177.13 423.783L1177.15 423.724C1177.18 423.569 1177.21 423.277 1177.24 422.77L1177.24 422.657C1177.36 420.285 1178.03 417.236 1176.59 415.085ZM1125.33 417.106C1125.7 413.225 1120.24 412.363 1118.43 415.234C1117.48 416.732 1117.21 418.614 1117 420.396L1116.9 421.242C1116.68 423.073 1116.6 424.978 1117.39 426.685C1118.64 429.374 1121.37 430.796 1124.3 430.571C1127.1 430.356 1129.66 428.73 1131.01 426.261C1132.21 424.06 1133.41 419.76 1131.95 417.464C1131.86 417.324 1131.68 417.307 1131.56 417.414C1130.18 418.639 1129.96 420.873 1129.14 422.47C1128.29 424.116 1127.01 425.72 1125.06 425.97C1123.2 426.209 1122.49 425.193 1122.97 423.419C1123.58 421.128 1125.1 419.57 1125.33 417.106ZM1175.12 392.011L1174.23 391.669C1171.17 390.514 1166.98 389.179 1164.49 391.665C1162.96 393.198 1162.66 395.456 1163.76 397.327C1165.09 399.593 1167.46 399.649 1169.76 399.983C1172.37 400.363 1175.03 401.085 1177.46 402.114C1180.2 403.273 1182.74 404.718 1185.23 406.333C1187.6 407.867 1189.96 410.374 1192.79 410.846C1192.91 410.865 1193.04 410.816 1193.07 410.689C1193.71 407.917 1191.93 405.191 1190.33 403.028C1188.4 400.411 1186.06 398.263 1183.44 396.337C1180.92 394.478 1178.04 393.134 1175.12 392.011ZM1119.6 401.863L1119.32 401.815C1117.47 401.506 1115.79 401.577 1114.39 403.046C1113.33 404.166 1112.92 405.618 1113.42 407.099C1113.89 408.465 1114.94 409.854 1116.46 410.14C1121.6 411.108 1127.29 410.947 1132.46 410.215C1134.82 409.88 1137.21 409.47 1139.51 408.823L1140.57 408.516C1142.49 407.967 1144.69 407.393 1146.08 405.98C1146.59 405.472 1146.3 404.745 1145.7 404.51C1143.26 403.555 1139.92 404.063 1137.33 403.989C1134.31 403.902 1131.28 403.676 1128.27 403.364C1125.34 403.059 1122.49 402.394 1119.6 401.863Z" fill="black"/>
<path fill-rule="evenodd" clip-rule="evenodd" d="M1102.76 431.479C1108.05 436.954 1116.9 438.524 1123.94 435.588C1142.04 428.026 1133.18 404.439 1119.23 398.105C1117.48 397.67 1115.15 396.639 1113.03 396.405C1112.84 396.311 1112.42 396.584 1111.92 396.325C1096.53 398.044 1093.02 421.937 1102.76 431.479ZM1161.12 432.88C1167.06 440.761 1178.11 443.194 1187.13 439.529C1204.96 432.507 1198.64 411.592 1186.44 403.392C1160.67 393.707 1150.03 418.348 1161.12 432.88ZM1199.77 415.417C1199.79 415.409 1199.8 415.404 1199.82 415.397C1199.73 415.355 1199.63 415.314 1199.54 415.272C1199.57 415.352 1199.6 415.431 1199.63 415.51C1199.68 415.479 1199.72 415.441 1199.77 415.417ZM1090.49 406.897C1091.95 406.9 1094.05 407.139 1095.25 408.148C1098.22 398.132 1109.18 388.861 1118.71 395.621C1126.22 398.035 1131.79 403.391 1134.96 410.51C1140.66 407.114 1149.64 408.564 1154.59 413.055C1157.83 402.342 1165.81 398.59 1175.3 398.035C1185.67 396.338 1196 406.406 1199.22 414.483C1201.9 414.177 1205.91 413.325 1208.43 414.979C1224.79 410.687 1253.4 408.32 1256.73 410.704C1259.1 411.615 1260.4 417.212 1257.09 417.513C1254.2 417.104 1257.43 413.413 1254.52 413.01C1239.02 412.049 1223.97 415.171 1208.64 416.48C1207.27 418.323 1202.85 418.939 1200.49 418.199C1204.2 431.9 1196.18 441.221 1184.16 444.014C1165.54 448.29 1149.35 431.634 1154.22 414.309C1148.58 411.503 1142.09 411.624 1135.95 413.102C1146.21 450.889 1085.37 449.193 1094.87 409.444C1088.55 412.59 1087.17 407.532 1090.49 406.897Z" fill="black"/>
<path d="M1023.54 628.957C1023.37 626.306 1023.87 623.413 1025.53 621.538C1027.19 619.651 1030.01 618.781 1032.93 618.425C1035.84 618.069 1038.84 618.255 1040.63 619.808C1042.4 621.368 1042.95 624.323 1043.59 627.088C1044.22 629.863 1044.94 632.459 1044.34 634.827C1043.73 637.183 1041.79 639.319 1039.34 640.674C1036.89 642.05 1033.93 642.645 1031.52 641.817C1029.1 640.979 1027.21 638.72 1025.87 636.384C1024.52 634.035 1023.71 631.608 1023.54 628.957Z" fill="#9093D1"/>
<path d="M907.269 666.503C906.933 661.201 907.928 655.415 911.255 651.665C914.567 647.891 920.211 646.152 926.045 645.44C931.879 644.728 937.874 645.099 941.447 648.204C944.997 651.325 946.095 657.235 947.372 662.767C948.627 668.314 950.077 673.507 948.875 678.243C947.656 682.956 943.762 687.227 938.865 689.939C933.962 692.689 928.055 693.878 923.228 692.225C918.384 690.549 914.618 686.031 911.932 681.357C909.23 676.66 907.606 671.806 907.269 666.503Z" fill="#F7859C"/>
<path d="M974.002 732.356C973.665 727.053 974.66 721.268 977.988 717.517C981.299 713.744 986.943 712.005 992.778 711.293C998.611 710.581 1004.61 710.952 1008.18 714.056C1011.73 717.176 1012.83 723.087 1014.1 728.618C1015.36 734.167 1016.81 739.36 1015.61 744.096C1014.39 748.807 1010.49 753.08 1005.6 755.79C1000.69 758.541 994.788 759.73 989.961 758.077C985.116 756.401 981.35 751.883 978.665 747.209C975.962 742.511 974.339 737.658 974.002 732.356Z" fill="#F7859C"/>
<path d="M941.345 586.342C940.831 578.061 942.401 569.023 947.613 563.157C952.799 557.255 961.627 554.525 970.75 553.398C979.873 552.272 989.246 552.837 994.823 557.676C1000.36 562.542 1002.07 571.77 1004.05 580.406C1006 589.068 1008.25 597.174 1006.36 604.573C1004.44 611.936 998.345 618.619 990.682 622.864C983.01 627.172 973.773 629.045 966.23 626.475C958.661 623.869 952.785 616.822 948.598 609.529C944.384 602.199 941.858 594.623 941.345 586.342Z" fill="#9FD8E5"/>
<path d="M971.141 666.504C970.804 661.202 971.799 655.416 975.127 651.665C978.438 647.892 984.083 646.153 989.917 645.441C995.75 644.729 1001.75 645.1 1005.32 648.204C1008.87 651.326 1009.97 657.236 1011.24 662.768C1012.5 668.315 1013.95 673.508 1012.75 678.244C1011.53 682.956 1007.63 687.228 1002.74 689.939C997.833 692.689 991.927 693.878 987.1 692.225C982.255 690.549 978.489 686.031 975.804 681.357C973.101 676.661 971.478 671.807 971.141 666.504Z" fill="#FFDBB4"/>
<defs>
<clipPath id="clip0_1_34">
<rect width="634" height="634" fill="white" transform="translate(786 93)"/>
</clipPath>
</defs>
</svg>
