<svg width="619" height="505" viewBox="0 0 619 505" fill="none" xmlns="http://www.w3.org/2000/svg">
<g clip-path="url(#clip0_1_450)">
<path d="M285.925 315.102H400.451V442.023H285.925V315.102Z" fill="#FDEA6B"/>
<path fill-rule="evenodd" clip-rule="evenodd" d="M433.855 190.96C421.509 182.499 390.516 178.695 377.34 186.841C364.326 195.021 362.907 208.249 356.843 220.418C351.121 217.99 341.672 221.468 340.013 226.246C337.956 228.499 337.864 234.831 336.445 237.86C274.71 246.704 265.337 290.018 257.907 339.192C248.076 389.092 225.761 438.882 235.449 490.229C234.186 491.873 233.191 493.471 232.271 495.368C230.066 498.745 232.906 503.524 237.353 503.339C243.11 502.884 248.81 502.263 254.594 502.069C270.627 501.568 286.675 501.628 302.715 501.811L304.902 501.837C385.737 502.742 466.567 504.527 547.405 505C550.338 505.004 551.774 502.637 551.382 500.302C550.594 495.601 549.862 490.898 549.098 486.194C568.219 490.739 588.545 491.883 607.611 486.672C608.945 485.449 604.504 486.112 603.799 485.927C621.346 475.136 616.106 452.404 614.552 436.031C604.886 379.929 601.479 317.856 564.136 269.983C547.981 250.446 524.296 234.978 497.081 231.497L496.326 231.404C488.368 230.449 479.499 230.142 472.541 226.246C464.716 220.624 461.381 210.236 453.148 210.139C450.43 210.106 446.732 213.201 442.752 215.303C442.455 210.68 439.687 206.779 439.076 203.195L439.026 202.889C438.389 198.71 439.262 194.951 433.855 190.96ZM301.181 340.675C318.53 329.828 363.347 335.278 364.373 335.885C366.632 337.223 367.604 337.341 368.826 339.077C370.032 339.221 371.238 339.371 372.442 339.525C374.858 340.235 373.068 342.909 370.277 341.955C371.955 348.469 367.016 353.102 365.049 359.543C364.411 361.634 365.026 365.395 365.049 367.531C364.859 370.256 361.512 373.473 362.07 376.207C364.053 385.923 374.814 395.402 370.277 404.825C367.271 410.147 358.231 412.861 352.221 414.67C339.769 418.971 318.072 414.508 310.836 404.825C306.977 399.66 302.506 386.631 300.205 382.59L299.695 376.18C298.438 360.244 297.319 343.089 301.181 340.675Z" fill="#D08B5B"/>
<path fill-rule="evenodd" clip-rule="evenodd" d="M453.79 210.168L448.825 212.91L419.99 225.738C414.399 227.147 411.604 228.835 411.604 230.803V250.839C411.604 253.521 406.358 259.598 395.866 269.07L386.173 260.374L386.39 259.236C387.313 254.33 387.774 251.048 387.774 249.39C387.774 247.608 378.291 240.841 359.325 229.089L351.027 222.059L351.912 219.638C346.796 219.855 341.248 222.691 340.013 226.246C337.956 228.5 337.864 234.831 336.445 237.861C274.71 246.704 265.337 290.019 257.907 339.193C248.076 389.092 225.761 438.883 235.449 490.23C234.186 491.873 233.191 493.471 232.271 495.369C230.066 498.745 232.906 503.525 237.353 503.34C243.11 502.884 248.81 502.263 254.594 502.069C270.627 501.568 286.675 501.628 302.715 501.811L304.902 501.837C385.737 502.743 466.567 504.527 547.405 505.001C550.338 505.004 551.774 502.637 551.382 500.302C550.594 495.601 549.862 490.898 549.098 486.195C568.219 490.74 588.545 491.883 607.611 486.673C608.945 485.45 604.504 486.113 603.799 485.927C621.346 475.136 616.106 452.405 614.552 436.032C604.886 379.93 601.479 317.856 564.136 269.983C547.981 250.446 524.296 234.978 497.081 231.498L496.326 231.405L495.565 231.316C487.807 230.427 479.278 230.019 472.541 226.246C464.922 220.773 461.56 210.781 453.79 210.168ZM384.696 327.775C387.524 327.775 393.317 331.727 402.073 339.633L402.844 339.954C413.429 344.378 420.441 348.216 423.881 351.468L424.003 351.585C427.478 354.94 434.359 363.86 444.646 378.347L459.542 386.275H465.179L469.192 412.471L459.542 431.175L437.685 424.55L402.073 416.102L381.637 397.444L370.11 393.961C371.508 397.598 372.015 401.216 370.277 404.826C367.271 410.148 358.231 412.862 352.221 414.671C339.769 418.972 318.072 414.509 310.836 404.826C306.977 399.661 302.506 386.632 300.205 382.591L299.545 374.263C298.356 358.896 297.473 342.993 301.181 340.675C318.53 329.829 363.347 335.278 364.373 335.886C366.632 337.223 367.604 337.341 368.826 339.078L369.459 339.154L365.902 334.813L367.161 334.208C376.147 329.919 381.992 327.775 384.696 327.775ZM370.277 341.955C371.884 348.192 367.425 352.704 365.316 358.729L370.704 349.447L370.704 342.076C370.565 342.045 370.422 342.005 370.277 341.955Z" fill="#9DDADB"/>
<path fill-rule="evenodd" clip-rule="evenodd" d="M456.171 209.199C454.973 208.244 453.201 209.444 453.962 210.733C455.672 213.631 457.427 216.377 459.722 218.939C461.114 220.492 462.605 221.961 464.116 223.414C460.238 226.432 456.913 230.18 453.773 233.693C449.758 238.185 445.961 242.867 441.454 246.978C437.008 251.032 432.093 253.866 426.15 255.755L424.949 256.131C418.979 258.017 412.598 260.564 409.232 265.652C408.569 266.655 409.905 267.894 411.028 267.268C416.876 264.01 423.747 263.354 430.113 261.201C436.262 259.121 441.622 255.92 446.358 251.835C451.086 247.757 455.056 243.116 459.197 238.574C463.292 234.083 467.701 230.247 472.544 226.447C480.019 230.972 488.551 232.941 497.226 234.875L498.173 235.086C506.859 237.021 515.498 239.269 523.647 242.639C530.832 245.61 537.898 249.158 543.751 253.993C549.963 259.124 554.798 265.677 559.224 272.085C569.123 286.423 576.083 302.13 582.209 318.029C588.582 334.566 593.912 351.433 598.215 368.502C600.404 377.184 602.181 385.927 603.642 394.732C604.345 398.973 604.97 403.222 605.518 407.481C606.104 412.029 606.238 416.708 607.789 421.081C608.453 422.955 610.023 423.733 611.594 423.667L611.913 427.258C612.336 432.046 612.73 436.835 612.863 441.653C613.084 449.663 612.984 457.65 612.344 465.644L612.253 466.734C611.75 472.568 610.626 479.123 605.751 483.394C600.703 487.819 592.94 489.21 586.136 489.289C570.289 489.475 555.034 482.737 541.011 476.825C526.569 470.737 512.521 463.979 498.81 456.65C491.828 452.918 484.921 449.061 478.101 445.092C474.755 443.143 471.432 441.162 468.135 439.149C466.246 437.996 464.456 436.731 462.533 435.708C463.475 434.919 463.896 433.678 463.107 432.594C468.665 428.252 470.979 420.503 471.249 414.233C471.468 409.172 470.64 404.125 469.987 399.112C469.658 396.584 469.25 394.06 468.828 391.543C468.661 390.549 468.533 389.485 468.338 388.436C483.348 395.859 498.779 402.47 514.618 408.343C522.737 411.353 530.959 414.06 539.296 416.54L540.985 417.041C548.884 419.367 556.972 421.565 565.138 422.896C565.574 422.967 565.929 422.387 565.463 422.202C557.505 419.042 549.272 416.376 541.194 413.466L539.867 412.98C540.019 412.972 540.177 412.953 540.343 412.918C545.08 411.889 549.78 410.303 554.426 408.968C558.738 407.729 563.582 406.951 567.613 405.08C567.923 404.936 567.749 404.549 567.447 404.53C562.917 404.247 557.999 405.436 553.558 406.135L551.889 406.398C549.094 406.841 546.237 407.318 543.456 407.94C543.355 407.101 542.835 406.259 542.094 405.765C533.944 400.334 534.771 389.363 533.9 381.272L533.253 375.266C532.116 364.755 530.913 354.244 529.086 343.811C528.988 343.254 528.031 343.414 528.027 343.94C527.932 356.873 529.017 369.746 529.561 382.659L529.645 384.777C529.946 392.744 530.181 401.018 535.757 407.149C534.978 406.739 533.924 406.739 533.292 407.415C532.516 408.246 532.068 409.179 532.082 410.095C527.043 408.194 522.026 406.243 517.034 404.253C500.984 397.854 485.271 390.693 469.973 382.944C468.326 382.11 466.761 382.766 465.947 383.865L465.83 383.85C465.81 383.848 465.79 383.846 465.77 383.846L465.653 383.841C465.649 383.841 465.644 383.841 465.64 383.841C463.487 382.777 460.553 383.535 458.705 385.088C458.651 385.135 458.604 385.185 458.556 385.235C456.216 384.29 454.032 383.014 452.049 381.397C447.992 378.088 444.556 373.996 441.56 369.893C436.044 362.336 431.357 353.933 423.905 347.713C417.85 342.659 410.344 339.512 402.468 337.537C402.501 337.33 402.413 337.109 402.254 336.963C401.85 336.59 401.561 336.46 401.039 336.687C400.997 336.705 400.972 336.73 400.955 336.757L400.187 335.576C399.767 334.935 399.336 334.289 399.187 334.119C398.293 333.106 397.373 332.1 396.439 331.116C394.855 329.45 393.05 327.805 390.96 326.649C386.384 324.119 381.573 325.551 376.869 326.934C374.026 327.769 371.193 328.632 368.355 329.481L368.063 329.567C365.947 330.178 363.471 330.714 362.524 332.731C362.15 333.529 362.092 334.358 362.266 335.162C342.17 330.563 319.849 332.676 300.238 338.075C299.485 338.282 298.734 338.839 298.575 339.571C296.328 349.941 295.327 360.576 296.344 371.123C297.221 380.227 299.463 389.149 303.687 397.484L303.927 397.954C307.896 405.679 314.188 415.201 323.797 417.622C329.599 419.084 336.015 418.222 341.933 417.954C347.684 417.693 353.562 417.656 359.258 416.842C364.331 416.117 368.776 414.071 371.912 410.359C374.616 407.156 376.04 403.285 377.207 399.435C377.741 399.588 378.272 399.75 378.794 399.934C380.998 400.709 382.866 401.959 384.554 403.431C388.119 406.538 390.885 410.312 394.615 413.277C397.992 415.961 401.84 418.048 405.967 419.653C414.52 422.979 423.695 424.308 432.741 426.071L433.372 426.194C440.183 427.539 447.135 429.191 453.146 432.382C453.263 433.321 453.739 434.205 454.501 434.784C453.441 435.68 452.992 437.099 453.924 438.43C456.526 442.147 461.009 444.262 465.033 446.639L465.295 446.794C469.254 449.156 473.247 451.471 477.273 453.739C485.458 458.351 493.813 462.708 502.286 466.874C515.915 473.575 529.836 479.895 544.009 485.628C543.159 489.394 543.469 493.278 542.83 497.07L542.732 497.611C542.459 499.018 542.828 500.195 543.905 501.115L544.019 501.209L544.017 501.196L544.118 501.279L544.152 501.305L544.14 501.297C544.265 501.399 544.393 501.494 544.523 501.576L544.689 501.672C545.727 502.24 547.062 502.233 548.124 501.732L548.246 501.672L548.45 501.567C549.853 500.841 550.821 499.041 550.239 497.611C548.808 494.097 548.267 490.346 546.946 486.809L547.994 487.23L549.376 487.772C564.318 493.587 580.916 498.484 597.197 494.52C604.39 492.768 611.114 489.062 614.713 483.021C618.255 477.078 618.756 470.176 618.944 463.564C619.176 455.404 618.69 447.119 617.494 439.029C616.691 433.599 615.721 428.065 614.223 422.691C614.993 422.079 615.559 421.202 615.709 420.116C616.416 414.983 615.179 409.646 614.422 404.539C613.682 399.554 612.865 394.578 611.941 389.617C610.075 379.599 607.907 369.602 605.383 359.701C600.891 342.08 594.959 324.772 587.817 307.878L587.192 306.407C580.593 290.965 572.952 275.853 562.312 262.288C557.222 255.798 551.842 249.913 544.65 245.237C537.913 240.855 530.313 237.7 522.47 235.288C514.619 232.875 506.549 231.258 498.337 230.252C489.997 229.23 481.193 228.604 473.413 225.525C474.397 223.937 473.552 221.794 471.896 220.809C466.322 217.494 461.167 213.183 456.171 209.199ZM277.728 353.322C277.494 353.003 276.94 353.205 277.042 353.582C279.753 363.578 282.299 373.594 283.96 383.78C286.96 402.166 286.409 420.791 286.163 439.313L286.151 440.271C286.025 450.247 285.85 460.224 285.483 470.196C285.298 475.236 284.932 480.326 285.131 485.368C285.24 488.104 286.05 490.691 286.337 493.394C286.588 495.758 286.364 498.157 286.239 500.524C286.155 502.097 288.735 502.03 288.911 500.524L289.135 498.575C289.427 496.11 289.787 493.659 290.685 491.299C291.765 488.46 292.283 485.672 292.658 482.692C293.232 478.125 293.487 473.512 293.708 468.913L293.86 465.732C294.784 446.512 294.752 427.201 293.255 408.001L293.145 406.63C291.663 388.481 289.091 368.872 277.728 353.322ZM335.518 238.937C336.227 238.675 335.979 237.712 335.194 237.879L333.768 238.186C323.319 240.438 313.059 242.879 303.305 247.07C293.545 251.264 285.283 257.525 278.717 265.224C265.954 280.189 260.651 298.377 256.464 316.547C251.811 336.738 247.574 357.002 242.881 377.187L242.009 380.947C237.666 399.746 233.566 418.556 230.544 437.578L230.327 438.958C227.28 458.519 225.448 478.757 228.772 498.369C229.43 502.249 236.605 501.283 236.324 497.449C235.514 486.367 234.934 475.343 235.494 464.236C236.056 453.127 237.213 442.066 238.939 431.055C240.392 421.787 242.557 412.636 244.473 403.442L244.773 401.99C246.377 394.171 248.031 386.359 249.682 378.547L252.148 366.85C255.844 349.337 259.613 331.808 263.871 314.404L264.124 313.38C268.291 296.636 274.435 279.097 286.936 265.801C299.621 252.307 317.78 245.511 335.518 238.937ZM381.612 416.535C381.307 415.924 380.24 415.991 379.912 416.535C378.626 418.67 378.484 421.394 378.241 423.804L378.215 424.052C377.906 426.992 377.632 429.943 377.465 432.893C377.147 438.491 376.995 444.082 377.015 449.688C377.035 455.433 377.163 461.171 377.507 466.907L377.601 468.444C377.915 473.429 378.442 478.989 381.074 483.347C382.03 484.931 384.633 484.466 385.187 482.863C387.002 477.617 386.07 471.397 385.604 466.024L385.243 461.832C384.885 457.639 384.543 453.444 384.272 449.246C383.901 443.503 383.595 437.755 383.301 432.009C383.205 430.142 383.102 428.275 382.992 426.409L382.824 423.61C382.681 421.269 382.693 418.7 381.612 416.535ZM585.732 423.97L584.929 423.272C582.462 421.099 579.344 417.753 575.697 417.96C574.243 418.043 573.316 419.13 573.617 420.417C574.262 423.17 577.382 424.598 579.628 426.279C582.088 428.119 584.407 430.087 586.722 432.073C588.775 433.834 590.75 435.645 592.677 437.513L593.398 438.216C594.089 438.894 599.008 442.899 598.476 443.938L598.447 443.985C598.299 444.183 598.546 444.457 598.792 444.387C600.916 443.783 600.783 442.145 599.98 440.484C598.437 437.294 595.734 434.343 593.374 431.619C591.021 428.901 588.473 426.37 585.732 423.97ZM373.914 343.968C375.557 340.474 381.609 340.547 385.045 340.756C393.696 341.282 403.058 343.252 410.756 346.892C418.737 350.665 424.113 356.71 428.923 363.395L429.148 363.709C433.837 370.268 438.353 378.032 445.694 382.542C449.434 384.839 453.8 386.937 458.337 387.846C458.649 388.339 459.153 388.729 459.815 388.871L460.122 388.934C461.415 389.191 463.422 389.475 465.156 389.305C465.145 390.068 465.154 390.826 465.132 391.549C465.071 393.622 465.045 395.703 465.045 397.777C465.044 402.123 465.304 406.477 465.102 410.822C464.924 414.665 464.32 418.68 462.27 422.116C460.766 424.636 458.781 426.304 456.385 427.897C450.491 424.664 443.826 422.693 437.061 421.212C428.88 419.42 420.504 418.224 412.509 415.795C408.661 414.625 404.962 413.094 401.61 411.015C398.053 408.808 395.336 405.821 392.54 402.899L392.103 402.446C389.25 399.501 386.137 396.683 382.105 395.087C378.633 393.711 374.056 393.466 371.02 391.338C369.432 390.225 369.299 388.609 369.132 386.955C371.077 387.205 373.135 386.804 375.073 386.6L376.077 386.493C377.91 386.298 379.7 386.082 381.504 385.662C381.839 385.585 381.839 385.13 381.504 385.052C379.372 384.557 377.259 384.346 375.073 384.115L374.56 384.057C372.582 383.824 370.504 383.472 368.564 383.864C368.216 382.672 367.713 381.534 367.008 380.394C366.018 378.793 364.145 376.978 363.892 375.108C363.817 374.55 363.961 373.891 364.254 373.397L364.355 373.229C364.478 373.03 364.623 372.831 364.836 372.707C364.86 372.731 364.91 372.76 365.019 372.79C366.511 373.213 367.814 372.556 368.505 371.542C371.439 371.87 374.641 371.76 377.393 371.869L380.175 371.99C383.148 372.113 386.255 372.167 389.049 371.626C389.439 371.551 389.557 370.967 389.166 370.816C385.732 369.494 381.566 369.073 377.889 368.565C375.836 368.281 373.767 368.065 371.708 367.815C370.337 367.649 368.881 367.374 367.461 367.308C363.898 363.317 365.818 357.021 370.775 355.303C372.581 356.017 374.205 355.602 376.178 355.449C378.147 355.297 380.122 355.194 382.099 355.201C386.062 355.217 390.261 356.155 394.185 355.751C394.823 355.685 395.416 354.921 394.781 354.455C391.778 352.249 387.473 351.53 383.66 351.06L382.87 350.964C381.592 350.814 380.037 350.594 378.425 350.463C378.06 349.823 377.406 349.339 376.424 349.219C376.132 349.183 375.838 349.161 375.545 349.139L375.549 349.113C373.153 349.009 373.257 345.366 373.914 343.968ZM537.985 412.121C538.028 412.18 538.074 412.236 538.123 412.29L538.2 412.369L537.805 412.225L537.985 412.121ZM332.094 336.16C342.181 335.185 352.283 335.391 362.4 335.652C363.209 338.034 366.026 340.064 368.755 340.141C366.617 343.068 366.397 347.031 367.896 350.136C364.713 351.276 361.972 353.324 360.307 356.24C357.999 360.283 358.301 364.782 360.583 368.519C358.636 370.105 357.487 372.681 357.602 375.108C357.73 377.815 359.523 380.128 361.013 382.369C362.623 384.793 362.677 386.928 363.172 389.642C363.895 393.616 366.873 396.025 370.704 397.53L370.501 398.251C369.513 401.712 368.284 405.363 365.461 407.893C361.829 411.148 356.195 411.118 351.396 411.324L351.165 411.334C346.771 411.532 342.379 411.764 337.987 411.988L334.693 412.153C329.636 412.404 324.779 412.434 320.651 409.425C313.91 404.514 309.29 396.386 306.365 389.191C300.227 374.088 300.153 357.514 302.971 341.785C312.421 339.044 322.225 337.114 332.094 336.16ZM415.982 361.216L415.908 361.221C413.831 361.435 412.404 362.948 411.896 364.744C411.158 367.353 411.52 369.712 409.744 372.068C407.917 374.49 406.794 376.43 406.528 379.422C406.419 380.654 406.469 381.882 406.165 383.087L405.944 383.932C405.709 384.832 405.517 385.699 405.634 386.666C405.74 387.548 406.218 388.235 407.2 388.517C410.402 389.439 412.875 387.316 413.702 384.63C414.417 382.31 413.463 379.546 414.471 377.368C415.03 376.16 416.06 375.15 416.642 373.935C417.219 372.73 417.508 371.471 417.601 370.161C417.776 367.684 415.342 364.708 416.7 362.463C416.989 361.984 416.662 361.202 415.982 361.216ZM458.518 335.653C456.349 335.257 453.889 334.348 451.751 335.103C450.652 335.492 450.108 336.698 451.037 337.537C452.65 338.991 454.993 339.072 457.165 339.415L457.356 339.446C459.924 339.874 462.497 340.279 465.073 340.664C469.919 341.386 474.777 342.025 479.653 342.568C484.66 343.125 489.681 343.622 494.709 343.995L496.656 344.139C500.903 344.445 505.322 344.675 509.49 344.09C510.095 344.005 509.998 343.211 509.49 343.072C504.924 341.829 499.916 341.495 495.196 340.969C490.178 340.409 485.168 339.817 480.172 339.115C475.183 338.413 470.201 337.661 465.237 336.829C462.994 336.454 460.754 336.062 458.518 335.653ZM380.273 331.66C382.176 331.054 384.269 330.156 386.331 330.456C389.887 330.975 393.052 334.093 395.866 336.146L394.453 335.899C387.222 334.648 377.646 333.3 371.575 337.438C371.56 337.414 371.548 337.39 371.53 337.366C371.04 336.697 370.473 336.174 369.853 335.601C369.794 335.551 369.737 335.499 369.68 335.446L369.346 335.126L370.111 334.887C371.748 334.367 373.689 333.694 373.995 333.596L374.017 333.589C376.105 332.952 378.195 332.323 380.273 331.66ZM439.687 195.254C439.985 191.81 434.028 191.838 433.733 195.254C433.089 202.712 434.954 210.099 438.968 216.637C438.998 216.685 439.03 216.727 439.061 216.772C436.55 217.948 434.011 219.076 431.416 220.084C428.096 221.374 424.713 222.549 421.27 223.545C418.155 224.447 414.317 224.803 411.699 226.68C406.177 230.637 408.252 238.849 409.314 244.172L409.48 245.012C410.008 247.751 410.391 250.562 409.108 253.191C407.737 255.999 404.966 258.082 402.494 260.091L401.995 260.498C399.805 262.294 397.303 264.475 395.696 266.909C394.23 264.181 392.231 261.951 390.118 259.441C388.61 257.65 389.683 257.059 390.766 255.31C391.809 253.625 392.318 251.83 391.992 249.909C391.39 246.36 388.239 243.797 385.102 241.871C381.398 239.598 377.264 237.914 373.434 235.799C365.565 231.454 357.902 226.486 350.998 220.968C350.808 220.816 350.478 221.016 350.63 221.224C356.084 228.689 362.479 235.14 370.338 240.616C373.525 242.836 376.873 244.678 380.243 246.614L381.212 247.173C382.565 247.962 384.253 249.017 384.864 250.36C385.48 251.71 384.167 252.73 383.461 253.849C381.217 257.402 382.299 260.717 384.959 263.731L385.083 263.87C387.727 266.801 389.73 269.528 390.689 273.273C392.748 281.319 389.88 289.7 386.878 297.254L386.759 297.551C385.135 301.623 383.409 305.664 381.999 309.801L381.61 310.945C380.332 314.751 379.285 318.505 380.719 322.417C381.207 323.748 383.224 324.063 384.062 322.81C387.017 318.393 387.753 313.078 389.606 308.222C391.411 303.489 393.484 298.841 395.228 294.089C397.474 287.97 398.976 281.384 398.161 274.966C398.185 274.928 398.211 274.893 398.231 274.854L398.803 273.728C400.362 270.681 401.867 268.021 404.702 265.592C407.658 263.058 410.868 260.816 413.194 257.749C418.248 251.087 415.122 243.677 414.512 236.393L414.442 235.5C414.331 233.987 414.27 231.932 415.368 230.885C416.603 229.707 419.499 229.406 421.137 228.885C425.371 227.536 429.543 225.965 433.517 224.078C437.3 222.283 440.964 220.299 444.376 217.975L446.106 216.804C448.834 214.951 451.663 212.928 453.492 210.406C453.703 210.116 453.344 209.647 452.962 209.786C449.909 210.901 447.12 212.674 444.264 214.217C444.22 214.123 444.168 214.028 444.11 213.933C440.576 208.177 439.123 201.801 439.687 195.254ZM342.174 234.688C340.957 231.686 335.414 231.918 335.635 235.484C335.805 238.224 337.097 240.697 338.279 243.185L338.405 243.452C339.625 246.044 341.035 248.477 342.721 250.853C345.943 255.394 349.718 259.608 353.749 263.586C357.404 267.192 362.201 269.397 367.729 269.03C370.058 268.876 372.409 268.342 374.45 267.296C376.874 266.052 379.506 262.316 382.599 263.221C382.898 263.308 383.177 262.914 382.919 262.727C379.348 260.14 375.296 264.152 371.878 265.119C366.727 266.575 361.441 264.965 358.126 261.217C354.665 257.305 351.479 252.924 348.57 248.664C347.093 246.501 345.745 244.256 344.581 241.942C343.406 239.607 343.139 237.069 342.174 234.688ZM350.476 216.216C350.626 215.801 350.054 215.407 349.649 215.644C347.303 217.018 345.27 218.834 343.106 220.426C340.705 222.192 338.287 223.922 335.831 225.626C332.25 228.11 336.403 232.682 339.555 229.969C343.868 226.257 348.591 221.404 350.476 216.216ZM363.356 201.687C362.403 198.38 356.766 199.744 357.588 203.013L357.615 203.112C359.171 208.512 356.955 214.009 352.224 217.509L352.05 217.636C349.057 219.792 353.297 223.56 356.26 221.425C362.729 216.766 365.42 208.851 363.356 201.687Z" fill="black"/>
<path fill-rule="evenodd" clip-rule="evenodd" d="M314.928 47.9656C316.036 45.4429 317.996 42.2722 321.273 42.1457C323.807 35.1583 330.108 28.0422 338.872 28.2312C364.598 4.50599 396.985 5.62442 430.846 10.6468C448.71 13.6348 466.849 19.4858 480.173 31.032C496.131 44.6252 502.345 68.3436 489.848 85.5324C500.649 90.7519 500.858 103.138 496.239 112.076C501.791 115.538 502.129 123.942 495.877 126.583C496.209 127.811 495.974 129.08 495.341 130.171C498.44 132.498 502.475 134.217 505.81 135.695C507.284 136.348 508.134 137.414 508.488 138.616C519.439 145.096 546.746 160.93 546.421 173.533C546.582 180.107 541.174 184.434 534.602 186.157C538.513 193.207 541.48 201.441 537.737 209.045C536.703 211.343 528.951 218.096 528.561 218.22C527.879 218.748 516.759 214.143 511.354 211.795C510.306 217.943 503.016 221.164 496.732 219.057C490.774 217.438 487.112 212.889 483.354 208.751C478.366 218.564 463.69 218.677 454.205 214.446C445.686 210.897 439.211 204.393 435.604 196.555C416.449 205.011 394.038 207.476 373.228 204.098C371.892 206.23 368.936 207.661 366.302 206.837C355.236 203.837 343.001 203.668 333.62 196.794C314.068 184.138 312.421 160.804 313.785 140.914C314.994 121.082 313.936 101.086 317.933 81.4683C316.198 75.6925 313.313 70.5864 310.643 65.1603C307.742 59.4704 307.803 51.0122 314.928 47.9656Z" fill="#D08B5B"/>
<path fill-rule="evenodd" clip-rule="evenodd" d="M403.694 8.60107L402.934 8.60377C401.678 8.61124 400.423 8.63363 399.172 8.67082C392.559 8.86708 385.663 9.6407 377.899 10.9649L376.718 11.1695C374.787 11.5104 373.057 11.8526 370.298 12.4339L364.822 13.5977C362.033 14.1837 359.981 14.5891 358.088 14.9152L357.84 14.9575C348.111 19.1629 341.675 22.649 338.533 25.4158L338.063 25.8331L337.863 26.0136L335.814 26.0719L335.794 26.3052L335.776 26.3076C333.742 26.593 331.901 27.5434 330.19 29.0229L330.007 29.1834L329.831 29.3424C328.497 30.5656 327.434 31.8691 325.969 33.9349L325.637 34.4069L325.041 35.2591L324.559 35.9434C324.245 36.391 323.944 36.8338 323.655 37.2725L323.37 37.7099L323.165 38.0314L317.874 40.8147C317.112 41.2157 316.418 41.7347 315.783 42.3563L315.612 42.5283L315.443 42.7054L314.001 44.2523L314.292 44.5251L314.151 44.6918L313.9 45.0027L313.654 45.3178L313.415 45.637L313.312 45.7773L313.157 46.0802L313.081 46.2315L313.021 46.356L312.84 46.4398L312.473 47.0379C310.565 50.1414 309.538 53.666 309.468 57.2879C309.42 59.7861 309.762 62.055 310.574 64.2437C311.135 65.757 311.887 66.9462 313.188 68.5835L314.216 69.8548L314.426 70.1171L314.676 70.4363C314.716 70.4875 314.755 70.5379 314.793 70.5879C316.465 72.7709 330.749 76.903 339.528 77.1028L339.793 77.1076L340.13 77.1106C340.968 77.1139 341.778 77.0868 342.558 77.028C345.935 76.7733 349.093 76.1324 352.761 75.0843L353.522 74.8625L357.564 73.6381C357.692 73.5997 357.796 73.569 357.868 73.5484L358.237 73.4443C359.127 73.1981 359.774 73.0566 360.215 73.0053L360.305 72.9955L360.314 73.1462L360.317 73.2883L360.316 73.4039C360.29 75.0814 361.42 76.3043 363.172 77.0835C364.288 77.5798 365.726 77.9342 367.531 78.2002L367.819 78.2415C370.769 78.6525 374.287 78.828 380.172 78.9483C380.396 78.9529 380.622 78.9503 380.85 78.9409C382.113 78.8888 383.106 78.6945 384.952 78.2166L385.825 77.9907L386.298 77.8728C387.176 77.6589 387.665 77.5735 388.127 77.5502L388.261 77.5451L388.395 77.5431C388.949 77.5424 389.35 77.6538 389.745 77.9252L389.947 78.0708L392.66 80.1207C393.013 80.3859 393.33 80.6211 393.562 80.7879L393.656 80.8551C397.38 83.4882 400.931 84.9924 405.113 85.1354L405.393 85.143L405.685 85.1459C405.897 85.1463 406.11 85.1428 406.324 85.1355C408.086 85.075 409.914 84.4862 412.411 83.3508L412.928 83.1121L413.29 82.9417C413.475 82.854 413.668 82.7617 413.877 82.6608L415.74 81.762L416.692 81.3135C417.829 80.7861 418.463 80.5315 418.89 80.4266L418.96 80.41L419 80.4447C419.988 81.3146 420.835 82.4093 421.747 83.9205L421.885 84.1503L422.084 84.4928L423.38 86.8189L423.625 87.2516C424.587 88.9306 425.348 90.0037 426.343 90.9452C427.788 92.3116 429.539 93.1044 431.683 93.2317L431.898 93.2422L432.154 93.2478C433.164 93.2567 434.234 93.1169 435.394 92.8263L435.664 92.7565L435.926 92.6839C437.655 92.1916 440.387 92.4981 442.557 93.5368C444.914 94.665 446.212 96.3863 446.155 98.5861C446.126 99.6788 445.987 100.85 445.742 102.12L445.672 102.469C445.351 104.038 444.915 105.613 444.243 107.713L442.798 112.107L442.635 112.62L442.472 113.148C442.237 113.916 442.05 114.586 441.896 115.216C441.307 117.626 441.208 119.436 441.799 120.978C444.405 127.777 448.926 131.388 454.072 131.541L454.25 131.545L454.47 131.545C458.424 131.507 462.007 129.183 461.963 126.173C461.959 125.858 461.893 125.564 461.777 125.298L461.724 125.186L461.699 125.138L461.739 125.048C462.955 122.425 465.765 120.51 469.065 120.134L469.252 120.115L469.437 120.099C469.618 120.085 469.799 120.075 469.97 120.07L470.138 120.066L470.339 120.064C474.737 120.07 479.089 122.711 482.512 127.03C483.226 127.931 483.889 128.914 484.484 129.953L484.68 130.301L485.632 132.057L486.275 133.756C489.817 143.108 488.024 152.894 481.109 157.953L480.898 158.105C478.407 159.867 475.477 160.938 472.35 161.226C471.99 161.259 471.628 161.28 471.279 161.288L471.02 161.292L470.723 161.292C469.704 161.28 468.729 161.165 467.854 160.952C467.14 160.778 466.643 160.567 466.297 160.298C466.206 160.228 466.133 160.164 466.069 160.1L466.016 160.043L465.996 160.018L461.271 160.65C460.467 165.252 458.145 170.02 454.367 175.488L454.129 175.83L453.714 176.42L453.292 177.01C448.847 183.175 443.89 188.367 438.441 192.351L438.061 192.627L437.55 192.992L437.081 193.323C436.171 193.96 435.412 194.456 434.653 194.899L434.463 195.008L432.671 196.032L433.503 197.792C435.444 201.898 438.122 205.63 441.424 208.808L441.735 209.105L444.03 211.239L445.794 209.212C445.808 209.197 445.847 209.178 445.894 209.17L445.926 209.166H445.944L445.968 209.169L445.997 209.175L446.025 209.187C447.346 209.833 448.072 210.327 449.114 211.293L449.266 211.434L449.442 211.602L449.684 211.829C450.767 212.83 451.925 213.683 453.186 214.392C456.1 216.03 459.334 216.94 462.683 217.022L462.998 217.027L463.314 217.027C463.428 217.026 463.541 217.024 463.655 217.022C470.643 216.847 476.904 212.81 479.982 206.893C480.104 206.658 480.216 206.581 480.423 206.566L480.482 206.563L480.556 206.562C481.069 206.565 481.698 206.841 482.049 207.211L482.111 207.281L483.29 208.709L483.741 209.247C487.943 214.223 491.393 216.944 496.027 217.77C496.392 217.835 496.778 217.875 497.188 217.891L497.436 217.901H497.582C499.575 217.905 501.871 217.385 503.661 216.468C506.029 215.255 507.493 213.39 507.307 211.078L507.293 210.93L507.261 210.683C507.106 209.449 508.201 208.778 509.039 209.384L509.096 209.427L509.165 209.484C512.618 212.404 516.589 214.644 520.865 216.027L521.244 216.147L521.806 216.32C524.503 217.14 526.405 217.547 528.407 217.579C530.141 217.606 531.582 217.042 532.624 215.959C533.319 215.236 533.744 214.432 534.168 213.26L534.239 213.061L534.394 212.605L534.49 212.309C535.731 208.371 535.758 204.161 534.783 199.516C534.056 196.046 532.897 192.693 530.949 187.995L530.571 187.089L529.791 185.241C529.712 185.056 530.181 184.408 530.471 184.336L530.505 184.33L530.77 184.355C530.956 184.371 531.143 184.382 531.334 184.389L531.626 184.395H531.817C538.145 184.337 542.978 178.741 542.935 172.813C542.885 167.26 539.788 162.485 533.875 156.817L533.362 156.329L532.806 155.81L532.257 155.303C527.003 150.479 521.632 146.267 516.039 142.656L515.576 142.358L515.06 142.03C513.177 140.838 511.345 139.758 508.811 138.337L507.319 137.506L501.273 131.072C501.128 130.998 500.985 130.924 500.844 130.85L500.768 128.618L494.942 128.726C496.42 128.042 497.645 127.212 498.64 126.149C501.946 122.613 501.531 117.701 497.511 115.288L497.369 115.205L495.675 114.261L494.288 115.358C493.08 116.314 491.799 116.947 490.463 117.24L490.251 117.283L489.206 117.483L489.002 117.78L488.885 117.626C488.885 117.611 488.889 117.596 488.894 117.581L488.905 117.559L488.927 117.528L489.058 117.382L489.204 117.226C489.669 116.732 490.191 116.254 491.139 115.431L491.804 114.854L492.322 114.4C493.68 113.197 494.404 112.451 495.173 111.416C497.087 108.84 498.168 105.936 498.213 102.987C498.307 96.8534 494.077 91.0545 487.809 88.4078C487.589 88.3152 487.427 87.6564 487.691 87.221C493.76 77.1778 495.444 65.1391 492.395 53.9402C489.551 43.4916 482.473 34.269 472.341 27.2043C454.946 15.0756 430.817 8.82115 405.215 8.60575L404.439 8.60107H403.694Z" fill="#ECDCBF"/>
<path fill-rule="evenodd" clip-rule="evenodd" d="M496.714 132.144C495.561 131.883 494.943 133.28 495.921 133.841C502.131 137.403 508.546 140.585 514.546 144.461C520.252 148.146 525.522 152.343 530.436 156.856L530.981 157.358C535.424 161.481 540.345 166.725 540.395 172.806C540.433 177.532 536.392 182.692 530.754 182.071C528.63 181.837 526.678 184.267 527.419 186.019L528.199 187.866C531.336 195.339 534.527 203.807 532.05 211.67L531.959 211.95C531.359 213.75 530.727 215.341 528.41 215.305C526.26 215.271 524.022 214.617 522.009 213.993C517.831 212.697 514.045 210.536 510.832 207.819C507.99 205.415 504.358 207.857 504.741 210.912L504.755 211.009C505.278 214.437 499.223 216.029 496.47 215.539C491.035 214.569 487.16 209.658 484.073 205.914C482.589 204.115 478.986 203.406 477.682 205.914C475.099 210.88 469.775 214.592 463.546 214.748C460.31 214.829 457.206 213.998 454.466 212.458C453.347 211.829 452.347 211.081 451.43 210.234L451.202 210.02C449.845 208.722 448.908 208.032 447.174 207.185C445.466 206.35 443.256 207.385 443.267 209.206C443.281 211.566 444.047 213.134 445.851 214.845C447.344 216.263 449.118 217.507 450.982 218.501C454.729 220.497 459.184 221.621 463.546 221.491C470.422 221.286 476.985 218.195 481.239 213.388C485.583 218.072 490.972 222.376 497.974 222.26C503.216 222.174 508.101 219.713 510.442 215.9C513.746 217.954 517.373 219.56 521.252 220.61L521.598 220.702C527.09 222.143 533.409 222.716 536.944 217.799C540.263 213.183 540.511 206.791 539.75 201.515C539.071 196.802 537.463 192.326 535.616 187.911C540.872 186.495 544.952 182.043 546.353 177.243C548.473 169.985 544.361 162.946 539.276 157.554C533.753 151.696 526.802 146.741 519.799 142.404C512.814 138.079 504.989 134.015 496.714 132.144ZM317.118 75.3754C317.105 75.1737 316.739 75.1031 316.705 75.3245C314.292 91.1122 312.895 106.868 311.739 122.764C311.153 130.817 310.487 138.862 309.758 146.906C309.059 154.619 307.895 162.537 308.158 170.281C308.57 182.408 315.1 192.268 325.807 199.364C336.066 206.164 348.793 209.526 361.28 210.947C368.531 211.772 375.884 211.811 383.144 211.036C386.914 210.634 390.68 210.098 394.373 209.293L395.97 208.933C398.878 208.263 402.125 207.354 402.54 204.247C402.741 202.743 401.855 201.633 400.424 200.878C398.558 199.893 396.418 200.473 394.495 200.921C391.255 201.677 387.98 202.326 384.668 202.775C377.555 203.74 370.243 203.797 363.094 203.129C351.067 202.005 338.381 198.487 329.109 191.222C325.079 188.065 321.575 184.219 319.732 179.649C317.362 173.773 317.713 167.364 317.793 161.211C317.977 146.906 317.815 132.6 318.035 118.293C318.257 103.942 318.064 89.7048 317.118 75.3754ZM438.057 8.51925C424.004 5.25081 409.742 4.40152 395.308 5.38538C381.695 6.31253 366.188 9.05934 355.07 16.6102C354.53 16.9766 354.853 17.6702 355.521 17.5743C362.954 16.5058 370.199 14.5624 377.6 13.2765C384.719 12.0397 391.966 11.1112 399.214 10.8961C423.729 10.1674 451.007 15.1772 470.774 28.9607C480.043 35.4233 487.117 44.1134 489.932 54.4529C492.819 65.058 491.257 76.5268 485.46 86.1202C484.625 87.5014 484.969 89.6866 486.711 90.422C491.996 92.6535 495.76 97.5971 495.678 102.932C495.639 105.519 494.65 108.001 493.06 110.139C491.379 112.401 488.821 113.983 486.941 116.096C486.201 116.927 486.172 118.073 486.759 118.839C485.659 119.273 484.473 119.506 483.391 120.019C482.474 120.455 482.448 121.813 483.391 122.242C485.777 123.325 488.356 122.175 489.966 120.428C490.253 120.117 490.502 119.792 490.729 119.461C492.657 119.092 494.385 118.219 495.893 117.026C498.768 118.578 499.162 122.034 496.692 124.674C495.431 126.022 493.64 126.855 491.829 127.453L491.611 127.523C489.849 128.088 488.235 128.403 487.09 129.674C486.335 128.255 485.469 126.917 484.502 125.697C480.989 121.266 475.59 117.334 469.182 117.833C464.163 118.223 459.815 121.464 458.786 125.935C458.711 126.265 459.263 126.524 459.428 126.179C461.836 121.115 469.455 120.929 473.994 123.568C479.331 126.671 482.248 132.52 483.418 137.967C484.57 143.333 483.904 149.859 479.451 153.941C477.629 155.611 475.15 156.766 472.563 157.07C471.299 157.219 470.183 157.072 468.974 156.853L468.172 156.702C467.616 156.598 467.064 156.514 466.48 156.561L465.612 156.666L465.118 156.874C464.69 157.048 464.728 157 465.234 156.731C463.758 156.623 462.994 157.606 462.914 158.685C462.867 158.712 462.821 158.741 462.783 158.783C457.181 164.966 453.021 172.074 447.076 178.054L445.336 179.806C440.861 184.295 435.754 189.161 429.676 191.489L428.952 191.759C427.184 192.433 425.408 193.355 425.183 195.277C424.981 196.999 426.486 198.295 428.221 198.697C432.173 199.611 436.677 196.444 439.571 194.366C445.794 189.899 451.025 184.204 455.344 178.213L455.771 177.616C459.322 172.615 462.659 166.912 463.696 160.977L463.883 161.25C463.897 161.269 463.908 161.284 463.915 161.293C464.126 161.552 464.359 161.771 464.63 161.981C465.356 162.546 466.243 162.877 467.164 163.101C468.892 163.522 470.787 163.605 472.563 163.441C476.172 163.108 479.545 161.869 482.398 159.852C491.083 153.709 492.109 142.278 488.596 133.004C491.479 133.625 494.762 131.876 497.013 130.376C499.594 128.656 501.722 126.173 502.231 123.252C502.736 120.354 500.687 116.515 497.648 115.397C500.801 111.982 502.637 107.136 502.827 103.256C503.156 96.507 499.18 90.1276 493.076 86.4451C498.816 75.3503 499.922 62.4787 496.057 50.6984C488.387 27.322 462.694 14.2496 438.057 8.51925ZM459.926 186.129L459.854 185.924C459.242 184.116 458.453 180.52 455.458 181.889C452.597 183.196 454.424 187.067 455.424 188.951C456.621 191.205 458.689 193.013 461.466 193.497C463.724 193.891 466.205 193.385 467.785 191.811C468.245 191.352 468.505 190.849 468.778 190.294C468.885 190.078 468.933 189.93 468.953 189.833C468.979 189.939 469.052 190.097 469.241 190.282C470.502 191.524 471.692 192.97 472.607 194.44C472.824 194.787 473.506 194.544 473.334 194.163C472.268 191.813 472.447 188.179 470.072 186.479C467.979 184.98 466.012 186.16 464.905 187.905L464.848 187.996C463.23 190.646 460.651 188.129 459.926 186.129ZM482.697 177.637L482.479 177.363C480.24 174.604 476.465 171.286 472.688 173.852C471.487 174.668 471.442 176.029 472.688 176.839L473.159 177.143C474.81 178.198 476.453 179.194 477.665 180.707C478.982 182.352 480.164 184.094 481.935 185.384C485.067 187.666 490.128 188.116 492.845 185.04L493.112 184.735C493.34 184.471 493.6 184.153 493.812 183.836L493.977 184.042C493.993 184.062 494.008 184.082 494.022 184.101L494.06 184.153C495.177 185.762 496.588 187.088 498.345 188.134C501.685 190.121 505.448 190.397 509.227 189.345C509.596 189.242 509.497 188.795 509.139 188.765C504.662 188.388 500.3 185.52 498.479 181.826L498.273 181.411C497.536 179.942 496.711 178.546 494.89 177.969C493.118 177.407 491.258 178 490.042 179.209C489.026 180.22 488.765 182.228 486.932 181.785C484.924 181.3 483.795 179.033 482.697 177.637ZM495.52 153.098C494.529 152.418 492.976 153.147 492.703 154.132C491.466 158.59 496.604 163.844 501.542 163.982C502.813 164.017 504.035 163.74 505.161 163.209C506.035 162.798 507.068 161.747 508.027 161.572C509.265 161.348 510.362 162.835 511.234 163.598C512.315 164.546 513.385 165.425 514.597 166.233C515.081 166.555 515.832 166.013 515.628 165.518L515.218 164.533C513.734 161.026 511.179 155.906 506.396 157.362C504.053 158.074 502.29 160.479 499.822 158.575C497.847 157.051 497.662 154.565 495.52 153.098ZM474.421 135.149C469.963 130.534 459.483 132.972 457.496 138.586C457.057 139.826 457.515 141.438 458.589 142.316C460.004 143.472 462.022 143.822 463.74 142.915C465.218 142.135 465.825 140.859 466.911 139.764C468.505 138.159 470.672 137.268 472.905 136.63C473.464 136.895 473.983 137.243 474.449 137.662C474.688 137.877 475.139 137.583 474.927 137.33C474.64 136.986 474.288 136.662 473.888 136.364L474.081 136.313C474.669 136.165 474.796 135.538 474.421 135.149ZM445.447 84.1941C444.448 84.1955 443.284 85.0416 443.412 86.0295L443.45 86.3038C443.738 88.1846 444.408 89.2496 446.496 90.1234C448.267 90.8638 450.127 91.2729 452.069 91.4349C452.803 91.4961 453.581 91.4997 454.369 91.4471L454.535 92.3104C454.864 94.0371 455.169 95.765 455.227 97.5249C455.333 100.787 453.983 103.476 452.536 106.389C449.756 111.984 449.444 117.57 452.47 123.157C452.912 123.974 454.166 124.64 455.177 124.557C456.488 124.45 457.121 124.108 457.884 123.157C458.524 122.358 458.378 121.23 457.934 120.395L457.884 120.303C456.359 117.639 455.878 114.629 456.657 111.701C457.388 108.949 459.046 106.475 459.786 103.732C460.992 99.2626 459.708 94.8294 457.198 90.9952C459.092 90.5033 460.844 89.6265 462.013 88.2893L462.008 88.2875C462.454 87.8577 462.21 86.9598 461.427 87.0138L460.542 87.0783C458.009 87.2693 455.677 87.4679 453.116 86.8311C451.802 86.5043 450.669 85.9595 449.542 85.2999L449.3 85.1568C447.89 84.3116 447.108 84.1923 445.447 84.1941ZM439.385 51.1619C433.035 50.8365 427.613 54.6158 424.978 59.6467C422.115 65.1086 423.316 71.3756 425.843 76.7494L426.561 78.2534C427.818 80.8592 429.467 83.9581 432.041 85.3563C434.931 86.9271 437.43 85.1056 436.578 82.2103C436.07 80.486 434.695 79.1561 433.582 77.7329C432.544 76.4039 431.576 75.0284 430.726 73.5936C429.062 70.7797 427.82 67.6445 427.834 64.4206C427.857 58.5364 432.168 51.7929 439.385 51.8793C439.9 51.8847 439.892 51.1876 439.385 51.1619ZM407.269 41.6673C407.665 41.3964 407.311 40.7937 406.868 41.048C399.505 45.2715 394.007 53.205 392.9 60.9989C392.285 65.3232 392.754 69.9446 394.797 73.9354C395.968 76.2254 397.978 78.4114 400.789 79.0392C403.373 79.6158 406.036 78.2849 406.838 76.0102C407.149 75.1276 406.614 74.2045 405.806 73.7225C403.186 72.1603 401.077 70.189 399.842 67.5371C398.558 64.78 398.046 61.854 398.031 58.88C397.993 51.9151 401.075 45.9124 407.269 41.6673ZM317.319 44.686C317.659 44.3453 317.231 43.843 316.78 44.0564C311.456 46.5813 308.074 51.4178 307.104 56.7147C306.155 61.9005 307.432 68.9603 311.883 72.7108C314.395 74.8279 318.895 72.0123 316.807 69.2853C315.334 67.3621 313.743 65.7783 312.9 63.5059C312.148 61.4783 311.882 59.4336 311.923 57.3029C312.013 52.6546 313.854 48.1516 317.319 44.686ZM382.404 38.1922C373.309 37.8016 367.797 47.1654 366.534 54.1447C365.755 58.4568 366.341 62.8982 368.981 66.6383L369.137 66.856C371.315 69.8438 375.276 73.2838 379.543 71.8691C381.349 71.2709 381.83 69.526 380.616 68.2023C378.76 66.1761 375.89 65.3502 374.145 63.1867C372.186 60.7603 371.544 57.7205 371.658 54.7698L371.673 54.4439C371.977 49.0163 374.847 38.5988 382.404 38.7832C382.828 38.7931 382.823 38.2098 382.404 38.1922ZM353.955 36.6364C345.157 35.6224 339.8 44.956 338.148 51.3858C337.116 55.4054 336.89 59.8895 338.21 63.879L338.308 64.1632C339.383 67.1406 342.553 72.2422 346.691 70.7206C347.825 70.3038 348.983 69.1683 348.44 67.9441C347.746 66.3791 346.746 65.9732 345.412 64.9718C344.385 64.2008 343.668 63.094 343.14 62.004C341.734 59.0987 341.42 55.7047 341.613 52.574L341.639 52.2035C342.136 46.0884 345.813 36.9752 353.955 37.1428C354.327 37.1504 354.301 36.676 353.955 36.6364ZM337.849 27.8617C332.952 26.1802 328.941 30.4024 326.126 33.4156C322.6 37.1913 319.402 41.2586 317.594 45.9587C315.983 50.1467 315.7 54.8031 317.151 59.0662C317.869 61.1771 318.988 63.1345 320.515 64.8574L320.71 65.0747C322.299 66.8224 323.834 67.8964 326.437 67.2707C327.497 67.0155 327.944 66.0708 327.761 65.1679C327.369 63.2389 326.267 62.7379 324.839 61.3913C323.58 60.2036 322.645 58.7408 322.017 57.2029C320.722 54.0304 320.654 50.5931 321.524 47.3247C322.497 43.6657 324.413 40.2869 326.629 37.1207L327.107 36.4425C329.455 33.095 332.802 27.94 337.755 28.4832C338.18 28.53 338.185 27.9769 337.849 27.8617Z" fill="black"/>
<path fill-rule="evenodd" clip-rule="evenodd" d="M355.469 166.286C354.702 165.086 352.935 163.973 351.319 164.144C344.078 164.908 344.09 172.809 346.886 177.421C349.365 181.511 354.496 183.912 359.631 183.561C365.026 183.193 369.622 180.338 371.645 175.796C372.983 172.792 373.601 167.246 370.043 165.227C369.976 165.19 369.867 165.199 369.815 165.254C368.109 167.04 368.042 169.722 366.548 171.711C365.158 173.561 363 175.088 360.471 175.324C358.583 175.5 356.672 174.887 355.934 173.362C355.534 172.536 355.58 172.088 355.73 171.52L355.866 171.027C356.339 169.298 356.552 167.981 355.469 166.286ZM353.533 131.637C349.756 133.703 344.002 138.52 348.065 143.642C352.847 148.157 359.732 142.98 363.125 140.638C366.271 138.823 369.806 143.491 366.887 145.61C342.37 161.945 332.42 132.177 351.623 129.208C353.737 128.881 354.522 130.998 353.533 131.637ZM393.413 117.471C391.095 114.341 385.804 114.802 384.527 118.516C383.836 120.528 384.791 122.336 384.741 124.346C384.7 126.043 384.823 127.934 385.402 129.578C386.72 133.326 390.466 135.973 394.897 135.863C399.314 135.754 403.205 133.238 405.055 129.695C406.911 126.138 406.518 122.457 405.163 118.84C405.098 118.666 404.845 118.582 404.692 118.728C403.09 120.26 401.917 121.878 400.704 123.594L399.46 125.352C398.51 126.676 397.128 128.368 395.354 128.261L395.088 128.238C394.594 128.2 394.67 128.288 394.29 127.683C394.114 127.403 394.146 126.883 394.061 126.552L394.031 126.441L394.047 126.381C394.085 126.221 394.122 125.919 394.152 125.396L394.159 125.28C394.287 122.833 395.056 119.689 393.413 117.471ZM334.654 119.555C335.07 115.552 328.817 114.663 326.738 117.625C325.653 119.169 325.338 121.11 325.098 122.948L324.986 123.821C324.74 125.709 324.642 127.673 325.553 129.434C326.987 132.208 330.106 133.674 333.471 133.442C336.684 133.22 339.616 131.543 341.161 128.998C342.539 126.727 343.909 122.293 342.236 119.924C342.135 119.78 341.932 119.762 341.794 119.873C340.213 121.136 339.955 123.44 339.015 125.086C338.045 126.784 336.574 128.438 334.345 128.696C332.213 128.943 331.398 127.895 331.942 126.065C332.644 123.703 334.39 122.096 334.654 119.555ZM391.724 93.6727L390.702 93.3202C387.198 92.1291 382.387 90.7522 379.539 93.3163C377.781 94.8974 377.447 97.2265 378.701 99.156C380.221 101.493 382.947 101.551 385.579 101.895C388.574 102.287 391.619 103.031 394.406 104.092C397.547 105.288 400.461 106.779 403.316 108.444C406.03 110.026 408.734 112.611 411.982 113.099C412.114 113.119 412.265 113.067 412.299 112.936C413.037 110.078 410.987 107.266 409.158 105.036C406.944 102.337 404.262 100.121 401.265 98.1343C398.371 96.2166 395.066 94.8308 391.724 93.6727ZM328.076 103.834L327.764 103.785C325.639 103.466 323.714 103.54 322.112 105.054C320.89 106.209 320.419 107.707 321.002 109.234C321.539 110.644 322.742 112.075 324.487 112.37C330.377 113.368 336.902 113.203 342.823 112.448C345.531 112.102 348.264 111.679 350.903 111.012L352.117 110.695C354.319 110.129 356.841 109.538 358.441 108.08C359.016 107.556 358.684 106.806 357.996 106.564C355.204 105.58 351.378 106.103 348.401 106.026C344.939 105.937 341.47 105.703 338.024 105.382C334.656 105.067 331.398 104.382 328.076 103.834Z" fill="black"/>
<path fill-rule="evenodd" clip-rule="evenodd" d="M309.797 133.759C314.388 138.921 332.36 144.65 341.925 138.43C351.491 132.21 355.271 127.876 356.549 120.104C356.686 119.275 358.351 118.724 359.055 119.312C362.996 122.607 365.547 126.803 368.075 131.01C370.926 135.755 373.734 140.529 378.915 143.741C388.091 148.167 404.692 148.798 409.596 146.845C418.991 143.105 426.423 135.105 428.113 124.096C429.259 120.841 430.334 118.871 431.338 118.186C432.766 117.212 440.644 116.344 441.507 116.2C457.06 113.603 476.731 111.947 490.583 121.084C492.458 122.104 498.876 125.935 498.972 124.993C499.038 121.303 494.391 112.951 483.823 108.976C470.754 104.062 451.327 103.774 440.072 104.859C439.506 104.913 437.577 104.487 437.441 104.434C420.39 97.7902 400.771 99.5546 382.527 102.347C379.913 102.803 356.509 108.019 347.2 104.859C331.808 99.2042 315.398 95.1075 298.777 96.7192C298.638 96.7327 296.54 108.194 298.174 108.976C299.475 109.599 301.688 111.193 302.475 112.066C303.178 112.846 303.621 113.816 303.581 115.159C303.265 122.932 305.729 129.186 309.797 133.759ZM373.08 126.823C371.129 124.283 370.513 118.575 371.33 114.412C371.744 112.303 372.547 110.625 373.555 109.79C374.225 109.235 374.99 108.973 375.824 109.012C376.281 109.033 376.776 109.15 377.3 109.405C384.399 105.949 392.998 104.705 401.149 105.063C407.638 105.062 412.267 106.44 415.407 108.586C419.185 111.168 420.887 114.879 420.985 118.904C421.102 123.68 418.922 128.905 415.346 133.039C411.923 136.996 407.24 139.93 402.161 140.607C396.394 141.637 390.517 140.64 385.408 138.203C380.168 135.702 375.741 131.686 373.08 126.823ZM316.178 129.518C312.889 126.02 310.702 121.47 310.369 116.961C310.066 112.858 311.287 108.794 314.663 105.435C317.723 103.071 323.131 103.032 328.819 104.348C336.175 106.05 343.784 109.854 346.321 112.311C346.919 112.593 347.473 113.084 347.956 114.137L347.96 114.513C348.728 117.702 348.272 120.939 346.943 123.924C345.499 127.168 343.023 130.112 340.003 132.359C335.991 135.333 331.803 136.243 327.884 135.763C323.444 135.219 319.315 132.854 316.178 129.518Z" fill="white"/>
<path fill-rule="evenodd" clip-rule="evenodd" d="M347.729 103.595C332.143 97.8687 315.483 93.7411 298.616 95.3767C297.221 94.8991 295.49 95.3015 294.872 97.0766C288.864 113.547 302.261 108.967 302.081 115.124C300.677 149.646 352.236 155.541 358.033 120.301L358.14 120.358C366.481 127.363 368.238 138.761 378.063 144.852C397.884 157.898 425.982 147.562 429.591 124.338L429.669 124.024C430.881 119.284 432.329 118.109 438.304 118.132L439.247 117.964C454.77 115.211 475.442 112.738 489.739 122.203C492.849 123.831 492.995 128.015 495.622 129.833C498.501 130.336 500.274 127.22 500.47 125.064C500.926 103.567 458.181 102.02 439.038 103.865C438.672 103.524 437.891 103.567 437.628 103.991C420.315 97.2454 400.811 98.1788 382.273 101.016C370.79 103.016 359.449 107.573 347.729 103.595ZM300.168 99.3454C309.52 98.9246 318.171 99.385 327.351 101.408C332.19 102.459 335.902 103.787 340.533 105.384C369.419 116.901 372.751 96.4294 437.499 104.454C436.662 107.683 436.508 110.88 436.463 113.913C423.242 113.434 426.355 124.795 421.402 132.774L421.249 133.015C414.031 144.658 396.997 150.088 383.256 142.366C371.792 136.353 370.674 121.102 359.261 115.049C349.367 114.699 353.319 126.716 347.935 131.655C340.356 140.756 324.247 142.029 314.744 133.468C310.285 129.349 307.916 124.119 307.785 118.501C307.536 114.911 308.22 111.263 305.205 108.738C303.091 106.805 299.335 107.45 298.904 104.529C298.63 102.802 299.428 100.928 300.168 99.3454ZM401.811 104.051C392.52 103.639 382.69 105.091 374.713 109.191C368.808 104.962 367.361 121.769 371.281 126.63C376.927 137.028 390.074 143.864 402.732 141.594C422.48 139.019 436.239 104.02 401.811 104.051ZM375.28 110.318L375.785 110.252C384.344 109.077 407.646 103.632 416.634 112.225C425.356 126.479 403.228 150.42 380.2 131.35C373.791 125.478 371.307 118.358 375.28 110.318ZM348.159 112.14C343.727 107.417 321.14 97.8515 313.266 103.99C298.897 118.483 321.685 147.798 340.773 133.515C347.13 128.741 351.312 121.135 349.482 113.77L349.479 113.461C349.475 113.349 349.452 113.375 349.319 113.235C349.083 112.678 348.659 112.323 348.159 112.14ZM313.467 120.924C308.621 97.2696 328.875 106.262 345.509 112.576C344.616 113.31 344.62 114.312 344.876 115.136C346.631 132.687 322.927 142.633 313.467 120.924ZM439.374 105.015C446.312 107.129 492.203 103.347 496.442 122.707C491.967 116.182 482.699 113.593 474.367 112.188C463.034 110.276 451.763 111.383 440.589 113.394L440.358 111.313C440.11 109.106 439.849 107.041 439.374 105.015Z" fill="black"/>
</g>
<defs>
<clipPath id="clip0_1_450">
<rect width="619" height="505" fill="white"/>
</clipPath>
</defs>
</svg>
