<svg width="202" height="288" viewBox="0 0 202 288" fill="none" xmlns="http://www.w3.org/2000/svg">
<g clip-path="url(#clip0_1_787)">
<path fill-rule="evenodd" clip-rule="evenodd" d="M-0.0321719 271.325C-0.399807 271.336 -0.283925 271.238 -0.148864 271.214C-0.109967 271.251 -0.0710694 271.288 -0.0321719 271.325ZM10.8227 278.685C21.0946 279.796 31.3792 278.78 41.6006 277.761C62.3081 276.361 82.87 280.44 103.618 279.196C129.548 278.199 155.548 276.328 181.391 279.482C188.539 279.632 199.941 281.391 197.348 271.298C193.943 245.349 189.391 219.531 184.514 193.782C180.381 179.347 180.082 154.379 168.764 144.34C167.11 142.962 161.175 138.505 159.606 137.906C151.805 135.257 137.742 133.19 131.94 127.574C127.24 120.321 129.426 110.424 122.119 104.585C115.714 99.8152 101.735 100.823 94.888 104.405C89.4855 107.6 88.6393 113.806 85.273 118.395C84.4426 119.495 82.4702 122.146 81.3565 123.001C78.6454 125.381 69.1233 127.883 66.3735 128.342C50.8558 131.243 43.1184 133.035 30.9135 142.44C-0.976518 172.135 3.54397 224.657 -5.28009 263.488C-5.64125 267.757 -8.48643 273.55 -3.41031 276.298C0.961605 278.209 6.10202 278.001 10.8227 278.685Z" fill="#AE5D29"/>
<path fill-rule="evenodd" clip-rule="evenodd" d="M128.382 117.702C128.42 117.601 128.598 117.584 128.625 117.702C129.061 119.518 129.876 121.509 130.703 123.211C131.543 124.936 132.691 126.52 134.141 127.866C137.18 130.684 141.089 131.97 145.376 131.973L145.478 131.975C145.498 131.844 145.52 131.712 145.541 131.581L145.57 131.384C145.962 128.684 149.476 128.762 150.162 130.8C150.511 130.901 150.859 131.002 151.205 131.108L151.274 131.131C151.856 131.333 153.828 132.228 154.19 131.99C154.987 131.467 155.897 132.066 156.199 132.734C156.694 133.827 156.776 135.178 156.937 136.365L156.958 136.518L156.983 136.703C168.26 139.377 174.589 149.668 177.82 159.149C179.57 164.288 180.716 169.591 181.866 174.863C183.098 180.503 184.233 186.157 185.435 191.799C187.804 202.918 190.046 214.063 191.993 225.248L192.558 228.497C194.342 238.783 196.08 249.062 197.541 259.395C198.33 264.965 199.07 270.541 199.783 276.122C199.911 277.117 200.038 278.112 200.164 279.108L200.351 280.603C200.518 281.944 200.802 283.269 200.075 284.523C198.5 287.243 193.73 287.223 193.46 283.74C193.406 283.047 193.663 282.518 194.087 282.148L194.081 282.09C194.077 282.055 194.072 282.029 194.071 282.017C193.93 281.325 193.892 280.593 193.806 279.893C193.617 278.401 193.433 276.907 193.247 275.412C192.887 272.564 192.525 269.716 192.15 266.87C191.391 261.097 190.589 255.332 189.738 249.571L188.895 243.876C186.075 224.89 183.135 205.909 179.268 187.074C178.214 181.947 177.131 176.827 176.021 171.709C174.967 166.863 173.784 162.039 172.018 157.36C169.133 149.717 164.09 142.56 157.088 137.543C157.196 138.502 157.274 139.465 157.374 140.424C157.631 142.885 157.904 145.344 158.179 147.803C159.182 156.712 160.54 165.606 162.858 174.318C164.006 178.635 165.405 182.895 167.11 187.057C167.95 189.106 168.865 191.129 169.87 193.115C170.864 195.079 172.607 197.178 172.712 199.366C172.761 200.379 171.599 201.278 170.524 201.169C171.026 205.2 171.31 209.273 171.61 213.294C172.047 219.118 172.396 224.953 172.906 230.772C173.819 241.197 174.965 251.606 176.164 262.006C176.402 264.068 176.66 266.128 176.916 268.188L177.13 269.918C177.274 271.039 177.492 272.382 176.839 273.377C177.423 274.66 177.823 275.979 178.055 277.353C178.349 279.063 177.277 280.98 175.089 280.906C174.84 280.899 174.592 280.879 174.343 280.855C172.315 281.283 170.292 281.66 168.185 281.673C165.494 281.69 162.798 281.641 160.108 281.623C154.903 281.591 149.698 281.559 144.492 281.52C125.649 281.382 106.797 281.389 87.9559 281.113L80.4175 281.004C73.5068 280.903 66.595 280.786 59.6877 280.556C54.9308 280.399 50.1742 280.239 45.4198 280.064L44.4519 280.03C40.257 279.891 36.057 279.819 31.9084 279.233C31.8044 279.217 31.7594 279.119 31.7755 279.032L31.7814 279.009L31.6004 278.972C31.4951 279.386 29.3071 277.647 29.3233 276.491C28.4157 275.414 28.8398 273.695 28.937 272.448C29.0316 271.233 29.1504 270.016 29.2558 268.802C29.48 266.207 29.6718 263.61 29.9014 261.016C30.8279 250.554 31.6274 240.066 32.1461 229.582C32.4081 224.297 32.6188 219.01 32.8403 213.725C32.94 211.319 33.0789 208.911 33.3376 206.515L33.4048 205.917C33.6885 203.488 33.6614 200.876 34.642 198.587C34.6555 198.555 34.7014 198.555 34.7149 198.587C35.7063 200.815 35.8008 203.404 36.0007 205.848C36.0358 205.838 36.0709 205.833 36.1087 205.826C37.4783 205.232 38.8613 204.698 40.1579 203.963C40.3335 203.865 40.5036 203.761 40.6765 203.66C42.7159 197.969 45.0795 192.371 47.254 186.717C54.2798 168.433 58.1588 148.961 59.0178 129.6C53.6585 132.751 47.8218 135.203 42.148 137.836L41.6165 138.083C36.0277 140.69 30.6766 143.649 26.6977 148.17C23.2294 152.107 20.963 156.904 18.8426 161.529C16.5655 166.498 14.5125 171.557 12.6352 176.662C8.82647 187.02 5.87675 197.631 3.57531 208.351C1.30359 218.931 -0.319841 229.589 -1.40573 240.322C-1.95948 245.797 -2.46461 251.276 -2.8887 256.763C-3.10479 259.54 -3.29658 262.319 -3.47486 265.101C-3.5613 266.451 -3.62613 267.804 -3.72337 269.154C-3.7828 269.932 -3.7936 270.735 -4.07453 271.475C-4.30954 272.09 -4.72552 272.606 -5.1145 273.15C-5.82492 274.143 -7.61853 274.323 -8.28573 273.15L-8.57463 272.642C-8.95703 271.966 -9.30624 271.285 -9.35811 270.504C-9.40673 269.765 -9.30678 268.994 -9.26086 268.252C-9.17172 266.752 -9.06908 265.249 -8.96643 263.748C-8.75033 260.592 -8.50993 257.436 -8.2398 254.282C-7.70226 247.965 -7.01075 241.665 -6.14096 235.377C-3.08048 213.294 1.33871 191.326 9.7719 170.369C11.8572 165.188 14.183 160.048 16.8086 155.074C19.3477 150.264 22.5595 145.723 27.2218 142.412C31.5134 139.363 36.5022 137.323 41.459 135.342L42.0784 135.094C47.6348 132.879 53.1804 130.494 58.9826 128.849C58.853 128.863 58.726 128.878 58.6155 128.913C58.4883 128.95 58.413 128.799 58.4913 128.718C58.8206 128.385 58.9583 128.043 59.3368 127.715C59.598 127.489 59.8698 127.275 60.1494 127.068L60.5518 126.776C61.2879 126.243 62.0618 125.698 62.9885 125.513C64.2989 125.251 64.9418 126.338 64.5742 127.188C64.7632 126.964 65.2711 127.03 65.4034 127.338C69.7146 137.479 72.5454 148.214 78.3477 157.796C82.6318 164.875 88.38 171.411 96.0082 175.686C100.106 177.982 104.796 179.746 109.639 180.025C113.987 180.274 118.172 179.266 121.87 177.184C129.039 173.151 133.72 166.07 137.059 159.208C140.73 151.654 143.35 143.605 144.889 135.444C140.011 135.506 134.862 133.476 131.618 130.167C129.911 128.425 128.639 126.303 127.993 124.042C127.342 121.76 127.55 119.885 128.382 117.702ZM87.4561 111.777C88.0506 110.808 89.3688 110.488 90.4466 110.882C91.643 111.321 92.0025 112.38 91.8323 113.457C91.6349 114.719 90.7462 116.081 90.0549 117.182C89.331 118.335 88.3991 119.398 87.4345 120.39C85.6195 122.263 83.6771 123.95 81.3732 125.33C79.0799 126.703 76.4864 127.73 73.8206 128.304L73.1868 128.439C71.113 128.871 68.1626 129.367 66.4352 128.339C66.3517 128.289 66.3542 128.188 66.4352 128.139C67.3698 127.545 68.6208 127.439 69.6956 127.159C70.8679 126.851 72.0432 126.501 73.1639 126.062C75.3765 125.195 77.4943 124.051 79.3794 122.687C81.2733 121.317 83.1044 119.683 84.3716 117.798C85.009 116.852 85.552 115.859 86.0731 114.859C86.6001 113.856 86.8645 112.743 87.4561 111.777Z" fill="black"/>
<path fill-rule="evenodd" clip-rule="evenodd" d="M158.375 66.9595C158.268 61.4342 158.149 55.7983 157.251 50.3268C156.372 44.9775 153.956 40.1423 149.803 36.2579C140.984 28.0069 128.199 25.9915 116.299 24.1446L95.9531 20.9869C89.7459 20.0237 83.1238 18.4841 76.8524 19.8501C73.7621 20.5232 71.1378 22.0869 68.7393 23.937C66.4273 25.7202 63.9416 27.6352 62.375 30.0343C60.8058 32.4369 60.266 35.2454 59.7558 37.9627C59.1804 41.0263 58.7334 44.1138 58.4159 47.2087C57.7795 53.4093 57.6926 59.6566 58.1542 65.8701C58.3778 68.8839 58.7337 71.889 59.188 74.8808C59.4132 76.3644 59.6679 77.8442 59.9555 79.3189C60.0402 79.7537 60.1046 80.2352 60.1915 80.7216C59.5497 82.3904 59.185 84.1186 59.2144 85.8395C59.301 90.9085 63.9807 94.0999 68.6985 95.8133C71.434 96.8068 74.2939 97.4819 76.9816 98.5918C79.8091 99.7591 81.7336 101.652 83.6668 103.811C87.3538 107.928 91.5145 111.629 96.2655 114.716C106.338 121.262 119.096 124.359 131.318 122.008C134.251 121.445 137.209 120.569 139.845 119.25C142.628 117.857 144.72 115.839 146.478 113.452C149.741 109.022 152.081 104.034 153.851 98.9578C155.656 93.7797 156.938 88.5923 157.637 83.193C158.334 77.8112 158.48 72.3746 158.375 66.9595Z" fill="#AE5D29"/>
<path fill-rule="evenodd" clip-rule="evenodd" d="M93.3878 1.75862C101.796 0.700946 113.402 4.13856 117.59 11.07C137.582 6.75994 162.798 6.61877 179.276 20.9667C196.47 37.9864 174.873 60.4271 160.553 65.4866C161.595 70.1201 159.97 99.8041 148.467 113.045C139.338 124.264 118.079 129.441 108.242 116.041L108.165 115.931C107.111 114.383 108.019 114.433 109.101 115.584C118.733 123.33 131.831 123.463 141.923 115.287C160.839 100.345 158.888 63.7073 149.887 42.5118C124.258 39.9377 96.8164 47.0413 79.1143 64.6837L80.3113 71.2736C80.5153 72.3963 80.747 73.518 80.9237 74.6447C81.0369 75.3666 81.0495 76.0845 80.5026 76.6689C78.6967 78.5979 75.6531 75.6992 73.1488 74.5461C72.4096 74.451 71.6689 74.4143 70.9426 74.4611C58.9109 75.8783 61.2815 97.2214 74.5051 93.4802C75.6162 92.8473 76.5707 93.0404 77.0018 93.9589C80.1537 96.599 82.232 101.308 87.4687 105.843C89.3164 107.544 90.9978 108.967 93.0761 110.332C94.2968 111.461 97.9803 112.612 96.8126 114.544C94.6045 118.939 81.5832 105.132 79.2811 101.313C72.0679 103.918 64.0743 103.033 56.5993 102.396C17.1646 100.521 22.429 62.509 54.7527 38.5097C60.8372 34.4136 67.5503 31.0721 74.5285 28.5007C75.4812 28.1496 75.0649 26.7192 74.0988 27.0752C69.4815 28.7769 64.9804 30.8023 60.6896 33.1465L60.6831 31.745C60.6768 29.3845 60.7173 26.9269 61.1657 24.7701C61.3898 23.2757 61.7667 21.6794 62.3471 20.4786C63.0645 16.7971 74.3033 4.16024 93.3878 1.75862ZM70.4163 79.3611C71.0252 78.8321 72.1619 79.4629 72.7039 79.4471C74.0901 79.6205 75.407 80.1559 76.434 80.8167C77.1121 81.164 77.5874 81.4902 77.9845 81.7903L77.9953 81.7876C77.9923 81.7876 77.9886 81.7903 77.9853 81.7911L78.0227 81.8142C78.601 82.1899 80.7177 84.306 79.3804 83.7369C79.2807 83.6184 79.1786 83.5046 79.0757 83.393C79.0646 83.4082 79.0493 83.4233 79.0309 83.4378L79.1061 83.5398C80.2427 85.1033 78.2802 83.456 77.9783 83.0185C77.964 83.0291 77.9479 83.0362 77.932 83.0439L78.3252 83.4815C78.3802 83.5436 78.4234 83.5932 78.4592 83.6351L78.5421 83.7083C79.8564 84.8896 79.8974 85.9527 78.3706 84.2062C78.4307 84.2885 78.4789 84.3757 78.4856 84.4531L78.5761 84.5586C79.7749 85.9712 78.7998 85.4695 78.2041 84.8662L78.1543 84.8143L78.1645 84.8284C78.7187 85.6091 77.6191 85.0613 77.4248 84.6437L77.4166 84.6248C77.2049 84.4668 77.0746 84.2896 77.0299 84.2448L77.0216 84.2373C75.9908 83.2715 74.4966 82.4543 73.2274 82.083C73.0434 82.051 72.8572 82.0254 72.6692 82.0071C71.9059 81.8514 71.1343 81.7447 70.3546 81.6871C70.2592 81.6767 70.1625 81.6127 70.0903 81.5299C68.9113 81.4936 69.2752 81.0516 69.7644 80.9696L69.773 80.9682L69.6759 80.9607C68.9193 80.8932 68.4025 80.6449 69.1676 80.4926L69.2645 80.475C69.2527 80.458 69.2422 80.4409 69.2319 80.4239C68.5767 80.3582 69.0043 79.7757 69.368 79.9167C69.215 79.4592 69.9144 79.6875 70.0017 79.6196C70.0682 79.552 70.1509 79.4924 70.1986 79.4892C70.4093 79.3532 70.3072 79.3655 70.4163 79.3611ZM74.4253 71.9538L74.2718 72.0359C74.1476 72.1021 74.0199 72.1462 73.8916 72.1721C74.0727 72.2426 74.2516 72.3187 74.4286 72.4C74.4257 72.3006 74.4237 72.2014 74.4237 72.1023L74.4253 71.9538Z" fill="black"/>
<path fill-rule="evenodd" clip-rule="evenodd" d="M122.489 91.3257C124 89.0585 127.221 94.6124 127.563 95.5674C127.866 96.4134 128.066 97.28 128.168 98.1566C129.339 98.3961 130.556 98.3965 131.756 98.1867C133.54 97.8745 134.631 96.9996 136.181 96.2485C137.252 95.7294 138.602 96.3381 139.159 97.1989C139.814 98.2122 139.397 99.2639 138.535 100.019C136.901 101.452 133.686 101.781 131.553 101.4C130.331 101.182 129.211 100.764 128.222 100.157C128.216 100.27 128.211 100.384 128.202 100.497L128.183 100.693C128.019 102.282 127.54 104.28 126.187 105.313C123.968 107.009 121.23 103.748 123.386 102.054L123.453 102.003C124.793 101.016 125.085 98.3658 125.013 96.9063C124.966 95.9537 124.776 94.9889 124.446 94.0816L124.378 93.9009C124.279 93.6446 123.196 91.2135 122.805 91.5231L122.787 91.5405C122.625 91.7162 122.365 91.5116 122.489 91.3257ZM134.554 78.5322C136.593 79.6631 139.701 82.3002 137.507 85.1039C134.924 87.5759 131.205 84.7415 129.373 83.4596C127.673 82.4662 125.764 85.0213 127.341 86.1813C140.583 95.1239 145.957 78.8279 135.585 77.2025C134.443 77.0234 134.019 78.1824 134.554 78.5322ZM112.772 68.079C114.766 67.7565 116.808 68.2086 118.457 69.2724L118.582 69.3545C120.172 70.4146 121.95 72.2761 121.038 74.1035C120.672 74.8373 119.576 74.9523 118.88 74.6197C117.722 74.0658 117.512 72.7031 116.479 71.9489C115.632 71.3307 114.491 70.9557 113.399 71.0462C110.836 71.2585 109.259 73.5649 108.462 75.5525C108.36 75.8068 107.951 75.9056 107.791 75.6326C105.914 72.4316 109.237 68.6511 112.772 68.079ZM144.703 66.871C148.522 66.5839 152.992 70.1949 151.986 73.8714C151.504 75.6355 148.635 75.585 148.125 73.8714C147.845 72.9285 147.873 72.0943 147.128 71.3113C146.514 70.6648 145.641 70.2893 144.703 70.3469C143.669 70.4105 142.716 70.8818 141.991 71.5443C141.336 72.1426 140.945 73.018 140.267 73.5474C140.1 73.6775 139.877 73.6859 139.712 73.5474C138.545 72.5661 139.245 70.5231 139.985 69.4986C141.044 68.0326 142.768 67.0166 144.703 66.871ZM105.5 61.5584C107.95 59.5804 112.401 57.6702 115.705 58.6437C117.604 59.2032 118.432 61.9945 116.312 62.8792C113.856 63.9037 111.026 63.4868 108.527 64.5487C107.477 64.9949 106.49 65.5525 105.76 66.3702C105.184 67.0148 104.599 67.8628 103.766 68.2344C103.547 68.3322 103.251 68.3347 103.076 68.1533C101.251 66.2705 103.907 62.8448 105.5 61.5584ZM140.493 58.5455C142.007 58.1579 143.686 58.1658 145.224 58.4092C146.762 58.6527 148.323 59.2339 149.578 60.0817L149.724 60.181C151.094 61.1228 152.73 62.4933 152.642 64.1618C152.569 65.5551 150.962 66.4975 149.575 65.7672C148.444 65.1717 147.911 63.9787 146.954 63.1844C146.164 62.5288 145.236 62.0119 144.245 61.6497C143.145 61.2473 142.044 61.0588 140.863 61.0409C139.954 61.0271 139.04 61.2991 138.148 61.386C138.221 61.5235 137.516 61.4595 137.112 61.3375C136.813 61.2212 136.811 60.876 136.915 60.6521C137.43 59.5426 139.302 58.85 140.493 58.5455Z" fill="black"/>
</g>
<defs>
<clipPath id="clip0_1_787">
<rect width="202" height="288" fill="white"/>
</clipPath>
</defs>
</svg>
