<svg width="200" height="288" viewBox="0 0 200 288" fill="none" xmlns="http://www.w3.org/2000/svg">
<path fill-rule="evenodd" clip-rule="evenodd" d="M184.089 184.585C183.27 182.494 184.465 180.409 185.129 178.386C187.484 171.37 181.041 153.675 176.534 153.417C174.886 149.45 170.488 147.804 167.026 145.52C163.097 143.239 159.276 140.619 155.19 138.619C154.963 136.729 152.5 136.261 150.994 137.613C146.858 135.219 141.897 135.663 137.463 134.095C134.094 129.029 133.841 123.701 132.949 118.813C132.561 116.683 132.974 114.627 131.409 112.727C126.152 105.849 105.381 102.867 97.7226 106.943C93.6002 104.551 93.5009 108.883 92.8461 111.556C92.1184 112.894 91.7246 114.409 91.8463 116.005C89.8947 119.797 88.24 124.54 84.1385 127.373C78.9343 130.967 70.9275 132.333 65.8537 134.095C65.0949 133.416 64.5996 132.585 64.3676 131.603C56.5038 133.194 48.8716 135.989 42.283 140.355C34.7975 142.391 29.5258 148.055 25.7138 154.128C25.2937 154.768 25.1947 155.421 25.3174 156.021C13.595 172.007 8.00013 191.145 7.21427 210.474C-0.32409 214.683 10.7973 252.493 13.3862 260.343C13.3888 260.342 13.3914 260.341 13.3941 260.34C15.0736 263.106 16.9807 271 21.1841 270.39C24.0675 273.423 28.6626 272.826 32.5754 273.059C31.9381 275.334 32.2513 277.936 33.0098 280.183C33.9069 282.858 38.3094 282.949 38.9337 280.032C77.8994 287.075 117.88 281.456 157.284 282.513C168.677 282.588 180.068 282.916 191.434 283.671C193.034 283.777 194.657 282.256 194.548 280.774C192.104 256.588 189.81 224.772 187.077 200.823C186.429 195.361 185.917 189.839 184.089 184.585Z" fill="#EDB98A"/>
<path fill-rule="evenodd" clip-rule="evenodd" d="M64.3676 131.604C64.3804 131.658 64.3939 131.711 64.4083 131.764L64.2593 132.079C63.3153 134.104 62.8433 135.782 62.8433 137.11C62.8433 140.14 77.3367 170.119 109.49 167.364C130.926 165.527 143.992 156.468 148.688 140.185L148.963 136.667C149.657 136.923 150.336 137.232 150.994 137.613C152.5 136.261 154.963 136.73 155.19 138.619C159.276 140.619 163.097 143.239 167.026 145.52L167.266 145.677C170.689 147.882 174.924 149.541 176.534 153.417L177.179 153.455C181.482 153.718 187.484 171.371 185.129 178.386C184.465 180.409 183.27 182.495 184.089 184.586C185.916 189.84 186.429 195.361 187.077 200.823C189.81 224.772 192.104 256.588 194.548 280.774C194.657 282.256 193.031 283.535 191.434 283.672C158.368 286.493 33.907 284.313 33.0098 281.638C32.2513 279.391 31.9381 275.334 32.5755 273.06C28.6626 272.827 24.0676 273.423 21.1842 270.39C16.9808 271.001 15.0737 263.107 13.3941 260.34L13.3863 260.344C10.7973 252.494 -0.324027 214.683 7.21433 210.474C8.00019 191.145 13.595 172.007 25.3175 156.021C25.1999 155.447 25.2859 154.823 25.663 154.209L25.7138 154.129C29.5258 148.056 34.7976 142.392 42.283 140.355C48.8716 135.99 56.5038 133.194 64.3676 131.604ZM159.594 182.213C157.911 180.999 144.689 183.427 135.081 185.609C128.676 187.064 124.214 189.031 121.695 191.51L110.42 203.023L107.567 204.739C107.567 208.323 107.787 212.092 108.227 216.047C108.667 220.001 110.607 224.185 114.046 228.6C124.179 226.01 130.239 224.54 132.224 224.19C135.202 223.666 137.56 219.118 138.96 217.554C140.36 215.991 145.727 215.817 149.817 214.613C152.544 213.81 154.44 211.759 155.506 208.459C161.465 207.263 165.405 206.465 167.325 206.065C169.244 205.666 169.244 204.652 167.325 203.023L145.006 202.297C153.914 200.526 159.322 199.518 161.23 199.274C164.092 198.908 171.78 196.688 171.78 194.967C171.78 193.281 160.076 193.312 153.838 193.314L153.336 193.314C149.24 193.321 142.71 193.678 133.747 194.385L138.96 192.062C150.722 189.944 157.386 188.884 158.955 188.884C160.523 188.884 161.634 187.792 162.288 185.609C161.614 184.154 160.716 183.022 159.594 182.213Z" fill="#FFCF77"/>
<path fill-rule="evenodd" clip-rule="evenodd" d="M145.155 182.615L156.608 158.48C157.761 155.747 159.318 154.38 161.277 154.38C163.236 154.38 173.097 154.639 190.861 155.156C194.496 155.588 195.727 156.696 194.553 158.48C193.379 160.265 184.065 177.764 166.61 210.976H155.506V208.459L167.868 205.244C169.368 203.763 168.949 203.023 166.61 203.023C164.271 203.023 156.299 202.781 142.692 202.296L162.153 199.64L171.78 196.195L170.364 194.385L162.153 193.294L135.414 194.385L142.692 192.095L158.955 188.884C161.087 187.487 162.153 186.103 162.153 184.733C162.153 183.363 159.297 182.415 153.585 181.888L145.155 182.615Z" fill="white"/>
<path fill-rule="evenodd" clip-rule="evenodd" d="M93.4888 108.436C93.6005 108.152 94.056 108.19 94.0646 108.508C94.2441 115.308 92.4244 123.618 86.5752 128.212C83.5727 130.57 79.6031 131.649 75.9576 132.889L75.5464 133.03L69.1058 135.262C67.3975 135.854 65.5548 136.765 64.0459 135.928C65.2669 138.745 66.2919 141.64 67.779 144.354C69.63 147.734 71.868 150.826 74.607 153.638C85.4585 164.779 102.632 168.177 118.044 164.913C125.98 163.232 133.702 160.046 139.116 154.235C143.231 149.819 145.595 143.891 146.152 138.044C145.989 138.068 145.819 138.067 145.643 138.031C143.693 137.635 141.725 136.663 140.009 135.709L139.844 135.617C138.193 134.693 136.472 133.633 135.287 132.197C134.503 131.245 133.699 129.219 132.876 126.116C132.539 124.367 132.224 120.883 132.278 119.115C132.283 118.949 133.078 118.85 133.163 119.024C133.898 120.524 134.136 123.822 134.703 125.384L134.818 125.696C135.424 127.327 135.943 129.313 137.199 130.632C139.558 133.108 143.116 134.156 146.292 135.398C146.52 132.599 151.325 132.665 151.264 135.583C151.26 135.742 151.253 135.899 151.247 136.057C151.626 136.251 151.99 136.473 152.331 136.686L152.663 136.896C153.921 137.692 155.189 138.449 156.528 139.124C159.122 140.432 161.867 141.469 164.525 142.656C167.213 143.857 169.727 145.288 172.074 147.001C173.177 147.805 174.234 148.661 175.237 149.572L175.509 149.821C176.463 150.705 177.705 151.694 178.249 152.856C178.369 153.113 178.969 153.708 179.295 153.728C184.344 154.036 189.382 154.471 194.399 155.123C195.698 155.292 196.211 155.915 195.731 156.922C194.081 160.383 187.622 174.205 185.904 177.915C186.105 180.64 185.834 183.848 186.015 186.574C186.279 190.552 186.626 194.529 187.041 198.495C188.526 212.685 190.777 226.806 192.812 240.934C193.83 248.004 194.759 255.086 195.675 262.168C196.138 265.747 196.53 269.33 196.833 272.924C196.959 274.422 197.073 275.921 197.173 277.42L197.26 278.75C197.38 280.424 197.655 282.022 196.542 283.459C196.037 284.11 194.885 284.477 194.221 283.737C193.387 282.806 193.077 282.111 192.997 280.889C192.936 279.953 192.921 279.013 192.875 278.076C192.776 276.046 192.652 274.016 192.506 271.988C192.215 267.934 191.883 263.88 191.498 259.832C190.149 245.638 187.585 231.551 185.879 217.393C185.019 210.255 184.409 203.103 184.085 195.926C183.924 192.342 183.865 188.758 183.903 185.17C183.917 183.83 183.986 182.496 184.084 181.166C181.529 186.567 178.842 191.916 176.033 197.194L175.367 198.444C173.587 201.78 171.759 205.128 169.62 208.273L169.252 208.809C168.386 210.087 167.202 212.101 165.621 212.504C164.52 212.785 163.175 212.587 162.046 212.567C160.926 212.547 159.804 212.543 158.685 212.501C157.429 212.454 156.231 212.3 155.018 211.996C154.816 211.945 154.626 211.89 154.452 211.821C153.229 213.682 151.152 215.099 149.028 215.925C147.327 216.587 145.544 217.04 143.758 217.46L143.128 217.607C141.213 218.051 139.023 218.262 137.943 219.982L137.692 220.381C136.889 221.65 136.119 222.764 134.79 223.674C133.36 224.653 131.666 225.269 129.978 225.749C128.249 226.239 126.481 226.615 124.726 227.017L124.248 227.128C123.089 227.398 121.92 227.645 120.769 227.939C120.278 228.064 119.778 228.193 119.295 228.347C118.731 228.527 118.321 228.809 117.876 229.116C117.475 230.416 115.765 231.123 114.358 231.032C113.62 230.984 112.957 230.751 112.354 230.409C111.302 231.243 110.143 231.989 109.07 232.762C107.568 233.843 106.06 234.916 104.543 235.98C101.417 238.173 98.2662 240.336 95.0829 242.457C89.4326 246.222 83.66 249.814 77.7888 253.273C75.3408 254.715 72.8764 256.155 70.3877 257.561L70.6533 257.652L71.1801 257.838C72.4253 258.27 73.8128 258.969 74.0541 260.32C74.2454 261.392 73.6018 262.131 72.4642 262.262C71.1121 262.417 70.0599 261.529 69.2181 260.68C68.8465 260.306 68.4306 259.959 68.0747 259.573C67.9296 259.416 67.8181 259.235 67.7198 259.045C65.2639 260.391 62.7817 261.692 60.2603 262.909L59.6291 263.211C53.3763 266.186 47.2903 269.445 40.9844 272.335C39.3395 273.089 37.334 273.904 35.2435 274.461C35.7982 276.461 35.7896 278.657 35.8037 280.688C35.817 282.666 32.4372 282.657 32.5086 280.688L32.543 279.737C32.6045 278.138 32.705 276.478 33.1128 274.922C26.9535 275.872 20.8004 273.807 19.6547 273.187C18.3902 272.503 17.2424 271.408 16.2872 270.392C14.2431 268.219 12.8246 265.613 11.5661 262.992C8.87027 257.379 6.96034 251.379 5.56398 245.378C0.416032 223.255 2.6303 199.576 10.9905 178.368C13.0792 173.069 15.5451 167.887 18.3709 162.893L18.7218 162.276C21.5416 157.337 24.6757 152.416 28.6567 148.213C32.8033 143.836 37.9184 140.431 43.4877 137.788C46.2056 136.499 49.0022 135.381 51.8606 134.391C52.3197 134.231 52.782 134.089 53.2453 133.953C56.224 132.186 59.8391 130.496 63.4554 130.562C63.7011 130.566 63.9002 130.653 64.0487 130.784C64.2231 130.812 64.3974 130.847 64.572 130.894C64.9573 130.998 65.3643 131.391 65.3091 131.794L65.2903 131.929C65.2801 131.994 65.2673 132.058 65.2452 132.119C65.3745 132.137 65.5014 132.166 65.6257 132.205C69.0857 131.296 72.49 129.906 75.8663 128.785L76.6353 128.532C79.4631 127.61 82.3644 126.707 84.6841 124.882C86.9919 123.067 88.7272 120.716 89.9818 118.174C91.5275 115.043 92.2196 111.65 93.4888 108.436ZM162.762 273.594C163.447 273.12 164.257 273.67 164.513 274.257C165.355 276.183 164.939 279.176 163.753 280.878C162.524 282.643 159.581 281.946 159.51 279.809C159.436 277.581 160.828 274.933 162.762 273.594ZM169.838 220.412C169.9 220.162 170.318 220.164 170.38 220.412C170.951 222.672 170.937 225.106 171.105 227.423L171.124 227.68C171.325 230.235 171.494 232.798 171.614 235.357C171.851 240.393 172.133 245.429 172.45 250.462C172.607 252.957 172.775 255.452 172.955 257.947C173.517 257.655 174.096 257.399 174.697 257.173C175.596 256.835 176.472 256.796 177.438 256.805C178.615 256.816 179.501 257.779 179.346 258.852C179.176 260.02 178.07 260.521 176.922 260.354C175.651 260.169 174.373 259.882 173.09 259.763C173.233 261.692 173.38 263.62 173.537 265.547C173.745 268.098 174.015 270.647 174.206 273.199C174.224 273.442 174.243 273.686 174.264 273.931C175.029 273.56 175.842 273.371 176.763 273.137L177.003 273.075C178.341 272.717 179.772 272.223 181.01 273.06C181.842 273.623 182.009 274.549 181.319 275.291C180.274 276.417 178.727 276.198 177.283 276.141L176.506 276.114C175.774 276.088 175.099 276.044 174.422 275.872C174.546 277.535 174.612 279.204 174.392 280.842C174.274 281.728 173.021 281.96 172.689 281.057C171.823 278.696 171.644 276.15 171.327 273.677C171.031 271.367 170.851 269.041 170.657 266.721L170.598 266.026C170.162 260.922 169.813 255.816 169.558 250.701C169.303 245.588 169.15 240.476 169.089 235.357C169.061 233.033 169.102 230.701 169.2 228.377L169.231 227.68C169.344 225.29 169.265 222.754 169.838 220.412ZM55.3407 273.971C55.374 273.644 55.6552 273.238 56.0734 273.289C56.4587 273.335 56.8558 273.313 57.237 273.372C57.7402 273.45 58.1451 273.726 58.6131 273.901C59.3737 274.183 60.2028 274.33 60.9832 274.561C62.4473 274.996 63.2451 276.43 62.6388 277.769C62.0012 279.176 60.399 279.496 59.0146 278.905C57.9234 278.44 57.11 277.695 56.3763 276.834L56.1684 276.589C55.8522 276.219 55.4934 275.806 55.3607 275.357C55.2317 274.921 55.2953 274.415 55.3407 273.971ZM126.474 267.353C128.297 267.114 129.855 267.694 131.542 268.241L131.68 268.285C133.397 268.836 135.903 269.218 136.783 270.854C137.314 271.84 136.902 273.149 135.652 273.441C133.673 273.903 131.898 272.557 130.262 271.651L130.176 271.604C128.596 270.743 126.966 270.019 125.957 268.535C125.688 268.139 125.921 267.425 126.474 267.353ZM62.8131 132.43C62.0825 132.582 61.3519 132.716 60.6221 132.846C57.8458 134.23 55.151 135.667 52.2846 136.9C49.2433 138.209 46.2132 139.561 43.3243 141.144C37.488 144.342 32.6766 148.501 28.701 153.599C21.8336 162.404 16.7252 172.559 13.0693 182.863C12.1299 185.51 11.2893 188.187 10.5457 190.886C11.8605 189.755 13.4171 189.059 15.1626 188.464C15.9024 188.211 16.8232 188.639 17.1981 189.234C17.3667 189.502 17.4618 189.767 17.4444 190.081C17.4055 190.773 16.9209 191.561 16.121 191.698C14.2561 192.017 12.4429 192.64 10.6447 193.188C10.3722 193.271 10.1379 193.239 9.95083 193.142C8.16571 200.176 7.04893 207.355 6.6534 214.578C6.31883 220.692 6.5252 226.855 7.25322 232.961C7.81265 232.727 8.35983 232.508 8.97319 232.375C9.76869 232.203 10.5512 231.993 11.3271 231.757C13.5664 231.073 14.5878 234.512 12.299 235.037C11.4472 235.232 10.5903 235.394 9.72231 235.512C8.9659 235.615 8.29677 235.57 7.58361 235.462C8.12845 239.271 8.87262 243.053 9.82055 246.781L10.0297 247.597C11.2611 252.358 12.6962 257.164 14.7715 261.664C15.7895 263.871 17.1374 265.968 18.8016 267.808C19.6193 268.713 20.5268 269.489 21.5165 270.224C22.3404 270.836 25.141 272.163 28.4578 272.163C31.7747 272.163 32.6726 271.871 34.3461 271.335C37.6555 270.276 40.7977 268.584 43.9013 267.077L44.2222 266.922C45.5946 266.261 46.9618 265.591 48.3253 264.915C48.1531 263.621 48.4545 262.535 49.1789 261.341C49.9619 260.048 51.902 260.692 52.0462 262.014L52.0508 262.064C52.0727 262.362 52.1264 262.666 52.1931 262.969C61.3105 258.322 70.2348 253.351 79.0171 248.17C84.6742 244.832 90.2711 241.395 95.7861 237.858C98.5432 236.09 101.276 234.289 103.982 232.454C105.4 231.492 106.811 230.523 108.215 229.546C108.8 229.138 109.374 228.711 109.96 228.301C109.817 228.135 109.679 227.97 109.544 227.806C107.355 225.14 105.935 221.961 105.227 218.682C104.8 216.703 104.593 214.649 104.53 212.632L104.503 211.755C104.46 210.277 104.448 208.731 104.741 207.299C104.343 207.502 103.936 207.702 103.53 207.916C102.074 208.683 100.617 209.449 99.1576 210.211C96.2351 211.736 93.304 213.243 90.3357 214.69C85.0337 217.274 79.6797 219.732 74.181 221.935L71.5055 223.008C66.8619 224.866 62.1804 226.691 57.3525 228.072C54.6294 228.851 50.5462 229.815 47.784 230.409C50.0033 232.355 50.3099 233.662 48.7038 234.331C46.2946 235.335 44.2987 231.485 44.2192 231.136C43.371 231.301 41.7356 231.583 39.3131 231.982C35.8601 232.602 32.5121 233.83 29.4256 235.401C28.3527 235.947 28.0537 234.886 29.1906 234.147C32.5147 231.985 36.3922 230.762 40.3929 229.735L40.5894 229.685C42.0572 229.311 43.5223 228.921 44.9844 228.517C44.8236 227.976 44.7308 227.415 44.7493 226.795C44.7905 225.416 44.9216 224.032 45.0003 222.654C45.1655 219.762 45.3762 216.879 45.6233 213.992C45.7181 212.879 45.8244 211.764 45.9461 210.65C45.1621 210.259 44.4859 209.74 43.6118 209.484L43.4642 209.444C42.5293 209.21 42.8449 208.089 43.6753 207.993C44.4275 207.907 45.1761 207.946 45.9177 208.095C46.0326 208.118 46.1413 208.144 46.245 208.173C46.3812 207.141 46.5324 206.111 46.7041 205.088C47.1582 202.383 47.4795 199.533 48.4248 196.934C48.4949 196.742 48.8021 196.673 48.916 196.875C50.2912 199.308 50.3391 202.294 50.494 205.005L50.5133 205.328C50.6959 208.285 50.7063 211.271 50.6474 214.232C50.587 217.284 50.4747 220.327 50.3275 223.376C50.2683 224.604 50.2707 225.877 50.0458 227.051C58.2296 224.576 66.2687 221.614 73.9744 218.106C79.41 215.632 84.7987 213.058 90.1259 210.388C92.7951 209.05 95.4769 207.734 98.1432 206.392C99.0774 205.921 100.011 205.449 100.944 204.976L102.343 204.266C103.653 203.601 104.746 202.94 106.271 202.893C106.726 202.879 107.134 203.077 107.423 203.377C108.243 202.836 109.191 202.504 110.185 202.512C111.682 200.589 113.201 198.681 114.781 196.815L115.949 195.434C117.969 193.05 120.109 190.63 122.685 188.816C123.835 188.007 125.1 187.399 126.419 186.898C126.109 186.827 125.805 186.685 125.534 186.452C124.274 185.365 124.101 183.346 123.845 181.83C123.579 180.257 123.682 178.85 123.944 177.282C124.046 176.673 125.131 176.546 125.395 177.106C125.953 178.286 126.544 179.416 127.052 180.609L127.201 180.969C127.746 182.312 128.907 183.725 128.83 185.182C128.809 185.581 128.665 185.929 128.443 186.208C129.55 185.866 130.673 185.561 131.779 185.243C135.26 184.243 138.753 183.271 142.301 182.494C143.245 182.288 144.194 182.096 145.147 181.92C145.646 179.715 146.373 177.551 147.231 175.426C146.419 175.039 145.893 174.39 145.194 173.813C144.539 173.272 144.09 172.614 143.531 171.993C143.023 171.429 143.308 170.409 144.222 170.442L144.481 170.452C145.427 170.493 146.344 170.584 147.202 170.995L147.508 171.141C147.927 171.344 148.386 171.576 148.795 171.85C149.329 170.706 149.885 169.573 150.447 168.451L151.176 167.001C153.065 163.226 154.95 159.308 157.322 155.793C158.377 154.231 159.781 153.255 161.795 153.104C163.87 152.948 166.027 153.149 168.104 153.218C170.513 153.298 172.92 153.393 175.326 153.511C174.71 152.91 174.147 152.241 173.527 151.664C172.499 150.708 171.413 149.801 170.271 148.963C168.011 147.305 165.526 145.939 162.946 144.762C160.364 143.585 157.707 142.559 155.284 141.105C153.75 140.185 152.38 139.027 151.129 137.775C150.342 145.675 146.242 153.014 140.081 158.529C133.683 164.256 124.841 167.402 116.191 168.74C107.369 170.106 98.1607 169.605 89.7207 166.752C85.3691 165.28 81.1954 163.179 77.4732 160.543C77.4323 160.772 77.3831 160.999 77.2864 161.212C77.1567 161.498 76.998 161.742 76.816 161.993L76.4916 162.435C76.2869 162.712 76.0783 162.987 75.846 163.245C75.2835 163.868 74.4864 164.141 73.6278 164.138C71.9839 164.133 70.739 162.633 71.1814 161.15C71.4594 160.218 72.0543 159.657 72.9829 159.293C73.2764 159.177 73.5756 159.081 73.8764 158.985L74.1023 158.914C74.4064 158.817 74.7081 158.725 75.0211 158.671C73.2586 157.224 71.6233 155.651 70.159 153.952C65.566 148.626 61.0358 141.167 62.5714 134.094C62.5979 133.972 62.7154 133.896 62.8421 133.877C62.9312 133.38 63.2152 132.9 63.6042 132.577C63.3424 132.513 63.0784 132.464 62.8131 132.43ZM110.506 254.724C111.416 254.253 112.356 255.372 111.616 256.062L110.513 257.089C109.488 258.047 108.491 259.015 107.615 260.106L107.402 260.373C106.219 261.871 104.957 263.607 103.018 264.166C100.672 264.843 98.4178 262.185 99.7761 260.244C100.963 258.547 103.248 257.907 105.217 257.205C107.081 256.541 108.764 255.625 110.506 254.724ZM34.8385 246.893C35.3729 246.242 36.7664 246.585 36.4014 247.506C35.2156 250.497 34.7322 254.575 31.7373 256.563C30.7711 257.203 29.2533 256.909 28.4578 256.169C27.5539 255.328 27.5177 254.144 28.0347 253.118C28.6652 251.866 30.2159 250.959 31.3029 250.006L31.4004 249.919C32.5698 248.862 33.8346 248.116 34.8385 246.893ZM160.01 250.336C160.964 249.953 163.45 249.209 164.187 250.09C164.221 250.122 164.25 250.157 164.274 250.196C164.455 250.488 164.482 250.9 164.274 251.19C163.416 252.39 162.521 253.286 161.301 254.141L161.164 254.235C159.835 255.144 158.587 256.212 156.967 256.622C154.723 257.19 153.156 254.576 154.732 253.049C156.002 251.82 157.94 251.181 159.623 250.495L160.01 250.336ZM69.8851 233.246C69.5097 232.615 70.2768 231.84 70.9714 232.235C72.953 233.362 75.2613 234.207 77.4871 234.815C78.3878 235.06 79.2005 235.91 79.1336 236.826L79.1231 236.965C79.0966 237.289 79.0486 237.61 78.8274 237.88C78.0522 238.823 76.9433 239.186 75.759 238.628C73.1198 237.384 71.3133 235.647 69.8851 233.246ZM127.802 231.334C127.754 231.069 127.963 230.864 128.253 230.915C129.928 231.21 131.474 231.963 132.912 232.828C133.684 233.292 134.428 233.801 135.197 234.27C136.148 234.848 136.503 235.326 136.644 236.388C136.737 237.088 136.033 237.728 135.389 237.922C133.631 238.449 131.617 236.719 130.426 235.595L130.373 235.544C129.126 234.362 128.098 232.964 127.802 231.334ZM178.099 229.498C177.718 228.539 179.033 227.744 179.894 228.215C180.704 228.658 181.583 229.026 182.347 229.534C183.049 230.001 183.689 230.555 184.363 231.061L184.696 231.306C185.931 232.23 187.969 234.514 186.203 235.839C184.523 237.101 182.294 235.49 181.166 234.312L181.087 234.229C180.438 233.531 179.638 232.774 179.167 231.959C178.724 231.192 178.423 230.312 178.099 229.498ZM161.525 155.261C159.42 155.641 158.562 158.058 157.675 159.634C155.583 163.353 153.659 167.139 151.727 170.931C151.132 172.097 150.553 173.272 149.968 174.445C149.933 174.537 149.887 174.628 149.833 174.717C148.635 177.115 147.402 179.498 145.961 181.774C147.28 181.544 148.606 181.348 149.937 181.194C149.87 180.029 150.727 178.469 151.152 177.487L151.187 177.405C151.716 176.147 152.271 174.166 153.633 173.513C154.087 173.296 154.573 173.568 154.608 174.033C154.711 175.418 153.255 177.002 152.544 178.176C152.114 178.887 151.695 179.601 151.286 180.323C151.133 180.593 151.005 180.858 150.848 181.096C151.534 181.027 152.221 180.966 152.91 180.921L153.359 180.892C155.913 180.735 158.626 180.691 160.934 181.862C163.075 182.949 164.169 185.269 162.993 187.382C161.527 190.014 158.301 190.363 155.463 190.576C151.919 190.842 148.367 191.322 144.847 191.79C141.207 192.275 137.78 193.523 134.194 194.165C133.86 194.224 133.653 193.819 133.958 193.645C136.787 192.044 140.226 191.162 143.388 190.264L143.644 190.191C145.359 189.701 147.036 189.141 148.81 188.863C150.533 188.593 152.266 188.375 154.003 188.208L154.172 188.194C156.085 188.045 160.965 188.096 160.759 185.461C160.622 183.717 157.575 183.416 156.184 183.395C149.807 183.3 143.385 184.875 137.324 186.562L135.971 186.939C133.49 187.634 131.004 188.349 128.569 189.163C125.81 190.085 123.636 191.524 121.626 193.493C119.398 195.677 117.24 197.909 114.928 200.019C113.471 201.349 111.995 202.655 110.507 203.951C110.171 204.356 109.902 204.796 109.715 205.368C109.401 206.333 109.473 207.23 109.592 208.222C109.891 210.725 109.958 213.255 110.333 215.751C110.681 218.064 111.168 220.461 112.2 222.606C112.609 223.455 113.141 224.29 113.746 225.036L114.235 225.627C114.448 225.884 114.687 226.165 114.937 226.429C115.304 226.012 115.836 225.741 116.454 225.809C117.767 225.953 118.799 225.918 120.087 225.638C121.084 225.421 122.073 225.166 123.065 224.931C125.014 224.469 126.981 224.048 128.91 223.517L129.242 223.424C130.679 223.013 132.117 222.5 133.314 221.636C134.704 220.633 135.131 219.185 136.161 217.934C138.36 215.261 143.111 215.317 146.328 214.585C149.062 213.963 151.692 212.982 153.584 211.136L153.695 211.027C153.611 210.697 153.747 210.326 154.076 210.155L154.147 210.118C154.276 210.051 154.414 210.024 154.549 210.026C154.725 209.786 154.894 209.539 155.048 209.275C155.175 209.057 155.491 209.217 155.45 209.432C155.425 209.56 155.391 209.685 155.358 209.811C157.191 209.372 159.204 209.456 161.064 209.457L163.479 209.449C163.897 209.444 164.52 209.425 164.575 209.402L164.632 209.378C164.782 209.317 164.569 209.418 164.674 209.288C164.79 209.145 164.903 209 165.015 208.854C165.416 208.333 165.794 207.796 166.165 207.254C162.122 208.213 157.933 208.809 153.804 209.306C149.374 209.84 144.886 210.211 140.417 210.214C139.185 210.216 139.197 208.485 140.417 208.442C145.15 208.274 149.857 208.041 154.558 207.477C156.989 207.185 159.409 206.818 161.816 206.39C162.746 206.225 163.673 206.049 164.597 205.864L165.291 205.723C165.726 205.634 166.954 205.505 167.554 205.131C167.671 204.942 167.789 204.755 167.906 204.567C167.849 203.906 166.043 203.994 165.62 203.993C164.42 203.991 163.22 204 162.02 204.003C159.62 204.01 157.22 203.99 154.82 203.972C150.025 203.936 145.211 203.78 140.419 203.971C139.256 204.017 138.645 202.282 139.795 201.825C144.87 199.809 150.504 199.371 155.923 198.751C158.773 198.426 161.624 198.05 164.41 197.39L165.099 197.227C166.849 196.81 168.782 196.301 170.255 195.306C168.04 194.473 165.287 194.568 162.991 194.45L162.815 194.441C159.6 194.257 156.379 194.163 153.158 194.158C146.568 194.15 139.975 194.367 133.391 194.658C133.226 194.665 133.192 194.422 133.353 194.39C140.119 193.016 146.996 192.355 153.921 192.253C157.146 192.205 160.372 192.248 163.595 192.38L164.777 192.431C167.524 192.541 170.573 192.571 172.871 194.115C173.222 194.35 173.407 194.65 173.436 194.968C176.518 189.251 179.366 183.415 182.224 177.617C184.446 173.11 186.586 168.564 188.889 164.091L189.635 162.644C190.634 160.713 191.656 158.782 192.792 156.922C188.545 156.394 184.274 156.027 180 155.746C176.106 155.49 163.399 154.923 161.525 155.261ZM159.644 217.219C160.128 216.969 160.87 217.173 160.99 217.729C161.079 218.143 161.23 218.602 161.23 219.025C161.23 219.532 161.035 220.083 160.931 220.579C160.692 221.72 160.398 222.647 159.775 223.663C159.385 224.299 158.597 224.731 157.805 224.714C157.178 224.7 156.623 224.544 156.193 224.093C155.677 223.552 155.324 222.756 155.606 222.028C156.347 220.12 157.708 218.22 159.644 217.219ZM56.9045 215.316C58.038 213.469 60.7247 211.819 63.0692 211.982C66.5897 212.227 67.3081 216.637 63.8996 217.69C61.8623 218.318 59.0594 217.673 57.2771 216.638C56.7967 216.359 56.6205 215.779 56.9045 215.316ZM20.7229 209.007C20.4655 208.658 20.891 208.261 21.2745 208.339C22.1253 208.513 23.0425 208.589 23.8758 208.825C24.7291 209.066 25.5551 209.467 26.4004 209.742C28.1711 210.319 30.0626 210.609 31.7763 211.306C32.4613 211.584 33.0002 212.507 32.9368 213.187L32.9207 213.346C32.8828 213.684 32.8199 213.979 32.6169 214.287C32.0715 215.116 30.991 215.544 29.9711 215.289C28.0792 214.816 26.2305 213.602 24.6173 212.592L24.3192 212.408C23.6144 211.976 22.8566 211.525 22.2887 210.969C21.6959 210.388 21.2086 209.664 20.7229 209.007ZM85.7589 202.29C85.5411 201.56 86.5169 201.078 87.0857 201.571C88.2223 202.556 89.4107 203.469 90.5238 204.479L90.5986 204.548C91.3957 205.293 92.5554 206.73 91.5187 207.694C90.1903 208.93 88.3406 207.096 87.6279 206.14C86.724 204.928 86.1818 203.707 85.7589 202.29ZM172.736 196.257C171.05 197.918 168.452 198.682 166.165 199.315C163.453 200.065 160.659 200.513 157.862 200.881C155.159 201.237 152.477 201.555 149.817 201.964C151.829 201.987 153.841 202.001 155.848 202.034C158.163 202.073 160.477 202.12 162.792 202.182C164.477 202.228 166.455 202.013 168.057 202.596C168.345 202.7 168.615 202.846 168.85 203.023C170.197 200.795 171.488 198.537 172.736 196.257ZM68.7348 180.72C70.4946 180.2 72.1494 179.51 74.0151 179.689C74.5109 179.736 74.8661 180.185 74.5954 180.629C73.7112 182.076 72.2736 182.893 70.8583 183.862L70.7335 183.947C69.1845 185.019 67.5213 185.996 65.8368 186.876C62.9365 188.39 60.3373 184.056 63.2663 182.785C65.0288 182.019 66.8801 181.268 68.7348 180.72ZM100.419 176.957C103.112 177.122 105.802 177.234 108.498 177.336C111.621 177.453 110.571 181.923 107.963 181.019C105.386 180.125 102.808 179.242 100.208 178.408C99.4166 178.155 99.4803 176.945 100.369 176.956L100.419 176.957ZM31.363 169.005C32.0608 168.959 32.7646 169.101 33.4634 169.164L34.207 169.231C35.7399 169.373 37.1771 169.548 38.639 170.128C41.3363 171.199 39.8876 175.233 37.1798 175.141C35.1784 175.072 33.467 174.272 31.777 173.342C30.2996 172.528 29.3939 171.51 28.3962 170.232C28.0658 169.809 28.5262 169.334 28.9762 169.292C29.7689 169.217 30.5701 169.056 31.363 169.005ZM166.574 160.767C166.128 163.358 165.02 165.786 163.35 167.901C162.511 168.963 161.038 169.003 160.207 167.901C159.031 166.341 159.756 164.553 160.642 163.055L160.904 162.616C161.301 161.959 161.91 160.999 162.607 160.336L162.618 160.269C162.991 157.556 167.034 158.097 166.574 160.767ZM57.6755 144.138C58.3467 143.576 59.5828 143.744 59.8006 144.66C60.1055 145.942 60.291 147.386 60.0914 148.687C59.9833 149.392 59.9426 150.184 59.6445 150.841C59.3241 151.548 58.7076 152.092 58.1268 152.623C56.9673 153.684 54.5229 153.333 54.2123 151.662L54.1729 151.457C54.0167 150.666 53.8168 149.82 54.0482 149.037C54.2228 148.445 54.613 147.842 54.9359 147.293L55.0039 147.177C55.6506 146.056 56.6587 144.989 57.6755 144.138ZM152.023 146.865L152.266 146.868C154.14 146.902 157.565 147.326 157.583 149.48C157.587 149.988 157.183 150.514 156.641 150.63C155.522 150.872 154.798 150.256 154 149.634C153.347 149.126 152.586 148.72 151.796 148.427C150.942 148.112 150.998 146.864 152.023 146.865Z" fill="black"/>
<path fill-rule="evenodd" clip-rule="evenodd" d="M149.143 43.8175C148.139 38.155 151.434 36.9801 149.143 31.5975C144.051 21.6239 130.175 22.0536 119.993 21.2868C108.636 20.881 97.1418 22.2788 86.6721 26.5224C84.1712 27.5359 81.7659 28.7279 79.4601 30.0822C77.4663 31.2533 77.7403 33.4801 78.9975 34.6948C69.9321 46.663 75.1171 62.7278 67.8837 75.3258C66.5475 77.5777 64.7802 79.597 63.6187 81.9401C61.8532 85.5017 61.7401 90.6051 65.7438 92.9704C71.3827 95.7921 74.5294 90.2054 77.3001 98.304C91.1375 126.542 118.959 128.133 145.37 113.41C147.655 112.225 149.987 110.886 151.712 109.024C155.629 104.915 155.168 99.1366 155.254 94.0052C155.303 90.9981 155.311 87.9904 155.279 84.9828C155.156 72.7998 150.825 55.9 149.143 43.8175Z" fill="#EDB98A"/>
<path fill-rule="evenodd" clip-rule="evenodd" d="M92.8892 9.94963C108.836 3.20581 126.923 0.6484 144.318 2.32587C152.903 3.15253 161.376 4.92608 169.439 7.80703L170.146 8.06167C172.137 8.77589 174.282 9.48482 175.795 10.9387C177.555 12.6282 178.049 15.1832 176.791 17.2704C175.813 18.8921 174.055 20.0554 172.181 20.6762C172.841 21.1804 173.468 21.7428 174.055 22.3707C175.046 23.4227 175.121 24.923 174.055 25.9607C172.001 27.9606 169.336 29.4076 166.466 30.1011C166.788 31.5531 166.614 33.1603 165.922 34.6075C163.937 38.7616 158.347 39.2567 154.045 39.01L153.915 39.0023L153.675 41.5549C153.548 42.9148 152.674 43.9693 151.192 44.1778C151.14 44.185 151.088 44.1899 151.036 44.1945C153.382 52.1021 154.799 60.2541 156.107 68.3581C156.79 72.5883 157.402 76.8284 157.987 81.0713L158.182 82.4856C158.806 87.0599 159.586 91.6802 159.856 96.2884C160.098 100.47 159.242 104.462 156.478 107.837C153.998 110.862 150.615 113.129 146.978 114.811C138.758 118.614 130.108 121.446 121.018 122.759L120.412 122.846C116.903 123.346 113.288 123.767 109.816 122.861C106.767 122.066 103.568 120.015 104.257 116.721C104.489 115.608 106.158 115.56 106.73 116.42L106.862 116.618C107.548 117.632 108.3 118.575 109.497 119.099C110.898 119.715 112.523 119.887 114.055 119.904C118.332 119.95 122.786 118.956 126.904 117.96C134.596 116.098 142.495 113.063 148.795 108.465C151.476 106.511 153.629 104.067 154.388 100.923C155.327 97.0471 154.463 92.8098 154.037 88.9143C153.159 80.8762 152.115 72.853 151.013 64.8387L150.792 63.236C149.864 56.5358 148.889 49.8332 148.426 43.0942C148.233 42.8494 148.103 42.5706 148.051 42.2652L147.979 41.8264C147.916 41.4507 147.906 41.1064 147.95 40.7889C147.953 39.572 147.989 38.3624 148.064 37.1452C148.077 36.9273 148.088 36.7091 148.096 36.4934C146.738 36.7722 145.371 36.9976 143.998 37.1891C134.346 38.5442 124.544 38.8836 114.814 38.2097C109.959 37.8725 105.142 37.2934 100.339 36.5686C97.8945 36.2001 95.4584 35.7928 93.0299 35.3371C91.2748 35.0099 89.5561 34.5663 87.8296 34.1493C86.0485 36.5661 85.0865 39.5405 85.2737 42.4615C85.4843 45.7946 87.866 48.8175 87.1978 52.2233C86.5706 55.4108 83.6415 56.3991 80.7496 57.1885L79.5197 57.5198C78.5735 57.7773 77.8864 58.0258 77.7151 59.0859C77.4213 60.9064 77.7827 62.9548 77.8581 64.785C77.9491 66.9497 78.0685 69.1144 78.1233 71.2791C78.1519 72.399 78.1985 73.5238 78.1961 74.6437C78.1935 75.4388 78.0661 75.9818 77.7359 76.4955C77.9907 76.7939 78.2193 77.1163 78.4223 77.4581C78.4873 77.5696 78.3261 77.6881 78.2302 77.5963C77.9725 77.3466 77.6992 77.1211 77.4109 76.9197C77.2653 77.0872 77.0963 77.2569 76.8984 77.4387L76.8831 77.4193C76.2642 77.9938 75.2814 78.0496 74.5141 77.4387L74.3127 77.2761C73.7511 76.8171 73.3653 76.4349 73.2091 75.6764C73.2013 75.6376 73.1932 75.5988 73.1883 75.56C71.7608 75.514 70.3099 75.8289 69.0254 76.4909C66.9895 77.5405 65.5569 79.0362 64.7095 80.8833C65.0472 81.2518 65.4425 81.5815 65.9027 81.8578C65.9677 81.899 65.9105 81.9887 65.8403 81.9572C65.3697 81.7512 64.9484 81.4966 64.5714 81.1985C64.2672 81.9257 64.054 82.7062 63.924 83.5329C63.4664 86.4515 64.2828 90.0173 67.1117 91.6802C68.3364 92.4002 69.7353 92.7904 71.1862 92.7953C71.8931 92.7975 72.5044 92.6862 73.1909 92.5286C73.6563 92.422 74.1191 92.2668 74.6053 92.2668C75.0214 92.2668 75.4062 92.3638 75.7624 92.5577L75.6636 92.5658C75.4235 92.5868 75.4697 92.5963 75.804 92.5963C76.8441 92.6377 77.4392 93.6219 76.9611 94.4776L76.8983 94.6098C76.8851 94.6365 76.8739 94.6586 76.8651 94.6761L76.8273 94.9031C76.8236 94.9247 76.8196 94.9469 76.8154 94.9697L76.801 95.0157C76.7984 95.023 76.7955 95.0303 76.792 95.0376L78.3519 97.2552C80.2643 99.9681 82.2195 102.671 84.4443 105.148C86.0043 106.887 87.658 108.591 89.4053 110.169C90.9758 111.587 92.8583 112.27 94.6368 113.386C95.5861 113.977 95.864 115.216 95.0011 116.013C92.4683 118.357 88.8827 116.496 86.8052 114.59C84.8395 112.784 83.1416 110.612 81.6777 108.438C79.0802 104.572 77.0131 100.46 76.1082 95.9975C75.7312 96.3199 75.2502 96.5211 74.7639 96.6787C73.7889 96.9938 72.715 97.1247 71.6854 97.1587C69.7119 97.2193 67.7358 96.7732 65.9599 95.983C58.7341 92.7711 57.6732 83.1523 62.0909 77.4799C61.4952 75.8694 61.1625 74.122 60.8011 72.6319L60.6366 71.9658C58.8101 64.5256 57.5833 56.6922 60.822 49.4017C61.238 48.4611 61.7061 47.5448 62.2599 46.6673C62.7045 45.9619 63.469 45.2104 63.6796 44.4081C64.1476 42.6457 61.2588 40.7937 60.4164 39.395C59.4257 37.7539 59.2853 35.8171 60.6348 34.3163C60.8064 34.1275 60.9934 33.9527 61.1964 33.8002C59.9172 31.638 59.8574 28.9181 61.5423 26.7849C62.6499 25.379 64.34 24.3948 66.1861 24.0966C67.3146 23.9148 68.6718 23.9827 69.9121 24.3075C76.7034 18.4291 84.4521 13.5179 92.8892 9.94963ZM66.81 83.5038C68.6226 82.013 70.6247 81.2324 73.0948 81.4288C75.5779 81.6273 78.5681 82.5851 80.0265 84.5704C81.1786 86.1388 78.8307 88.4392 77.1406 87.2611C75.6013 86.1873 74.574 84.9752 72.6632 84.3983C70.9468 83.8819 68.8225 83.5498 67.0258 83.8456C66.8282 83.8771 66.6308 83.6492 66.81 83.5038Z" fill="black"/>
<path fill-rule="evenodd" clip-rule="evenodd" d="M123.229 94.498C124.687 92.2674 127.794 97.7317 128.124 98.6713C128.416 99.5037 128.609 100.356 128.707 101.219C129.837 101.454 131.011 101.455 132.169 101.248C133.89 100.941 134.942 100.08 136.437 99.3414C137.47 98.8307 138.772 99.4296 139.31 100.277C139.942 101.273 139.539 102.308 138.708 103.051C137.132 104.461 134.031 104.784 131.973 104.41C130.794 104.196 129.714 103.785 128.76 103.187C128.754 103.298 128.749 103.41 128.74 103.521L128.722 103.715C128.564 105.278 128.102 107.243 126.797 108.26C124.657 109.928 122.015 106.72 124.095 105.053L124.159 105.003C125.452 104.032 125.734 101.425 125.664 99.9886C125.619 99.0514 125.435 98.1021 125.117 97.2095L125.052 97.0317C124.956 96.7796 123.912 94.3876 123.535 94.6923L123.517 94.7094C123.361 94.8822 123.11 94.6809 123.229 94.498ZM134.867 81.9109C136.835 83.0236 139.833 85.6181 137.716 88.3766C135.225 90.8088 131.637 88.0201 129.87 86.7589C128.23 85.7814 126.389 88.2953 127.909 89.4367C140.683 98.235 145.867 82.2019 135.862 80.6027C134.761 80.4265 134.352 81.5667 134.867 81.9109ZM113.856 71.6263C115.779 71.309 117.749 71.7538 119.341 72.8005L119.461 72.8812C120.994 73.9243 122.709 75.7558 121.83 77.5537C121.477 78.2756 120.419 78.3888 119.748 78.0615C118.631 77.5166 118.429 76.1758 117.432 75.4338C116.615 74.8256 115.514 74.4567 114.461 74.5456C111.988 74.7546 110.467 77.0238 109.699 78.9793C109.601 79.2294 109.206 79.3267 109.052 79.0581C107.241 75.9087 110.447 72.1892 113.856 71.6263ZM144.658 70.4378C148.341 70.1554 152.653 73.7081 151.683 77.3253C151.218 79.061 148.451 79.0113 147.959 77.3253C147.688 76.3976 147.715 75.5768 146.997 74.8065C146.405 74.1704 145.563 73.8009 144.658 73.8577C143.66 73.9202 142.74 74.3839 142.041 75.0358C141.41 75.6243 141.032 76.4856 140.378 77.0066C140.217 77.1345 140.002 77.1428 139.843 77.0066C138.717 76.041 139.393 74.031 140.107 73.0231C141.128 71.5807 142.791 70.581 144.658 70.4378ZM106.842 65.2109C109.205 63.2648 113.499 61.3854 116.685 62.3432C118.517 62.8937 119.316 65.64 117.271 66.5104C114.902 67.5184 112.172 67.1082 109.761 68.153C108.749 68.592 107.797 69.1406 107.092 69.9451C106.537 70.5793 105.972 71.4137 105.169 71.7792C104.958 71.8754 104.672 71.8779 104.503 71.6995C102.743 69.847 105.305 66.4765 106.842 65.2109ZM140.596 62.2466C142.057 61.8653 143.677 61.873 145.161 62.1125C146.644 62.352 148.149 62.9239 149.36 63.758L149.501 63.8557C150.823 64.7824 152.4 66.1307 152.316 67.7723C152.245 69.1431 150.695 70.0703 149.357 69.3518C148.266 68.7659 147.752 67.5922 146.829 66.8107C146.066 66.1656 145.171 65.657 144.216 65.3007C143.155 64.9049 142.092 64.7194 140.953 64.7017C140.077 64.6881 139.195 64.9558 138.334 65.0413C138.405 65.1766 137.725 65.1136 137.335 64.9936C137.047 64.8792 137.045 64.5395 137.145 64.3192C137.641 63.2276 139.447 62.5462 140.596 62.2466Z" fill="black"/>
</svg>
